<?xml version="1.0" encoding="UTF-8"?>
<!DOCTYPE svg PUBLIC "-//W3C//DTD SVG 1.1//EN" "http://www.w3.org/Graphics/SVG/1.1/DTD/svg11.dtd">
<svg xmlns="http://www.w3.org/2000/svg" xml:space="preserve" width="230px" height="125px" version="1.1" style="shape-rendering:geometricPrecision; text-rendering:geometricPrecision; image-rendering:optimizeQuality; fill-rule:evenodd; clip-rule:evenodd"
viewBox="0 0 2252.8 1226.66"
 xmlns:xlink="http://www.w3.org/1999/xlink">
 <defs>
  <style type="text/css">
   <![CDATA[
    .str0 {stroke:#2B2A29;stroke-width:7.44;stroke-miterlimit:22.9256}
    .str2 {stroke:#2E72A9;stroke-width:2.83;stroke-miterlimit:22.9256}
    .str1 {stroke:#2B2A29;stroke-width:7.44;stroke-miterlimit:22.9256;stroke-dasharray:14.871354 22.307032}
    .fil0 {fill:none}
    .fil1 {fill:none;fill-rule:nonzero}
    .fil2 {fill:#2E72A9}
    .fil3 {fill:#2E72A9;fill-rule:nonzero}
   ]]>
  </style>
 </defs>
 <g id="Layer_x0020_1">
  <rect class="fil0 str0" x="3.72" y="3.72" width="2245.36" height="1219.22"/>
  <rect class="fil0 str1" x="542.4" y="240.14" width="1706.68" height="746.37"/>
  <g id="_2041827989824">
   <g>
    <line class="fil1 str2" x1="1789.63" y1="616.72" x2="2249.08" y2= "616.72" />
    <polygon id="1" class="fil2" points="2110.29,653.91 2249.08,616.72 2110.29,579.53 "/>
   </g>
   <g>
    <line class="fil1 str2" x1="542.4" y1="616.72" x2="1005.63" y2= "616.72" />
    <polygon id="1" class="fil2" points="681.19,653.91 542.4,616.72 681.19,579.53 "/>
   </g>
  </g>
  <path class="fil3" d="M1064.62 668.57l-24.68 -81.68 14.48 0 13.04 47.14 4.62 17.55c0.18,-0.87 1.6,-6.48 4.22,-16.84l12.93 -47.84 14.19 0 12.3 47.43 4.02 15.55 4.7 -15.76 14.11 -47.22 13.46 0 -25.63 81.68 -14.32 0 -12.96 -48.87 -3.28 -13.98 -16.53 62.85 -14.66 0z"/>
  <path id="1" class="fil3" d="M1158.53 668.57l0 -15.74 15.74 0 0 15.74c0,5.8 -1.02,10.49 -3.1,14.06 -2.04,3.57 -5.32,6.35 -9.81,8.29l-3.78 -5.98c2.94,-1.29 5.09,-3.18 6.45,-5.64 1.39,-2.49 2.18,-6.06 2.33,-10.73l-7.84 0z"/>
  <path id="2" class="fil3" d="M1242.37 668.57l0 -112.69 13.85 0 0 40.55c6.43,-7.53 14.53,-11.28 24.34,-11.28 6,0 11.23,1.18 15.69,3.57 4.43,2.39 7.61,5.67 9.52,9.86 1.91,4.2 2.86,10.31 2.86,18.28l0 51.7 -13.85 0 0 -51.65c0,-6.9 -1.49,-11.94 -4.46,-15.08 -2.99,-3.15 -7.19,-4.72 -12.64,-4.72 -4.07,0 -7.9,1.05 -11.49,3.18 -3.59,2.12 -6.14,5.01 -7.68,8.66 -1.52,3.62 -2.28,8.63 -2.28,15.03l0 44.59 -13.85 0z"/>
  <path id="3" class="fil3" d="M1333.68 602.62l0 -15.74 15.74 0 0 15.74 -15.74 0zm0 65.95l0 -15.74 15.74 0 0 15.74 -15.74 0z"/>
  <path id="4" class="fil3" d="M1434.91 607.48c-5.74,-2.1 -9.99,-5.12 -12.77,-9 -2.75,-3.91 -4.15,-8.58 -4.15,-14.01 0,-8.21 2.94,-15.08 8.81,-20.67 5.9,-5.58 13.72,-8.39 23.5,-8.39 9.81,0 17.73,2.86 23.71,8.58 5.98,5.72 8.97,12.67 8.97,20.88 0,5.22 -1.36,9.79 -4.09,13.64 -2.73,3.88 -6.87,6.87 -12.46,8.97 6.9,2.26 12.12,5.87 15.71,10.91 3.6,5.01 5.4,10.99 5.4,17.97 0,9.63 -3.41,17.7 -10.2,24.26 -6.82,6.56 -15.76,9.84 -26.86,9.84 -11.09,0 -20.04,-3.28 -26.86,-9.86 -6.79,-6.58 -10.2,-14.79 -10.2,-24.63 0,-7.32 1.86,-13.45 5.58,-18.39 3.73,-4.96 9.03,-8.31 15.9,-10.1zm-2.75 -23.5c0,5.35 1.71,9.71 5.09,13.09 3.41,3.38 7.87,5.09 13.4,5.09 5.38,0 9.73,-1.68 13.12,-5.03 3.38,-3.36 5.06,-7.48 5.06,-12.35 0,-5.09 -1.73,-9.37 -5.22,-12.83 -3.47,-3.47 -7.84,-5.19 -13.12,-5.19 -5.32,0 -9.7,1.7 -13.17,5.09 -3.44,3.38 -5.17,7.42 -5.17,12.15zm-4.56 52.09c0,3.96 0.92,7.77 2.75,11.46 1.84,3.67 4.62,6.53 8.34,8.55 3.7,2.02 7.68,3.04 11.91,3.04 6.66,0 12.12,-2.12 16.4,-6.37 4.28,-4.25 6.4,-9.66 6.4,-16.21 0,-6.66 -2.2,-12.17 -6.58,-16.53 -4.41,-4.35 -9.97,-6.53 -16.66,-6.53 -6.56,0 -11.93,2.15 -16.18,6.45 -4.25,4.3 -6.37,9.68 -6.37,16.13z"/>
  <path id="5" class="fil3" d="M1501.11 612.96c0,-13.3 1.36,-24.05 4.09,-32.19 2.75,-8.16 6.82,-14.43 12.22,-18.81 5.38,-4.38 12.17,-6.55 20.36,-6.55 6.03,0 11.33,1.2 15.92,3.64 4.57,2.44 8.34,5.96 11.28,10.55 2.94,4.56 5.25,10.15 6.93,16.73 1.7,6.58 2.54,15.48 2.54,26.62 0,13.22 -1.36,23.92 -4.06,32.06 -2.7,8.16 -6.77,14.43 -12.17,18.83 -5.38,4.41 -12.2,6.61 -20.43,6.61 -10.83,0 -19.36,-3.86 -25.55,-11.6 -7.42,-9.44 -11.12,-24.73 -11.12,-45.9zm14.16 0.05c0,18.55 2.15,30.88 6.48,36.96 4.33,6.11 9.68,9.15 16.03,9.15 6.35,0 11.7,-3.07 16.02,-9.18 4.33,-6.14 6.48,-18.44 6.48,-36.94 0,-18.54 -2.15,-30.87 -6.48,-36.96 -4.3,-6.11 -9.7,-9.15 -16.18,-9.15 -6.35,0 -11.44,2.7 -15.24,8.08 -4.75,6.84 -7.11,19.54 -7.11,38.03z"/>
  <path id="6" class="fil3" d="M1630.51 582.93c0,-8.03 2.02,-14.88 6.09,-20.49 4.07,-5.64 9.94,-8.44 17.66,-8.44 7.08,0 12.96,2.52 17.6,7.55 4.64,5.03 6.98,12.46 6.98,22.22 0,9.52 -2.36,16.86 -7.06,22.01 -4.7,5.14 -10.5,7.71 -17.37,7.71 -6.85,0 -12.54,-2.54 -17.08,-7.61 -4.54,-5.06 -6.82,-12.72 -6.82,-22.95zm24.13 -19.33c-3.44,0 -6.29,1.47 -8.58,4.43 -2.28,2.97 -3.44,8.39 -3.44,16.29 0,7.19 1.15,12.25 3.46,15.16 2.31,2.94 5.17,4.41 8.55,4.41 3.49,0 6.38,-1.47 8.66,-4.43 2.28,-2.97 3.41,-8.37 3.41,-16.21 0,-7.24 -1.16,-12.33 -3.46,-15.24 -2.31,-2.94 -5.17,-4.41 -8.61,-4.41zm0.08 109.07l61.46 -118.67 11.28 0 -61.3 118.67 -11.44 0zm48.5 -30.56c0,-8.08 2.02,-14.93 6.09,-20.54 4.04,-5.59 9.94,-8.39 17.68,-8.39 7.08,0 12.96,2.52 17.6,7.55 4.64,5.03 6.95,12.46 6.95,22.22 0,9.52 -2.33,16.86 -7.03,22.01 -4.7,5.14 -10.52,7.71 -17.44,7.71 -6.82,0 -12.49,-2.55 -17.02,-7.63 -4.54,-5.09 -6.82,-12.75 -6.82,-22.93zm24.16 -19.33c-3.49,0 -6.35,1.47 -8.63,4.43 -2.28,2.97 -3.41,8.39 -3.41,16.29 0,7.13 1.15,12.17 3.46,15.14 2.28,2.96 5.12,4.43 8.5,4.43 3.54,0 6.43,-1.47 8.71,-4.43 2.28,-2.96 3.41,-8.37 3.41,-16.21 0,-7.24 -1.16,-12.33 -3.47,-15.24 -2.28,-2.94 -5.14,-4.41 -8.58,-4.41z"/>
  <g>
   <g>
    <line class="fil1 str2" x1="1390.13" y1="502.37" x2="1390.13" y2= "246.3" />
    <polygon id="1" class="fil2" points="1427.32,385.09 1390.13,246.3 1352.94,385.09 "/>
   </g>
   <g>
    <line class="fil1 str2" x1="1390.13" y1="985.29" x2="1390.13" y2= "737.22" />
    <polygon id="1" class="fil2" points="1427.32,846.5 1390.13,985.29 1352.94,846.5 "/>
   </g>
  </g>
  <g>
   <line class="fil0 str2" x1="542.4" y1="417.52" x2="542.4" y2= "510.47" />
   <line class="fil0 str2" x1="3.72" y1="417.52" x2="3.72" y2= "510.47" />
   <g>
    <line class="fil1 str2" x1="3.72" y1="417.52" x2="542.4" y2= "417.52" />
    <polygon id="1" class="fil2" points="142.51,454.71 3.72,417.52 142.51,380.33 "/>
    <polygon id="2" class="fil2" points="403.61,454.71 542.4,417.52 403.61,380.33 "/>
   </g>
  </g>
  <polygon class="fil3" points="105.61,553.01 105.61,459.1 117.15,459.1 117.15,553.01 "/>
  <path id="1" class="fil3" d="M181.44 530.97l11.94 1.58c-1.86,6.93 -5.34,12.33 -10.41,16.15 -5.07,3.83 -11.54,5.75 -19.43,5.75 -9.92,0 -17.79,-3.06 -23.61,-9.18 -5.81,-6.1 -8.72,-14.69 -8.72,-25.73 0,-11.41 2.93,-20.28 8.81,-26.58 5.88,-6.32 13.51,-9.47 22.89,-9.47 9.07,0 16.48,3.08 22.23,9.27 5.75,6.19 8.63,14.89 8.63,26.1 0,0.68 -0.02,1.71 -0.06,3.06l-50.69 0c0.44,7.45 2.54,13.18 6.34,17.14 3.78,3.96 8.53,5.94 14.19,5.94 4.22,0 7.83,-1.12 10.8,-3.34 2.99,-2.23 5.35,-5.8 7.1,-10.69zm-37.77 -18.49l37.9 0c-0.51,-5.73 -1.97,-10.01 -4.35,-12.87 -3.65,-4.44 -8.42,-6.67 -14.25,-6.67 -5.29,0 -9.73,1.77 -13.33,5.31 -3.59,3.54 -5.58,8.28 -5.97,14.23z"/>
  <path id="2" class="fil3" d="M210.71 553.01l0 -59.15 -10.23 0 0 -8.92 10.23 0 0 -7.21c0,-4.57 0.39,-7.96 1.2,-10.16 1.12,-2.97 3.04,-5.4 5.84,-7.26 2.78,-1.86 6.69,-2.78 11.72,-2.78 3.26,0 6.84,0.39 10.77,1.16l-1.73 10.1c-2.41,-0.41 -4.66,-0.63 -6.8,-0.63 -3.49,0 -5.97,0.74 -7.43,2.23 -1.44,1.49 -2.16,4.26 -2.16,8.33l0 6.23 13.25 0 0 8.92 -13.12 0 0 59.15 -11.54 0z"/>
  <path id="3" class="fil3" d="M269.44 542.72l1.58 10.19c-3.24,0.68 -6.15,1.03 -8.68,1.03 -4.18,0 -7.41,-0.65 -9.73,-1.99 -2.29,-1.33 -3.91,-3.06 -4.85,-5.22 -0.94,-2.16 -1.4,-6.71 -1.4,-13.64l0 -39.22 -8.53 0 0 -8.92 8.53 0 0 -16.83 11.54 -6.93 0 23.76 11.54 0 0 8.92 -11.54 0 0 39.87c0,3.3 0.2,5.42 0.61,6.36 0.39,0.94 1.05,1.68 1.97,2.25 0.92,0.55 2.23,0.83 3.93,0.83 1.27,0 2.95,-0.15 5.03,-0.46z"/>
  <path id="4" class="fil3" d="M283.98 498.06l0 -13.12 13.12 0 0 13.12 -13.12 0zm0 54.95l0 -13.12 13.12 0 0 13.12 -13.12 0z"/>
  <path id="5" class="fil3" d="M146.01 699.53l-11.54 0 0 -73.49c-2.78,2.67 -6.43,5.31 -10.93,7.96 -4.5,2.65 -8.57,4.64 -12.15,5.94l0 -11.15c6.45,-3.02 12.09,-6.69 16.92,-11.02 4.83,-4.31 8.26,-8.48 10.27,-12.55l7.43 0 0 94.3z"/>
  <path id="6" class="fil3" d="M175.67 653.19c0,-11.08 1.13,-20.04 3.41,-26.82 2.29,-6.8 5.68,-12.02 10.19,-15.67 4.48,-3.65 10.14,-5.47 16.96,-5.47 5.03,0 9.44,1 13.27,3.04 3.8,2.03 6.95,4.96 9.4,8.79 2.45,3.8 4.37,8.46 5.77,13.95 1.42,5.49 2.12,12.9 2.12,22.18 0,11.02 -1.14,19.94 -3.39,26.71 -2.25,6.8 -5.64,12.02 -10.14,15.7 -4.48,3.67 -10.16,5.51 -17.03,5.51 -9.03,0 -16.13,-3.21 -21.29,-9.66 -6.19,-7.87 -9.27,-20.62 -9.27,-38.26zm11.8 0.04c0,15.46 1.79,25.73 5.4,30.8 3.61,5.09 8.06,7.63 13.35,7.63 5.29,0 9.75,-2.56 13.36,-7.65 3.61,-5.12 5.4,-15.37 5.4,-30.78 0,-15.46 -1.79,-25.73 -5.4,-30.8 -3.59,-5.09 -8.09,-7.63 -13.49,-7.63 -5.29,0 -9.53,2.25 -12.7,6.73 -3.96,5.7 -5.92,16.28 -5.92,31.69z"/>
  <path id="7" class="fil3" d="M248.62 653.19c0,-11.08 1.13,-20.04 3.41,-26.82 2.29,-6.8 5.68,-12.02 10.19,-15.67 4.48,-3.65 10.14,-5.47 16.96,-5.47 5.03,0 9.44,1 13.27,3.04 3.8,2.03 6.95,4.96 9.4,8.79 2.45,3.8 4.37,8.46 5.77,13.95 1.42,5.49 2.12,12.9 2.12,22.18 0,11.02 -1.14,19.94 -3.39,26.71 -2.25,6.8 -5.64,12.02 -10.14,15.7 -4.48,3.67 -10.16,5.51 -17.03,5.51 -9.03,0 -16.13,-3.21 -21.29,-9.66 -6.19,-7.87 -9.27,-20.62 -9.27,-38.26zm11.8 0.04c0,15.46 1.79,25.73 5.4,30.8 3.61,5.09 8.06,7.63 13.35,7.63 5.29,0 9.75,-2.56 13.36,-7.65 3.61,-5.12 5.4,-15.37 5.4,-30.78 0,-15.46 -1.79,-25.73 -5.4,-30.8 -3.59,-5.09 -8.09,-7.63 -13.49,-7.63 -5.29,0 -9.53,2.25 -12.7,6.73 -3.96,5.7 -5.92,16.28 -5.92,31.69z"/>
  <path id="8" class="fil3" d="M356.44 628.16c0,-6.69 1.68,-12.39 5.07,-17.07 3.39,-4.7 8.28,-7.04 14.71,-7.04 5.9,0 10.8,2.1 14.67,6.3 3.87,4.2 5.81,10.38 5.81,18.51 0,7.93 -1.97,14.05 -5.88,18.34 -3.91,4.29 -8.74,6.43 -14.47,6.43 -5.7,0 -10.45,-2.12 -14.23,-6.34 -3.78,-4.22 -5.68,-10.6 -5.68,-19.13zm20.11 -16.11c-2.86,0 -5.25,1.22 -7.15,3.7 -1.9,2.47 -2.87,6.99 -2.87,13.57 0,5.99 0.96,10.21 2.89,12.63 1.93,2.45 4.31,3.67 7.13,3.67 2.91,0 5.31,-1.22 7.21,-3.69 1.9,-2.47 2.84,-6.97 2.84,-13.51 0,-6.03 -0.96,-10.27 -2.89,-12.7 -1.93,-2.45 -4.31,-3.67 -7.17,-3.67zm0.07 90.89l51.22 -98.89 9.4 0 -51.09 98.89 -9.53 0zm40.42 -25.46c0,-6.73 1.68,-12.44 5.07,-17.12 3.37,-4.65 8.28,-7 14.73,-7 5.9,0 10.8,2.1 14.67,6.3 3.87,4.2 5.79,10.38 5.79,18.51 0,7.93 -1.94,14.05 -5.86,18.34 -3.91,4.28 -8.76,6.42 -14.53,6.42 -5.68,0 -10.41,-2.12 -14.19,-6.36 -3.78,-4.24 -5.68,-10.62 -5.68,-19.1zm20.13 -16.11c-2.91,0 -5.29,1.23 -7.19,3.7 -1.9,2.47 -2.84,6.99 -2.84,13.57 0,5.94 0.96,10.14 2.89,12.61 1.9,2.47 4.26,3.69 7.08,3.69 2.95,0 5.36,-1.22 7.26,-3.69 1.9,-2.47 2.84,-6.97 2.84,-13.51 0,-6.03 -0.96,-10.27 -2.89,-12.7 -1.9,-2.45 -4.29,-3.67 -7.15,-3.67z"/>
  <polygon class="fil3" points="760.83,106.56 788.39,3.72 815.94,106.56 789.43,106.56 789.43,140.99 815.94,140.99 788.39,243.84 760.83,140.99 787.33,140.99 787.33,106.56 "/>
  <path class="fil3" d="M874.22 157.67l1.58 10.19c-3.24,0.68 -6.15,1.03 -8.68,1.03 -4.18,0 -7.41,-0.65 -9.73,-1.99 -2.29,-1.33 -3.91,-3.06 -4.85,-5.22 -0.94,-2.16 -1.4,-6.71 -1.4,-13.64l0 -39.22 -8.53 0 0 -8.92 8.53 0 0 -16.83 11.54 -6.93 0 23.76 11.54 0 0 8.92 -11.54 0 0 39.87c0,3.3 0.2,5.42 0.61,6.36 0.39,0.94 1.05,1.68 1.97,2.25 0.92,0.55 2.23,0.83 3.93,0.83 1.27,0 2.95,-0.15 5.03,-0.46z"/>
  <path id="1" class="fil3" d="M881.28 133.94c0,-12.57 3.5,-21.88 10.51,-27.94 5.84,-5.03 12.99,-7.54 21.4,-7.54 9.34,0 16.99,3.06 22.93,9.18 5.92,6.1 8.9,14.56 8.9,25.33 0,8.74 -1.31,15.61 -3.94,20.61 -2.62,5.01 -6.45,8.9 -11.47,11.67 -5.01,2.78 -10.49,4.15 -16.42,4.15 -9.53,0 -17.22,-3.04 -23.1,-9.14 -5.88,-6.1 -8.81,-14.89 -8.81,-26.34zm11.8 0.02c0,8.7 1.9,15.22 5.71,19.52 3.83,4.33 8.61,6.49 14.4,6.49 5.73,0 10.49,-2.16 14.32,-6.51 3.8,-4.35 5.71,-10.97 5.71,-19.87 0,-8.39 -1.93,-14.76 -5.75,-19.06 -3.83,-4.33 -8.59,-6.5 -14.28,-6.5 -5.79,0 -10.58,2.15 -14.4,6.45 -3.8,4.31 -5.71,10.8 -5.71,19.47z"/>
  <path id="2" class="fil3" d="M958.55 194.07l0 -94.17 10.49 0 0 8.94c2.47,-3.45 5.27,-6.06 8.39,-7.78 3.1,-1.73 6.89,-2.6 11.32,-2.6 5.81,0 10.93,1.49 15.37,4.48 4.44,2.97 7.78,7.19 10.06,12.61 2.25,5.44 3.39,11.39 3.39,17.88 0,6.93 -1.25,13.18 -3.74,18.76 -2.49,5.55 -6.12,9.82 -10.89,12.79 -4.74,2.95 -9.75,4.44 -15,4.44 -3.85,0 -7.3,-0.81 -10.34,-2.43 -3.06,-1.62 -5.55,-3.65 -7.52,-6.12l0 33.2 -11.54 0zm10.49 -59.72c0,8.72 1.77,15.17 5.29,19.35 3.54,4.18 7.83,6.27 12.85,6.27 5.12,0 9.49,-2.16 13.12,-6.49 3.65,-4.33 5.47,-11.02 5.47,-20.09 0,-8.66 -1.77,-15.13 -5.34,-19.43 -3.56,-4.31 -7.8,-6.45 -12.74,-6.45 -4.9,0 -9.22,2.3 -12.99,6.86 -3.78,4.59 -5.66,11.24 -5.66,19.98z"/>
  <path id="3" class="fil3" d="M1034.64 113.01l0 -13.12 13.12 0 0 13.12 -13.12 0zm0 54.95l0 -13.12 13.12 0 0 13.12 -13.12 0z"/>
  <path id="4" class="fil3" d="M1101.22 143.31l12.06 -0.92c0.9,5.88 2.97,10.29 6.21,13.27 3.23,2.95 7.19,4.44 11.85,4.44 5.62,0 10.32,-2.1 14.14,-6.27 3.8,-4.2 5.7,-9.75 5.7,-16.66 0,-6.58 -1.81,-11.76 -5.47,-15.56 -3.65,-3.8 -8.48,-5.71 -14.49,-5.71 -3.74,0 -7.08,0.85 -10.05,2.56 -2.95,1.71 -5.27,3.91 -6.97,6.62l-10.89 -1.57 9.05 -48.26 46.56 0 0 11.02 -37.36 0 -5 25.34c5.62,-3.96 11.52,-5.93 17.69,-5.93 8.17,0 15.08,2.84 20.7,8.53 5.62,5.68 8.44,12.99 8.44,21.91 0,8.5 -2.47,15.85 -7.41,22.03 -6.01,7.61 -14.23,11.41 -24.63,11.41 -8.53,0 -15.48,-2.4 -20.88,-7.19 -5.4,-4.79 -8.48,-11.13 -9.25,-19.04z"/>
  <path id="5" class="fil3" d="M1174.17 121.63c0,-11.08 1.13,-20.04 3.41,-26.82 2.29,-6.8 5.68,-12.02 10.19,-15.67 4.48,-3.65 10.14,-5.47 16.96,-5.47 5.03,0 9.44,1 13.27,3.04 3.8,2.03 6.95,4.96 9.4,8.79 2.45,3.8 4.37,8.46 5.77,13.95 1.42,5.49 2.12,12.9 2.12,22.18 0,11.02 -1.14,19.94 -3.39,26.71 -2.25,6.8 -5.64,12.02 -10.14,15.7 -4.48,3.67 -10.16,5.51 -17.03,5.51 -9.03,0 -16.13,-3.21 -21.29,-9.66 -6.19,-7.87 -9.27,-20.62 -9.27,-38.26zm11.8 0.04c0,15.46 1.79,25.73 5.4,30.8 3.61,5.09 8.06,7.63 13.35,7.63 5.29,0 9.75,-2.56 13.36,-7.65 3.61,-5.12 5.4,-15.37 5.4,-30.78 0,-15.46 -1.79,-25.73 -5.4,-30.8 -3.59,-5.09 -8.09,-7.63 -13.49,-7.63 -5.29,0 -9.53,2.25 -12.7,6.73 -3.96,5.7 -5.92,16.28 -5.92,31.69z"/>
  <path id="6" class="fil3" d="M1285.65 96.6c0,-6.69 1.68,-12.39 5.07,-17.07 3.39,-4.7 8.28,-7.04 14.71,-7.04 5.9,0 10.8,2.1 14.67,6.3 3.87,4.2 5.81,10.38 5.81,18.51 0,7.93 -1.97,14.05 -5.88,18.34 -3.91,4.29 -8.74,6.43 -14.47,6.43 -5.7,0 -10.45,-2.12 -14.23,-6.34 -3.78,-4.22 -5.68,-10.6 -5.68,-19.13zm20.11 -16.11c-2.86,0 -5.25,1.22 -7.15,3.7 -1.9,2.47 -2.87,6.99 -2.87,13.57 0,5.99 0.96,10.21 2.89,12.63 1.93,2.45 4.31,3.67 7.13,3.67 2.91,0 5.31,-1.22 7.21,-3.69 1.9,-2.47 2.84,-6.97 2.84,-13.51 0,-6.03 -0.96,-10.27 -2.89,-12.7 -1.93,-2.45 -4.31,-3.67 -7.17,-3.67zm0.07 90.89l51.22 -98.89 9.4 0 -51.09 98.89 -9.53 0zm40.42 -25.46c0,-6.73 1.68,-12.44 5.07,-17.12 3.37,-4.65 8.28,-7 14.73,-7 5.9,0 10.8,2.1 14.67,6.3 3.87,4.2 5.79,10.38 5.79,18.51 0,7.93 -1.94,14.05 -5.86,18.34 -3.91,4.28 -8.76,6.42 -14.53,6.42 -5.68,0 -10.41,-2.12 -14.19,-6.36 -3.78,-4.24 -5.68,-10.62 -5.68,-19.1zm20.13 -16.11c-2.91,0 -5.29,1.23 -7.19,3.7 -1.9,2.47 -2.84,6.99 -2.84,13.57 0,5.94 0.96,10.14 2.89,12.61 1.9,2.47 4.26,3.69 7.08,3.69 2.95,0 5.36,-1.22 7.26,-3.69 1.9,-2.47 2.84,-6.97 2.84,-13.51 0,-6.03 -0.96,-10.27 -2.89,-12.7 -1.9,-2.45 -4.29,-3.67 -7.15,-3.67z"/>
 </g>
</svg>
