<?xml version="1.0" encoding="UTF-8" standalone="no"?>
<svg
   xml:space="preserve"
   width="375px"
   height="535px"
   version="1.1"
   style="shape-rendering:geometricPrecision; text-rendering:geometricPrecision; image-rendering:optimizeQuality; fill-rule:evenodd; clip-rule:evenodd"
   viewBox="0 0 3320 4758"
   id="svg94"
   sodipodi:docname="lifecycle5.svg"
   inkscape:version="1.1.1 (3bf5ae0d25, 2021-09-20)"
   xmlns:inkscape="http://www.inkscape.org/namespaces/inkscape"
   xmlns:sodipodi="http://sodipodi.sourceforge.net/DTD/sodipodi-0.dtd"
   xmlns="http://www.w3.org/2000/svg"
   xmlns:svg="http://www.w3.org/2000/svg"><sodipodi:namedview
   id="namedview96"
   pagecolor="#ffffff"
   bordercolor="#666666"
   borderopacity="1.0"
   inkscape:pageshadow="2"
   inkscape:pageopacity="0.0"
   inkscape:pagecheckerboard="0"
   inkscape:document-units="mm"
   showgrid="false"
   inkscape:zoom="2.1451706"
   inkscape:cx="141.94675"
   inkscape:cy="203.24724"
   inkscape:window-width="3840"
   inkscape:window-height="2054"
   inkscape:window-x="1789"
   inkscape:window-y="-11"
   inkscape:window-maximized="1"
   inkscape:current-layer="Layer_x0020_1" />
 <defs
   id="defs4">
  <style
   type="text/css"
   id="style2">
   <![CDATA[
    .str5 {stroke:#2B2A29;stroke-width:8.83824}
    .str8 {stroke:#2B2A29;stroke-width:11.0478;stroke-dasharray:22.095592 55.238979}
    .str7 {stroke:#2B2A29;stroke-width:4.14513}
    .str6 {stroke:#2B2A29;stroke-width:4.14513}
    .str1 {stroke:#898989;stroke-width:14.6229}
    .str9 {stroke:#898989;stroke-width:14.6229}
    .str0 {stroke:#898989;stroke-width:14.6229}
    .str2 {stroke:#898989;stroke-width:14.6229}
    .str3 {stroke:#898989;stroke-width:14.6229}
    .str4 {stroke:#898989;stroke-width:14.6229}
    .fil9 {fill:none}
    .fil7 {fill:#FEFEFE}
    .fil2 {fill:whitesmoke}
    .fil10 {fill:#EBECEC}
    .fil8 {fill:#2B2A29}
    .fil1 {fill:#3484D2}
    .fil4 {fill:#AD9247}
    .fil3 {fill:#E7DCBD}
    .fil5 {fill:#FEFEFE;fill-rule:nonzero}
    .fil6 {fill:#9D9E9E;fill-rule:nonzero}
    .fil0 {fill:#2B2A29;fill-rule:nonzero}
   ]]>
  </style>
 <filter
   style="color-interpolation-filters:sRGB;"
   inkscape:label="Drop Shadow"
   id="filter1248"
   x="-0.1333904"
   y="-0.52760667"
   width="1.3044031"
   height="2.2040229"><feFlood
     flood-opacity="0.25098"
     flood-color="rgb(0,0,0)"
     result="flood"
     id="feFlood1238" /><feComposite
     in="flood"
     in2="SourceGraphic"
     operator="in"
     result="composite1"
     id="feComposite1240" /><feGaussianBlur
     in="composite1"
     stdDeviation="70.8185"
     result="blur"
     id="feGaussianBlur1242" /><feOffset
     dx="50"
     dy="50"
     result="offset"
     id="feOffset1244" /><feComposite
     in="SourceGraphic"
     in2="offset"
     operator="over"
     result="composite2"
     id="feComposite1246" /></filter><filter
   style="color-interpolation-filters:sRGB;"
   inkscape:label="Drop Shadow"
   id="filter1260"
   x="-0.10835932"
   y="-0.52760667"
   width="1.247281"
   height="2.2040229"><feFlood
     flood-opacity="0.25098"
     flood-color="rgb(0,0,0)"
     result="flood"
     id="feFlood1250" /><feComposite
     in="flood"
     in2="SourceGraphic"
     operator="in"
     result="composite1"
     id="feComposite1252" /><feGaussianBlur
     in="composite1"
     stdDeviation="70.8185"
     result="blur"
     id="feGaussianBlur1254" /><feOffset
     dx="50"
     dy="50"
     result="offset"
     id="feOffset1256" /><feComposite
     in="SourceGraphic"
     in2="offset"
     operator="over"
     result="composite2"
     id="feComposite1258" /></filter><filter
   style="color-interpolation-filters:sRGB;"
   inkscape:label="Drop Shadow"
   id="filter1272"
   x="-0.12405587"
   y="-0.52760667"
   width="1.2831012"
   height="2.2040229"><feFlood
     flood-opacity="0.25098"
     flood-color="rgb(0,0,0)"
     result="flood"
     id="feFlood1262" /><feComposite
     in="flood"
     in2="SourceGraphic"
     operator="in"
     result="composite1"
     id="feComposite1264" /><feGaussianBlur
     in="composite1"
     stdDeviation="70.8185"
     result="blur"
     id="feGaussianBlur1266" /><feOffset
     dx="50"
     dy="50"
     result="offset"
     id="feOffset1268" /><feComposite
     in="SourceGraphic"
     in2="offset"
     operator="over"
     result="composite2"
     id="feComposite1270" /></filter><filter
   style="color-interpolation-filters:sRGB;"
   inkscape:label="Drop Shadow"
   id="filter1284"
   x="-0.081281908"
   y="-0.52760667"
   width="1.1854891"
   height="2.2040229"><feFlood
     flood-opacity="0.25098"
     flood-color="rgb(0,0,0)"
     result="flood"
     id="feFlood1274" /><feComposite
     in="flood"
     in2="SourceGraphic"
     operator="in"
     result="composite1"
     id="feComposite1276" /><feGaussianBlur
     in="composite1"
     stdDeviation="70.8185"
     result="blur"
     id="feGaussianBlur1278" /><feOffset
     dx="50"
     dy="50"
     result="offset"
     id="feOffset1280" /><feComposite
     in="SourceGraphic"
     in2="offset"
     operator="over"
     result="composite2"
     id="feComposite1282" /></filter><filter
   style="color-interpolation-filters:sRGB;"
   inkscape:label="Drop Shadow"
   id="filter1296"
   x="-0.1333904"
   y="-0.52760667"
   width="1.3044031"
   height="2.2040229"><feFlood
     flood-opacity="0.25098"
     flood-color="rgb(0,0,0)"
     result="flood"
     id="feFlood1286" /><feComposite
     in="flood"
     in2="SourceGraphic"
     operator="in"
     result="composite1"
     id="feComposite1288" /><feGaussianBlur
     in="composite1"
     stdDeviation="70.8185"
     result="blur"
     id="feGaussianBlur1290" /><feOffset
     dx="50"
     dy="50"
     result="offset"
     id="feOffset1292" /><feComposite
     in="SourceGraphic"
     in2="offset"
     operator="over"
     result="composite2"
     id="feComposite1294" /></filter><filter
   style="color-interpolation-filters:sRGB;"
   inkscape:label="Drop Shadow"
   id="filter1308"
   x="-0.086476021"
   y="-0.52760667"
   width="1.1973423"
   height="2.2040229"><feFlood
     flood-opacity="0.25098"
     flood-color="rgb(0,0,0)"
     result="flood"
     id="feFlood1298" /><feComposite
     in="flood"
     in2="SourceGraphic"
     operator="in"
     result="composite1"
     id="feComposite1300" /><feGaussianBlur
     in="composite1"
     stdDeviation="70.8185"
     result="blur"
     id="feGaussianBlur1302" /><feOffset
     dx="50"
     dy="50"
     result="offset"
     id="feOffset1304" /><feComposite
     in="SourceGraphic"
     in2="offset"
     operator="over"
     result="composite2"
     id="feComposite1306" /></filter></defs>
 <g
   id="Layer_x0020_1"
   inkscape:label="Layer 1">
  <metadata
   id="CorelCorpID_0Corel-Layer" />
  <g
   id="g9">
   <path
   class="fil0"
   d="M1349 3204l0 -211 16 0 0 211 -16 0zm8 55l-47 -110 3 1 3 1 3 1 3 1 3 1 3 1 3 1 3 1 3 1 3 1 3 1 3 0 3 0 3 0 3 0 3 0 3 0 3 0 3 0 3 0 3 0 3 -1 3 -1 3 -1 3 -1 3 -1 3 -1 3 -1 3 -1 3 -1 3 -1 3 -1 0 0 -47 110z"
   id="path7" />
  </g>
  <path
   class="fil1 str0"
   d="M810 1840l1093 0c93,0 168,76 168,168l0 0c0,93 -76,168 -168,168l-1093 0c-93,0 -168,-76 -168,-168l0 0c0,-93 76,-168 168,-168z"
   id="path11"
   style="filter:url(#filter1272)" />
  <path
   class="fil2 str1"
   d="M434 2695l1845 0c93,0 168,76 168,168l0 0c0,93 -76,168 -168,168l-1845 0c-93,0 -168,-76 -168,-168l0 0c0,-93 76,-168 168,-168z"
   id="path13"
   style="filter:url(#filter1284)" />
  <g
   id="g17">
   <path
   class="fil0"
   d="M1349 297l0 -211 16 0 0 211 -16 0zm8 55l-47 -110 3 1 3 1 3 1 3 1 3 1 3 1 3 1 3 1 3 1 3 1 3 1 3 0 3 0 3 0 3 0 3 0 3 0 3 0 3 0 3 0 3 0 3 -1 3 -1 3 -1 3 -1 3 -1 3 -1 3 -1 3 -1 3 -1 3 -1 3 -1 0 0 -47 110z"
   id="path15" />
  </g>
  <g
   id="g21">
   <path
   class="fil0"
   d="M1349 873l0 -211 16 0 0 211 -16 0zm8 55l-47 -110 3 1 3 1 3 1 3 1 3 1 3 1 3 1 3 1 3 1 3 1 3 1 3 0 3 0 3 0 3 0 3 0 3 0 3 0 3 0 3 0 3 0 3 -1 3 -1 3 -1 3 -1 3 -1 3 -1 3 -1 3 -1 3 -1 3 -1 3 -1 0 0 -47 110z"
   id="path19" />
  </g>
  <g
   id="g25">
   <path
   class="fil0"
   d="M1349 1780l0 -566 16 0 0 566 -16 0zm8 55l-47 -110 3 1 3 1 3 1 3 1 3 1 3 1 3 1 3 1 3 1 3 1 3 1 3 0 3 0 3 0 3 0 3 0 3 0 3 0 3 0 3 0 3 0 3 -1 3 -1 3 -1 3 -1 3 -1 3 -1 3 -1 3 -1 3 -1 3 -1 3 -1 0 0 -47 110z"
   id="path23" />
  </g>
  <path
   class="fil2 str2"
   d="M707 354l1300 0c93,0 168,76 168,168l0 0c0,93 -76,168 -168,168l-1300 0c-93,0 -168,-76 -168,-168l0 0c0,-93 76,-168 168,-168z"
   id="path27"
   style="filter:url(#filter1260)" />
  <path
   class="fil0"
   d="M630 521c0,-15 4,-26 13,-34 7,-6 16,-9 26,-9 11,0 20,4 28,11 7,7 11,18 11,30 0,11 -2,19 -5,25 -3,6 -8,11 -14,14 -6,3 -13,5 -20,5 -11,0 -21,-4 -28,-11 -7,-7 -11,-18 -11,-32zm14 0c0,10 2,18 7,23 5,5 10,8 17,8 7,0 13,-3 17,-8 5,-5 7,-13 7,-24 0,-10 -2,-18 -7,-23 -5,-5 -10,-8 -17,-8 -7,0 -13,3 -17,8 -5,5 -7,13 -7,23zm79 41l0 -82 12 0 0 12c6,-9 15,-13 26,-13 5,0 9,1 14,3 4,2 7,4 9,7 2,3 3,6 4,10 0,3 1,7 1,13l0 50 -14 0 0 -50c0,-6 -1,-10 -2,-13 -1,-3 -3,-5 -6,-7 -3,-2 -6,-3 -10,-3 -6,0 -11,2 -15,6 -4,4 -6,11 -6,21l0 45 -14 0zm85 -36l14 -1c1,6 2,10 5,14 2,4 6,7 11,9 5,2 11,3 17,3 6,0 11,-1 15,-3 4,-2 8,-4 10,-7 2,-3 3,-6 3,-10 0,-4 -1,-7 -3,-9 -2,-3 -5,-5 -10,-7 -3,-1 -10,-3 -20,-5 -10,-2 -18,-5 -22,-7 -5,-3 -9,-6 -12,-11 -3,-4 -4,-9 -4,-14 0,-6 2,-11 5,-16 3,-5 8,-9 14,-11 6,-3 13,-4 21,-4 8,0 16,1 22,4 6,3 11,7 15,12 3,5 5,11 6,18l-14 1c-1,-7 -3,-13 -8,-16 -4,-4 -11,-5 -20,-5 -9,0 -16,2 -20,5 -4,3 -6,7 -6,12 0,4 1,7 4,10 3,3 10,5 23,8 12,3 20,5 25,7 7,3 11,7 15,11 3,5 5,10 5,16 0,6 -2,12 -5,17 -3,5 -8,9 -15,12 -6,3 -14,4 -22,4 -10,0 -19,-2 -26,-4 -7,-3 -12,-7 -16,-13 -4,-6 -6,-13 -6,-20zm139 24l2 12c-4,1 -7,1 -10,1 -5,0 -9,-1 -12,-2 -3,-2 -5,-4 -6,-6 -1,-3 -2,-8 -2,-16l0 -47 -10 0 0 -11 10 0 0 -20 14 -8 0 29 14 0 0 11 -14 0 0 48c0,4 0,7 1,8 0,1 1,2 2,3 1,1 3,1 5,1 2,0 4,0 6,-1zm67 2c-5,4 -10,7 -15,9 -5,2 -10,3 -15,3 -9,0 -16,-2 -21,-7 -5,-4 -7,-10 -7,-17 0,-4 1,-8 3,-11 2,-3 4,-6 7,-8 3,-2 6,-4 10,-5 3,-1 7,-1 12,-2 11,-1 19,-3 25,-5 0,-2 0,-3 0,-4 0,-6 -1,-10 -4,-12 -4,-3 -9,-5 -16,-5 -7,0 -11,1 -14,3 -3,2 -5,6 -7,12l-14 -2c1,-6 3,-11 6,-14 3,-4 7,-6 12,-8 5,-2 12,-3 19,-3 7,0 13,1 17,2 4,2 8,4 10,6 2,2 3,6 4,9 0,2 1,7 1,13l0 18c0,13 0,21 1,24 1,3 2,7 3,10l-15 0c-1,-3 -2,-6 -3,-10zm-1 -31c-5,2 -13,4 -23,5 -6,1 -10,2 -12,3 -2,1 -4,3 -5,4 -1,2 -2,4 -2,7 0,4 1,7 4,9 3,2 7,4 12,4 5,0 10,-1 14,-3 4,-2 7,-5 9,-10 1,-3 2,-8 2,-14l0 -5zm35 41l0 -82 12 0 0 13c3,-6 6,-10 9,-11 3,-2 6,-3 9,-3 5,0 9,1 14,4l-5 13c-3,-2 -7,-3 -10,-3 -3,0 -6,1 -8,3 -2,2 -4,4 -5,8 -2,5 -2,10 -2,16l0 43 -14 0zm83 -12l2 12c-4,1 -7,1 -10,1 -5,0 -9,-1 -12,-2 -3,-2 -5,-4 -6,-6 -1,-3 -2,-8 -2,-16l0 -47 -10 0 0 -11 10 0 0 -20 14 -8 0 29 14 0 0 11 -14 0 0 48c0,4 0,7 1,8 0,1 1,2 2,3 1,1 3,1 5,1 2,0 4,0 6,-1zm67 12l0 -12c-6,9 -15,14 -26,14 -5,0 -9,-1 -13,-3 -4,-2 -7,-4 -9,-7 -2,-3 -3,-6 -4,-10 -1,-3 -1,-7 -1,-13l0 -51 14 0 0 45c0,7 0,12 1,15 1,4 3,6 6,9 3,2 6,3 10,3 4,0 8,-1 12,-3 4,-2 6,-5 8,-9 1,-4 2,-9 2,-16l0 -44 14 0 0 82 -12 0zm34 31l0 -113 13 0 0 11c3,-4 6,-7 10,-9 4,-2 8,-3 14,-3 7,0 13,2 18,5 5,4 9,9 12,15 3,7 4,14 4,22 0,8 -1,16 -4,23 -3,7 -7,12 -13,15 -6,4 -12,5 -18,5 -5,0 -9,-1 -12,-3 -4,-2 -7,-4 -9,-7l0 40 -14 0zm13 -72c0,10 2,18 6,23 4,5 9,8 15,8 6,0 11,-3 16,-8 4,-5 7,-13 7,-24 0,-10 -2,-18 -6,-23 -4,-5 -9,-8 -15,-8 -6,0 -11,3 -16,8 -5,6 -7,14 -7,24zm184 27c-5,5 -10,9 -15,11 -5,3 -11,4 -18,4 -12,0 -21,-4 -28,-12 -5,-6 -8,-13 -8,-21 0,-7 2,-13 7,-19 4,-6 11,-11 20,-15 -5,-6 -9,-11 -10,-14 -2,-4 -3,-7 -3,-11 0,-7 3,-13 8,-18 5,-5 12,-8 20,-8 8,0 14,2 19,7 5,5 7,10 7,17 0,11 -7,20 -21,28l20 26c2,-5 4,-10 5,-16l14 3c-2,10 -6,18 -10,24 5,7 11,13 18,17l-9 11c-6,-4 -11,-9 -17,-16zm-28 -59c6,-4 10,-7 12,-9 2,-3 3,-6 3,-9 0,-4 -1,-7 -4,-9 -2,-2 -6,-4 -9,-4 -4,0 -7,1 -9,4 -3,2 -4,5 -4,9 0,2 0,4 1,6 1,2 2,4 4,6l6 7zm20 48l-25 -32c-8,4 -13,9 -15,12 -3,4 -4,8 -4,11 0,5 2,9 5,14 4,5 9,7 15,7 4,0 8,-1 13,-4 4,-3 8,-6 11,-10zm88 0l14 -2c1,5 3,10 6,13 4,3 8,4 15,4 6,0 11,-1 14,-4 3,-3 5,-6 5,-9 0,-3 -1,-6 -4,-7 -2,-1 -7,-3 -14,-5 -10,-3 -17,-5 -21,-7 -4,-2 -7,-4 -9,-8 -2,-3 -3,-7 -3,-11 0,-4 1,-7 3,-10 2,-3 4,-6 7,-8 2,-2 5,-3 9,-4 4,-1 8,-2 12,-2 6,0 12,1 17,3 5,2 8,4 11,8 2,3 4,7 5,13l-14 2c-1,-4 -2,-8 -5,-10 -3,-2 -7,-4 -12,-4 -6,0 -11,1 -14,3 -3,2 -4,5 -4,7 0,2 1,3 2,5 1,1 3,3 5,4 1,1 5,2 12,4 10,3 17,5 21,6 4,2 7,4 9,7 2,3 3,7 3,12 0,5 -1,9 -4,13 -3,4 -7,7 -12,9 -5,2 -11,3 -17,3 -11,0 -19,-2 -24,-7 -6,-4 -9,-11 -11,-20zm115 12l2 12c-4,1 -7,1 -10,1 -5,0 -9,-1 -12,-2 -3,-2 -5,-4 -6,-6 -1,-3 -2,-8 -2,-16l0 -47 -10 0 0 -11 10 0 0 -20 14 -8 0 29 14 0 0 11 -14 0 0 48c0,4 0,7 1,8 0,1 1,2 2,3 1,1 3,1 5,1 2,0 4,0 6,-1zm67 2c-5,4 -10,7 -15,9 -5,2 -10,3 -15,3 -9,0 -16,-2 -21,-7 -5,-4 -7,-10 -7,-17 0,-4 1,-8 3,-11 2,-3 4,-6 7,-8 3,-2 6,-4 10,-5 3,-1 7,-1 12,-2 11,-1 19,-3 25,-5 0,-2 0,-3 0,-4 0,-6 -1,-10 -4,-12 -4,-3 -9,-5 -16,-5 -7,0 -11,1 -14,3 -3,2 -5,6 -7,12l-14 -2c1,-6 3,-11 6,-14 3,-4 7,-6 12,-8 5,-2 12,-3 19,-3 7,0 13,1 17,2 4,2 8,4 10,6 2,2 3,6 4,9 0,2 1,7 1,13l0 18c0,13 0,21 1,24 1,3 2,7 3,10l-15 0c-1,-3 -2,-6 -3,-10zm-1 -31c-5,2 -13,4 -23,5 -6,1 -10,2 -12,3 -2,1 -4,3 -5,4 -1,2 -2,4 -2,7 0,4 1,7 4,9 3,2 7,4 12,4 5,0 10,-1 14,-3 4,-2 7,-5 9,-10 1,-3 2,-8 2,-14l0 -5zm35 41l0 -82 12 0 0 13c3,-6 6,-10 9,-11 3,-2 6,-3 9,-3 5,0 9,1 14,4l-5 13c-3,-2 -7,-3 -10,-3 -3,0 -6,1 -8,3 -2,2 -4,4 -5,8 -2,5 -2,10 -2,16l0 43 -14 0zm83 -12l2 12c-4,1 -7,1 -10,1 -5,0 -9,-1 -12,-2 -3,-2 -5,-4 -6,-6 -1,-3 -2,-8 -2,-16l0 -47 -10 0 0 -11 10 0 0 -20 14 -8 0 29 14 0 0 11 -14 0 0 48c0,4 0,7 1,8 0,1 1,2 2,3 1,1 3,1 5,1 2,0 4,0 6,-1zm67 12l0 -12c-6,9 -15,14 -26,14 -5,0 -9,-1 -13,-3 -4,-2 -7,-4 -9,-7 -2,-3 -3,-6 -4,-10 -1,-3 -1,-7 -1,-13l0 -51 14 0 0 45c0,7 0,12 1,15 1,4 3,6 6,9 3,2 6,3 10,3 4,0 8,-1 12,-3 4,-2 6,-5 8,-9 1,-4 2,-9 2,-16l0 -44 14 0 0 82 -12 0zm34 31l0 -113 13 0 0 11c3,-4 6,-7 10,-9 4,-2 8,-3 14,-3 7,0 13,2 18,5 5,4 9,9 12,15 3,7 4,14 4,22 0,8 -1,16 -4,23 -3,7 -7,12 -13,15 -6,4 -12,5 -18,5 -5,0 -9,-1 -12,-3 -4,-2 -7,-4 -9,-7l0 40 -14 0zm13 -72c0,10 2,18 6,23 4,5 9,8 15,8 6,0 11,-3 16,-8 4,-5 7,-13 7,-24 0,-10 -2,-18 -6,-23 -4,-5 -9,-8 -15,-8 -6,0 -11,3 -16,8 -5,6 -7,14 -7,24zm102 74c-8,-10 -14,-21 -19,-34 -5,-13 -8,-26 -8,-40 0,-12 2,-24 6,-35 5,-13 12,-26 21,-39l10 0c-6,11 -10,18 -12,23 -3,7 -6,14 -7,22 -2,10 -3,19 -3,29 0,25 8,49 23,74l-10 0zm35 0l-10 0c15,-25 23,-49 23,-74 0,-10 -1,-19 -3,-29 -2,-8 -4,-15 -7,-22 -2,-5 -6,-12 -12,-23l10 0c10,13 17,26 21,39 4,11 6,23 6,35 0,14 -3,27 -8,40 -5,13 -12,24 -19,34z"
   id="path29" />
  <path
   class="fil3 str3"
   d="M860 928l993 0c93,0 168,76 168,168l0 0c0,93 -76,168 -168,168l-993 0c-93,0 -168,-76 -168,-168l0 0c0,-93 76,-168 168,-168z"
   id="path31"
   style="filter:url(#filter1248)" />
  <path
   class="fil0"
   d="M846 1142c-5,4 -10,7 -15,9 -5,2 -10,3 -15,3 -9,0 -16,-2 -21,-7 -5,-4 -7,-10 -7,-17 0,-4 1,-8 3,-11 2,-3 4,-6 7,-8 3,-2 6,-4 10,-5 3,-1 7,-1 12,-2 11,-1 19,-3 25,-5 0,-2 0,-3 0,-4 0,-6 -1,-10 -4,-12 -4,-3 -9,-5 -16,-5 -7,0 -11,1 -14,3 -3,2 -5,6 -7,12l-14 -2c1,-6 3,-11 6,-14 3,-4 7,-6 12,-8 5,-2 12,-3 19,-3 7,0 13,1 17,2 4,2 8,4 10,6 2,2 3,6 4,9 0,2 1,7 1,13l0 18c0,13 0,21 1,24 1,3 2,7 3,10l-15 0c-1,-3 -2,-6 -3,-10zm-1 -31c-5,2 -13,4 -23,5 -6,1 -10,2 -12,3 -2,1 -4,3 -5,4 -1,2 -2,4 -2,7 0,4 1,7 4,9 3,2 7,4 12,4 5,0 10,-1 14,-3 4,-2 7,-5 9,-10 1,-3 2,-8 2,-14l0 -5zm89 11l14 2c-2,9 -5,17 -11,22 -6,5 -14,8 -23,8 -11,0 -20,-4 -27,-11 -7,-7 -10,-18 -10,-31 0,-9 1,-17 4,-23 3,-7 7,-12 13,-15 6,-3 12,-5 20,-5 9,0 16,2 22,7 6,4 9,11 11,19l-13 2c-1,-5 -4,-10 -7,-12 -3,-3 -7,-4 -12,-4 -7,0 -13,2 -17,7 -4,5 -7,13 -7,24 0,11 2,19 6,24 4,5 10,7 16,7 5,0 10,-2 14,-5 4,-3 6,-8 7,-15zm56 18l2 12c-4,1 -7,1 -10,1 -5,0 -9,-1 -12,-2 -3,-2 -5,-4 -6,-6 -1,-3 -2,-8 -2,-16l0 -47 -10 0 0 -11 10 0 0 -20 14 -8 0 29 14 0 0 11 -14 0 0 48c0,4 0,7 1,8 0,1 1,2 2,3 1,1 3,1 5,1 2,0 4,0 6,-1zm14 -85l0 -16 14 0 0 16 -14 0zm0 97l0 -82 14 0 0 82 -14 0zm30 -41c0,-15 4,-26 13,-34 7,-6 16,-9 26,-9 11,0 20,4 28,11 7,7 11,18 11,30 0,11 -2,19 -5,25 -3,6 -8,11 -14,14 -6,3 -13,5 -20,5 -11,0 -21,-4 -28,-11 -7,-7 -11,-18 -11,-32zm14 0c0,10 2,18 7,23 5,5 10,8 17,8 7,0 13,-3 17,-8 5,-5 7,-13 7,-24 0,-10 -2,-18 -7,-23 -5,-5 -10,-8 -17,-8 -7,0 -13,3 -17,8 -5,5 -7,13 -7,23zm79 41l0 -82 12 0 0 12c6,-9 15,-13 26,-13 5,0 9,1 14,3 4,2 7,4 9,7 2,3 3,6 4,10 0,3 1,7 1,13l0 50 -14 0 0 -50c0,-6 -1,-10 -2,-13 -1,-3 -3,-5 -6,-7 -3,-2 -6,-3 -10,-3 -6,0 -11,2 -15,6 -4,4 -6,11 -6,21l0 45 -14 0zm86 -49l0 -13 74 -32 0 14 -59 24 59 25 0 14 -74 -32zm83 49l43 -113 16 0 46 113 -17 0 -13 -34 -48 0 -12 34 -16 0zm33 -46l39 0 -12 -31c-4,-10 -6,-17 -8,-24 -2,7 -4,15 -6,22l-12 33zm137 16l14 2c-1,9 -5,17 -11,22 -6,5 -14,8 -23,8 -11,0 -20,-4 -27,-11 -7,-7 -10,-18 -10,-31 0,-9 1,-17 4,-23 3,-7 7,-12 13,-15 6,-3 12,-5 20,-5 9,0 16,2 22,7 6,4 9,11 11,19l-13 2c-1,-5 -4,-10 -7,-12 -3,-3 -7,-4 -12,-4 -7,0 -13,2 -17,7 -4,5 -7,13 -7,24 0,11 2,19 6,24 4,5 10,7 16,7 5,0 10,-2 14,-5 4,-3 6,-8 7,-15zm56 18l2 12c-4,1 -7,1 -10,1 -5,0 -9,-1 -12,-2 -3,-2 -5,-4 -6,-6 -1,-3 -2,-8 -2,-16l0 -47 -10 0 0 -11 10 0 0 -20 14 -8 0 29 14 0 0 11 -14 0 0 48c0,4 0,7 1,8 0,1 1,2 2,3 1,1 3,1 5,1 2,0 4,0 6,-1zm14 -85l0 -16 14 0 0 16 -14 0zm0 97l0 -82 14 0 0 82 -14 0zm30 -41c0,-15 4,-26 13,-34 7,-6 16,-9 26,-9 11,0 20,4 28,11 7,7 11,18 11,30 0,11 -2,19 -5,25 -3,6 -8,11 -14,14 -6,3 -13,5 -20,5 -11,0 -21,-4 -28,-11 -7,-7 -11,-18 -11,-32zm14 0c0,10 2,18 7,23 5,5 10,8 17,8 7,0 13,-3 17,-8 5,-5 7,-13 7,-24 0,-10 -2,-18 -7,-23 -5,-5 -10,-8 -17,-8 -7,0 -13,3 -17,8 -5,5 -7,13 -7,23zm79 41l0 -82 12 0 0 12c6,-9 15,-13 26,-13 5,0 9,1 14,3 4,2 7,4 9,7 2,3 3,6 4,10 0,3 1,7 1,13l0 50 -14 0 0 -50c0,-6 -1,-10 -2,-13 -1,-3 -3,-5 -6,-7 -3,-2 -6,-3 -10,-3 -6,0 -11,2 -15,6 -4,4 -6,11 -6,21l0 45 -14 0zm161 -49l-74 32 0 -14 59 -25 -59 -24 0 -14 74 32 0 13zm46 83c-8,-10 -14,-21 -19,-34 -5,-13 -8,-26 -8,-40 0,-12 2,-24 6,-35 5,-13 12,-26 21,-39l10 0c-6,11 -10,18 -12,23 -3,7 -6,14 -7,22 -2,10 -3,19 -3,29 0,25 8,49 23,74l-10 0zm35 0l-10 0c15,-25 23,-49 23,-74 0,-10 -1,-19 -3,-29 -2,-8 -4,-15 -7,-22 -2,-5 -6,-12 -12,-23l10 0c10,13 17,26 21,39 4,11 6,23 6,35 0,14 -3,27 -8,40 -5,13 -12,24 -19,34z"
   id="path33" />
  <path
   class="fil0"
   d="M396 2929l-13 0 0 -113 14 0 0 40c6,-7 13,-11 22,-11 5,0 10,1 14,3 4,2 8,5 11,9 3,4 5,8 7,13 2,5 2,11 2,17 0,14 -3,25 -10,32 -7,8 -15,11 -25,11 -10,0 -17,-4 -23,-12l0 10zm0 -42c0,10 1,17 4,21 4,7 10,11 18,11 6,0 11,-3 16,-8 4,-5 7,-13 7,-24 0,-11 -2,-19 -6,-24 -4,-5 -9,-8 -15,-8 -6,0 -11,3 -16,8 -4,5 -7,13 -7,23zm131 15l14 2c-2,8 -6,15 -13,19 -6,5 -14,7 -23,7 -12,0 -21,-4 -28,-11 -7,-7 -10,-18 -10,-31 0,-14 4,-24 11,-32 7,-8 16,-11 28,-11 11,0 20,4 27,11 7,7 10,18 10,31 0,1 0,2 0,4l-61 0c1,9 3,16 8,21 5,5 10,7 17,7 5,0 9,-1 13,-4 4,-3 6,-7 9,-13zm-45 -22l46 0c-1,-7 -2,-12 -5,-15 -4,-5 -10,-8 -17,-8 -6,0 -12,2 -16,6 -4,4 -7,10 -7,17zm81 49l0 -71 -12 0 0 -11 12 0 0 -9c0,-5 0,-10 1,-12 1,-4 4,-6 7,-9 3,-2 8,-3 14,-3 4,0 8,0 13,1l-2 12c-3,0 -6,-1 -8,-1 -4,0 -7,1 -9,3 -2,2 -3,5 -3,10l0 7 16 0 0 11 -16 0 0 71 -14 0zm35 -41c0,-15 4,-26 13,-34 7,-6 16,-9 26,-9 11,0 20,4 28,11 7,7 11,18 11,30 0,11 -2,19 -5,25 -3,6 -8,11 -14,14 -6,3 -13,5 -20,5 -11,0 -21,-4 -28,-11 -7,-7 -11,-18 -11,-32zm14 0c0,10 2,18 7,23 5,5 10,8 17,8 7,0 13,-3 17,-8 5,-5 7,-13 7,-24 0,-10 -2,-18 -7,-23 -5,-5 -10,-8 -17,-8 -7,0 -13,3 -17,8 -5,5 -7,13 -7,23zm79 41l0 -82 12 0 0 13c3,-6 6,-10 9,-11 3,-2 6,-3 9,-3 5,0 9,1 14,4l-5 13c-3,-2 -7,-3 -10,-3 -3,0 -6,1 -8,3 -2,2 -4,4 -5,8 -2,5 -2,10 -2,16l0 43 -14 0zm109 -27l14 2c-2,8 -6,15 -13,19 -6,5 -14,7 -23,7 -12,0 -21,-4 -28,-11 -7,-7 -10,-18 -10,-31 0,-14 4,-24 11,-32 7,-8 16,-11 28,-11 11,0 20,4 27,11 7,7 10,18 10,31 0,1 0,2 0,4l-61 0c1,9 3,16 8,21 5,5 10,7 17,7 5,0 9,-1 13,-4 4,-3 6,-7 9,-13zm-45 -22l46 0c-1,-7 -2,-12 -5,-15 -4,-5 -10,-8 -17,-8 -6,0 -12,2 -16,6 -4,4 -7,10 -7,17zm79 49l0 -113 50 0c10,0 18,1 23,3 5,2 9,6 13,11 3,5 5,11 5,17 0,8 -3,15 -8,20 -5,5 -13,9 -24,10 4,2 7,4 9,6 4,4 8,9 12,15l20 31 -19 0 -15 -24c-4,-7 -8,-12 -11,-16 -3,-4 -5,-6 -8,-8 -2,-1 -4,-2 -7,-3 -2,0 -4,-1 -8,-1l-17 0 0 50 -15 0zm15 -63l32 0c7,0 12,-1 16,-2 4,-1 7,-4 9,-7 2,-3 3,-6 3,-10 0,-5 -2,-10 -6,-13 -4,-3 -10,-5 -18,-5l-36 0 0 37zm153 37l14 2c-2,8 -6,15 -13,19 -6,5 -14,7 -23,7 -12,0 -21,-4 -28,-11 -7,-7 -10,-18 -10,-31 0,-14 4,-24 11,-32 7,-8 16,-11 28,-11 11,0 20,4 27,11 7,7 10,18 10,31 0,1 0,2 0,4l-61 0c1,9 3,16 8,21 5,5 10,7 17,7 5,0 9,-1 13,-4 4,-3 6,-7 9,-13zm-45 -22l46 0c-1,-7 -2,-12 -5,-15 -4,-5 -10,-8 -17,-8 -6,0 -12,2 -16,6 -4,4 -7,10 -7,17zm77 49l0 -82 12 0 0 12c6,-9 15,-13 26,-13 5,0 9,1 14,3 4,2 7,4 9,7 2,3 3,6 4,10 0,3 1,7 1,13l0 50 -14 0 0 -50c0,-6 -1,-10 -2,-13 -1,-3 -3,-5 -6,-7 -3,-2 -6,-3 -10,-3 -6,0 -11,2 -15,6 -4,4 -6,11 -6,21l0 45 -14 0zm141 0l0 -10c-5,8 -13,12 -23,12 -7,0 -13,-2 -18,-5 -5,-4 -10,-9 -13,-15 -3,-6 -4,-14 -4,-22 0,-8 1,-16 4,-22 3,-7 7,-12 12,-15 5,-4 12,-5 18,-5 5,0 9,1 13,3 4,2 7,5 9,8l0 -41 14 0 0 113 -13 0zm-44 -41c0,10 2,18 7,23 4,5 10,8 16,8 6,0 11,-2 15,-7 4,-5 6,-12 6,-23 0,-11 -2,-19 -6,-25 -4,-5 -10,-8 -16,-8 -6,0 -11,3 -15,8 -4,5 -6,13 -6,24zm135 14l14 2c-2,8 -6,15 -13,19 -6,5 -14,7 -23,7 -12,0 -21,-4 -28,-11 -7,-7 -10,-18 -10,-31 0,-14 4,-24 11,-32 7,-8 16,-11 28,-11 11,0 20,4 27,11 7,7 10,18 10,31 0,1 0,2 0,4l-61 0c1,9 3,16 8,21 5,5 10,7 17,7 5,0 9,-1 13,-4 4,-3 6,-7 9,-13zm-45 -22l46 0c-1,-7 -2,-12 -5,-15 -4,-5 -10,-8 -17,-8 -6,0 -12,2 -16,6 -4,4 -7,10 -7,17zm77 49l0 -82 12 0 0 13c3,-6 6,-10 9,-11 3,-2 6,-3 9,-3 5,0 9,1 14,4l-5 13c-3,-2 -7,-3 -10,-3 -3,0 -6,1 -8,3 -2,2 -4,4 -5,8 -2,5 -2,10 -2,16l0 43 -14 0zm79 33c-8,-10 -14,-21 -19,-34 -5,-13 -8,-26 -8,-40 0,-12 2,-24 6,-35 5,-13 12,-26 21,-39l10 0c-6,11 -10,18 -12,23 -3,7 -6,14 -7,22 -2,10 -3,19 -3,29 0,25 8,49 23,74l-10 0zm35 0l-10 0c15,-25 23,-49 23,-74 0,-10 -1,-19 -3,-29 -2,-8 -4,-15 -7,-22 -2,-5 -6,-12 -12,-23l10 0c10,13 17,26 21,39 4,11 6,23 6,35 0,14 -3,27 -8,40 -5,13 -12,24 -19,34zm152 -47c-5,5 -10,9 -15,11 -5,3 -11,4 -18,4 -12,0 -21,-4 -28,-12 -6,-6 -8,-13 -8,-21 0,-7 2,-13 7,-19 4,-6 11,-11 20,-15 -5,-6 -9,-11 -10,-14 -2,-4 -3,-7 -3,-11 0,-7 3,-13 8,-18 5,-5 12,-8 20,-8 8,0 14,2 19,7 5,5 7,10 7,17 0,11 -7,20 -21,28l20 26c2,-5 4,-10 5,-16l14 3c-2,10 -6,18 -10,24 5,7 11,13 18,17l-9 11c-6,-4 -11,-9 -17,-16zm-28 -59c6,-4 10,-7 12,-9 2,-3 3,-6 3,-9 0,-4 -1,-7 -4,-9 -2,-2 -6,-4 -9,-4 -4,0 -7,1 -9,4 -2,2 -4,5 -4,9 0,2 0,4 1,6 1,2 2,4 4,6l6 7zm20 48l-25 -32c-8,4 -13,9 -15,12 -3,4 -4,8 -4,11 0,5 2,9 5,14 4,5 9,7 15,7 4,0 8,-1 13,-4 4,-3 8,-6 11,-10zm88 -17c0,-15 4,-26 13,-34 7,-6 16,-9 26,-9 11,0 20,4 28,11 7,7 11,18 11,30 0,11 -2,19 -5,25 -3,6 -8,11 -14,14 -6,3 -13,5 -20,5 -11,0 -21,-4 -28,-11 -7,-7 -11,-18 -11,-32zm14 0c0,10 2,18 7,23 5,5 10,8 17,8 7,0 13,-3 17,-8 5,-5 7,-13 7,-24 0,-10 -2,-18 -7,-23 -5,-5 -10,-8 -17,-8 -7,0 -13,3 -17,8 -5,5 -7,13 -7,23zm79 41l0 -82 12 0 0 12c6,-9 15,-13 26,-13 5,0 9,1 14,3 4,2 7,4 9,7 2,3 3,6 4,10 0,3 1,7 1,13l0 50 -14 0 0 -50c0,-6 -1,-10 -2,-13 -1,-3 -3,-5 -6,-7 -3,-2 -6,-3 -10,-3 -6,0 -11,2 -15,6 -4,4 -6,11 -6,21l0 45 -14 0zm90 0l0 -113 50 0c10,0 18,1 23,3 5,2 9,6 13,11 3,5 5,11 5,17 0,8 -3,15 -8,20 -5,5 -13,9 -24,10 4,2 7,4 9,6 4,4 8,9 12,15l20 31 -19 0 -15 -24c-4,-7 -8,-12 -11,-16 -3,-4 -5,-6 -8,-8 -2,-1 -4,-2 -7,-3 -2,0 -4,-1 -8,-1l-17 0 0 50 -15 0zm15 -63l32 0c7,0 12,-1 16,-2 4,-1 7,-4 9,-7 2,-3 3,-6 3,-10 0,-5 -2,-10 -6,-13 -4,-3 -10,-5 -18,-5l-36 0 0 37zm153 37l14 2c-2,8 -6,15 -13,19 -6,5 -14,7 -23,7 -12,0 -21,-4 -28,-11 -7,-7 -10,-18 -10,-31 0,-14 4,-24 11,-32 7,-8 16,-11 28,-11 11,0 20,4 27,11 7,7 10,18 10,31 0,1 0,2 0,4l-61 0c1,9 3,16 8,21 5,5 10,7 17,7 5,0 9,-1 13,-4 4,-3 6,-7 9,-13zm-45 -22l46 0c-1,-7 -2,-12 -5,-15 -4,-5 -10,-8 -17,-8 -6,0 -12,2 -16,6 -4,4 -7,10 -7,17zm77 49l0 -82 12 0 0 12c6,-9 15,-13 26,-13 5,0 9,1 14,3 4,2 7,4 9,7 2,3 3,6 4,10 0,3 1,7 1,13l0 50 -14 0 0 -50c0,-6 -1,-10 -2,-13 -1,-3 -3,-5 -6,-7 -3,-2 -6,-3 -10,-3 -6,0 -11,2 -15,6 -4,4 -6,11 -6,21l0 45 -14 0zm141 0l0 -10c-5,8 -13,12 -23,12 -7,0 -13,-2 -18,-5 -5,-4 -10,-9 -13,-15 -3,-6 -4,-14 -4,-22 0,-8 1,-16 4,-22 3,-7 7,-12 12,-15 5,-4 12,-5 18,-5 5,0 9,1 13,3 4,2 7,5 9,8l0 -41 14 0 0 113 -13 0zm-44 -41c0,10 2,18 7,23 4,5 10,8 16,8 6,0 11,-2 15,-7 4,-5 6,-12 6,-23 0,-11 -2,-19 -6,-25 -4,-5 -10,-8 -16,-8 -6,0 -11,3 -15,8 -4,5 -6,13 -6,24zm135 14l14 2c-2,8 -6,15 -13,19 -6,5 -14,7 -23,7 -12,0 -21,-4 -28,-11 -7,-7 -10,-18 -10,-31 0,-14 4,-24 11,-32 7,-8 16,-11 28,-11 11,0 20,4 27,11 7,7 10,18 10,31 0,1 0,2 0,4l-61 0c1,9 3,16 8,21 5,5 10,7 17,7 5,0 9,-1 13,-4 4,-3 6,-7 9,-13zm-45 -22l46 0c-1,-7 -2,-12 -5,-15 -4,-5 -10,-8 -17,-8 -6,0 -12,2 -16,6 -4,4 -7,10 -7,17zm77 49l0 -82 12 0 0 13c3,-6 6,-10 9,-11 3,-2 6,-3 9,-3 5,0 9,1 14,4l-5 13c-3,-2 -7,-3 -10,-3 -3,0 -6,1 -8,3 -2,2 -4,4 -5,8 -2,5 -2,10 -2,16l0 43 -14 0z"
   id="path35" />
  <path
   class="fil4 str4"
   d="M860 3260l993 0c93,0 168,76 168,168l0 0c0,93 -76,168 -168,168l-993 0c-93,0 -168,-76 -168,-168l0 0c0,-93 76,-168 168,-168z"
   id="path37"
   style="filter:url(#filter1296)" />
  <path
   class="fil5"
   d="M822 3484l0 -82 12 0 0 13c3,-6 6,-10 9,-11 3,-2 6,-3 9,-3 5,0 9,1 14,4l-5 13c-3,-2 -7,-3 -10,-3 -3,0 -6,1 -8,3 -2,2 -4,4 -5,8 -2,5 -2,10 -2,16l0 43 -14 0zm109 -27l14 2c-2,8 -6,15 -13,19 -6,5 -14,7 -23,7 -12,0 -21,-4 -28,-11 -7,-7 -10,-18 -10,-31 0,-14 4,-24 11,-32 7,-8 16,-11 28,-11 11,0 20,4 27,11 7,7 10,18 10,31 0,1 0,2 0,4l-61 0c1,9 3,16 8,21 5,5 10,7 17,7 5,0 9,-1 13,-4 4,-3 6,-7 9,-13zm-45 -22l46 0c-1,-7 -2,-12 -5,-15 -4,-5 -10,-8 -17,-8 -6,0 -12,2 -16,6 -4,4 -7,10 -7,17zm77 49l0 -82 12 0 0 12c6,-9 15,-13 26,-13 5,0 9,1 14,3 4,2 7,4 9,7 2,3 3,6 4,10 0,3 1,7 1,13l0 50 -14 0 0 -50c0,-6 -1,-10 -2,-13 -1,-3 -3,-5 -6,-7 -3,-2 -6,-3 -10,-3 -6,0 -11,2 -15,6 -4,4 -6,11 -6,21l0 45 -14 0zm141 0l0 -10c-5,8 -13,12 -23,12 -7,0 -13,-2 -18,-5 -5,-4 -10,-9 -13,-15 -3,-6 -4,-14 -4,-22 0,-8 1,-16 4,-22 3,-7 7,-12 12,-15 5,-4 12,-5 18,-5 5,0 9,1 13,3 4,2 7,5 9,8l0 -41 14 0 0 113 -13 0zm-44 -41c0,10 2,18 7,23 4,5 10,8 16,8 6,0 11,-2 15,-7 4,-5 6,-12 6,-23 0,-11 -2,-19 -6,-25 -4,-5 -10,-8 -16,-8 -6,0 -11,3 -15,8 -4,5 -6,13 -6,24zm135 14l14 2c-2,8 -6,15 -13,19 -6,5 -14,7 -23,7 -12,0 -21,-4 -28,-11 -7,-7 -10,-18 -10,-31 0,-14 4,-24 11,-32 7,-8 16,-11 28,-11 11,0 20,4 27,11 7,7 10,18 10,31 0,1 0,2 0,4l-61 0c1,9 3,16 8,21 5,5 10,7 17,7 5,0 9,-1 13,-4 4,-3 6,-7 9,-13zm-45 -22l46 0c-1,-7 -2,-12 -5,-15 -4,-5 -10,-8 -17,-8 -6,0 -12,2 -16,6 -4,4 -7,10 -7,17zm77 49l0 -82 12 0 0 13c3,-6 6,-10 9,-11 3,-2 6,-3 9,-3 5,0 9,1 14,4l-5 13c-3,-2 -7,-3 -10,-3 -3,0 -6,1 -8,3 -2,2 -4,4 -5,8 -2,5 -2,10 -2,16l0 43 -14 0zm51 -49l0 -13 74 -32 0 14 -59 24 59 25 0 14 -74 -32zm128 49l-44 -113 16 0 29 82c2,7 4,13 6,18 2,-6 4,-12 6,-18l30 -82 15 0 -44 113 -16 0zm68 -97l0 -16 14 0 0 16 -14 0zm0 97l0 -82 14 0 0 82 -14 0zm91 -27l14 2c-2,8 -6,15 -13,19 -6,5 -14,7 -23,7 -12,0 -21,-4 -28,-11 -7,-7 -10,-18 -10,-31 0,-14 4,-24 11,-32 7,-8 16,-11 28,-11 11,0 20,4 27,11 7,7 10,18 10,31 0,1 0,2 0,4l-61 0c1,9 3,16 8,21 5,5 10,7 17,7 5,0 9,-1 13,-4 4,-3 6,-7 9,-13zm-45 -22l46 0c-1,-7 -2,-12 -5,-15 -4,-5 -10,-8 -17,-8 -6,0 -12,2 -16,6 -4,4 -7,10 -7,17zm92 49l-25 -82 15 0 13 47 5 18c0,-1 2,-6 4,-17l13 -48 14 0 12 48 4 16 5 -16 14 -47 13 0 -26 82 -14 0 -13 -49 -3 -14 -17 63 -15 0zm172 -49l-74 32 0 -14 59 -25 -59 -24 0 -14 74 32 0 13zm46 83c-8,-10 -14,-21 -19,-34 -5,-13 -8,-26 -8,-40 0,-12 2,-24 6,-35 5,-13 12,-26 21,-39l10 0c-6,11 -10,18 -12,23 -3,7 -6,14 -7,22 -2,10 -3,19 -3,29 0,25 8,49 23,74l-10 0zm35 0l-10 0c15,-25 23,-49 23,-74 0,-10 -1,-19 -3,-29 -2,-8 -4,-15 -7,-22 -2,-5 -6,-12 -12,-23l10 0c10,13 17,26 21,39 4,11 6,23 6,35 0,14 -3,27 -8,40 -5,13 -12,24 -19,34z"
   id="path39" />
  <g
   id="g43">
   <path
   class="fil0"
   d="M2682 1393l0 -16 31 0 0 16 -31 0zm-77 0l0 -16 31 0 0 16 -31 0zm-77 0l0 -16 31 0 0 16 -31 0zm-77 0l0 -16 31 0 0 16 -31 0zm-77 0l0 -16 31 0 0 16 -31 0zm-77 0l0 -16 31 0 0 16 -31 0zm-77 0l0 -16 31 0 0 16 -31 0zm-77 0l0 -16 31 0 0 16 -31 0zm-77 0l0 -16 31 0 0 16 -31 0zm-77 0l0 -16 31 0 0 16 -31 0zm-77 0l0 -16 31 0 0 16 -31 0zm-77 0l0 -16 31 0 0 16 -31 0zm-77 0l0 -16 31 0 0 16 -31 0zm-77 0l0 -16 31 0 0 16 -31 0zm-77 0l0 -16 31 0 0 16 -31 0zm-77 0l0 -16 31 0 0 16 -31 0zm-77 0l0 -16 31 0 0 16 -31 0zm-77 0l0 -16 31 0 0 16 -31 0zm-77 0l0 -16 31 0 0 16 -31 0zm-77 0l0 -16 31 0 0 16 -31 0zm-77 0l0 -16 31 0 0 16 -31 0zm-77 0l0 -16 31 0 0 16 -31 0zm-77 0l0 -16 31 0 0 16 -31 0zm-77 0l0 -16 31 0 0 16 -31 0zm-77 0l0 -16 31 0 0 16 -31 0zm-77 0l0 -16 31 0 0 16 -31 0zm-77 0l0 -16 31 0 0 16 -31 0zm-77 0l0 -16 31 0 0 16 -31 0zm-77 0l0 -16 31 0 0 16 -31 0zm-77 0l0 -16 31 0 0 16 -31 0zm-77 0l0 -16 31 0 0 16 -31 0zm-77 0l0 -16 31 0 0 16 -31 0zm-77 0l0 -16 31 0 0 16 -31 0zm-77 0l0 -16 31 0 0 16 -31 0zm-77 0l0 -16 31 0 0 16 -31 0zm-48 -16l1 0 0 16 -1 0 0 -16z"
   id="path41" />
  </g>
  <g
   id="g47">
   <path
   class="fil0"
   d="M2682 2585l0 -16 31 0 0 16 -31 0zm-77 0l0 -16 31 0 0 16 -31 0zm-77 0l0 -16 31 0 0 16 -31 0zm-77 0l0 -16 31 0 0 16 -31 0zm-77 0l0 -16 31 0 0 16 -31 0zm-77 0l0 -16 31 0 0 16 -31 0zm-77 0l0 -16 31 0 0 16 -31 0zm-77 0l0 -16 31 0 0 16 -31 0zm-77 0l0 -16 31 0 0 16 -31 0zm-77 0l0 -16 31 0 0 16 -31 0zm-77 0l0 -16 31 0 0 16 -31 0zm-77 0l0 -16 31 0 0 16 -31 0zm-77 0l0 -16 31 0 0 16 -31 0zm-77 0l0 -16 31 0 0 16 -31 0zm-77 0l0 -16 31 0 0 16 -31 0zm-77 0l0 -16 31 0 0 16 -31 0zm-77 0l0 -16 31 0 0 16 -31 0zm-77 0l0 -16 31 0 0 16 -31 0zm-77 0l0 -16 31 0 0 16 -31 0zm-77 0l0 -16 31 0 0 16 -31 0zm-77 0l0 -16 31 0 0 16 -31 0zm-77 0l0 -16 31 0 0 16 -31 0zm-77 0l0 -16 31 0 0 16 -31 0zm-77 0l0 -16 31 0 0 16 -31 0zm-77 0l0 -16 31 0 0 16 -31 0zm-77 0l0 -16 31 0 0 16 -31 0zm-77 0l0 -16 31 0 0 16 -31 0zm-77 0l0 -16 31 0 0 16 -31 0zm-77 0l0 -16 31 0 0 16 -31 0zm-77 0l0 -16 31 0 0 16 -31 0zm-77 0l0 -16 31 0 0 16 -31 0zm-77 0l0 -16 31 0 0 16 -31 0zm-77 0l0 -16 31 0 0 16 -31 0zm-77 0l0 -16 31 0 0 16 -31 0zm-77 0l0 -16 31 0 0 16 -31 0zm-48 -16l1 0 0 16 -1 0 0 -16z"
   id="path45" />
  </g>
  <path
   class="fil6"
   d="M0 1309l0 -99 26 0 0 62 19 0 0 -58 25 0 0 58 24 0 0 -64 27 0 0 101 -120 0zm33 -112l0 -40 24 -14 -24 -16 0 -37 42 30 46 -32 0 39 -28 16 28 19 0 36 -46 -32 -42 30zm52 -213l0 67c5,-1 9,-2 12,-4 4,-3 6,-7 6,-13 0,-3 -1,-6 -2,-9 -1,-2 -3,-4 -5,-6l3 -33c9,5 15,11 19,18 4,7 6,17 6,31 0,12 -2,21 -5,27 -3,7 -8,12 -16,16 -7,4 -15,7 -25,7 -14,0 -25,-4 -33,-13 -8,-9 -13,-21 -13,-36 0,-12 2,-22 6,-30 4,-7 9,-13 16,-17 7,-4 17,-6 28,-6l4 0zm-16 34c-6,1 -11,2 -14,5 -3,3 -4,7 -4,11 0,5 2,10 6,13 3,2 7,3 12,4l0 -33zm17 -114l4 -32c7,2 12,5 17,9 5,4 9,9 11,15 3,6 4,14 4,24 0,9 -1,17 -3,23 -2,6 -5,11 -8,16 -4,4 -8,8 -14,10 -5,3 -12,4 -21,4 -9,0 -16,-2 -22,-5 -4,-2 -8,-5 -12,-9 -3,-4 -6,-8 -8,-12 -3,-7 -4,-15 -4,-25 0,-14 3,-25 8,-33 5,-7 13,-13 22,-16l4 31c-4,1 -7,3 -8,5 -2,3 -3,6 -3,10 0,6 2,10 6,13 4,3 10,5 18,5 7,0 13,-2 16,-5 4,-3 6,-8 6,-13 0,-4 -1,-8 -3,-11 -2,-3 -6,-5 -10,-7zm34 -139l0 31 -14 0c6,5 10,9 12,14 2,5 4,11 4,17 0,9 -3,16 -8,22 -5,5 -14,8 -25,8l-55 0 0 -34 48 0c5,0 9,-1 12,-3 2,-2 3,-5 3,-8 0,-4 -2,-7 -5,-10 -3,-3 -9,-4 -17,-4l-42 0 0 -33 87 0zm-120 -61l33 0 0 -18 25 0 0 18 31 0c4,0 6,0 7,-1 2,-1 3,-3 3,-6 0,-2 -1,-6 -2,-10l23 -2c2,8 3,16 3,23 0,8 -1,14 -3,18 -2,4 -5,7 -10,9 -4,2 -11,3 -21,3l-31 0 0 12 -25 0 0 -12 -16 0 -17 -33zm0 -35l0 -33 23 0 0 33 -23 0zm33 0l0 -33 87 0 0 33 -87 0zm44 -51c-13,0 -24,-4 -33,-13 -9,-9 -13,-21 -13,-36 0,-17 5,-31 15,-39 8,-7 18,-11 30,-11 13,0 24,4 33,13 9,9 13,21 13,37 0,14 -4,25 -11,34 -9,11 -20,16 -35,16zm0 -33c8,0 14,-2 17,-5 4,-3 6,-7 6,-12 0,-5 -2,-9 -6,-12 -4,-3 -10,-5 -18,-5 -8,0 -13,2 -17,5 -4,3 -6,7 -6,12 0,5 2,9 6,12 4,3 9,5 17,5zm-44 -83l0 -31 14 0c-6,-5 -10,-9 -12,-14 -2,-5 -4,-11 -4,-17 0,-9 3,-16 8,-22 5,-5 14,-8 25,-8l55 0 0 34 -48 0c-5,0 -9,1 -12,3 -2,2 -3,5 -3,8 0,4 2,7 5,10 3,2 9,4 17,4l42 0 0 33 -87 0z"
   id="path49" />
  <path
   class="fil6"
   d="M0 2513l0 -37 120 0 0 37 -120 0zm33 -62l0 -31 14 0c-6,-5 -10,-9 -12,-14 -2,-5 -4,-11 -4,-17 0,-9 3,-16 8,-22 5,-5 14,-8 25,-8l55 0 0 34 -48 0c-5,0 -9,1 -12,3 -2,2 -3,5 -3,8 0,4 2,7 5,10 3,2 9,4 17,4l42 0 0 33 -87 0zm-33 -152l33 0 0 -18 25 0 0 18 31 0c4,0 6,0 7,-1 2,-1 3,-3 3,-6 0,-2 -1,-6 -2,-10l23 -2c2,8 3,16 3,23 0,8 -1,14 -3,18 -2,4 -5,7 -10,9 -4,2 -11,3 -21,3l-31 0 0 12 -25 0 0 -12 -16 0 -17 -33zm85 -131l0 67c5,-1 9,-2 12,-4 4,-3 6,-7 6,-13 0,-3 -1,-6 -2,-9 -1,-2 -3,-4 -5,-6l3 -33c9,5 15,11 19,18 4,7 6,17 6,31 0,12 -2,21 -5,27 -3,7 -8,12 -16,16 -7,4 -15,7 -25,7 -14,0 -25,-4 -33,-13 -8,-9 -13,-21 -13,-36 0,-12 2,-22 6,-30 4,-7 9,-13 16,-17 7,-4 17,-6 28,-6l4 0zm-16 34c-6,1 -11,2 -14,5 -3,3 -4,7 -4,11 0,5 2,10 6,13 3,2 7,3 12,4l0 -33zm-36 -50l0 -31 14 0c-6,-3 -10,-6 -13,-9 -2,-3 -3,-7 -3,-12 0,-5 2,-10 5,-16l24 10c-2,4 -2,7 -2,9 0,4 2,8 5,10 5,3 15,5 29,5l29 0 0 34 -87 0zm28 -108l-3 32c-6,-1 -10,-3 -13,-5 -3,-2 -6,-6 -8,-10 -2,-3 -3,-7 -4,-13 -1,-5 -1,-11 -1,-17 0,-10 1,-18 2,-24 1,-6 3,-11 7,-15 2,-3 6,-5 10,-7 5,-2 9,-2 13,-2l39 0c4,0 7,0 10,-1 2,-1 5,-2 9,-3l0 31c-2,1 -4,2 -5,2 -1,0 -3,1 -5,1 4,4 7,9 9,13 2,6 4,13 4,21 0,10 -2,18 -7,24 -5,5 -11,8 -18,8 -7,0 -12,-2 -16,-6 -4,-4 -7,-11 -10,-21 -3,-13 -4,-21 -5,-24 -1,-4 -2,-8 -4,-12 -4,0 -7,1 -9,3 -2,2 -2,5 -2,9 0,5 1,10 3,12 1,2 4,4 8,5zm17 -29c2,5 3,9 4,14 2,7 4,11 5,13 2,2 4,3 6,3 3,0 5,-1 7,-3 2,-2 3,-5 3,-8 0,-4 -1,-7 -3,-10 -2,-3 -4,-5 -7,-7 -3,-1 -6,-2 -10,-2l-5 0zm7 -118l4 -32c7,2 12,5 17,9 5,4 9,9 11,15 3,6 4,14 4,24 0,9 -1,17 -3,23 -2,6 -5,11 -8,16 -4,4 -8,8 -14,10 -5,3 -12,4 -21,4 -9,0 -16,-2 -22,-5 -4,-2 -8,-5 -12,-9 -3,-4 -6,-8 -8,-12 -3,-7 -4,-15 -4,-25 0,-14 3,-25 8,-33 5,-7 13,-13 22,-16l4 31c-4,1 -7,3 -8,5 -2,3 -3,6 -3,10 0,6 2,10 6,13 4,3 10,5 18,5 7,0 13,-2 16,-5 4,-3 6,-8 6,-13 0,-4 -1,-8 -3,-11 -2,-3 -6,-5 -10,-7zm-86 -87l33 0 0 -18 25 0 0 18 31 0c4,0 6,0 7,-1 2,-1 3,-3 3,-6 0,-2 -1,-6 -2,-10l23 -2c2,8 3,16 3,23 0,8 -1,14 -3,18 -2,4 -5,7 -10,9 -4,2 -11,3 -21,3l-31 0 0 12 -25 0 0 -12 -16 0 -17 -33zm0 -35l0 -33 23 0 0 33 -23 0zm33 0l0 -33 87 0 0 33 -87 0zm44 -51c-13,0 -24,-4 -33,-13 -9,-9 -13,-21 -13,-36 0,-17 5,-31 15,-39 8,-7 18,-11 30,-11 13,0 24,4 33,13 9,9 13,21 13,37 0,14 -4,25 -11,34 -9,11 -20,16 -35,16zm0 -33c8,0 14,-2 17,-5 4,-3 6,-7 6,-12 0,-5 -2,-9 -6,-12 -4,-3 -10,-5 -18,-5 -8,0 -13,2 -17,5 -4,3 -6,7 -6,12 0,5 2,9 6,12 4,3 9,5 17,5zm-44 -83l0 -31 14 0c-6,-5 -10,-9 -12,-14 -2,-5 -4,-11 -4,-17 0,-9 3,-16 8,-22 5,-5 14,-8 25,-8l55 0 0 34 -48 0c-5,0 -9,1 -12,3 -2,2 -3,5 -3,8 0,4 2,7 5,10 3,2 9,4 17,4l42 0 0 33 -87 0z"
   id="path51" />
  <path
   class="fil6"
   d="M120 3627l-120 0 0 -62c0,-11 1,-20 3,-26 2,-6 6,-11 11,-15 5,-4 12,-6 20,-6 7,0 12,1 17,4 5,3 9,7 12,12 2,3 3,8 5,13 1,-4 3,-8 4,-10 1,-1 3,-3 6,-6 3,-3 6,-4 7,-5l35 -18 0 42 -37 20c-5,3 -8,5 -9,7 -2,3 -3,6 -3,9l0 3 49 0 0 37zm-71 -37l0 -16c0,-2 -1,-5 -2,-10 0,-2 -2,-4 -4,-6 -2,-2 -4,-2 -7,-2 -4,0 -7,1 -9,4 -2,2 -3,7 -3,14l0 16 25 0zm36 -183l0 67c5,-1 9,-2 12,-4 4,-3 6,-7 6,-13 0,-3 -1,-6 -2,-9 -1,-2 -3,-4 -5,-6l3 -33c9,5 15,11 19,18 4,7 6,17 6,31 0,12 -2,21 -5,27 -3,7 -8,12 -16,16 -7,4 -15,7 -25,7 -14,0 -25,-4 -33,-13 -8,-9 -13,-21 -13,-36 0,-12 2,-22 6,-30 4,-7 9,-13 16,-17 7,-4 17,-6 28,-6l4 0zm-16 34c-6,1 -11,2 -14,5 -3,3 -4,7 -4,11 0,5 2,10 6,13 3,2 7,3 12,4l0 -33zm-36 -49l0 -31 14 0c-6,-5 -10,-9 -12,-14 -2,-5 -4,-11 -4,-17 0,-9 3,-16 8,-22 5,-5 14,-8 25,-8l55 0 0 34 -48 0c-5,0 -9,1 -12,3 -2,2 -3,5 -3,8 0,4 2,7 5,10 3,2 9,4 17,4l42 0 0 33 -87 0zm-33 -204l120 0 0 31 -13 0c5,4 9,8 11,12 3,5 4,10 4,16 0,12 -5,21 -14,27 -9,6 -20,9 -33,9 -14,0 -26,-3 -33,-10 -8,-7 -12,-16 -12,-26 0,-5 1,-10 3,-14 2,-4 4,-8 8,-11l-42 0 0 -34zm76 33c-7,0 -12,1 -15,4 -3,3 -5,7 -5,11 0,4 2,7 5,10 3,3 9,4 16,4 7,0 12,-1 16,-4 3,-3 5,-6 5,-10 0,-4 -2,-8 -5,-11 -3,-3 -9,-4 -16,-4zm9 -151l0 67c5,-1 9,-2 12,-4 4,-3 6,-7 6,-13 0,-3 -1,-6 -2,-9 -1,-2 -3,-4 -5,-6l3 -33c9,5 15,11 19,18 4,7 6,17 6,31 0,12 -2,21 -5,27 -3,7 -8,12 -16,16 -7,4 -15,7 -25,7 -14,0 -25,-4 -33,-13 -8,-9 -13,-21 -13,-36 0,-12 2,-22 6,-30 4,-7 9,-13 16,-17 7,-4 17,-6 28,-6l4 0zm-16 34c-6,1 -11,2 -14,5 -3,3 -4,7 -4,11 0,5 2,10 6,13 3,2 7,3 12,4l0 -33zm-36 -50l0 -31 14 0c-6,-3 -10,-6 -13,-9 -2,-3 -3,-7 -3,-12 0,-5 2,-10 5,-16l24 10c-2,4 -2,7 -2,9 0,4 2,8 5,10 5,3 15,5 29,5l29 0 0 34 -87 0zm-33 -75l0 -33 23 0 0 33 -23 0zm33 0l0 -33 87 0 0 33 -87 0zm0 -55l0 -31 14 0c-6,-5 -10,-9 -12,-14 -2,-5 -4,-11 -4,-17 0,-9 3,-16 8,-22 5,-5 14,-8 25,-8l55 0 0 34 -48 0c-5,0 -9,1 -12,3 -2,2 -3,5 -3,8 0,4 2,7 5,10 3,2 9,4 17,4l42 0 0 33 -87 0zm0 -173l0 -31 82 0 4 0c5,0 11,1 16,3 5,2 9,5 12,9 3,4 5,9 7,15 1,6 2,13 2,20 0,17 -3,29 -8,36 -5,7 -12,10 -21,10 -1,0 -3,0 -4,0l4 -32c3,-1 5,-2 6,-4 2,-2 3,-6 3,-9 0,-5 -1,-8 -4,-11 -3,-2 -7,-4 -13,-4l-13 0c4,3 7,7 8,10 3,5 4,11 4,17 0,12 -5,21 -15,28 -7,5 -17,8 -29,8 -14,0 -24,-3 -31,-10 -7,-7 -11,-15 -11,-26 0,-7 1,-12 3,-17 2,-4 6,-9 11,-12l-13 0zm42 31c6,0 11,-1 14,-4 3,-3 5,-6 5,-11 0,-4 -2,-8 -5,-10 -3,-3 -8,-4 -14,-4 -6,0 -11,1 -15,4 -3,3 -5,7 -5,11 0,4 2,8 5,10 3,3 8,4 15,4z"
   id="path53" />
  <path
   class="fil7 str5"
   d="M1357 4561c53,0 96,43 96,96 0,53 -43,96 -96,96 -53,0 -96,-43 -96,-96 0,-53 43,-96 96,-96z"
   id="path55" />
  <path
   class="fil8 str5"
   d="M1357 4582c42,0 75,34 75,75 0,42 -34,75 -75,75 -42,0 -75,-34 -75,-75 0,-42 34,-75 75,-75z"
   id="path57" />
  <g
   id="g61">
   <path
   class="fil0"
   d="M2682 3730l0 -16 31 0 0 16 -31 0zm-77 0l0 -16 31 0 0 16 -31 0zm-77 0l0 -16 31 0 0 16 -31 0zm-77 0l0 -16 31 0 0 16 -31 0zm-77 0l0 -16 31 0 0 16 -31 0zm-77 0l0 -16 31 0 0 16 -31 0zm-77 0l0 -16 31 0 0 16 -31 0zm-77 0l0 -16 31 0 0 16 -31 0zm-77 0l0 -16 31 0 0 16 -31 0zm-77 0l0 -16 31 0 0 16 -31 0zm-77 0l0 -16 31 0 0 16 -31 0zm-77 0l0 -16 31 0 0 16 -31 0zm-77 0l0 -16 31 0 0 16 -31 0zm-77 0l0 -16 31 0 0 16 -31 0zm-77 0l0 -16 31 0 0 16 -31 0zm-77 0l0 -16 31 0 0 16 -31 0zm-77 0l0 -16 31 0 0 16 -31 0zm-77 0l0 -16 31 0 0 16 -31 0zm-77 0l0 -16 31 0 0 16 -31 0zm-77 0l0 -16 31 0 0 16 -31 0zm-77 0l0 -16 31 0 0 16 -31 0zm-77 0l0 -16 31 0 0 16 -31 0zm-77 0l0 -16 31 0 0 16 -31 0zm-77 0l0 -16 31 0 0 16 -31 0zm-77 0l0 -16 31 0 0 16 -31 0zm-77 0l0 -16 31 0 0 16 -31 0zm-77 0l0 -16 31 0 0 16 -31 0zm-77 0l0 -16 31 0 0 16 -31 0zm-77 0l0 -16 31 0 0 16 -31 0zm-77 0l0 -16 31 0 0 16 -31 0zm-77 0l0 -16 31 0 0 16 -31 0zm-77 0l0 -16 31 0 0 16 -31 0zm-77 0l0 -16 31 0 0 16 -31 0zm-77 0l0 -16 31 0 0 16 -31 0zm-77 0l0 -16 31 0 0 16 -31 0zm-48 -16l1 0 0 16 -1 0 0 -16z"
   id="path59" />
  </g>
  <g
   id="g65">
   <path
   class="fil0"
   d="M1349 2650l0 -483 16 0 0 483 -16 0zm8 55l-47 -110 3 1 3 1 3 1 3 1 3 1 3 1 3 1 3 1 3 1 3 1 3 1 3 0 3 0 3 0 3 0 3 0 3 0 3 0 3 0 3 0 3 0 3 -1 3 -1 3 -1 3 -1 3 -1 3 -1 3 -1 3 -1 3 -1 3 -1 3 -1 0 0 -47 110z"
   id="path63" />
  </g>
  <path
   class="fil5"
   d="M764 2053l0 -113 14 0 0 41c6,-8 15,-11 24,-11 6,0 11,1 16,4 4,2 8,6 10,10 2,4 3,10 3,18l0 52 -14 0 0 -52c0,-7 -1,-12 -4,-15 -3,-3 -7,-5 -13,-5 -4,0 -8,1 -12,3 -4,2 -6,5 -8,9 -2,4 -2,9 -2,15l0 45 -14 0zm141 -10c-5,4 -10,7 -15,9 -5,2 -10,3 -15,3 -9,0 -16,-2 -21,-7 -5,-4 -7,-10 -7,-17 0,-4 1,-8 3,-11 2,-3 4,-6 7,-8 3,-2 6,-4 10,-5 3,-1 7,-1 12,-2 11,-1 19,-3 25,-5 0,-2 0,-3 0,-4 0,-6 -1,-10 -4,-12 -4,-3 -9,-5 -16,-5 -7,0 -11,1 -14,3 -3,2 -5,6 -7,12l-14 -2c1,-6 3,-11 6,-14 3,-4 7,-6 12,-8 5,-2 12,-3 19,-3 7,0 13,1 17,2 4,2 8,4 10,6 2,3 3,6 4,9 0,2 1,7 1,13l0 18c0,13 0,21 1,24 1,3 2,7 3,10l-15 0c-1,-3 -2,-6 -3,-10zm-1 -31c-5,2 -13,4 -23,5 -6,1 -10,2 -12,3 -2,1 -4,3 -5,4 -1,2 -2,4 -2,7 0,4 1,7 4,9 3,2 7,4 12,4 5,0 10,-1 14,-3 4,-2 7,-5 9,-10 1,-3 2,-8 2,-14l0 -5zm35 41l0 -82 12 0 0 12c6,-9 15,-13 26,-13 5,0 9,1 14,3 4,2 7,4 9,7 2,3 3,6 4,10 0,3 1,7 1,13l0 50 -14 0 0 -50c0,-6 -1,-10 -2,-13 -1,-3 -3,-5 -6,-7 -3,-2 -6,-3 -10,-3 -6,0 -11,2 -15,6 -4,4 -6,11 -6,21l0 45 -14 0zm141 0l0 -10c-5,8 -13,12 -23,12 -7,0 -13,-2 -18,-5 -5,-4 -10,-9 -13,-15 -3,-6 -4,-14 -4,-22 0,-8 1,-16 4,-22 3,-7 7,-12 12,-15 5,-4 12,-5 18,-5 5,0 9,1 13,3 4,2 7,5 9,8l0 -41 14 0 0 113 -13 0zm-44 -41c0,10 2,18 7,23 4,5 10,8 16,8 6,0 11,-2 15,-7 4,-5 6,-12 6,-23 0,-11 -2,-19 -6,-25 -4,-5 -10,-8 -16,-8 -6,0 -11,2 -15,8 -4,5 -6,13 -6,24zm78 41l0 -113 14 0 0 113 -14 0zm91 -27l14 2c-2,8 -6,15 -13,19 -6,5 -14,7 -23,7 -12,0 -21,-4 -28,-11 -7,-7 -10,-18 -10,-31 0,-14 4,-24 11,-32 7,-8 16,-11 28,-11 11,0 20,4 27,11 7,7 10,18 10,31 0,1 0,2 0,4l-61 0c1,9 3,16 8,21 5,5 10,7 17,7 5,0 9,-1 13,-4 4,-3 6,-7 9,-13zm-45 -22l46 0c-1,-7 -2,-12 -5,-15 -4,-5 -10,-8 -17,-8 -6,0 -12,2 -16,6 -4,4 -7,10 -7,17zm76 -1l0 -13 74 -32 0 14 -59 24 59 25 0 14 -74 -32zm91 13l14 -1c1,6 2,10 5,14 2,4 6,7 11,9 5,2 11,3 17,3 6,0 11,-1 15,-3 4,-2 8,-4 10,-7 2,-3 3,-6 3,-10 0,-4 -1,-7 -3,-9 -2,-3 -5,-5 -10,-7 -3,-1 -10,-3 -20,-5 -10,-2 -18,-5 -22,-7 -5,-3 -9,-6 -12,-11 -3,-4 -4,-9 -4,-14 0,-6 2,-11 5,-16 3,-5 8,-9 14,-11 6,-3 13,-4 21,-4 8,0 16,1 22,4 6,3 11,7 15,12 3,5 5,11 6,18l-14 1c-1,-7 -3,-13 -8,-16 -4,-4 -11,-5 -20,-5 -9,0 -16,2 -20,5 -4,3 -6,7 -6,12 0,4 1,7 4,10 3,3 10,5 23,8 12,3 20,5 25,7 7,3 11,7 15,11 3,5 5,10 5,16 0,6 -2,12 -5,17 -3,5 -8,9 -15,12 -6,3 -14,4 -22,4 -10,0 -19,-1 -26,-4 -7,-3 -12,-7 -16,-13 -4,-6 -6,-13 -6,-20zm108 -61l0 -16 14 0 0 16 -14 0zm0 97l0 -82 14 0 0 82 -14 0zm33 7l13 2c1,4 2,7 5,9 3,3 8,4 14,4 6,0 11,-1 15,-4 3,-3 6,-6 7,-11 1,-3 1,-9 1,-18 -6,7 -14,11 -23,11 -11,0 -20,-4 -26,-12 -6,-8 -9,-18 -9,-29 0,-8 1,-15 4,-22 3,-7 7,-12 12,-15 5,-4 12,-5 19,-5 10,0 18,4 24,12l0 -10 13 0 0 71c0,13 -1,22 -4,27 -3,5 -7,10 -12,13 -6,3 -13,5 -21,5 -10,0 -18,-2 -24,-7 -6,-4 -9,-11 -9,-20zm11 -49c0,11 2,19 6,23 4,5 10,7 16,7 6,0 12,-2 16,-7 4,-5 6,-13 6,-23 0,-10 -2,-18 -7,-23 -4,-5 -10,-8 -16,-8 -6,0 -11,2 -16,7 -4,5 -6,12 -6,22zm79 42l0 -82 12 0 0 12c6,-9 15,-13 26,-13 5,0 9,1 14,3 4,2 7,4 9,7 2,3 3,6 4,10 0,3 1,7 1,13l0 50 -14 0 0 -50c0,-6 -1,-10 -2,-13 -1,-3 -3,-5 -6,-7 -3,-2 -6,-3 -10,-3 -6,0 -11,2 -15,6 -4,4 -6,11 -6,21l0 45 -14 0zm141 -10c-5,4 -10,7 -15,9 -5,2 -10,3 -15,3 -9,0 -16,-2 -21,-7 -5,-4 -7,-10 -7,-17 0,-4 1,-8 3,-11 2,-3 4,-6 7,-8 3,-2 6,-4 10,-5 3,-1 7,-1 12,-2 11,-1 19,-3 25,-5 0,-2 0,-3 0,-4 0,-6 -1,-10 -4,-12 -4,-3 -9,-5 -16,-5 -7,0 -11,1 -14,3 -3,2 -5,6 -7,12l-14 -2c1,-6 3,-11 6,-14 3,-4 7,-6 12,-8 5,-2 12,-3 19,-3 7,0 13,1 17,2 4,2 8,4 10,6 2,3 3,6 4,9 0,2 1,7 1,13l0 18c0,13 0,21 1,24 1,3 2,7 3,10l-15 0c-1,-3 -2,-6 -3,-10zm-1 -31c-5,2 -13,4 -23,5 -6,1 -10,2 -12,3 -2,1 -4,3 -5,4 -1,2 -2,4 -2,7 0,4 1,7 4,9 3,2 7,4 12,4 5,0 10,-1 14,-3 4,-2 7,-5 9,-10 1,-3 2,-8 2,-14l0 -5zm35 41l0 -113 14 0 0 113 -14 0zm108 -49l-74 32 0 -14 59 -25 -59 -24 0 -14 74 32 0 13zm46 83c-8,-10 -14,-21 -19,-34 -5,-13 -8,-26 -8,-40 0,-12 2,-24 6,-35 5,-13 12,-26 21,-39l10 0c-6,11 -10,18 -12,23 -3,7 -6,14 -7,22 -2,10 -3,19 -3,29 0,25 8,49 23,74l-10 0zm35 0l-10 0c15,-25 23,-49 23,-74 0,-10 -1,-19 -3,-29 -2,-8 -4,-15 -7,-22 -2,-5 -6,-12 -12,-23l10 0c10,13 17,26 21,39 4,11 6,23 6,35 0,14 -3,27 -8,40 -5,13 -12,24 -19,34z"
   id="path67" />
  <line
   class="fil9 str6"
   x1="1357"
   y1="153"
   x2="1357"
   y2="153"
   id="line69" />
  <line
   class="fil9 str6"
   x1="1357"
   y1="153"
   x2="1357"
   y2="153"
   id="line71" />
  <line
   class="fil9 str6"
   x1="1357"
   y1="153"
   x2="1357"
   y2="153"
   id="line73" />
  <path
   class="fil8 str7"
   d="M1357 2c42,0 75,34 75,75 0,42 -34,75 -75,75 -42,0 -75,-34 -75,-75 0,-42 34,-75 75,-75z"
   id="path75" />
  <polygon
   class="fil10 str8"
   points="2283,1245 3314,1245 3314,1498 2283,1498 "
   id="polygon77" />
  <path
   class="fil0"
   d="M2504 1385l13 3c-3,10 -7,18 -14,23 -7,5 -15,8 -25,8 -10,0 -18,-2 -25,-6 -6,-4 -11,-10 -15,-18 -3,-8 -5,-16 -5,-25 0,-10 2,-18 6,-26 4,-7 9,-13 16,-17 7,-4 15,-6 23,-6 9,0 17,2 24,7 6,5 11,12 13,20l-12 3c-2,-7 -5,-12 -10,-15 -4,-3 -9,-5 -16,-5 -7,0 -13,2 -18,5 -5,3 -8,8 -10,14 -2,6 -3,12 -3,18 0,8 1,15 3,21 2,6 6,10 11,13 5,3 10,4 16,4 7,0 13,-2 18,-6 5,-4 8,-10 10,-18zm71 25c-4,4 -8,6 -12,8 -4,2 -8,2 -13,2 -8,0 -13,-2 -17,-6 -4,-4 -6,-8 -6,-14 0,-3 1,-6 2,-9 2,-3 4,-5 6,-7 2,-2 5,-3 8,-4 2,-1 6,-1 10,-2 9,-1 16,-2 21,-4 0,-2 0,-3 0,-3 0,-5 -1,-8 -3,-10 -3,-3 -7,-4 -13,-4 -5,0 -10,1 -12,3 -3,2 -5,5 -6,10l-11 -2c1,-5 3,-9 5,-12 2,-3 6,-5 10,-7 4,-2 10,-2 16,-2 6,0 11,1 14,2 4,1 6,3 8,5 2,2 3,5 4,8 0,2 1,6 1,11l0 15c0,11 0,18 1,20 0,3 1,6 3,8l-12 0c-1,-2 -2,-5 -2,-9zm-1 -26c-4,2 -11,3 -19,4 -5,1 -8,1 -10,2 -2,1 -3,2 -5,4 -1,2 -2,3 -2,6 0,3 1,6 4,8 2,2 6,3 10,3 4,0 8,-1 12,-3 3,-2 6,-5 8,-8 1,-3 2,-6 2,-12l0 -4zm30 34l0 -69 10 0 0 10c5,-7 12,-11 22,-11 4,0 8,1 11,2 3,1 6,3 8,6 2,2 3,5 4,9 0,2 1,6 1,11l0 42 -12 0 0 -42c0,-5 0,-8 -1,-11 -1,-2 -3,-4 -5,-6 -2,-1 -5,-2 -8,-2 -5,0 -9,2 -13,5 -4,3 -5,9 -5,18l0 37 -12 0zm69 -34c0,-13 4,-22 11,-28 6,-5 13,-8 22,-8 9,0 17,3 23,9 6,6 9,15 9,26 0,9 -1,16 -4,21 -3,5 -6,9 -12,12 -5,3 -11,4 -17,4 -10,0 -17,-3 -23,-9 -6,-6 -9,-15 -9,-27zm12 0c0,9 2,15 6,20 4,4 9,7 15,7 6,0 11,-2 14,-7 4,-4 6,-11 6,-20 0,-8 -2,-15 -6,-19 -4,-4 -9,-7 -14,-7 -6,0 -11,2 -15,6 -4,4 -6,11 -6,20zm66 34l0 -69 10 0 0 10c5,-7 12,-11 22,-11 4,0 8,1 11,2 3,1 6,3 8,6 2,2 3,5 4,9 0,2 1,6 1,11l0 42 -12 0 0 -42c0,-5 0,-8 -1,-11 -1,-2 -3,-4 -5,-6 -2,-1 -5,-2 -8,-2 -5,0 -9,2 -13,5 -4,3 -5,9 -5,18l0 37 -12 0zm73 -81l0 -13 12 0 0 13 -12 0zm0 81l0 -69 12 0 0 69 -12 0zm74 -25l11 2c-1,8 -4,14 -10,18 -5,4 -11,7 -19,7 -9,0 -17,-3 -23,-9 -6,-6 -9,-15 -9,-26 0,-7 1,-14 4,-19 2,-6 6,-10 11,-12 5,-3 10,-4 16,-4 7,0 14,2 18,6 5,4 8,9 9,16l-11 2c-1,-5 -3,-8 -6,-10 -3,-2 -6,-3 -10,-3 -6,0 -11,2 -14,6 -4,4 -5,11 -5,20 0,9 2,16 5,20 4,4 8,6 14,6 5,0 8,-1 11,-4 3,-3 5,-7 6,-13zm66 17c-4,4 -8,6 -12,8 -4,2 -8,2 -13,2 -8,0 -13,-2 -17,-6 -4,-4 -6,-8 -6,-14 0,-3 1,-6 2,-9 2,-3 4,-5 6,-7 2,-2 5,-3 8,-4 2,-1 6,-1 10,-2 9,-1 16,-2 21,-4 0,-2 0,-3 0,-3 0,-5 -1,-8 -3,-10 -3,-3 -7,-4 -13,-4 -5,0 -10,1 -12,3 -3,2 -5,5 -6,10l-11 -2c1,-5 3,-9 5,-12 2,-3 6,-5 10,-7 4,-2 10,-2 16,-2 6,0 11,1 14,2 4,1 6,3 8,5 2,2 3,5 4,8 0,2 1,6 1,11l0 15c0,11 0,18 1,20 0,3 1,6 3,8l-12 0c-1,-2 -2,-5 -2,-9zm-1 -26c-4,2 -11,3 -19,4 -5,1 -8,1 -10,2 -2,1 -3,2 -5,4 -1,2 -2,3 -2,6 0,3 1,6 4,8 2,2 6,3 10,3 4,0 8,-1 12,-3 3,-2 6,-5 8,-8 1,-3 2,-6 2,-12l0 -4zm29 34l0 -95 12 0 0 95 -12 0zm30 -81l0 -13 12 0 0 13 -12 0zm0 81l0 -69 12 0 0 69 -12 0zm23 0l0 -9 43 -50c-5,0 -9,0 -13,0l-28 0 0 -9 56 0 0 8 -37 43 -7 8c5,0 10,-1 15,-1l32 0 0 10 -61 0zm119 -22l12 2c-2,7 -5,12 -10,16 -5,4 -12,6 -20,6 -10,0 -18,-3 -24,-9 -6,-6 -9,-15 -9,-26 0,-11 3,-20 9,-27 6,-6 14,-10 23,-10 9,0 17,3 22,9 6,6 9,15 9,26 0,1 0,2 0,3l-51 0c0,8 3,13 6,17 4,4 9,6 14,6 4,0 8,-1 11,-3 3,-2 5,-6 7,-11zm-38 -19l38 0c-1,-6 -2,-10 -4,-13 -4,-4 -8,-7 -14,-7 -5,0 -10,2 -13,5 -4,4 -6,8 -6,14z"
   id="path79" />
  <path
   class="fil2 str9"
   d="M499 4015l1714 0c93,0 168,76 168,168l0 0c0,93 -76,168 -168,168l-1714 0c-93,0 -168,-76 -168,-168l0 0c0,-93 76,-168 168,-168z"
   id="path81"
   style="filter:url(#filter1308)" />
  <path
   class="fil0"
   d="M437 4182c0,-15 4,-26 13,-34 7,-6 16,-9 26,-9 11,0 20,4 28,11 7,7 11,18 11,30 0,11 -2,19 -5,25 -3,6 -8,11 -14,14 -6,3 -13,5 -20,5 -11,0 -21,-4 -28,-11 -7,-7 -11,-18 -11,-32zm14 0c0,10 2,18 7,23 5,5 10,8 17,8 7,0 13,-3 17,-8 5,-5 7,-13 7,-24 0,-10 -2,-18 -7,-23 -5,-5 -10,-8 -17,-8 -7,0 -13,3 -17,8 -5,5 -7,13 -7,23zm79 41l0 -82 12 0 0 12c6,-9 15,-13 26,-13 5,0 9,1 14,3 4,2 7,4 9,7 2,3 3,6 4,10 0,3 1,7 1,13l0 50 -14 0 0 -50c0,-6 -1,-10 -2,-13 -1,-3 -3,-5 -6,-7 -3,-2 -6,-3 -10,-3 -6,0 -11,2 -15,6 -4,4 -6,11 -6,21l0 45 -14 0zm85 -36l14 -1c1,6 2,10 5,14 2,4 6,7 11,9 5,2 11,3 17,3 6,0 11,-1 15,-3 4,-2 8,-4 10,-7 2,-3 3,-6 3,-10 0,-4 -1,-7 -3,-9 -2,-3 -5,-5 -10,-7 -3,-1 -10,-3 -20,-5 -10,-3 -18,-5 -22,-7 -5,-3 -9,-6 -12,-11 -3,-4 -4,-9 -4,-14 0,-6 2,-11 5,-16 3,-5 8,-9 14,-11 6,-3 13,-4 21,-4 8,0 16,1 22,4 6,3 11,7 15,12 3,5 5,11 6,18l-14 1c-1,-7 -3,-13 -8,-16 -4,-4 -11,-5 -20,-5 -9,0 -16,2 -20,5 -4,3 -6,7 -6,12 0,4 1,7 4,10 3,3 10,5 23,8 12,3 20,5 25,7 7,3 11,7 15,11 3,5 5,10 5,16 0,6 -2,12 -5,17 -3,5 -8,9 -15,12 -6,3 -14,4 -22,4 -10,0 -19,-1 -26,-4 -7,-3 -12,-7 -16,-13 -4,-6 -6,-13 -6,-20zm108 36l0 -113 14 0 0 41c6,-8 15,-11 24,-11 6,0 11,1 16,4 4,2 8,6 10,10 2,4 3,10 3,18l0 52 -14 0 0 -52c0,-7 -1,-12 -4,-15 -3,-3 -7,-5 -13,-5 -4,0 -8,1 -12,3 -4,2 -6,5 -8,9 -2,4 -2,9 -2,15l0 45 -14 0zm141 0l0 -12c-6,9 -15,14 -26,14 -5,0 -9,-1 -13,-3 -4,-2 -7,-4 -9,-7 -2,-3 -3,-6 -4,-10 -1,-3 -1,-7 -1,-13l0 -51 14 0 0 45c0,7 0,12 1,15 1,4 3,6 6,9 3,2 6,3 10,3 4,0 8,-1 12,-3 4,-2 6,-5 8,-9 1,-4 2,-9 2,-16l0 -44 14 0 0 82 -12 0zm64 -12l2 12c-4,1 -7,1 -10,1 -5,0 -9,-1 -12,-2 -3,-2 -5,-4 -6,-6 -1,-3 -2,-8 -2,-16l0 -47 -10 0 0 -11 10 0 0 -20 14 -8 0 29 14 0 0 11 -14 0 0 48c0,4 0,7 1,8 0,1 1,2 2,3 1,1 3,1 5,1 2,0 4,0 6,-1zm67 12l0 -10c-5,8 -13,12 -23,12 -7,0 -13,-2 -18,-5 -5,-4 -10,-9 -13,-15 -3,-6 -4,-14 -4,-22 0,-8 1,-16 4,-22 3,-7 7,-12 12,-15 5,-4 12,-5 18,-5 5,0 9,1 13,3 4,2 7,5 9,8l0 -41 14 0 0 113 -13 0zm-44 -41c0,10 2,18 7,23 4,5 10,8 16,8 6,0 11,-2 15,-7 4,-5 6,-12 6,-23 0,-11 -2,-19 -6,-25 -4,-5 -10,-8 -16,-8 -6,0 -11,3 -15,8 -4,5 -6,13 -6,24zm74 0c0,-15 4,-26 13,-34 7,-6 16,-9 26,-9 11,0 20,4 28,11 7,7 11,18 11,30 0,11 -2,19 -5,25 -3,6 -8,11 -14,14 -6,3 -13,5 -20,5 -11,0 -21,-4 -28,-11 -7,-7 -11,-18 -11,-32zm14 0c0,10 2,18 7,23 5,5 10,8 17,8 7,0 13,-3 17,-8 5,-5 7,-13 7,-24 0,-10 -2,-18 -7,-23 -5,-5 -10,-8 -17,-8 -7,0 -13,3 -17,8 -5,5 -7,13 -7,23zm93 41l-25 -82 15 0 13 47 5 18c0,-1 2,-6 4,-17l13 -48 14 0 12 48 4 16 5 -16 14 -47 13 0 -26 82 -14 0 -13 -49 -3 -14 -17 63 -15 0zm99 0l0 -82 12 0 0 12c6,-9 15,-13 26,-13 5,0 9,1 14,3 4,2 7,4 9,7 2,3 3,6 4,10 0,3 1,7 1,13l0 50 -14 0 0 -50c0,-6 -1,-10 -2,-13 -1,-3 -3,-5 -6,-7 -3,-2 -6,-3 -10,-3 -6,0 -11,2 -15,6 -4,4 -6,11 -6,21l0 45 -14 0zm196 -13c-5,5 -10,9 -15,11 -5,3 -11,4 -18,4 -12,0 -21,-4 -28,-12 -5,-6 -8,-13 -8,-21 0,-7 2,-13 7,-19 4,-6 11,-11 20,-15 -5,-6 -9,-11 -10,-14 -2,-4 -3,-7 -3,-11 0,-7 3,-13 8,-18 5,-5 12,-8 20,-8 8,0 14,2 19,7 5,5 7,10 7,17 0,11 -7,20 -21,28l20 26c2,-5 4,-10 5,-16l14 3c-2,10 -6,18 -10,24 5,7 11,13 18,17l-9 11c-6,-4 -11,-9 -17,-16zm-28 -59c6,-4 10,-7 12,-9 2,-3 3,-6 3,-9 0,-4 -1,-7 -4,-9 -2,-2 -6,-4 -9,-4 -4,0 -7,1 -9,4 -3,2 -4,5 -4,9 0,2 0,4 1,6 1,2 2,4 4,6l6 7zm20 48l-25 -32c-8,4 -13,9 -15,12 -3,4 -4,8 -4,11 0,5 2,9 5,14 4,5 9,7 15,7 4,0 8,-1 13,-4 4,-3 8,-6 11,-10zm88 0l14 -2c1,5 3,10 6,13 4,3 8,4 15,4 6,0 11,-1 14,-4 3,-3 5,-6 5,-9 0,-3 -1,-6 -4,-7 -2,-1 -7,-3 -14,-5 -10,-3 -17,-5 -21,-7 -4,-2 -7,-4 -9,-8 -2,-3 -3,-7 -3,-11 0,-4 1,-7 3,-10 2,-3 4,-6 7,-8 2,-2 5,-3 9,-4 4,-1 8,-2 12,-2 6,0 12,1 17,3 5,2 8,4 11,8 2,3 4,7 5,13l-14 2c-1,-4 -2,-8 -5,-10 -3,-2 -7,-4 -12,-4 -6,0 -11,1 -14,3 -3,2 -4,5 -4,7 0,2 1,3 2,5 1,1 3,3 5,4 1,1 5,2 12,4 10,3 17,5 21,6 4,2 7,4 9,7 2,3 3,7 3,12 0,5 -1,9 -4,13 -3,4 -7,7 -12,9 -5,2 -11,3 -17,3 -11,0 -19,-2 -24,-7 -6,-4 -9,-11 -11,-20zm84 24l0 -113 14 0 0 41c6,-8 15,-11 24,-11 6,0 11,1 16,4 4,2 8,6 10,10 2,4 3,10 3,18l0 52 -14 0 0 -52c0,-7 -1,-12 -4,-15 -3,-3 -7,-5 -13,-5 -4,0 -8,1 -12,3 -4,2 -6,5 -8,9 -2,4 -2,9 -2,15l0 45 -14 0zm141 0l0 -12c-6,9 -15,14 -26,14 -5,0 -9,-1 -13,-3 -4,-2 -7,-4 -9,-7 -2,-3 -3,-6 -4,-10 -1,-3 -1,-7 -1,-13l0 -51 14 0 0 45c0,7 0,12 1,15 1,4 3,6 6,9 3,2 6,3 10,3 4,0 8,-1 12,-3 4,-2 6,-5 8,-9 1,-4 2,-9 2,-16l0 -44 14 0 0 82 -12 0zm64 -12l2 12c-4,1 -7,1 -10,1 -5,0 -9,-1 -12,-2 -3,-2 -5,-4 -6,-6 -1,-3 -2,-8 -2,-16l0 -47 -10 0 0 -11 10 0 0 -20 14 -8 0 29 14 0 0 11 -14 0 0 48c0,4 0,7 1,8 0,1 1,2 2,3 1,1 3,1 5,1 2,0 4,0 6,-1zm67 12l0 -10c-5,8 -13,12 -23,12 -7,0 -13,-2 -18,-5 -5,-4 -10,-9 -13,-15 -3,-6 -4,-14 -4,-22 0,-8 1,-16 4,-22 3,-7 7,-12 12,-15 5,-4 12,-5 18,-5 5,0 9,1 13,3 4,2 7,5 9,8l0 -41 14 0 0 113 -13 0zm-44 -41c0,10 2,18 7,23 4,5 10,8 16,8 6,0 11,-2 15,-7 4,-5 6,-12 6,-23 0,-11 -2,-19 -6,-25 -4,-5 -10,-8 -16,-8 -6,0 -11,3 -15,8 -4,5 -6,13 -6,24zm74 0c0,-15 4,-26 13,-34 7,-6 16,-9 26,-9 11,0 20,4 28,11 7,7 11,18 11,30 0,11 -2,19 -5,25 -3,6 -8,11 -14,14 -6,3 -13,5 -20,5 -11,0 -21,-4 -28,-11 -7,-7 -11,-18 -11,-32zm14 0c0,10 2,18 7,23 5,5 10,8 17,8 7,0 13,-3 17,-8 5,-5 7,-13 7,-24 0,-10 -2,-18 -7,-23 -5,-5 -10,-8 -17,-8 -7,0 -13,3 -17,8 -5,5 -7,13 -7,23zm93 41l-25 -82 15 0 13 47 5 18c0,-1 2,-6 4,-17l13 -48 14 0 12 48 4 16 5 -16 14 -47 13 0 -26 82 -14 0 -13 -49 -3 -14 -17 63 -15 0zm99 0l0 -82 12 0 0 12c6,-9 15,-13 26,-13 5,0 9,1 14,3 4,2 7,4 9,7 2,3 3,6 4,10 0,3 1,7 1,13l0 50 -14 0 0 -50c0,-6 -1,-10 -2,-13 -1,-3 -3,-5 -6,-7 -3,-2 -6,-3 -10,-3 -6,0 -11,2 -15,6 -4,4 -6,11 -6,21l0 45 -14 0zm114 33c-8,-10 -14,-21 -19,-34 -5,-13 -8,-26 -8,-40 0,-12 2,-24 6,-35 5,-13 12,-26 21,-39l10 0c-6,11 -10,18 -12,23 -3,7 -6,14 -7,22 -2,10 -3,19 -3,29 0,25 8,49 23,74l-10 0zm35 0l-10 0c15,-25 23,-49 23,-74 0,-10 -1,-19 -3,-29 -2,-8 -4,-15 -7,-22 -2,-5 -6,-12 -12,-23l10 0c10,13 17,26 21,39 4,11 6,23 6,35 0,14 -3,27 -8,40 -5,13 -12,24 -19,34z"
   id="path83" />
  <g
   id="g87">
   <path
   class="fil0"
   d="M1349 3960l0 -364 16 0 0 364 -16 0zm8 55l-47 -110 3 1 3 1 3 1 3 1 3 1 3 1 3 1 3 1 3 1 3 1 3 1 3 0 3 0 3 0 3 0 3 0 3 0 3 0 3 0 3 0 3 0 3 -1 3 -1 3 -1 3 -1 3 -1 3 -1 3 -1 3 -1 3 -1 3 -1 3 -1 0 0 -47 110z"
   id="path85" />
  </g>
  <g
   id="g91">
   <path
   class="fil0"
   d="M1349 4519l0 -167 16 0 0 167 -16 0zm8 55l-47 -110 3 1 3 1 3 1 3 1 3 1 3 1 3 1 3 1 3 1 3 1 3 1 3 0 3 0 3 0 3 0 3 0 3 0 3 0 3 0 3 0 3 0 3 -1 3 -1 3 -1 3 -1 3 -1 3 -1 3 -1 3 -1 3 -1 3 -1 3 -1 0 0 -47 110z"
   id="path89" />
  </g>
 </g>
</svg>
