<?xml version="1.0" encoding="UTF-8" standalone="no"?>
<svg
   xml:space="preserve"
   width="375px"
   height="540px"
   version="1.1"
   style="shape-rendering:geometricPrecision; text-rendering:geometricPrecision; image-rendering:optimizeQuality; fill-rule:evenodd; clip-rule:evenodd"
   viewBox="0 0 3784 5449"
   id="svg129"
   xmlns:inkscape="http://www.inkscape.org/namespaces/inkscape"
   xmlns:sodipodi="http://sodipodi.sourceforge.net/DTD/sodipodi-0.dtd"
   xmlns="http://www.w3.org/2000/svg"
   xmlns:svg="http://www.w3.org/2000/svg"><sodipodi:namedview
   id="namedview131"
   pagecolor="#ffffff"
   bordercolor="#666666"
   borderopacity="1.0"
   inkscape:pageshadow="2"
   inkscape:pageopacity="0.0"
   inkscape:pagecheckerboard="0"
   inkscape:document-units="mm"
   showgrid="false" />
 <defs
   id="defs4">
  <style
   type="text/css"
   id="style2">
   <![CDATA[
    .str5 {stroke:#727271;stroke-width:16.1661}
    .str4 {stroke:#2B2A29;stroke-width:4.55979}
    .str2 {stroke:#2B2A29;stroke-width:4.55979}
    .str1 {stroke:#2B2A29;stroke-width:4.55979}
    .str3 {stroke:#2B2A29;stroke-width:4.55979}
    .str0 {stroke:#2B2A29;stroke-width:5.70433;stroke-dasharray:11.408660 28.521650}
    .fil11 {fill:none}
    .fil9 {fill:#FEFEFE}
    .fil5 {fill:whitesmoke}
    .fil7 {fill:#EBECEC}
    .fil10 {fill:#2B2A29}
    .fil4 {fill:#3484D2}
    .fil3 {fill:#AD9247}
    .fil1 {fill:#E7DCBD}
    .fil6 {fill:#FEFEFE;fill-rule:nonzero}
    .fil8 {fill:#9D9E9E;fill-rule:nonzero}
    .fil2 {fill:#727271;fill-rule:nonzero}
    .fil0 {fill:#2B2A29;fill-rule:nonzero}
   ]]>
  </style>
 <filter
   style="color-interpolation-filters:sRGB;"
   inkscape:label="Drop Shadow"
   id="filter143"
   x="-0.12520917"
   y="-0.67957039"
   width="1.2855801"
   height="2.5499805"><feFlood
     flood-opacity="0.25098"
     flood-color="rgb(0,0,0)"
     result="flood"
     id="feFlood133" /><feComposite
     in="flood"
     in2="SourceGraphic"
     operator="in"
     result="composite1"
     id="feComposite135" /><feGaussianBlur
     in="composite1"
     stdDeviation="70.8185"
     result="blur"
     id="feGaussianBlur137" /><feOffset
     dx="50"
     dy="50"
     result="offset"
     id="feOffset139" /><feComposite
     in="SourceGraphic"
     in2="offset"
     operator="over"
     result="composite2"
     id="feComposite141" /></filter><filter
   style="color-interpolation-filters:sRGB;"
   inkscape:label="Drop Shadow"
   id="filter155"
   x="-0.155077"
   y="-0.43580613"
   width="1.3557744"
   height="1.9998174"><feFlood
     flood-opacity="0.25098"
     flood-color="rgb(0,0,0)"
     result="flood"
     id="feFlood145" /><feComposite
     in="flood"
     in2="SourceGraphic"
     operator="in"
     result="composite1"
     id="feComposite147" /><feGaussianBlur
     in="composite1"
     stdDeviation="70.8185"
     result="blur"
     id="feGaussianBlur149" /><feOffset
     dx="50"
     dy="50"
     result="offset"
     id="feOffset151" /><feComposite
     in="SourceGraphic"
     in2="offset"
     operator="over"
     result="composite2"
     id="feComposite153" /></filter><filter
   style="color-interpolation-filters:sRGB;"
   inkscape:label="Drop Shadow"
   id="filter167"
   x="-0.097568537"
   y="-0.43805256"
   width="1.2238397"
   height="2.0049711"><feFlood
     flood-opacity="0.25098"
     flood-color="rgb(0,0,0)"
     result="flood"
     id="feFlood157" /><feComposite
     in="flood"
     in2="SourceGraphic"
     operator="in"
     result="composite1"
     id="feComposite159" /><feGaussianBlur
     in="composite1"
     stdDeviation="70.8185"
     result="blur"
     id="feGaussianBlur161" /><feOffset
     dx="50"
     dy="50"
     result="offset"
     id="feOffset163" /><feComposite
     in="SourceGraphic"
     in2="offset"
     operator="over"
     result="composite2"
     id="feComposite165" /></filter><filter
   style="color-interpolation-filters:sRGB;"
   inkscape:label="Drop Shadow"
   id="filter179"
   x="-0.10923161"
   y="-0.43805256"
   width="1.2505969"
   height="2.0049711"><feFlood
     flood-opacity="0.25098"
     flood-color="rgb(0,0,0)"
     result="flood"
     id="feFlood169" /><feComposite
     in="flood"
     in2="SourceGraphic"
     operator="in"
     result="composite1"
     id="feComposite171" /><feGaussianBlur
     in="composite1"
     stdDeviation="70.8185"
     result="blur"
     id="feGaussianBlur173" /><feOffset
     dx="50"
     dy="50"
     result="offset"
     id="feOffset175" /><feComposite
     in="SourceGraphic"
     in2="offset"
     operator="over"
     result="composite2"
     id="feComposite177" /></filter><filter
   style="color-interpolation-filters:sRGB;"
   inkscape:label="Drop Shadow"
   id="filter191"
   x="-0.11263379"
   y="-0.43805256"
   width="1.2584021"
   height="2.0049711"><feFlood
     flood-opacity="0.25098"
     flood-color="rgb(0,0,0)"
     result="flood"
     id="feFlood181" /><feComposite
     in="flood"
     in2="SourceGraphic"
     operator="in"
     result="composite1"
     id="feComposite183" /><feGaussianBlur
     in="composite1"
     stdDeviation="70.8185"
     result="blur"
     id="feGaussianBlur185" /><feOffset
     dx="50"
     dy="50"
     result="offset"
     id="feOffset187" /><feComposite
     in="SourceGraphic"
     in2="offset"
     operator="over"
     result="composite2"
     id="feComposite189" /></filter><filter
   style="color-interpolation-filters:sRGB;"
   inkscape:label="Drop Shadow"
   id="filter203"
   x="-0.11218772"
   y="-0.43805256"
   width="1.2573787"
   height="2.0049711"><feFlood
     flood-opacity="0.25098"
     flood-color="rgb(0,0,0)"
     result="flood"
     id="feFlood193" /><feComposite
     in="flood"
     in2="SourceGraphic"
     operator="in"
     result="composite1"
     id="feComposite195" /><feGaussianBlur
     in="composite1"
     stdDeviation="70.8185"
     result="blur"
     id="feGaussianBlur197" /><feOffset
     dx="50"
     dy="50"
     result="offset"
     id="feOffset199" /><feComposite
     in="SourceGraphic"
     in2="offset"
     operator="over"
     result="composite2"
     id="feComposite201" /></filter><filter
   style="color-interpolation-filters:sRGB;"
   inkscape:label="Drop Shadow"
   id="filter215"
   x="-0.10338467"
   y="-0.59846617"
   width="1.237183"
   height="2.3729887"><feFlood
     flood-opacity="0.25098"
     flood-color="rgb(0,0,0)"
     result="flood"
     id="feFlood205" /><feComposite
     in="flood"
     in2="SourceGraphic"
     operator="in"
     result="composite1"
     id="feComposite207" /><feGaussianBlur
     in="composite1"
     stdDeviation="70.8185"
     result="blur"
     id="feGaussianBlur209" /><feOffset
     dx="50"
     dy="50"
     result="offset"
     id="feOffset211" /><feComposite
     in="SourceGraphic"
     in2="offset"
     operator="over"
     result="composite2"
     id="feComposite213" /></filter></defs>
 <g
   id="Layer_x0020_1"
   inkscape:label="Layer 1">
  <metadata
   id="CorelCorpID_0Corel-Layer" />
  <g
   id="g9">
   <path
   class="fil0"
   d="M1503 2436l0 -525 17 0 0 525 -17 0zm9 60l-51 -120 3 2 3 1 3 1 3 1 3 1 3 1 3 1 3 1 3 1 3 1 3 1 3 0 3 0 3 0 3 0 3 0 3 0 3 0 3 0 3 0 3 0 3 -1 3 -1 3 -1 3 -1 3 -1 3 -1 3 -1 3 -1 3 -1 3 -1 3 -2 0 0 -51 120z"
   id="path7" />
  </g>
  <g
   id="g13">
   <path
   class="fil0"
   d="M1503 1514l0 -233 17 0 0 233 -17 0zm9 60l-51 -120 3 2 3 1 3 1 3 1 3 1 3 1 3 1 3 1 3 1 3 1 3 1 3 0 3 0 3 0 3 0 3 0 3 0 3 0 3 0 3 0 3 0 3 -1 3 -1 3 -1 3 -1 3 -1 3 -1 3 -1 3 -1 3 -1 3 -1 3 -2 0 0 -51 120z"
   id="path11" />
  </g>
  <g
   id="g18"
   style="filter:url(#filter167)">
   <path
   class="fil1"
   d="M834 1558l1355 0c102,0 185,83 185,185l0 0c0,102 -83,185 -185,185l-1355 0c-102,0 -185,-83 -185,-185l0 0c0,-102 83,-185 185,-185z"
   id="path15" />
   <path
   id="1"
   class="fil2"
   d="M2189 1566l-1355 0 0 -16 1355 0 0 0 0 16zm193 177l-15 0 0 0 0 -9 -1 -9 -1 -9 -2 -9 -2 -9 -2 -8 -3 -8 -3 -8 -4 -8 -4 -8 -4 -7 -5 -7 -5 -7 -5 -7 -6 -6 -6 -6 -6 -6 -6 -6 -7 -5 -7 -5 -7 -5 -7 -4 -8 -4 -8 -4 -8 -3 -8 -3 -8 -2 -9 -2 -9 -2 -9 -1 -9 -1 -9 0 0 -16 10 0 10 1 10 1 9 2 9 2 9 3 9 3 9 3 9 4 8 4 8 5 8 5 8 5 7 6 7 6 7 6 6 7 6 7 6 7 5 8 5 8 5 8 4 8 4 9 3 9 3 9 3 9 2 9 2 10 1 10 1 10 0 10 0 0zm-7 0l0 0 0 0 0 0 7 0 -7 0zm-185 193l0 -16 0 0 9 0 9 -1 9 -1 9 -2 9 -2 8 -2 8 -3 8 -3 8 -4 8 -4 7 -4 7 -5 7 -5 7 -5 6 -6 6 -6 6 -6 6 -6 5 -7 5 -7 5 -7 4 -7 4 -8 4 -8 3 -8 3 -8 2 -8 2 -9 2 -9 1 -9 1 -9 0 -9 15 0 0 10 -1 10 -1 10 -2 10 -2 9 -3 9 -3 9 -3 9 -4 9 -4 8 -5 8 -5 8 -5 8 -6 7 -6 7 -6 7 -7 6 -7 6 -7 6 -8 5 -8 5 -8 5 -8 4 -9 4 -9 3 -9 3 -9 3 -9 2 -9 2 -10 1 -10 1 -10 0 0 0zm-1355 -16l1355 0 0 16 -1355 0 0 0 0 -16zm-193 -177l15 0 0 0 0 9 1 9 1 9 2 9 2 9 2 8 3 8 3 8 4 8 4 8 4 7 5 7 5 7 5 7 6 6 6 6 6 6 6 6 7 5 7 5 7 5 7 4 8 4 8 4 8 3 8 3 8 2 9 2 9 2 9 1 9 1 9 0 0 16 -10 0 -10 -1 -10 -1 -9 -2 -9 -2 -9 -3 -9 -3 -9 -3 -9 -4 -8 -4 -8 -5 -8 -5 -8 -5 -7 -6 -7 -6 -7 -6 -6 -7 -6 -7 -6 -7 -5 -8 -5 -8 -5 -8 -4 -8 -4 -9 -3 -9 -3 -9 -3 -9 -2 -9 -2 -10 -1 -10 -1 -10 0 -10 0 0zm7 0l0 0 0 0 0 0 -7 0 7 0zm185 -193l0 16 0 0 -9 0 -9 1 -9 1 -9 2 -9 2 -8 2 -8 3 -8 3 -8 4 -8 4 -7 4 -7 5 -7 5 -7 5 -6 6 -6 6 -6 6 -6 6 -5 7 -5 7 -5 7 -4 7 -4 8 -4 8 -3 8 -3 8 -2 8 -2 9 -2 9 -1 9 -1 9 0 9 -15 0 0 -10 1 -10 1 -10 2 -10 2 -9 3 -9 3 -9 3 -9 4 -9 4 -8 5 -8 5 -8 5 -8 6 -7 6 -7 6 -7 7 -6 7 -6 7 -6 8 -5 8 -5 8 -5 8 -4 9 -4 9 -3 9 -3 9 -3 9 -2 9 -2 10 -1 10 -1 10 0 0 0z" />
  </g>
  <g
   id="g22">
   <path
   class="fil0"
   d="M1503 3355l0 -566 17 0 0 566 -17 0zm9 60l-51 -120 3 2 3 1 3 1 3 1 3 1 3 1 3 1 3 1 3 1 3 1 3 1 3 0 3 0 3 0 3 0 3 0 3 0 3 0 3 0 3 0 3 0 3 -1 3 -1 3 -1 3 -1 3 -1 3 -1 3 -1 3 -1 3 -1 3 -1 3 -2 0 0 -51 120z"
   id="path20" />
  </g>
  <g
   id="g28"
   style="filter:url(#filter203)">
   <path
   class="fil3"
   d="M948 4033l1127 0c102,0 185,83 185,185l0 0c0,102 -83,185 -185,185l-1127 0c-102,0 -185,-83 -185,-185l0 0c0,-102 83,-185 185,-185z"
   id="path24" />
   <path
   id="path26"
   class="fil2"
   d="M2075 4041l-1127 0 0 -16 1127 0 0 0 0 16zm194 177l-17 0 0 0 0 -9 -1 -9 -1 -9 -2 -9 -2 -9 -2 -8 -3 -8 -3 -8 -4 -8 -4 -8 -4 -7 -5 -7 -5 -7 -5 -7 -6 -6 -6 -6 -6 -6 -6 -6 -7 -5 -7 -5 -7 -5 -7 -4 -8 -4 -8 -4 -8 -3 -8 -3 -8 -2 -8 -2 -9 -2 -9 -1 -9 -1 -9 0 0 -16 10 0 10 1 10 1 10 2 9 2 9 3 9 3 9 3 9 4 8 4 8 5 8 5 8 5 7 6 7 6 7 6 6 7 6 7 6 7 5 8 5 8 5 8 4 8 4 9 3 9 3 9 3 9 2 9 2 9 1 10 1 10 0 10 0 0zm-17 0l0 0 17 0 0 0 0 0 -17 0zm-177 193l0 -16 0 0 9 0 9 -1 9 -1 9 -2 8 -2 8 -2 8 -3 8 -3 8 -4 8 -4 7 -4 7 -5 7 -5 7 -5 6 -6 6 -6 6 -6 6 -6 5 -7 5 -7 5 -7 4 -7 4 -8 4 -8 3 -8 3 -8 2 -8 2 -9 2 -9 1 -9 1 -9 0 -9 17 0 0 10 -1 10 -1 10 -2 9 -2 9 -3 9 -3 9 -3 9 -4 9 -4 8 -5 8 -5 8 -5 8 -6 7 -6 7 -6 7 -7 6 -7 6 -7 6 -8 5 -8 5 -8 5 -8 4 -9 4 -9 3 -9 3 -9 3 -9 2 -10 2 -10 1 -10 1 -10 0 0 0zm-1127 -16l1127 0 0 16 -1127 0 0 0 0 -16zm-194 -177l17 0 0 0 0 9 1 9 1 9 2 9 2 9 2 8 3 8 3 8 4 8 4 8 4 7 5 7 5 7 5 7 6 6 6 6 6 6 6 6 7 5 7 5 7 5 7 4 8 4 8 4 8 3 8 3 8 2 8 2 9 2 9 1 9 1 9 0 0 16 -10 0 -10 -1 -10 -1 -10 -2 -9 -2 -9 -3 -9 -3 -9 -3 -9 -4 -8 -4 -8 -5 -8 -5 -8 -5 -7 -6 -7 -6 -7 -6 -6 -7 -6 -7 -6 -7 -5 -8 -5 -8 -5 -8 -4 -8 -4 -9 -3 -9 -3 -9 -3 -9 -2 -9 -2 -9 -1 -10 -1 -10 0 -10 0 0zm17 0l0 0 -17 0 0 0 0 0 17 0zm177 -193l0 16 0 0 -9 0 -9 1 -9 1 -9 2 -8 2 -8 2 -8 3 -8 3 -8 4 -8 4 -7 4 -7 5 -7 5 -7 5 -6 6 -6 6 -6 6 -6 6 -5 7 -5 7 -5 7 -4 7 -4 8 -4 8 -3 8 -3 8 -2 8 -2 9 -2 9 -1 9 -1 9 0 9 -17 0 0 -10 1 -10 1 -10 2 -9 2 -9 3 -9 3 -9 3 -9 4 -9 4 -8 5 -8 5 -8 5 -8 6 -7 6 -7 6 -7 7 -6 7 -6 7 -6 8 -5 8 -5 8 -5 8 -4 9 -4 9 -3 9 -3 9 -3 9 -2 10 -2 10 -1 10 -1 10 0 0 0z" />
  </g>
  <g
   id="g34"
   style="filter:url(#filter179)">
   <path
   class="fil4"
   d="M927 2493l1168 0c102,0 185,83 185,185l0 0c0,102 -83,185 -185,185l-1168 0c-102,0 -185,-83 -185,-185l0 0c0,-102 83,-185 185,-185z"
   id="path30" />
   <path
   id="path32"
   class="fil2"
   d="M2096 2501l-1168 0 0 -16 1168 0 0 0 0 16zm193 177l-16 0 0 0 0 -9 -1 -9 -1 -9 -2 -9 -2 -9 -2 -8 -3 -8 -3 -8 -4 -8 -4 -8 -4 -7 -5 -7 -5 -7 -5 -7 -6 -6 -6 -6 -6 -6 -6 -6 -7 -5 -7 -5 -7 -5 -7 -4 -8 -4 -8 -4 -8 -3 -8 -3 -8 -2 -9 -2 -9 -2 -9 -1 -9 -1 -9 0 0 -16 10 0 10 1 10 1 9 2 9 2 9 3 9 3 9 3 9 4 8 4 8 5 8 5 8 5 7 6 7 6 7 6 6 7 6 7 6 7 5 8 5 8 5 8 4 8 4 9 3 9 3 9 3 9 2 9 2 10 1 10 1 10 0 10 0 0zm-8 0l0 0 0 0 0 0 8 0 -8 0zm-185 193l0 -16 0 0 9 0 9 -1 9 -1 9 -2 9 -2 8 -2 8 -3 8 -3 8 -4 8 -4 7 -4 7 -5 7 -5 7 -5 6 -6 6 -6 6 -6 6 -6 5 -7 5 -7 5 -7 4 -7 4 -8 4 -8 3 -8 3 -8 2 -8 2 -9 2 -9 1 -9 1 -9 0 -9 16 0 0 10 -1 10 -1 10 -2 10 -2 9 -3 9 -3 9 -3 9 -4 9 -4 8 -5 8 -5 8 -5 8 -6 7 -6 7 -6 7 -7 6 -7 6 -7 6 -8 5 -8 5 -8 5 -8 4 -9 4 -9 3 -9 3 -9 3 -9 2 -9 2 -10 1 -10 1 -10 0 0 0zm-1168 -16l1168 0 0 16 -1168 0 0 0 0 -16zm-193 -177l16 0 0 0 0 9 1 9 1 9 2 9 2 9 2 8 3 8 3 8 4 8 4 8 4 7 5 7 5 7 5 7 6 6 6 6 6 6 6 6 7 5 7 5 7 5 7 4 8 4 8 4 8 3 8 3 8 2 9 2 9 2 9 1 9 1 9 0 0 16 -10 0 -10 -1 -10 -1 -9 -2 -9 -2 -9 -3 -9 -3 -9 -3 -9 -4 -8 -4 -8 -5 -8 -5 -8 -5 -7 -6 -7 -6 -7 -6 -6 -7 -6 -7 -6 -7 -5 -8 -5 -8 -5 -8 -4 -8 -4 -9 -3 -9 -3 -9 -3 -9 -2 -9 -2 -10 -1 -10 -1 -10 0 -10 0 0zm8 0l0 0 0 0 0 0 -8 0 8 0zm185 -193l0 16 0 0 -9 0 -9 1 -9 1 -9 2 -9 2 -8 2 -8 3 -8 3 -8 4 -8 4 -7 4 -7 5 -7 5 -7 5 -6 6 -6 6 -6 6 -6 6 -5 7 -5 7 -5 7 -4 7 -4 8 -4 8 -3 8 -3 8 -2 8 -2 9 -2 9 -1 9 -1 9 0 9 -16 0 0 -10 1 -10 1 -10 2 -10 2 -9 3 -9 3 -9 3 -9 4 -9 4 -8 5 -8 5 -8 5 -8 6 -7 6 -7 6 -7 7 -6 7 -6 7 -6 8 -5 8 -5 8 -5 8 -4 9 -4 9 -3 9 -3 9 -3 9 -2 9 -2 10 -1 10 -1 10 0 0 0z" />
  </g>
  <g
   id="g38">
   <path
   class="fil0"
   d="M1503 3978l0 -233 17 0 0 233 -17 0zm9 60l-51 -120 3 2 3 1 3 1 3 1 3 1 3 1 3 1 3 1 3 1 3 1 3 1 3 0 3 0 3 0 3 0 3 0 3 0 3 0 3 0 3 0 3 0 3 -1 3 -1 3 -1 3 -1 3 -1 3 -1 3 -1 3 -1 3 -1 3 -1 3 -2 0 0 -51 120z"
   id="path36" />
  </g>
  <g
   id="g44"
   style="filter:url(#filter191)">
   <path
   class="fil5"
   d="M948 3415l1127 0c102,0 185,83 185,185l0 0c0,102 -83,185 -185,185l-1127 0c-102,0 -185,-83 -185,-185l0 0c0,-102 83,-185 185,-185z"
   id="path40" />
   <path
   id="path42"
   class="fil2"
   d="M2075 3423l-1127 0 0 -16 1127 0 0 0 0 16zm190 177l-10 0 0 0 0 -9 -1 -9 -1 -9 -2 -9 -2 -8 -2 -8 -3 -8 -3 -8 -4 -8 -4 -8 -4 -7 -5 -7 -5 -7 -5 -7 -6 -7 -6 -6 -6 -6 -7 -6 -7 -5 -7 -5 -7 -5 -8 -4 -8 -4 -8 -4 -8 -3 -8 -3 -9 -2 -9 -2 -9 -2 -9 -1 -9 -1 -9 0 0 -16 10 0 10 1 9 1 9 2 9 2 9 3 9 3 9 3 8 4 8 4 8 5 8 5 7 5 7 6 7 6 7 6 6 7 6 7 6 7 5 8 5 8 5 8 4 8 4 9 4 9 3 9 3 9 2 10 2 10 1 10 1 10 0 10 0 0zm-10 0l0 0 10 0 0 0 0 0 -10 0zm-180 193l0 -16 0 0 9 0 9 -1 9 -1 9 -2 9 -2 9 -2 8 -3 8 -3 8 -4 8 -4 8 -4 7 -5 7 -5 7 -5 7 -6 6 -6 6 -6 6 -7 5 -7 5 -7 5 -7 4 -7 4 -8 4 -8 3 -8 3 -8 2 -8 2 -8 2 -9 1 -9 1 -9 0 -9 10 0 0 10 -1 10 -1 10 -2 10 -2 10 -3 9 -3 9 -4 9 -4 9 -4 8 -5 8 -5 8 -5 8 -6 7 -6 7 -6 7 -7 6 -7 6 -7 6 -7 5 -8 5 -8 5 -8 4 -8 4 -9 3 -9 3 -9 3 -9 2 -9 2 -9 1 -10 1 -10 0 0 0zm-1127 -16l1127 0 0 16 -1127 0 0 0 0 -16zm-190 -177l10 0 0 0 0 9 1 9 1 9 2 9 2 8 2 8 3 8 3 8 4 8 4 8 4 7 5 7 5 7 5 7 6 7 6 6 6 6 7 6 7 5 7 5 7 5 8 4 8 4 8 4 8 3 8 3 9 2 9 2 9 2 9 1 9 1 9 0 0 16 -10 0 -10 -1 -9 -1 -9 -2 -9 -2 -9 -3 -9 -3 -9 -3 -8 -4 -8 -4 -8 -5 -8 -5 -7 -5 -7 -6 -7 -6 -7 -6 -6 -7 -6 -7 -6 -7 -5 -8 -5 -8 -5 -8 -4 -8 -4 -9 -4 -9 -3 -9 -3 -9 -2 -10 -2 -10 -1 -10 -1 -10 0 -10 0 0zm10 0l0 0 -10 0 0 0 0 0 10 0zm180 -193l0 16 0 0 -9 0 -9 1 -9 1 -9 2 -9 2 -9 2 -8 3 -8 3 -8 4 -8 4 -8 4 -7 5 -7 5 -7 5 -7 6 -6 6 -6 6 -6 7 -5 7 -5 7 -5 7 -4 7 -4 8 -4 8 -3 8 -3 8 -2 8 -2 8 -2 9 -1 9 -1 9 0 9 -10 0 0 -10 1 -10 1 -10 2 -10 2 -10 3 -9 3 -9 4 -9 4 -9 4 -8 5 -8 5 -8 5 -8 6 -7 6 -7 6 -7 7 -6 7 -6 7 -6 7 -5 8 -5 8 -5 8 -4 8 -4 9 -3 9 -3 9 -3 9 -2 9 -2 9 -1 10 -1 10 0 0 0z" />
  </g>
  <g
   id="g48">
   <path
   class="fil0"
   d="M1503 879l0 -233 17 0 0 233 -17 0zm9 60l-51 -120 3 2 3 1 3 1 3 1 3 1 3 1 3 1 3 1 3 1 3 1 3 1 3 0 3 0 3 0 3 0 3 0 3 0 3 0 3 0 3 0 3 0 3 -1 3 -1 3 -1 3 -1 3 -1 3 -1 3 -1 3 -1 3 -1 3 -1 3 -2 0 0 -51 120z"
   id="path46" />
  </g>
  <g
   id="g52">
   <path
   class="fil0"
   d="M1503 4713l0 -304 17 0 0 304 -17 0zm9 60l-51 -120 3 2 3 1 3 1 3 1 3 1 3 1 3 1 3 1 3 1 3 1 3 1 3 0 3 0 3 0 3 0 3 0 3 0 3 0 3 0 3 0 3 0 3 -1 3 -1 3 -1 3 -1 3 -1 3 -1 3 -1 3 -1 3 -1 3 -1 3 -2 0 0 -51 120z"
   id="path50" />
  </g>
  <g
   id="g58"
   style="filter:url(#filter155)">
   <path
   class="fil5"
   d="M1154 941l714 0c102,0 185,83 185,185l0 0c0,102 -83,185 -185,185l-714 0c-102,0 -185,-83 -185,-185l0 0c0,-102 83,-185 185,-185z"
   id="path54" />
   <path
   id="path56"
   class="fil2"
   d="M1869 949l-714 0 0 -16 714 0 0 0 0 16zm190 177l-9 0 0 0 0 -9 -1 -9 -1 -9 -2 -8 -2 -8 -2 -8 -3 -8 -3 -8 -4 -8 -4 -8 -4 -7 -5 -7 -5 -7 -5 -7 -6 -7 -6 -6 -6 -6 -7 -6 -7 -5 -7 -5 -7 -5 -8 -4 -8 -4 -8 -4 -8 -3 -8 -3 -9 -2 -9 -2 -9 -2 -9 -1 -9 -1 -9 0 0 -16 10 0 10 1 9 1 9 2 9 2 9 3 9 3 9 3 8 4 8 4 8 5 8 5 7 5 7 6 7 6 7 6 6 7 6 7 6 7 5 8 5 8 5 8 4 8 4 9 4 9 3 9 3 9 2 10 2 10 1 10 1 10 0 10 0 0zm-9 0l0 0 9 0 0 0 0 0 -9 0zm-181 193l0 -16 0 0 9 0 9 -1 9 -1 9 -2 9 -2 9 -2 8 -3 8 -3 8 -4 8 -4 8 -4 7 -5 7 -5 7 -5 7 -6 6 -6 6 -6 6 -7 5 -7 5 -7 5 -7 4 -7 4 -8 4 -8 3 -8 3 -8 2 -8 2 -8 2 -8 1 -9 1 -9 0 -9 9 0 0 10 -1 10 -1 10 -2 10 -2 10 -3 9 -3 9 -4 9 -4 9 -4 8 -5 8 -5 8 -5 8 -6 7 -6 7 -6 7 -7 6 -7 6 -7 6 -7 5 -8 5 -8 5 -8 4 -8 4 -9 3 -9 3 -9 3 -9 2 -9 2 -9 1 -10 1 -10 0 0 0zm-714 -16l714 0 0 16 -714 0 0 0 0 -16zm-190 -177l9 0 0 0 0 9 1 9 1 9 2 8 2 8 2 8 3 8 3 8 4 8 4 8 4 7 5 7 5 7 5 7 6 7 6 6 6 6 7 6 7 5 7 5 7 5 8 4 8 4 8 4 8 3 8 3 9 2 9 2 9 2 9 1 9 1 9 0 0 16 -10 0 -10 -1 -9 -1 -9 -2 -9 -2 -9 -3 -9 -3 -9 -3 -8 -4 -8 -4 -8 -5 -8 -5 -7 -5 -7 -6 -7 -6 -7 -6 -6 -7 -6 -7 -6 -7 -5 -8 -5 -8 -5 -8 -4 -8 -4 -9 -4 -9 -3 -9 -3 -9 -2 -10 -2 -10 -1 -10 -1 -10 0 -10 0 0zm9 0l0 0 -9 0 0 0 0 0 9 0zm181 -193l0 16 0 0 -9 0 -9 1 -9 1 -9 2 -9 2 -9 2 -8 3 -8 3 -8 4 -8 4 -8 4 -7 5 -7 5 -7 5 -7 6 -6 6 -6 6 -6 7 -5 7 -5 7 -5 7 -4 7 -4 8 -4 8 -3 8 -3 8 -2 8 -2 8 -2 8 -1 9 -1 9 0 9 -9 0 0 -10 1 -10 1 -10 2 -10 2 -10 3 -9 3 -9 4 -9 4 -9 4 -8 5 -8 5 -8 5 -8 6 -7 6 -7 6 -7 7 -6 7 -6 7 -6 7 -5 8 -5 8 -5 8 -4 8 -4 9 -3 9 -3 9 -3 9 -2 9 -2 9 -1 10 -1 10 0 0 0z" />
  </g>
  <path
   class="fil0"
   d="M1194 1161l15 -2c1,6 3,11 7,14 4,3 9,5 16,5 7,0 12,-1 16,-4 3,-3 5,-6 5,-10 0,-3 -2,-6 -5,-8 -2,-1 -7,-3 -16,-5 -11,-3 -19,-5 -23,-7 -4,-2 -8,-5 -10,-9 -2,-4 -3,-8 -3,-12 0,-4 1,-8 3,-11 2,-3 4,-6 8,-9 2,-2 6,-3 10,-4 4,-1 8,-2 13,-2 7,0 13,1 19,3 5,2 9,5 12,8 3,4 4,8 5,14l-15 2c-1,-5 -3,-8 -6,-11 -3,-3 -8,-4 -14,-4 -7,0 -12,1 -15,3 -3,2 -4,5 -4,8 0,2 1,4 2,5 1,2 3,3 6,4 2,1 6,2 13,4 11,3 18,5 23,7 4,2 8,5 10,8 2,4 4,8 4,13 0,5 -1,10 -4,14 -3,4 -7,8 -13,10 -6,2 -12,4 -19,4 -12,0 -21,-2 -27,-7 -6,-5 -10,-12 -12,-22zm126 13l2 13c-4,1 -8,1 -12,1 -6,0 -10,-1 -13,-3 -3,-2 -5,-4 -6,-7 -1,-3 -2,-9 -2,-18l0 -52 -11 0 0 -12 11 0 0 -22 15 -9 0 31 15 0 0 12 -15 0 0 53c0,4 0,7 1,8 1,1 1,2 3,3 1,1 3,1 5,1 2,0 4,0 7,-1zm74 2c-6,5 -11,8 -16,10 -5,2 -11,3 -17,3 -10,0 -18,-2 -23,-7 -5,-5 -8,-11 -8,-18 0,-4 1,-8 3,-12 2,-4 5,-7 8,-9 3,-2 7,-4 11,-5 3,-1 8,-2 14,-2 12,-1 21,-3 27,-5 0,-2 0,-3 0,-4 0,-6 -1,-11 -4,-13 -4,-3 -10,-5 -17,-5 -7,0 -13,1 -16,4 -3,3 -6,7 -8,13l-15 -2c1,-6 4,-12 7,-16 3,-4 8,-7 14,-9 6,-2 13,-3 21,-3 8,0 14,1 19,3 5,2 8,4 11,7 2,3 4,6 5,10 0,3 1,7 1,14l0 20c0,14 0,23 1,27 1,4 2,7 4,11l-16 0c-2,-3 -3,-7 -3,-11zm-1 -34c-6,2 -14,4 -25,6 -6,1 -11,2 -13,3 -3,1 -5,3 -6,5 -1,2 -2,5 -2,7 0,4 2,7 5,10 3,3 8,4 14,4 6,0 11,-1 16,-4 5,-3 8,-6 10,-10 2,-3 2,-9 2,-15l0 -6zm39 45l0 -90 14 0 0 14c4,-6 7,-11 10,-13 3,-2 6,-3 10,-3 5,0 10,2 16,5l-5 14c-4,-2 -7,-3 -11,-3 -3,0 -6,1 -9,3 -3,2 -5,5 -6,8 -2,5 -3,11 -3,18l0 47 -15 0zm91 -14l2 13c-4,1 -8,1 -12,1 -6,0 -10,-1 -13,-3 -3,-2 -5,-4 -6,-7 -1,-3 -2,-9 -2,-18l0 -52 -11 0 0 -12 11 0 0 -22 15 -9 0 31 15 0 0 12 -15 0 0 53c0,4 0,7 1,8 1,1 1,2 3,3 1,1 3,1 5,1 2,0 4,0 7,-1zm74 14l0 -13c-7,10 -17,15 -29,15 -5,0 -10,-1 -15,-3 -5,-2 -8,-5 -10,-8 -2,-3 -4,-7 -5,-11 -1,-3 -1,-8 -1,-14l0 -56 15 0 0 50c0,8 0,13 1,16 1,4 3,7 6,9 3,2 7,3 11,3 5,0 9,-1 13,-4 4,-2 7,-6 9,-10 2,-4 2,-10 2,-18l0 -48 15 0 0 90 -14 0zm38 35l0 -125 14 0 0 12c3,-5 7,-8 11,-10 4,-2 9,-3 15,-3 8,0 14,2 20,6 6,4 10,10 13,17 3,7 4,15 4,24 0,9 -2,17 -5,25 -3,7 -8,13 -14,17 -6,4 -13,6 -20,6 -5,0 -10,-1 -14,-3 -4,-2 -7,-5 -10,-8l0 44 -15 0zm14 -79c0,12 2,20 7,26 5,6 10,8 17,8 7,0 13,-3 17,-9 5,-6 7,-15 7,-27 0,-11 -2,-20 -7,-26 -5,-6 -10,-9 -17,-9 -6,0 -12,3 -17,9 -5,6 -7,15 -7,26zm112 81c-8,-11 -16,-23 -21,-37 -6,-14 -9,-29 -9,-44 0,-13 2,-26 7,-39 5,-14 13,-29 24,-43l11 0c-7,12 -11,20 -14,25 -3,8 -6,16 -8,24 -2,11 -4,21 -4,32 0,27 8,54 25,81l-11 0zm39 0l-11 0c17,-27 25,-54 25,-81 0,-11 -1,-21 -4,-32 -2,-8 -5,-17 -8,-24 -2,-5 -7,-14 -14,-25l11 0c11,14 18,28 24,43 4,12 7,25 7,39 0,15 -3,30 -9,44 -6,14 -13,27 -21,37z"
   id="path60" />
  <path
   class="fil0"
   d="M949 1805c-6,5 -11,8 -16,10 -5,2 -11,3 -17,3 -10,0 -18,-2 -23,-7 -5,-5 -8,-11 -8,-18 0,-4 1,-8 3,-12 2,-4 5,-7 8,-9 3,-2 7,-4 11,-5 3,-1 8,-2 14,-2 12,-1 21,-3 27,-5 0,-2 0,-3 0,-4 0,-6 -1,-11 -4,-13 -4,-3 -10,-5 -17,-5 -7,0 -13,1 -16,4 -3,3 -6,7 -8,13l-15 -2c1,-6 4,-12 7,-16 3,-4 8,-7 14,-9 6,-2 13,-3 21,-3 8,0 14,1 19,3 5,2 8,4 11,7 2,3 4,6 5,10 0,3 1,7 1,14l0 20c0,14 0,23 1,27 1,4 2,7 4,11l-16 0c-2,-3 -3,-7 -3,-11zm-1 -34c-6,2 -14,4 -25,6 -6,1 -11,2 -13,3 -3,1 -5,3 -6,5 -1,2 -2,5 -2,7 0,4 2,7 5,10 3,3 8,4 14,4 6,0 11,-1 16,-4 5,-3 8,-6 10,-10 2,-3 2,-9 2,-15l0 -6zm98 12l15 2c-2,10 -6,18 -13,24 -7,6 -15,9 -25,9 -12,0 -22,-4 -30,-12 -7,-8 -11,-20 -11,-35 0,-10 2,-18 5,-26 3,-7 8,-13 15,-16 7,-4 14,-5 21,-5 10,0 18,2 24,7 6,5 10,12 12,21l-15 2c-1,-6 -4,-11 -8,-14 -4,-3 -8,-5 -13,-5 -8,0 -14,3 -19,8 -5,6 -7,14 -7,26 0,12 2,21 7,26 5,5 11,8 18,8 6,0 11,-2 15,-6 4,-4 7,-9 8,-17zm61 19l2 13c-4,1 -8,1 -12,1 -6,0 -10,-1 -13,-3 -3,-2 -5,-4 -6,-7 -1,-3 -2,-9 -2,-18l0 -52 -11 0 0 -12 11 0 0 -22 15 -9 0 31 15 0 0 12 -15 0 0 53c0,4 0,7 1,8 1,1 1,2 3,3 1,1 3,1 5,1 2,0 4,0 7,-1zm15 -93l0 -17 15 0 0 17 -15 0zm0 107l0 -90 15 0 0 90 -15 0zm33 -45c0,-17 5,-29 14,-37 8,-7 17,-10 28,-10 12,0 23,4 30,12 8,8 12,19 12,34 0,12 -2,21 -5,27 -3,7 -9,12 -15,15 -7,4 -14,6 -22,6 -13,0 -23,-4 -31,-12 -8,-8 -12,-20 -12,-35zm16 0c0,12 3,20 8,26 5,6 11,9 19,9 8,0 14,-3 19,-9 5,-6 8,-15 8,-26 0,-11 -3,-20 -8,-25 -5,-6 -11,-9 -19,-9 -8,0 -14,3 -19,9 -5,6 -8,14 -8,26zm87 45l0 -90 14 0 0 13c7,-10 16,-15 29,-15 5,0 10,1 15,3 5,2 8,5 10,8 2,3 4,7 5,11 1,3 1,8 1,15l0 55 -15 0 0 -55c0,-6 -1,-11 -2,-14 -1,-3 -3,-6 -6,-7 -3,-2 -7,-3 -11,-3 -6,0 -12,2 -17,6 -5,4 -7,12 -7,23l0 49 -15 0zm95 -54l0 -14 82 -35 0 15 -65 27 65 27 0 15 -82 -35zm91 54l48 -124 18 0 51 124 -19 0 -14 -38 -52 0 -13 38 -17 0zm36 -51l42 0 -13 -34c-4,-10 -7,-19 -9,-26 -2,8 -4,16 -7,24l-14 37zm151 18l15 2c-2,10 -6,18 -13,24 -7,6 -15,9 -25,9 -12,0 -22,-4 -30,-12 -7,-8 -11,-20 -11,-35 0,-10 2,-18 5,-26 3,-7 8,-13 15,-16 7,-4 14,-5 21,-5 10,0 18,2 24,7 6,5 10,12 12,21l-15 2c-1,-6 -4,-11 -8,-14 -4,-3 -8,-5 -13,-5 -8,0 -14,3 -19,8 -5,6 -7,14 -7,26 0,12 2,21 7,26 5,5 11,8 18,8 6,0 11,-2 15,-6 4,-4 7,-9 8,-17zm61 19l2 13c-4,1 -8,1 -12,1 -6,0 -10,-1 -13,-3 -3,-2 -5,-4 -6,-7 -1,-3 -2,-9 -2,-18l0 -52 -11 0 0 -12 11 0 0 -22 15 -9 0 31 15 0 0 12 -15 0 0 53c0,4 0,7 1,8 1,1 1,2 3,3 1,1 3,1 5,1 2,0 4,0 7,-1zm15 -93l0 -17 15 0 0 17 -15 0zm0 107l0 -90 15 0 0 90 -15 0zm33 -45c0,-17 5,-29 14,-37 8,-7 17,-10 28,-10 12,0 23,4 30,12 8,8 12,19 12,34 0,12 -2,21 -5,27 -3,7 -9,12 -15,15 -7,4 -14,6 -22,6 -13,0 -23,-4 -31,-12 -8,-8 -12,-20 -12,-35zm16 0c0,12 3,20 8,26 5,6 11,9 19,9 8,0 14,-3 19,-9 5,-6 8,-15 8,-26 0,-11 -3,-20 -8,-25 -5,-6 -11,-9 -19,-9 -8,0 -14,3 -19,9 -5,6 -8,14 -8,26zm87 45l0 -90 14 0 0 13c7,-10 16,-15 29,-15 5,0 10,1 15,3 5,2 8,5 10,8 2,3 4,7 5,11 1,3 1,8 1,15l0 55 -15 0 0 -55c0,-6 -1,-11 -2,-14 -1,-3 -3,-6 -6,-7 -3,-2 -7,-3 -11,-3 -6,0 -12,2 -17,6 -5,4 -7,12 -7,23l0 49 -15 0zm177 -54l-82 35 0 -15 65 -27 -65 -27 0 -15 82 35 0 14zm50 91c-8,-11 -16,-23 -21,-37 -6,-14 -9,-29 -9,-44 0,-13 2,-26 7,-39 5,-14 13,-29 24,-43l11 0c-7,12 -11,20 -14,25 -3,8 -6,16 -8,24 -2,11 -4,21 -4,32 0,27 8,54 25,81l-11 0zm39 0l-11 0c17,-27 25,-54 25,-81 0,-11 -1,-21 -4,-32 -2,-8 -5,-17 -8,-24 -2,-5 -7,-14 -14,-25l11 0c11,14 18,28 24,43 4,12 7,25 7,39 0,15 -3,30 -9,44 -6,14 -13,27 -21,37z"
   id="path62" />
  <path
   class="fil0"
   d="M945 3662l-14 0 0 -124 15 0 0 44c6,-8 15,-12 25,-12 6,0 11,1 16,3 5,2 9,5 12,9 3,4 6,9 8,15 2,6 3,12 3,18 0,15 -4,27 -11,36 -8,8 -17,13 -27,13 -11,0 -19,-4 -25,-13l0 11zm0 -46c0,11 1,19 4,23 5,8 11,12 19,12 7,0 12,-3 17,-9 5,-6 7,-14 7,-26 0,-12 -2,-20 -7,-26 -5,-6 -10,-8 -17,-8 -7,0 -12,3 -17,9 -5,6 -7,14 -7,25zm144 17l16 2c-2,9 -7,16 -14,21 -7,5 -15,8 -26,8 -13,0 -24,-4 -31,-12 -8,-8 -12,-19 -12,-34 0,-15 4,-27 12,-35 8,-8 18,-13 30,-13 12,0 22,4 29,12 8,8 11,20 11,35 0,1 0,2 0,4l-67 0c1,10 3,17 8,23 5,5 11,8 19,8 6,0 10,-1 14,-4 4,-3 7,-8 9,-14zm-50 -24l50 0c-1,-8 -3,-13 -6,-17 -5,-6 -11,-9 -19,-9 -7,0 -13,2 -18,7 -5,5 -7,11 -8,19zm89 54l0 -78 -14 0 0 -12 14 0 0 -10c0,-6 1,-11 2,-13 1,-4 4,-7 8,-10 4,-2 9,-4 16,-4 4,0 9,1 14,2l-2 13c-3,-1 -6,-1 -9,-1 -5,0 -8,1 -10,3 -2,2 -3,6 -3,11l0 8 18 0 0 12 -17 0 0 78 -15 0zm39 -45c0,-17 5,-29 14,-37 8,-7 17,-10 28,-10 12,0 23,4 30,12 8,8 12,19 12,34 0,12 -2,21 -5,27 -3,7 -9,12 -15,15 -7,4 -14,6 -22,6 -13,0 -23,-4 -31,-12 -8,-8 -12,-20 -12,-35zm16 0c0,12 3,20 8,26 5,6 11,9 19,9 8,0 14,-3 19,-9 5,-6 8,-15 8,-26 0,-11 -3,-20 -8,-25 -5,-6 -11,-9 -19,-9 -8,0 -14,3 -19,9 -5,6 -8,14 -8,26zm87 45l0 -90 14 0 0 14c4,-6 7,-11 10,-13 3,-2 6,-3 10,-3 5,0 10,2 16,5l-5 14c-4,-2 -7,-3 -11,-3 -3,0 -6,1 -9,3 -3,2 -5,5 -6,8 -2,5 -3,11 -3,18l0 47 -15 0zm120 -29l16 2c-2,9 -7,16 -14,21 -7,5 -15,8 -26,8 -13,0 -24,-4 -31,-12 -8,-8 -12,-19 -12,-34 0,-15 4,-27 12,-35 8,-8 18,-13 30,-13 12,0 22,4 29,12 8,8 11,20 11,35 0,1 0,2 0,4l-67 0c1,10 3,17 8,23 5,5 11,8 19,8 6,0 10,-1 14,-4 4,-3 7,-8 9,-14zm-50 -24l50 0c-1,-8 -3,-13 -6,-17 -5,-6 -11,-9 -19,-9 -7,0 -13,2 -18,7 -5,5 -7,11 -8,19zm87 54l0 -124 55 0c11,0 20,1 25,3 6,2 10,6 14,12 3,6 5,12 5,19 0,9 -3,16 -9,22 -6,6 -15,10 -26,12 4,2 8,4 10,6 5,4 9,10 14,17l22 34 -21 0 -16 -26c-5,-8 -9,-13 -12,-17 -3,-4 -6,-7 -8,-8 -2,-2 -5,-3 -7,-3 -2,0 -5,-1 -9,-1l-19 0 0 55 -17 0zm17 -69l35 0c8,0 13,-1 18,-2 4,-2 7,-4 10,-7 2,-3 3,-7 3,-11 0,-6 -2,-11 -6,-15 -4,-4 -11,-6 -20,-6l-39 0 0 41zm168 40l16 2c-2,9 -7,16 -14,21 -7,5 -15,8 -26,8 -13,0 -24,-4 -31,-12 -8,-8 -12,-19 -12,-34 0,-15 4,-27 12,-35 8,-8 18,-13 30,-13 12,0 22,4 29,12 8,8 11,20 11,35 0,1 0,2 0,4l-67 0c1,10 3,17 8,23 5,5 11,8 19,8 6,0 10,-1 14,-4 4,-3 7,-8 9,-14zm-50 -24l50 0c-1,-8 -3,-13 -6,-17 -5,-6 -11,-9 -19,-9 -7,0 -13,2 -18,7 -5,5 -7,11 -8,19zm85 54l0 -90 14 0 0 13c7,-10 16,-15 29,-15 5,0 10,1 15,3 5,2 8,5 10,8 2,3 4,7 5,11 1,3 1,8 1,15l0 55 -15 0 0 -55c0,-6 -1,-11 -2,-14 -1,-3 -3,-6 -6,-7 -3,-2 -7,-3 -11,-3 -6,0 -12,2 -17,6 -5,4 -7,12 -7,23l0 49 -15 0zm155 0l0 -11c-6,9 -14,13 -25,13 -7,0 -14,-2 -20,-6 -6,-4 -11,-9 -14,-17 -3,-7 -5,-15 -5,-24 0,-9 2,-17 4,-24 3,-7 8,-13 13,-17 6,-4 13,-6 20,-6 5,0 10,1 15,3 4,2 8,5 10,9l0 -45 15 0 0 124 -14 0zm-48 -45c0,12 2,20 7,26 5,6 11,9 17,9 7,0 12,-3 17,-8 5,-5 7,-14 7,-25 0,-12 -2,-21 -7,-27 -5,-6 -11,-9 -18,-9 -7,0 -12,3 -17,8 -5,6 -7,14 -7,26zm148 16l16 2c-2,9 -7,16 -14,21 -7,5 -15,8 -26,8 -13,0 -24,-4 -31,-12 -8,-8 -12,-19 -12,-34 0,-15 4,-27 12,-35 8,-8 18,-13 30,-13 12,0 22,4 29,12 8,8 11,20 11,35 0,1 0,2 0,4l-67 0c1,10 3,17 8,23 5,5 11,8 19,8 6,0 10,-1 14,-4 4,-3 7,-8 9,-14zm-50 -24l50 0c-1,-8 -3,-13 -6,-17 -5,-6 -11,-9 -19,-9 -7,0 -13,2 -18,7 -5,5 -7,11 -8,19zm85 54l0 -90 14 0 0 14c4,-6 7,-11 10,-13 3,-2 6,-3 10,-3 5,0 10,2 16,5l-5 14c-4,-2 -7,-3 -11,-3 -3,0 -6,1 -9,3 -3,2 -5,5 -6,8 -2,5 -3,11 -3,18l0 47 -15 0zm87 36c-8,-11 -16,-23 -21,-37 -6,-14 -9,-29 -9,-44 0,-13 2,-26 7,-39 5,-14 13,-29 24,-43l11 0c-7,12 -11,20 -14,25 -3,8 -6,16 -8,24 -2,11 -4,21 -4,32 0,27 8,54 25,81l-11 0zm39 0l-11 0c17,-27 25,-54 25,-81 0,-11 -1,-21 -4,-32 -2,-8 -5,-17 -8,-24 -2,-5 -7,-14 -14,-25l11 0c11,14 18,28 24,43 4,12 7,25 7,39 0,15 -3,30 -9,44 -6,14 -13,27 -21,37z"
   id="path64" />
  <path
   class="fil6"
   d="M923 4285l0 -90 14 0 0 14c4,-6 7,-11 10,-13 3,-2 6,-3 10,-3 5,0 10,2 16,5l-5 14c-4,-2 -7,-3 -11,-3 -3,0 -6,1 -9,3 -3,2 -5,5 -6,8 -2,5 -3,11 -3,18l0 47 -15 0zm120 -29l16 2c-2,9 -7,16 -14,21 -7,5 -15,8 -26,8 -13,0 -24,-4 -31,-12 -8,-8 -12,-19 -12,-34 0,-15 4,-27 12,-35 8,-8 18,-13 30,-13 12,0 22,4 29,12 8,8 11,20 11,35 0,1 0,2 0,4l-67 0c1,10 3,17 8,23 5,5 11,8 19,8 6,0 10,-1 14,-4 4,-3 7,-8 9,-14zm-50 -24l50 0c-1,-8 -3,-13 -6,-17 -5,-6 -11,-9 -19,-9 -7,0 -13,2 -18,7 -5,5 -7,11 -8,19zm85 54l0 -90 14 0 0 13c7,-10 16,-15 29,-15 5,0 10,1 15,3 5,2 8,5 10,8 2,3 4,7 5,11 1,3 1,8 1,15l0 55 -15 0 0 -55c0,-6 -1,-11 -2,-14 -1,-3 -3,-6 -6,-7 -3,-2 -7,-3 -11,-3 -6,0 -12,2 -17,6 -5,4 -7,12 -7,23l0 49 -15 0zm155 0l0 -11c-6,9 -14,13 -25,13 -7,0 -14,-2 -20,-6 -6,-4 -11,-9 -14,-17 -3,-7 -5,-15 -5,-24 0,-9 2,-17 4,-24 3,-7 8,-13 13,-17 6,-4 13,-6 20,-6 5,0 10,1 15,3 4,2 8,5 10,9l0 -45 15 0 0 124 -14 0zm-48 -45c0,12 2,20 7,26 5,6 11,9 17,9 7,0 12,-3 17,-8 5,-5 7,-14 7,-25 0,-12 -2,-21 -7,-27 -5,-6 -11,-9 -18,-9 -7,0 -12,3 -17,8 -5,6 -7,14 -7,26zm148 16l16 2c-2,9 -7,16 -14,21 -7,5 -15,8 -26,8 -13,0 -24,-4 -31,-12 -8,-8 -12,-19 -12,-34 0,-15 4,-27 12,-35 8,-8 18,-13 30,-13 12,0 22,4 29,12 8,8 11,20 11,35 0,1 0,2 0,4l-67 0c1,10 3,17 8,23 5,5 11,8 19,8 6,0 10,-1 14,-4 4,-3 7,-8 9,-14zm-50 -24l50 0c-1,-8 -3,-13 -6,-17 -5,-6 -11,-9 -19,-9 -7,0 -13,2 -18,7 -5,5 -7,11 -8,19zm85 54l0 -90 14 0 0 14c4,-6 7,-11 10,-13 3,-2 6,-3 10,-3 5,0 10,2 16,5l-5 14c-4,-2 -7,-3 -11,-3 -3,0 -6,1 -9,3 -3,2 -5,5 -6,8 -2,5 -3,11 -3,18l0 47 -15 0zm56 -54l0 -14 82 -35 0 15 -65 27 65 27 0 15 -82 -35zm141 54l-48 -124 18 0 32 90c3,7 5,14 7,20 2,-7 4,-14 7,-20l34 -90 17 0 -49 124 -17 0zm75 -107l0 -17 15 0 0 17 -15 0zm0 107l0 -90 15 0 0 90 -15 0zm100 -29l16 2c-2,9 -7,16 -14,21 -7,5 -15,8 -26,8 -13,0 -24,-4 -31,-12 -8,-8 -12,-19 -12,-34 0,-15 4,-27 12,-35 8,-8 18,-13 30,-13 12,0 22,4 29,12 8,8 11,20 11,35 0,1 0,2 0,4l-67 0c1,10 3,17 8,23 5,5 11,8 19,8 6,0 10,-1 14,-4 4,-3 7,-8 9,-14zm-50 -24l50 0c-1,-8 -3,-13 -6,-17 -5,-6 -11,-9 -19,-9 -7,0 -13,2 -18,7 -5,5 -7,11 -8,19zm101 54l-27 -90 16 0 14 52 5 19c0,-1 2,-7 5,-19l14 -53 16 0 14 52 4 17 5 -17 16 -52 15 0 -28 90 -16 0 -14 -54 -4 -15 -18 69 -16 0zm190 -54l-82 35 0 -15 65 -27 -65 -27 0 -15 82 35 0 14zm50 91c-8,-11 -16,-23 -21,-37 -6,-14 -9,-29 -9,-44 0,-13 2,-26 7,-39 5,-14 13,-29 24,-43l11 0c-7,12 -11,20 -14,25 -3,8 -6,16 -8,24 -2,11 -4,21 -4,32 0,27 8,54 25,81l-11 0zm39 0l-11 0c17,-27 25,-54 25,-81 0,-11 -1,-21 -4,-32 -2,-8 -5,-17 -8,-24 -2,-5 -7,-14 -14,-25l11 0c11,14 18,28 24,43 4,12 7,25 7,39 0,15 -3,30 -9,44 -6,14 -13,27 -21,37z"
   id="path66" />
  <g
   id="g70">
   <path
   class="fil0"
   d="M2596 2109l0 -17 35 0 0 17 -35 0zm-87 0l0 -17 35 0 0 17 -35 0zm-87 0l0 -17 35 0 0 17 -35 0zm-87 0l0 -17 35 0 0 17 -35 0zm-87 0l0 -17 35 0 0 17 -35 0zm-87 0l0 -17 35 0 0 17 -35 0zm-87 0l0 -17 35 0 0 17 -35 0zm-87 0l0 -17 35 0 0 17 -35 0zm-87 0l0 -17 35 0 0 17 -35 0zm-87 0l0 -17 35 0 0 17 -35 0zm-87 0l0 -17 35 0 0 17 -35 0zm-87 0l0 -17 35 0 0 17 -35 0zm-87 0l0 -17 35 0 0 17 -35 0zm-87 0l0 -17 35 0 0 17 -35 0zm-87 0l0 -17 35 0 0 17 -35 0zm-87 0l0 -17 35 0 0 17 -35 0zm-87 0l0 -17 35 0 0 17 -35 0zm-87 0l0 -17 35 0 0 17 -35 0zm-87 0l0 -17 35 0 0 17 -35 0zm-87 0l0 -17 35 0 0 17 -35 0zm-87 0l0 -17 35 0 0 17 -35 0zm-87 0l0 -17 35 0 0 17 -35 0zm-87 0l0 -17 35 0 0 17 -35 0zm-87 0l0 -17 35 0 0 17 -35 0zm-87 0l0 -17 35 0 0 17 -35 0zm-87 0l0 -17 35 0 0 17 -35 0zm-87 0l0 -17 35 0 0 17 -35 0zm-87 0l0 -17 35 0 0 17 -35 0zm-87 0l0 -17 35 0 0 17 -35 0zm-87 0l0 -17 35 0 0 17 -35 0zm-87 0l0 -17 35 0 0 17 -35 0z"
   id="path68" />
  </g>
  <g
   id="g76">
   <polygon
   class="fil7 str0"
   points="2646,1961 3781,1961 3781,2239 2646,2239 "
   id="polygon72" />
   <path
   class="fil0"
   d="M2882 2116l14 3c-3,11 -8,20 -16,26 -7,6 -17,9 -27,9 -11,0 -20,-2 -27,-7 -7,-5 -12,-11 -16,-20 -4,-9 -6,-18 -6,-28 0,-11 2,-20 6,-28 4,-8 10,-14 18,-18 8,-4 16,-6 25,-6 10,0 19,3 26,8 7,5 12,13 15,22l-14 3c-2,-8 -6,-13 -10,-17 -5,-3 -10,-5 -17,-5 -8,0 -15,2 -20,6 -5,4 -9,9 -11,15 -2,6 -3,13 -3,20 0,9 1,17 4,23 3,7 7,12 12,15 5,3 11,5 18,5 8,0 14,-2 20,-7 5,-4 9,-11 11,-20zm79 27c-5,4 -9,7 -14,9 -4,2 -9,2 -14,2 -8,0 -15,-2 -19,-6 -4,-4 -7,-9 -7,-15 0,-4 1,-7 3,-10 2,-3 4,-5 7,-7 3,-2 6,-3 9,-4 3,-1 6,-1 11,-2 10,-1 18,-3 23,-4 0,-2 0,-3 0,-3 0,-5 -1,-9 -4,-11 -3,-3 -8,-4 -15,-4 -6,0 -10,1 -13,3 -3,2 -5,6 -6,11l-13 -2c1,-5 3,-10 6,-13 3,-3 6,-6 11,-8 5,-2 11,-3 17,-3 6,0 12,1 16,2 4,2 7,3 9,6 2,2 3,5 4,9 0,2 1,6 1,12l0 17c0,12 0,19 1,23 1,3 2,6 3,9l-13 0c-1,-3 -2,-6 -2,-9zm-1 -28c-5,2 -12,3 -21,5 -5,1 -9,2 -11,3 -2,1 -4,2 -5,4 -1,2 -2,4 -2,6 0,3 1,6 4,8 3,2 6,3 11,3 5,0 9,-1 13,-3 4,-2 7,-5 8,-9 1,-3 2,-7 2,-13l0 -5zm33 38l0 -75 11 0 0 11c6,-8 14,-12 24,-12 5,0 9,1 13,2 4,2 7,4 9,6 2,3 3,6 4,9 0,2 1,7 1,12l0 46 -13 0 0 -46c0,-5 0,-9 -1,-12 -1,-3 -3,-5 -5,-6 -3,-2 -6,-2 -9,-2 -5,0 -10,2 -14,5 -4,3 -6,10 -6,20l0 41 -13 0zm76 -38c0,-14 4,-24 12,-31 6,-6 14,-8 24,-8 10,0 19,3 25,10 7,7 10,16 10,28 0,10 -1,17 -4,23 -3,6 -7,10 -13,13 -6,3 -12,5 -18,5 -11,0 -19,-3 -26,-10 -7,-7 -10,-17 -10,-29zm13 0c0,10 2,17 6,22 4,5 10,7 16,7 6,0 12,-2 16,-7 4,-5 6,-12 6,-22 0,-9 -2,-16 -6,-21 -4,-5 -10,-7 -16,-7 -6,0 -12,2 -16,7 -4,5 -6,12 -6,22zm73 38l0 -75 11 0 0 11c6,-8 14,-12 24,-12 5,0 9,1 13,2 4,2 7,4 9,6 2,3 3,6 4,9 0,2 1,7 1,12l0 46 -13 0 0 -46c0,-5 0,-9 -1,-12 -1,-3 -3,-5 -5,-6 -3,-2 -6,-2 -9,-2 -5,0 -10,2 -14,5 -4,3 -6,10 -6,20l0 41 -13 0zm81 -90l0 -15 13 0 0 15 -13 0zm0 90l0 -75 13 0 0 75 -13 0zm82 -28l13 2c-1,9 -5,15 -11,20 -6,5 -13,7 -21,7 -10,0 -19,-3 -25,-10 -6,-7 -9,-16 -9,-29 0,-8 1,-15 4,-21 3,-6 7,-11 12,-14 6,-3 11,-5 18,-5 8,0 15,2 20,6 5,4 9,10 10,18l-12 2c-1,-5 -3,-9 -6,-11 -3,-3 -7,-4 -11,-4 -6,0 -12,2 -16,7 -4,5 -6,12 -6,22 0,10 2,17 6,22 4,5 9,7 15,7 5,0 9,-2 13,-5 3,-3 6,-8 6,-14zm73 18c-5,4 -9,7 -14,9 -4,2 -9,2 -14,2 -8,0 -15,-2 -19,-6 -4,-4 -7,-9 -7,-15 0,-4 1,-7 3,-10 2,-3 4,-5 7,-7 3,-2 6,-3 9,-4 3,-1 6,-1 11,-2 10,-1 18,-3 23,-4 0,-2 0,-3 0,-3 0,-5 -1,-9 -4,-11 -3,-3 -8,-4 -15,-4 -6,0 -10,1 -13,3 -3,2 -5,6 -6,11l-13 -2c1,-5 3,-10 6,-13 3,-3 6,-6 11,-8 5,-2 11,-3 17,-3 6,0 12,1 16,2 4,2 7,3 9,6 2,2 3,5 4,9 0,2 1,6 1,12l0 17c0,12 0,19 1,23 1,3 2,6 3,9l-13 0c-1,-3 -2,-6 -2,-9zm-1 -28c-5,2 -12,3 -21,5 -5,1 -9,2 -11,3 -2,1 -4,2 -5,4 -1,2 -2,4 -2,6 0,3 1,6 4,8 3,2 6,3 11,3 5,0 9,-1 13,-3 4,-2 7,-5 8,-9 1,-3 2,-7 2,-13l0 -5zm32 38l0 -104 13 0 0 104 -13 0zm33 -90l0 -15 13 0 0 15 -13 0zm0 90l0 -75 13 0 0 75 -13 0zm26 0l0 -10 48 -55c-5,0 -10,0 -14,0l-31 0 0 -10 62 0 0 8 -41 48 -8 9c6,0 11,-1 16,-1l35 0 0 11 -67 0zm131 -24l13 2c-2,8 -6,14 -12,18 -6,4 -13,6 -22,6 -11,0 -20,-3 -26,-10 -6,-7 -10,-16 -10,-29 0,-13 3,-22 10,-29 7,-7 15,-10 25,-10 10,0 18,3 25,10 6,7 10,17 10,29 0,1 0,2 0,3l-56 0c0,8 3,15 7,19 4,4 9,7 16,7 5,0 9,-1 12,-4 3,-2 6,-6 8,-12zm-42 -21l42 0c-1,-6 -2,-11 -5,-14 -4,-5 -9,-7 -16,-7 -6,0 -11,2 -15,6 -4,4 -6,9 -7,16z"
   id="path74" />
  </g>
  <g
   id="g80">
   <path
   class="fil0"
   d="M2596 3239l0 -17 35 0 0 17 -35 0zm-87 0l0 -17 35 0 0 17 -35 0zm-87 0l0 -17 35 0 0 17 -35 0zm-87 0l0 -17 35 0 0 17 -35 0zm-87 0l0 -17 35 0 0 17 -35 0zm-87 0l0 -17 35 0 0 17 -35 0zm-87 0l0 -17 35 0 0 17 -35 0zm-87 0l0 -17 35 0 0 17 -35 0zm-87 0l0 -17 35 0 0 17 -35 0zm-87 0l0 -17 35 0 0 17 -35 0zm-87 0l0 -17 35 0 0 17 -35 0zm-87 0l0 -17 35 0 0 17 -35 0zm-87 0l0 -17 35 0 0 17 -35 0zm-87 0l0 -17 35 0 0 17 -35 0zm-87 0l0 -17 35 0 0 17 -35 0zm-87 0l0 -17 35 0 0 17 -35 0zm-87 0l0 -17 35 0 0 17 -35 0zm-87 0l0 -17 35 0 0 17 -35 0zm-87 0l0 -17 35 0 0 17 -35 0zm-87 0l0 -17 35 0 0 17 -35 0zm-87 0l0 -17 35 0 0 17 -35 0zm-87 0l0 -17 35 0 0 17 -35 0zm-87 0l0 -17 35 0 0 17 -35 0zm-87 0l0 -17 35 0 0 17 -35 0zm-87 0l0 -17 35 0 0 17 -35 0zm-87 0l0 -17 35 0 0 17 -35 0zm-87 0l0 -17 35 0 0 17 -35 0zm-87 0l0 -17 35 0 0 17 -35 0zm-87 0l0 -17 35 0 0 17 -35 0zm-87 0l0 -17 35 0 0 17 -35 0zm-87 0l0 -17 35 0 0 17 -35 0z"
   id="path78" />
  </g>
  <path
   class="fil8"
   d="M7 1970l0 -109 28 0 0 68 21 0 0 -63 27 0 0 63 26 0 0 -70 30 0 0 111 -132 0zm36 -123l0 -44 27 -15 -27 -18 0 -40 46 33 50 -35 0 43 -31 18 31 21 0 40 -50 -35 -46 33zm57 -235l0 74c6,-1 10,-2 13,-5 4,-4 6,-8 6,-14 0,-4 -1,-7 -3,-10 -1,-2 -3,-4 -6,-6l3 -36c10,6 17,12 21,20 4,8 6,19 6,34 0,13 -2,23 -5,30 -4,7 -9,13 -17,18 -8,5 -17,7 -28,7 -15,0 -27,-5 -36,-14 -9,-10 -14,-23 -14,-40 0,-14 2,-25 6,-33 4,-8 10,-14 18,-18 8,-4 18,-6 31,-6l4 0zm-18 37c-7,1 -12,3 -15,6 -3,3 -5,7 -5,12 0,6 2,11 7,14 3,2 7,4 13,4l0 -36zm19 -126l4 -35c7,2 14,5 19,9 5,4 9,10 12,17 3,7 4,15 4,26 0,10 -1,19 -3,25 -2,7 -5,13 -9,17 -4,5 -9,9 -15,11 -6,3 -13,4 -23,4 -10,0 -18,-2 -25,-5 -5,-2 -9,-6 -13,-10 -4,-4 -7,-9 -9,-13 -3,-7 -4,-16 -4,-28 0,-16 3,-28 8,-36 6,-8 14,-14 25,-17l5 35c-4,1 -7,3 -9,6 -2,3 -3,7 -3,12 0,6 2,11 7,15 4,4 11,6 20,6 8,0 14,-2 18,-6 4,-4 6,-8 6,-14 0,-5 -1,-9 -4,-12 -2,-3 -6,-6 -11,-7zm38 -153l0 34 -15 0c6,5 11,10 14,15 3,5 4,12 4,19 0,10 -3,18 -9,24 -6,6 -15,9 -28,9l-61 0 0 -37 53 0c6,0 10,-1 13,-3 3,-2 4,-5 4,-9 0,-4 -2,-8 -5,-11 -3,-3 -9,-4 -18,-4l-46 0 0 -37 96 0zm-132 -67l36 0 0 -20 27 0 0 20 34 0c4,0 7,0 8,-1 2,-1 3,-3 3,-6 0,-3 -1,-7 -2,-11l25 -3c2,9 3,18 3,25 0,9 -1,16 -4,20 -2,4 -6,8 -11,10 -5,2 -13,3 -23,3l-34 0 0 13 -27 0 0 -13 -18 0 -19 -37zm0 -39l0 -37 25 0 0 37 -25 0zm36 0l0 -37 96 0 0 37 -96 0zm48 -56c-15,0 -27,-5 -36,-15 -9,-10 -14,-23 -14,-40 0,-19 6,-34 17,-43 9,-8 20,-12 33,-12 15,0 27,5 36,15 9,10 14,23 14,41 0,15 -4,28 -12,37 -10,12 -22,18 -38,18zm0 -37c9,0 15,-2 19,-5 4,-3 6,-8 6,-13 0,-5 -2,-10 -6,-13 -4,-3 -11,-5 -19,-5 -8,0 -15,2 -19,5 -4,3 -6,8 -6,13 0,5 2,10 6,13 4,3 10,5 19,5zm-48 -91l0 -34 16 0c-6,-5 -11,-10 -14,-15 -3,-5 -4,-12 -4,-19 0,-10 3,-18 9,-24 6,-6 15,-9 28,-9l61 0 0 37 -53 0c-6,0 -10,1 -13,3 -2,2 -4,5 -4,9 0,4 2,8 5,11 3,3 9,4 18,4l46 0 0 37 -96 0z"
   id="path82" />
  <path
   class="fil8"
   d="M7 3018l0 -41 79 0c8,0 15,1 22,4 7,2 13,6 18,11 5,5 9,11 11,16 3,8 4,18 4,29 0,6 0,13 -1,21 -1,8 -3,14 -5,19 -3,5 -6,10 -11,14 -5,4 -10,7 -15,9 -8,3 -16,4 -22,4l-79 0 0 -41 81 0c7,0 13,-2 17,-6 4,-4 6,-10 6,-17 0,-7 -2,-13 -6,-17 -4,-4 -10,-6 -17,-6l-81 0zm0 -70l0 -41 132 0 0 41 -132 0zm67 -163l-4 35c-6,-1 -11,-3 -15,-6 -4,-2 -7,-6 -9,-11 -2,-3 -3,-8 -4,-14 -1,-6 -2,-12 -2,-19 0,-11 1,-20 2,-26 1,-7 4,-12 8,-17 3,-3 7,-6 12,-7 5,-2 10,-3 14,-3l42 0c5,0 8,0 11,-1 3,-1 6,-2 10,-4l0 34c-2,1 -4,2 -6,3 -1,0 -3,1 -6,1 5,5 8,10 10,14 3,7 4,14 4,23 0,11 -3,20 -8,26 -5,6 -12,9 -20,9 -7,0 -13,-2 -18,-6 -5,-4 -8,-12 -11,-24 -3,-14 -5,-23 -6,-27 -1,-4 -3,-8 -4,-13 -5,0 -8,1 -9,3 -2,2 -3,5 -3,10 0,6 1,11 3,14 2,2 4,4 9,6zm19 -32c2,5 3,10 5,16 2,7 4,12 6,14 2,2 4,3 7,3 3,0 5,-1 7,-3 2,-2 3,-5 3,-9 0,-4 -1,-8 -3,-11 -2,-4 -4,-6 -7,-7 -3,-1 -7,-2 -11,-2l-6 0zm8 -129l4 -35c7,2 14,5 19,9 5,4 9,10 12,17 3,7 4,15 4,26 0,10 -1,19 -3,25 -2,7 -5,13 -9,17 -4,5 -9,9 -15,11 -6,3 -13,4 -23,4 -10,0 -18,-2 -25,-5 -5,-2 -9,-6 -13,-10 -4,-4 -7,-9 -9,-13 -3,-7 -4,-16 -4,-28 0,-16 3,-28 8,-36 6,-8 14,-14 25,-17l5 35c-4,1 -7,3 -9,6 -2,3 -3,7 -3,12 0,6 2,11 7,15 4,4 11,6 20,6 8,0 14,-2 18,-6 4,-4 6,-8 6,-14 0,-5 -1,-9 -4,-12 -2,-3 -6,-6 -11,-7zm-95 -96l36 0 0 -20 27 0 0 20 34 0c4,0 7,0 8,-1 2,-1 3,-3 3,-6 0,-3 -1,-6 -2,-11l25 -3c2,9 3,18 3,25 0,9 -1,16 -4,20 -2,4 -6,8 -11,10 -5,2 -13,3 -23,3l-34 0 0 13 -27 0 0 -13 -18 0 -19 -37zm0 -39l0 -37 25 0 0 37 -25 0zm36 0l0 -37 96 0 0 37 -96 0zm48 -56c-15,0 -27,-5 -36,-15 -9,-10 -14,-23 -14,-40 0,-19 6,-34 17,-43 9,-8 20,-12 33,-12 15,0 27,5 36,15 9,10 14,23 14,41 0,15 -4,28 -12,37 -10,12 -22,18 -38,18zm0 -37c9,0 15,-2 19,-5 4,-3 6,-8 6,-13 0,-5 -2,-10 -6,-13 -4,-3 -11,-5 -19,-5 -8,0 -15,2 -19,5 -4,3 -6,8 -6,13 0,5 2,10 6,13 4,3 10,5 19,5zm-48 -91l0 -34 16 0c-6,-5 -11,-10 -14,-16 -3,-5 -4,-12 -4,-19 0,-10 3,-18 9,-24 6,-6 15,-9 28,-9l61 0 0 37 -53 0c-6,0 -10,1 -13,3 -2,2 -4,5 -4,9 0,4 2,8 5,11 3,3 9,4 18,4l46 0 0 37 -96 0z"
   id="path84" />
  <path
   class="fil8"
   d="M140 4386l-132 0 0 -68c0,-13 1,-22 3,-29 2,-7 6,-12 12,-16 6,-4 13,-6 22,-6 7,0 14,2 19,5 5,3 10,7 13,13 2,3 4,8 5,14 2,-5 3,-8 5,-11 1,-1 3,-4 7,-7 4,-3 6,-5 8,-6l38 -20 0 46 -40 22c-5,3 -9,5 -10,7 -2,3 -3,6 -3,10l0 4 54 0 0 41zm-79 -41l0 -17c0,-2 -1,-5 -2,-11 -1,-3 -2,-5 -4,-7 -2,-2 -5,-3 -8,-3 -4,0 -8,1 -10,4 -2,3 -3,8 -3,15l0 18 27 0zm40 -202l0 74c6,-1 10,-2 13,-5 4,-4 6,-8 6,-14 0,-4 -1,-7 -3,-10 -1,-2 -3,-4 -6,-6l3 -36c10,6 17,12 21,20 4,8 6,19 6,34 0,13 -2,23 -5,30 -4,7 -9,13 -17,18 -8,5 -17,7 -28,7 -15,0 -27,-5 -36,-14 -9,-10 -14,-23 -14,-40 0,-14 2,-25 6,-33 4,-8 10,-14 18,-18 8,-4 18,-6 31,-6l4 0zm-18 37c-7,1 -12,3 -15,6 -3,3 -5,7 -5,12 0,6 2,11 7,14 3,2 7,4 13,4l0 -36zm-40 -54l0 -34 16 0c-6,-5 -11,-10 -14,-15 -3,-5 -4,-12 -4,-19 0,-10 3,-18 9,-24 6,-6 15,-9 28,-9l61 0 0 37 -53 0c-6,0 -10,1 -13,3 -2,2 -4,5 -4,9 0,4 2,8 5,11 3,3 9,4 18,4l46 0 0 37 -96 0zm-36 -224l132 0 0 34 -14 0c6,5 10,9 12,13 3,5 4,11 4,18 0,13 -5,23 -15,30 -10,7 -22,10 -36,10 -16,0 -28,-4 -37,-11 -8,-8 -13,-17 -13,-29 0,-6 1,-11 3,-16 2,-5 5,-9 9,-12l-46 0 0 -37zm84 37c-8,0 -13,2 -17,5 -4,3 -6,7 -6,12 0,4 2,8 5,11 4,3 10,4 18,4 8,0 14,-1 17,-4 4,-3 5,-7 5,-11 0,-5 -2,-9 -6,-12 -4,-3 -10,-5 -18,-5zm10 -166l0 74c6,-1 10,-2 13,-5 4,-4 6,-8 6,-14 0,-4 -1,-7 -3,-10 -1,-2 -3,-4 -6,-6l3 -36c10,6 17,12 21,20 4,8 6,19 6,34 0,13 -2,23 -5,30 -4,7 -9,13 -17,18 -8,5 -17,7 -28,7 -15,0 -27,-5 -36,-14 -9,-10 -14,-23 -14,-40 0,-14 2,-25 6,-33 4,-8 10,-14 18,-18 8,-4 18,-6 31,-6l4 0zm-18 37c-7,1 -12,3 -15,6 -3,3 -5,7 -5,12 0,6 2,11 7,14 3,2 7,4 13,4l0 -36zm-40 -55l0 -34 16 0c-7,-3 -11,-7 -14,-10 -3,-4 -4,-8 -4,-13 0,-5 2,-11 5,-18l26 11c-2,4 -3,8 -3,10 0,5 2,9 6,11 6,4 16,6 31,6l32 0 0 37 -96 0zm-36 -83l0 -37 25 0 0 37 -25 0zm36 0l0 -37 96 0 0 37 -96 0zm0 -60l0 -34 16 0c-6,-5 -11,-10 -14,-15 -3,-5 -4,-12 -4,-19 0,-10 3,-18 9,-24 6,-6 15,-9 28,-9l61 0 0 37 -53 0c-6,0 -10,1 -13,3 -2,2 -4,5 -4,9 0,4 2,8 5,11 3,3 9,4 18,4l46 0 0 37 -96 0zm0 -190l0 -34 91 0 4 0c6,0 12,1 17,4 5,3 10,6 13,10 3,4 6,10 7,16 2,7 2,14 2,22 0,19 -3,32 -9,40 -6,7 -14,11 -23,11 -1,0 -3,0 -5,0l4 -36c3,-1 6,-2 7,-4 2,-3 3,-6 3,-10 0,-5 -1,-9 -4,-12 -3,-3 -8,-4 -15,-4l-14 0c4,4 7,7 9,11 3,6 5,12 5,18 0,13 -6,23 -17,31 -8,6 -18,8 -32,8 -15,0 -26,-4 -34,-11 -8,-7 -12,-17 -12,-28 0,-7 1,-14 4,-18 3,-5 7,-9 13,-14l-14 0zm46 35c7,0 12,-1 15,-4 3,-3 5,-7 5,-12 0,-5 -2,-8 -5,-12 -3,-3 -9,-5 -16,-5 -7,0 -12,2 -16,5 -4,3 -6,7 -6,12 0,5 2,8 5,11 3,3 9,4 17,4z"
   id="path86" />
  <g
   id="g92">
   <path
   class="fil9 str1"
   d="M1512 5234c59,0 106,48 106,106 0,59 -48,106 -106,106 -59,0 -106,-48 -106,-106 0,-59 48,-106 106,-106z"
   id="path88" />
   <path
   class="fil10 str2"
   d="M1512 5257c46,0 83,37 83,83 0,46 -37,83 -83,83 -46,0 -83,-37 -83,-83 0,-46 37,-83 83,-83z"
   id="path90" />
  </g>
  <g
   id="g96">
   <path
   class="fil0"
   d="M2596 4556l0 -17 35 0 0 17 -35 0zm-87 0l0 -17 35 0 0 17 -35 0zm-87 0l0 -17 35 0 0 17 -35 0zm-87 0l0 -17 35 0 0 17 -35 0zm-87 0l0 -17 35 0 0 17 -35 0zm-87 0l0 -17 35 0 0 17 -35 0zm-87 0l0 -17 35 0 0 17 -35 0zm-87 0l0 -17 35 0 0 17 -35 0zm-87 0l0 -17 35 0 0 17 -35 0zm-87 0l0 -17 35 0 0 17 -35 0zm-87 0l0 -17 35 0 0 17 -35 0zm-87 0l0 -17 35 0 0 17 -35 0zm-87 0l0 -17 35 0 0 17 -35 0zm-87 0l0 -17 35 0 0 17 -35 0zm-87 0l0 -17 35 0 0 17 -35 0zm-87 0l0 -17 35 0 0 17 -35 0zm-87 0l0 -17 35 0 0 17 -35 0zm-87 0l0 -17 35 0 0 17 -35 0zm-87 0l0 -17 35 0 0 17 -35 0zm-87 0l0 -17 35 0 0 17 -35 0zm-87 0l0 -17 35 0 0 17 -35 0zm-87 0l0 -17 35 0 0 17 -35 0zm-87 0l0 -17 35 0 0 17 -35 0zm-87 0l0 -17 35 0 0 17 -35 0zm-87 0l0 -17 35 0 0 17 -35 0zm-87 0l0 -17 35 0 0 17 -35 0zm-87 0l0 -17 35 0 0 17 -35 0zm-87 0l0 -17 35 0 0 17 -35 0zm-87 0l0 -17 35 0 0 17 -35 0zm-87 0l0 -17 35 0 0 17 -35 0zm-87 0l0 -17 35 0 0 17 -35 0z"
   id="path94" />
  </g>
  <path
   class="fil6"
   d="M859 2738l0 -124 15 0 0 45c7,-8 16,-12 27,-12 7,0 12,1 17,4 5,3 8,6 11,11 2,5 3,11 3,20l0 57 -15 0 0 -57c0,-8 -2,-13 -5,-17 -3,-3 -8,-5 -14,-5 -4,0 -9,1 -13,4 -4,2 -7,6 -8,10 -2,4 -3,10 -3,17l0 49 -15 0zm156 -11c-6,5 -11,8 -16,10 -5,2 -11,3 -17,3 -10,0 -18,-2 -23,-7 -5,-5 -8,-11 -8,-18 0,-4 1,-8 3,-12 2,-4 5,-7 8,-9 3,-2 7,-4 11,-5 3,-1 8,-2 14,-2 12,-1 21,-3 27,-5 0,-2 0,-3 0,-4 0,-6 -1,-11 -4,-13 -4,-3 -10,-5 -17,-5 -7,0 -13,1 -16,4 -3,3 -6,7 -8,13l-15 -2c1,-6 4,-12 7,-16 3,-4 8,-7 14,-9 6,-2 13,-3 21,-3 8,0 14,1 19,3 5,2 8,4 11,7 2,3 4,6 5,10 0,3 1,7 1,14l0 20c0,14 0,23 1,27 1,4 2,7 4,11l-16 0c-2,-3 -3,-7 -3,-11zm-1 -34c-6,2 -14,4 -25,6 -6,1 -11,2 -13,3 -3,1 -5,3 -6,5 -1,2 -2,5 -2,7 0,4 2,7 5,10 3,3 8,4 14,4 6,0 11,-1 16,-4 5,-3 8,-6 10,-10 2,-3 2,-9 2,-15l0 -6zm39 45l0 -90 14 0 0 13c7,-10 16,-15 29,-15 5,0 10,1 15,3 5,2 8,5 10,8 2,3 4,7 5,11 1,3 1,8 1,15l0 55 -15 0 0 -55c0,-6 -1,-11 -2,-14 -1,-3 -3,-6 -6,-7 -3,-2 -7,-3 -11,-3 -6,0 -12,2 -17,6 -5,4 -7,12 -7,23l0 49 -15 0zm155 0l0 -11c-6,9 -14,13 -25,13 -7,0 -14,-2 -20,-6 -6,-4 -11,-9 -14,-17 -3,-7 -5,-15 -5,-24 0,-9 2,-17 4,-24 3,-7 7,-13 13,-17 6,-4 13,-6 20,-6 5,0 10,1 15,3 4,2 8,5 10,9l0 -45 15 0 0 124 -14 0zm-48 -45c0,12 2,20 7,26 5,6 11,9 17,9 7,0 12,-3 17,-8 5,-5 7,-14 7,-25 0,-12 -2,-21 -7,-27 -5,-6 -11,-9 -18,-9 -7,0 -12,3 -17,8 -5,6 -7,14 -7,26zm86 45l0 -124 15 0 0 124 -15 0zm100 -29l16 2c-2,9 -7,16 -14,21 -7,5 -15,8 -26,8 -13,0 -24,-4 -31,-12 -8,-8 -12,-19 -12,-34 0,-15 4,-27 12,-35 8,-8 18,-13 30,-13 12,0 22,4 29,12 8,8 11,20 11,35 0,1 0,2 0,4l-67 0c1,10 3,17 8,23 5,5 11,8 19,8 6,0 10,-1 14,-4 4,-3 7,-8 9,-14zm-50 -24l50 0c-1,-8 -3,-13 -6,-17 -5,-6 -11,-9 -19,-9 -7,0 -13,2 -18,7 -5,5 -7,11 -8,19zm83 -1l0 -14 82 -35 0 15 -65 27 65 27 0 15 -82 -35zm100 14l15 -1c1,6 2,11 5,15 3,4 7,7 13,10 6,2 12,4 19,4 6,0 12,-1 17,-3 5,-2 8,-4 11,-8 2,-3 4,-7 4,-11 0,-4 -1,-7 -3,-10 -2,-3 -6,-5 -11,-7 -3,-1 -11,-3 -22,-6 -11,-3 -19,-5 -24,-8 -6,-3 -10,-7 -13,-12 -3,-5 -4,-10 -4,-15 0,-6 2,-12 5,-18 4,-5 9,-10 16,-12 7,-3 14,-4 23,-4 9,0 17,1 24,4 7,3 12,7 16,13 4,6 6,12 6,20l-16 1c-1,-8 -4,-14 -9,-18 -5,-4 -12,-6 -22,-6 -10,0 -17,2 -22,5 -5,4 -7,8 -7,13 0,4 2,8 5,11 3,3 11,6 25,9 13,3 23,6 28,8 7,3 13,8 16,13 3,5 5,11 5,18 0,7 -2,13 -6,19 -4,6 -9,10 -16,14 -7,3 -15,5 -24,5 -11,0 -21,-2 -28,-5 -8,-3 -14,-8 -18,-15 -4,-7 -7,-14 -7,-22zm119 -67l0 -17 15 0 0 17 -15 0zm0 107l0 -90 15 0 0 90 -15 0zm36 7l15 2c1,5 2,8 5,10 4,3 9,4 16,4 7,0 13,-1 16,-4 4,-3 6,-7 8,-12 1,-3 1,-10 1,-20 -7,8 -15,12 -25,12 -12,0 -22,-4 -29,-13 -7,-9 -10,-20 -10,-32 0,-9 2,-17 5,-24 3,-7 8,-13 14,-17 6,-4 13,-6 21,-6 11,0 19,4 26,13l0 -11 14 0 0 78c0,14 -1,24 -4,30 -3,6 -7,10 -14,14 -6,3 -14,5 -23,5 -11,0 -19,-2 -26,-7 -7,-5 -10,-12 -10,-22zm13 -54c0,12 2,20 7,26 5,5 11,8 18,8 7,0 13,-3 18,-8 5,-5 7,-14 7,-25 0,-11 -2,-19 -7,-25 -5,-6 -11,-8 -18,-8 -7,0 -13,3 -17,8 -5,6 -7,14 -7,25zm87 47l0 -90 14 0 0 13c7,-10 16,-15 29,-15 5,0 10,1 15,3 5,2 8,5 10,8 2,3 4,7 5,11 1,3 1,8 1,15l0 55 -15 0 0 -55c0,-6 -1,-11 -2,-14 -1,-3 -3,-6 -6,-7 -3,-2 -7,-3 -11,-3 -6,0 -12,2 -17,6 -5,4 -7,12 -7,23l0 49 -15 0zm156 -11c-6,5 -11,8 -16,10 -5,2 -11,3 -17,3 -10,0 -18,-2 -23,-7 -5,-5 -8,-11 -8,-18 0,-4 1,-8 3,-12 2,-4 5,-7 8,-9 3,-2 7,-4 11,-5 3,-1 8,-2 14,-2 12,-1 21,-3 27,-5 0,-2 0,-3 0,-4 0,-6 -1,-11 -4,-13 -4,-3 -10,-5 -17,-5 -7,0 -13,1 -16,4 -3,3 -6,7 -8,13l-15 -2c1,-6 4,-12 7,-16 3,-4 8,-7 14,-9 6,-2 13,-3 21,-3 8,0 14,1 19,3 5,2 8,4 11,7 2,3 4,6 5,10 0,3 1,7 1,14l0 20c0,14 0,23 1,27 1,4 2,7 4,11l-16 0c-2,-3 -3,-7 -3,-11zm-1 -34c-6,2 -14,4 -25,6 -6,1 -11,2 -13,3 -3,1 -5,3 -6,5 -1,2 -2,5 -2,7 0,4 2,7 5,10 3,3 8,4 14,4 6,0 11,-1 16,-4 5,-3 8,-6 10,-10 2,-3 2,-9 2,-15l0 -6zm39 45l0 -124 15 0 0 124 -15 0zm119 -54l-82 35 0 -15 65 -27 -65 -27 0 -15 82 35 0 14zm50 91c-8,-11 -16,-23 -21,-37 -6,-14 -9,-29 -9,-44 0,-13 2,-26 7,-39 5,-14 13,-29 24,-43l11 0c-7,12 -11,20 -14,25 -3,8 -6,16 -8,24 -2,11 -4,21 -4,32 0,27 8,54 25,81l-11 0zm39 0l-11 0c17,-27 25,-54 25,-81 0,-11 -1,-21 -4,-32 -2,-8 -5,-17 -8,-24 -2,-5 -7,-14 -14,-25l11 0c11,14 18,28 24,43 4,12 7,25 7,39 0,15 -3,30 -9,44 -6,14 -13,27 -21,37z"
   id="path98" />
  <line
   class="fil11 str3"
   x1="1512"
   y1="169"
   x2="1512"
   y2="169"
   id="line100" />
  <line
   class="fil11 str3"
   x1="1512"
   y1="169"
   x2="1512"
   y2="169"
   id="line102" />
  <line
   class="fil11 str3"
   x1="1512"
   y1="169"
   x2="1512"
   y2="169"
   id="line104" />
  <g
   id="g108">
   <path
   class="fil0"
   d="M1503 338l0 -169 17 0 0 169 -17 0zm9 60l-52 -120 3 2 3 1 3 1 3 1 3 1 3 1 3 1 3 1 3 1 3 1 3 1 3 0 3 0 3 0 3 0 3 0 3 0 3 0 3 0 3 0 3 0 3 -1 3 -1 3 -1 3 -1 3 -1 3 -1 3 -1 3 -1 3 -1 3 -1 3 -2 0 0 -51 120z"
   id="path106" />
  </g>
  <path
   class="fil10 str4"
   d="M1512 2c46,0 83,37 83,83 0,46 -37,83 -83,83 -46,0 -83,-37 -83,-83 0,-46 37,-83 83,-83z"
   id="path110" />
  <path
   class="fil5 str5"
   d="M932 383l1160 0c72,0 131,59 131,131l0 0c0,72 -59,131 -131,131l-1160 0c-72,0 -131,-59 -131,-131l0 0c0,-72 59,-131 131,-131z"
   id="path112"
   style="filter:url(#filter143)" />
  <path
   class="fil0"
   d="M871 582l0 -8 72 0 0 8 -72 0zm68 0l0 -8 72 0 0 8 -72 0zm120 -48l11 1c-1,7 -4,13 -9,17 -5,4 -11,6 -18,6 -9,0 -16,-3 -21,-9 -5,-6 -8,-14 -8,-24 0,-7 1,-13 3,-18 2,-5 6,-9 10,-12 5,-3 10,-4 15,-4 7,0 13,2 17,5 4,4 7,8 8,15l-10 2c-1,-4 -3,-7 -5,-10 -3,-2 -6,-3 -9,-3 -5,0 -10,2 -13,6 -3,4 -5,10 -5,19 0,9 2,15 5,19 3,4 8,6 13,6 4,0 8,-1 11,-4 3,-3 5,-7 5,-12zm16 -9c0,-12 3,-21 10,-26 5,-5 12,-7 20,-7 9,0 16,3 21,9 6,6 8,14 8,24 0,8 -1,15 -4,19 -2,5 -6,8 -11,11 -5,3 -10,4 -15,4 -9,0 -16,-3 -22,-9 -6,-6 -8,-14 -8,-25zm11 0c0,8 2,14 5,18 4,4 8,6 14,6 5,0 10,-2 13,-6 4,-4 5,-10 5,-19 0,-8 -2,-14 -5,-18 -4,-4 -8,-6 -13,-6 -5,0 -10,2 -14,6 -4,4 -5,10 -5,18zm61 32l0 -64 10 0 0 9c5,-7 11,-10 20,-10 4,0 7,1 11,2 3,1 6,3 7,5 2,2 3,5 3,8 0,2 1,6 1,11l0 39 -11 0 0 -39c0,-4 0,-8 -1,-10 -1,-2 -2,-4 -4,-5 -2,-1 -5,-2 -8,-2 -5,0 -9,1 -12,4 -3,3 -5,8 -5,17l0 35 -11 0zm64 -19l11 -2c1,4 2,8 5,10 3,2 7,3 12,3 5,0 9,-1 11,-3 2,-2 4,-4 4,-7 0,-2 -1,-4 -3,-6 -2,-1 -5,-2 -11,-4 -8,-2 -13,-4 -16,-5 -3,-1 -5,-3 -7,-6 -2,-3 -2,-5 -2,-9 0,-3 1,-5 2,-8 1,-2 3,-4 5,-6 2,-1 4,-2 7,-3 3,-1 6,-1 9,-1 5,0 9,1 13,2 4,1 7,3 8,6 2,2 3,6 4,10l-11 1c0,-3 -2,-6 -4,-8 -2,-2 -6,-3 -10,-3 -5,0 -8,1 -11,2 -2,2 -3,4 -3,6 0,1 0,3 1,4 1,1 2,2 4,3 1,0 4,1 10,3 8,2 13,4 16,5 3,1 5,3 7,6 2,2 3,6 3,9 0,4 -1,7 -3,10 -2,3 -5,6 -9,7 -4,2 -8,3 -13,3 -8,0 -15,-2 -19,-5 -4,-3 -7,-9 -8,-15zm89 9l1 10c-3,1 -6,1 -8,1 -4,0 -7,-1 -9,-2 -2,-1 -4,-3 -5,-5 -1,-2 -1,-6 -1,-13l0 -37 -8 0 0 -8 8 0 0 -16 11 -6 0 22 11 0 0 8 -11 0 0 37c0,3 0,5 1,6 0,1 1,2 2,2 1,1 2,1 4,1 1,0 3,0 5,0zm11 10l0 -64 10 0 0 10c2,-5 5,-8 7,-9 2,-1 4,-2 7,-2 4,0 7,1 11,3l-4 10c-3,-1 -5,-2 -8,-2 -2,0 -4,1 -6,2 -2,1 -3,3 -4,6 -1,4 -2,8 -2,13l0 33 -11 0zm83 0l0 -9c-5,7 -12,11 -20,11 -4,0 -7,-1 -11,-2 -3,-1 -6,-3 -7,-5 -2,-2 -3,-5 -3,-8 0,-2 -1,-5 -1,-10l0 -39 11 0 0 35c0,6 0,9 1,11 1,3 2,5 4,7 2,2 5,2 8,2 3,0 6,-1 9,-2 3,-2 5,-4 6,-7 1,-3 2,-7 2,-12l0 -34 11 0 0 64 -10 0zm68 -23l11 1c-1,7 -4,13 -9,17 -5,4 -11,6 -18,6 -9,0 -16,-3 -21,-9 -5,-6 -8,-14 -8,-24 0,-7 1,-13 3,-18 2,-5 6,-9 10,-12 5,-3 10,-4 15,-4 7,0 13,2 17,5 4,4 7,8 8,15l-10 2c-1,-4 -3,-7 -5,-10 -3,-2 -6,-3 -9,-3 -5,0 -10,2 -13,6 -3,4 -5,10 -5,19 0,9 2,15 5,19 3,4 8,6 13,6 4,0 8,-1 11,-4 3,-3 5,-7 5,-12zm43 14l1 10c-3,1 -6,1 -8,1 -4,0 -7,-1 -9,-2 -2,-1 -4,-3 -5,-5 -1,-2 -1,-6 -1,-13l0 -37 -8 0 0 -8 8 0 0 -16 11 -6 0 22 11 0 0 8 -11 0 0 37c0,3 0,5 1,6 0,1 1,2 2,2 1,1 2,1 4,1 1,0 3,0 5,0zm31 35c-6,-8 -11,-16 -15,-26 -4,-10 -6,-21 -6,-31 0,-10 2,-19 5,-27 4,-10 9,-20 17,-30l8 0c-5,8 -8,14 -10,18 -2,6 -4,11 -6,17 -2,7 -3,15 -3,23 0,19 6,38 18,58l-8 0zm27 0l-8 0c12,-19 18,-38 18,-58 0,-8 -1,-15 -3,-22 -1,-6 -3,-12 -6,-17 -2,-4 -5,-10 -10,-18l8 0c8,10 13,20 17,30 3,9 5,18 5,27 0,11 -2,21 -6,31 -4,10 -9,19 -15,26zm118 -36c-4,4 -7,7 -12,9 -4,2 -9,3 -14,3 -9,0 -16,-3 -21,-9 -4,-5 -6,-10 -6,-17 0,-5 2,-10 5,-15 4,-4 9,-8 16,-12 -4,-5 -7,-8 -8,-11 -1,-3 -2,-6 -2,-8 0,-5 2,-10 6,-14 4,-4 9,-6 16,-6 6,0 11,2 15,6 4,4 6,8 6,13 0,8 -6,16 -17,21l16 20c2,-4 3,-8 4,-12l11 2c-2,8 -5,14 -8,19 4,5 9,10 14,13l-7 9c-4,-3 -9,-7 -13,-12zm-22 -46c5,-3 8,-5 9,-7 1,-2 2,-4 2,-7 0,-3 -1,-5 -3,-7 -2,-2 -4,-3 -7,-3 -3,0 -5,1 -7,3 -2,2 -3,4 -3,7 0,1 0,3 1,4 1,2 2,3 3,5l5 6zm15 37l-20 -25c-6,3 -10,7 -12,10 -2,3 -3,6 -3,9 0,4 1,7 4,11 3,4 7,6 12,6 3,0 7,-1 10,-3 3,-2 6,-5 8,-8zm73 -57l0 -12 11 0 0 12 -11 0zm0 76l0 -64 11 0 0 64 -11 0zm27 0l0 -64 10 0 0 9c5,-7 11,-10 20,-10 4,0 7,1 11,2 3,1 6,3 7,5 2,2 3,5 3,8 0,2 1,6 1,11l0 39 -11 0 0 -39c0,-4 0,-8 -1,-10 -1,-2 -2,-4 -4,-5 -2,-1 -5,-2 -8,-2 -5,0 -9,1 -12,4 -3,3 -5,8 -5,17l0 35 -11 0zm68 -75l0 -13 11 0 0 13 -11 0zm-14 100l2 -9c2,1 4,1 5,1 2,0 4,-1 5,-2 1,-1 2,-5 2,-11l0 -67 11 0 0 67c0,8 -1,13 -3,16 -3,4 -7,6 -13,6 -3,0 -6,0 -8,-1zm85 -45l11 1c-2,6 -5,12 -10,15 -5,4 -11,5 -18,5 -9,0 -17,-3 -22,-9 -5,-6 -8,-14 -8,-24 0,-11 3,-19 8,-25 6,-6 13,-9 21,-9 9,0 15,3 21,9 5,6 8,14 8,24 0,1 0,2 0,3l-48 0c0,7 2,12 6,16 4,4 8,6 13,6 4,0 7,-1 10,-3 3,-2 5,-5 7,-10zm-35 -17l36 0c0,-5 -2,-9 -4,-12 -3,-4 -8,-6 -13,-6 -5,0 -9,2 -12,5 -3,3 -5,8 -6,13zm102 15l11 1c-1,7 -4,13 -9,17 -5,4 -11,6 -18,6 -9,0 -16,-3 -21,-9 -5,-6 -8,-14 -8,-24 0,-7 1,-13 3,-18 2,-5 6,-9 10,-12 5,-3 10,-4 15,-4 7,0 13,2 17,5 4,4 7,8 8,15l-10 2c-1,-4 -3,-7 -5,-10 -3,-2 -6,-3 -9,-3 -5,0 -10,2 -13,6 -3,4 -5,10 -5,19 0,9 2,15 5,19 3,4 8,6 13,6 4,0 8,-1 11,-4 3,-3 5,-7 5,-12zm43 14l1 10c-3,1 -6,1 -8,1 -4,0 -7,-1 -9,-2 -2,-1 -4,-3 -5,-5 -1,-2 -1,-6 -1,-13l0 -37 -8 0 0 -8 8 0 0 -16 11 -6 0 22 11 0 0 8 -11 0 0 37c0,3 0,5 1,6 0,1 1,2 2,2 1,1 2,1 4,1 1,0 3,0 5,0zm6 -62l3 -8c6,2 11,4 14,6 -1,-7 -1,-12 -1,-15l9 0c0,4 -1,9 -1,15 4,-2 9,-4 14,-6l3 8c-5,2 -10,3 -15,3 2,2 6,6 10,11l-7 5c-2,-3 -5,-7 -8,-13 -3,6 -6,10 -8,13l-7 -5c5,-6 8,-9 10,-11 -5,-1 -10,-2 -15,-3zm73 98c-6,-8 -11,-16 -15,-26 -4,-10 -6,-21 -6,-31 0,-10 2,-19 5,-27 4,-10 9,-20 17,-30l8 0c-5,8 -8,14 -10,18 -2,6 -4,11 -6,17 -2,7 -3,15 -3,23 0,19 6,38 18,58l-8 0zm27 0l-8 0c12,-19 18,-38 18,-58 0,-8 -1,-15 -3,-22 -1,-6 -3,-12 -6,-17 -2,-4 -5,-10 -10,-18l8 0c7,10 13,20 17,30 3,9 5,18 5,27 0,11 -2,21 -6,31 -4,10 -9,19 -15,26z"
   id="path114" />
  <g
   id="g118">
   <path
   class="fil0"
   d="M1503 5170l0 -132 17 0 0 132 -17 0zm9 60l-51 -120 3 2 3 1 3 1 3 1 3 1 3 1 3 1 3 1 3 1 3 1 3 1 3 0 3 0 3 0 3 0 3 0 3 0 3 0 3 0 3 0 3 0 3 -1 3 -1 3 -1 3 -1 3 -1 3 -1 3 -1 3 -1 3 -1 3 -1 3 -2 0 0 -51 120z"
   id="path116" />
  </g>
  <g
   id="g124"
   style="filter:url(#filter215)">
   <path
   class="fil5"
   d="M832 4771l1360 0c72,0 131,59 131,131l0 0c0,72 -59,131 -131,131l-1360 0c-72,0 -131,-59 -131,-131l0 0c0,-72 59,-131 131,-131z"
   id="path120" />
   <path
   id="path122"
   class="fil2"
   d="M2191 4779l-1360 0 0 -16 1360 0 0 0 0 16zm139 123l-16 0 0 0 0 -6 0 -6 -1 -6 -1 -6 -1 -6 -2 -6 -2 -6 -2 -6 -2 -5 -3 -5 -3 -5 -3 -5 -3 -5 -4 -5 -4 -4 -4 -4 -4 -4 -4 -4 -5 -4 -5 -3 -5 -3 -5 -3 -5 -3 -5 -2 -6 -2 -6 -2 -6 -2 -6 -1 -6 -1 -6 -1 -6 0 -6 0 0 -16 7 0 7 1 7 1 7 1 7 2 7 2 6 2 6 3 6 3 6 3 6 3 6 4 5 4 5 4 5 4 5 5 5 5 4 5 4 5 4 5 4 6 3 6 3 6 3 6 3 6 2 6 2 7 2 7 1 7 1 7 1 7 0 7 0 0zm-16 0l0 0 16 0 0 0 0 0 -16 0zm-123 139l0 -16 0 0 6 0 6 0 6 -1 6 -1 6 -1 6 -2 6 -2 6 -2 5 -2 5 -3 5 -3 5 -3 5 -3 5 -4 4 -4 4 -4 4 -4 4 -4 4 -5 3 -5 3 -5 3 -5 3 -5 2 -5 2 -6 2 -6 2 -6 1 -6 1 -6 1 -6 0 -6 0 -6 16 0 0 7 -1 7 -1 7 -1 7 -2 7 -2 7 -2 6 -3 6 -3 6 -3 6 -3 6 -4 6 -4 5 -4 5 -4 5 -5 5 -5 5 -5 4 -5 4 -5 4 -6 4 -6 3 -6 3 -6 3 -6 3 -6 2 -7 2 -7 2 -7 1 -7 1 -7 1 -7 0 0 0zm-1360 -16l1360 0 0 16 -1360 0 0 0 0 -16zm-139 -123l16 0 0 0 0 6 0 6 1 6 1 6 1 6 2 6 2 6 2 6 2 5 3 5 3 5 3 5 3 5 4 5 4 4 4 4 4 4 4 4 5 4 5 3 5 3 5 3 5 3 5 2 6 2 6 2 6 2 6 1 6 1 6 1 6 0 6 0 0 16 -7 0 -7 -1 -7 -1 -7 -1 -7 -2 -7 -2 -6 -2 -6 -3 -6 -3 -6 -3 -6 -3 -6 -4 -5 -4 -5 -4 -5 -4 -5 -5 -5 -5 -4 -5 -4 -5 -4 -5 -4 -6 -3 -6 -3 -6 -3 -6 -3 -6 -2 -6 -2 -7 -2 -7 -1 -7 -1 -7 -1 -7 0 -7 0 0zm16 0l0 0 -16 0 0 0 0 0 16 0zm123 -139l0 16 0 0 -6 0 -6 0 -6 1 -6 1 -6 1 -6 2 -6 2 -6 2 -5 2 -5 3 -5 3 -5 3 -5 3 -5 4 -4 4 -4 4 -4 4 -4 4 -4 5 -3 5 -3 5 -3 5 -3 5 -2 5 -2 6 -2 6 -2 6 -1 6 -1 6 -1 6 0 6 0 6 -16 0 0 -7 1 -7 1 -7 1 -7 2 -7 2 -7 2 -6 3 -6 3 -6 3 -6 3 -6 4 -6 4 -5 4 -5 4 -5 5 -5 5 -5 5 -4 5 -4 5 -4 6 -4 6 -3 6 -3 6 -3 6 -3 6 -2 7 -2 7 -2 7 -1 7 -1 7 -1 7 0 0 0z" />
  </g>
  <path
   class="fil0"
   d="M786 4961l0 -11c-5,-1 -10,-2 -13,-4 -3,-2 -6,-5 -9,-8 -2,-4 -4,-9 -4,-14l11 -2c1,6 2,10 4,13 3,4 7,6 11,6l0 -34c-4,-1 -9,-3 -14,-6 -3,-2 -6,-5 -8,-8 -2,-3 -3,-7 -3,-12 0,-8 3,-14 8,-19 4,-3 9,-5 16,-6l0 -5 6 0 0 5c6,1 11,2 15,6 5,4 8,9 8,16l-11 2c-1,-4 -2,-8 -4,-10 -2,-2 -5,-4 -8,-5l0 31c5,1 9,2 11,3 3,1 6,3 8,5 2,2 4,5 5,8 1,3 2,6 2,9 0,7 -2,14 -7,19 -5,5 -11,8 -18,8l0 11 -6 0zm0 -95c-4,1 -8,2 -10,5 -2,3 -4,6 -4,10 0,4 1,7 3,9 2,2 6,4 10,6l0 -30zm6 75c4,-1 8,-2 10,-5 3,-3 4,-7 4,-12 0,-4 -1,-7 -3,-9 -2,-2 -6,-4 -12,-6l0 32zm35 -25c0,-12 3,-21 10,-26 5,-5 12,-7 20,-7 9,0 16,3 22,9 6,6 8,14 8,24 0,8 -1,15 -4,19 -2,5 -6,8 -11,11 -5,3 -10,4 -15,4 -9,0 -16,-3 -22,-9 -6,-6 -8,-14 -8,-25zm11 0c0,8 2,14 5,18 4,4 8,6 14,6 5,0 10,-2 13,-6 4,-4 5,-10 5,-19 0,-8 -2,-14 -5,-18 -4,-4 -8,-6 -13,-6 -5,0 -10,2 -14,6 -4,4 -5,10 -5,18zm61 32l0 -64 10 0 0 9c5,-7 11,-10 20,-10 4,0 7,1 11,2 3,1 6,3 7,5 2,2 3,5 3,8 0,2 1,6 1,11l0 39 -11 0 0 -39c0,-4 0,-8 -1,-10 -1,-2 -2,-4 -4,-5 -2,-1 -5,-2 -8,-2 -5,0 -9,1 -12,4 -3,3 -5,8 -5,17l0 35 -11 0zm66 -28l11 -1c1,4 2,8 4,11 2,3 5,5 9,7 4,2 9,3 14,3 4,0 8,-1 12,-2 3,-1 6,-3 8,-5 2,-2 3,-5 3,-8 0,-3 -1,-5 -2,-7 -2,-2 -4,-4 -8,-5 -2,-1 -8,-2 -16,-4 -8,-2 -14,-4 -17,-5 -4,-2 -7,-5 -9,-8 -2,-3 -3,-7 -3,-11 0,-4 1,-9 4,-12 3,-4 6,-7 11,-9 5,-2 10,-3 16,-3 7,0 12,1 17,3 5,2 9,5 12,9 3,4 4,9 4,14l-11 1c-1,-6 -3,-10 -6,-13 -3,-3 -9,-4 -15,-4 -7,0 -12,1 -15,4 -3,3 -5,6 -5,9 0,3 1,6 3,8 2,2 8,4 18,6 9,2 16,4 19,6 5,2 9,5 11,9 2,4 4,8 4,12 0,5 -1,9 -4,13 -3,4 -7,7 -12,10 -5,2 -11,3 -17,3 -8,0 -15,-1 -20,-3 -5,-2 -10,-6 -13,-10 -3,-5 -5,-10 -5,-16zm85 28l0 -88 11 0 0 32c5,-6 11,-9 19,-9 5,0 9,1 12,3 3,2 6,4 7,8 1,3 2,8 2,14l0 40 -11 0 0 -40c0,-5 -1,-9 -3,-12 -2,-2 -6,-4 -10,-4 -3,0 -6,1 -9,2 -3,2 -5,4 -6,7 -1,3 -2,7 -2,12l0 35 -11 0zm110 0l0 -9c-5,7 -12,11 -20,11 -4,0 -7,-1 -11,-2 -3,-1 -6,-3 -7,-5 -2,-2 -3,-5 -3,-8 0,-2 -1,-5 -1,-10l0 -40 11 0 0 35c0,6 0,9 1,11 1,3 2,5 4,7 2,2 5,2 8,2 3,0 6,-1 9,-2 3,-2 5,-4 6,-7 1,-3 2,-7 2,-12l0 -34 11 0 0 64 -10 0zm50 -10l1 10c-3,1 -6,1 -8,1 -4,0 -7,-1 -9,-2 -2,-1 -4,-3 -5,-5 -1,-2 -1,-6 -1,-13l0 -37 -8 0 0 -8 8 0 0 -16 11 -6 0 22 11 0 0 8 -11 0 0 37c0,3 0,5 1,6 0,1 1,2 2,2 1,1 2,1 4,1 1,0 3,0 5,0zm52 10l0 -8c-4,6 -10,9 -18,9 -5,0 -10,-1 -14,-4 -4,-3 -8,-7 -10,-12 -2,-5 -4,-11 -4,-17 0,-6 1,-12 3,-17 2,-5 5,-9 10,-12 4,-3 9,-4 14,-4 4,0 7,1 10,2 3,2 5,4 7,6l0 -32 11 0 0 88 -10 0zm-34 -32c0,8 2,14 5,18 3,4 8,6 12,6 5,0 9,-2 12,-6 3,-4 5,-10 5,-18 0,-9 -2,-15 -5,-19 -3,-4 -8,-6 -12,-6 -5,0 -9,2 -12,6 -3,4 -5,10 -5,19zm57 0c0,-12 3,-21 10,-26 5,-5 12,-7 20,-7 9,0 16,3 22,9 6,6 8,14 8,24 0,8 -1,15 -4,19 -2,5 -6,8 -11,11 -5,3 -10,4 -15,4 -9,0 -16,-3 -22,-9 -6,-6 -8,-14 -8,-25zm11 0c0,8 2,14 5,18 4,4 8,6 14,6 5,0 10,-2 13,-6 4,-4 5,-10 5,-19 0,-8 -2,-14 -5,-18 -4,-4 -8,-6 -13,-6 -5,0 -10,2 -14,6 -4,4 -5,10 -5,18zm73 32l-19 -64 11 0 10 37 4 14c0,-1 1,-5 3,-13l10 -37 11 0 10 37 3 12 4 -12 11 -37 11 0 -20 64 -11 0 -10 -38 -3 -11 -13 49 -11 0zm77 0l0 -64 10 0 0 9c5,-7 11,-10 20,-10 4,0 7,1 11,2 3,1 6,3 7,5 2,2 3,5 3,8 0,2 1,6 1,11l0 39 -11 0 0 -39c0,-4 0,-8 -1,-10 -1,-2 -2,-4 -4,-5 -2,-1 -5,-2 -8,-2 -5,0 -9,1 -12,4 -3,3 -5,8 -5,17l0 35 -11 0zm153 -10c-4,4 -7,7 -12,9 -4,2 -9,3 -14,3 -9,0 -16,-3 -21,-9 -4,-5 -6,-10 -6,-17 0,-5 2,-10 5,-15 4,-4 9,-8 16,-12 -4,-5 -7,-8 -8,-11 -1,-3 -2,-6 -2,-8 0,-5 2,-10 6,-14 4,-4 9,-6 16,-6 6,0 11,2 15,6 4,4 6,8 6,13 0,8 -6,16 -17,21l16 20c2,-4 3,-8 4,-12l11 2c-2,8 -5,14 -8,19 4,5 9,10 14,13l-7 9c-4,-3 -9,-7 -13,-12zm-22 -46c5,-3 8,-5 9,-7 1,-2 2,-4 2,-7 0,-3 -1,-5 -3,-7 -2,-2 -4,-3 -7,-3 -3,0 -5,1 -7,3 -2,2 -3,4 -3,7 0,1 0,3 1,4 1,2 2,3 3,5l5 6zm15 37l-20 -25c-6,3 -10,7 -12,10 -2,3 -3,6 -3,9 0,4 1,7 4,11 3,4 7,6 12,6 3,0 7,-1 10,-3 3,-2 6,-5 8,-8zm68 0l11 -2c1,4 2,8 5,10 3,2 7,3 12,3 5,0 9,-1 11,-3 2,-2 4,-4 4,-7 0,-2 -1,-4 -3,-6 -2,-1 -5,-2 -11,-4 -8,-2 -13,-4 -16,-5 -3,-1 -5,-3 -7,-6 -2,-3 -2,-5 -2,-9 0,-3 1,-5 2,-8 1,-2 3,-4 5,-6 2,-1 4,-2 7,-3 3,-1 6,-1 9,-1 5,0 9,1 13,2 4,1 7,3 8,6 2,2 3,6 4,10l-11 1c0,-3 -2,-6 -4,-8 -2,-2 -6,-3 -10,-3 -5,0 -8,1 -11,2 -2,2 -3,4 -3,6 0,1 0,3 1,4 1,1 2,2 4,3 1,0 4,1 10,3 8,2 13,4 16,5 3,1 5,3 7,6 2,2 3,6 3,9 0,4 -1,7 -3,10 -2,3 -5,6 -9,7 -4,2 -8,3 -13,3 -8,0 -15,-2 -19,-5 -4,-3 -7,-9 -8,-15zm66 19l0 -88 11 0 0 32c5,-6 11,-9 19,-9 5,0 9,1 12,3 3,2 6,4 7,8 1,3 2,8 2,14l0 40 -11 0 0 -40c0,-5 -1,-9 -3,-12 -2,-2 -6,-4 -10,-4 -3,0 -6,1 -9,2 -3,2 -5,4 -6,7 -1,3 -2,7 -2,12l0 35 -11 0zm110 0l0 -9c-5,7 -12,11 -20,11 -4,0 -7,-1 -11,-2 -3,-1 -6,-3 -7,-5 -2,-2 -3,-5 -3,-8 0,-2 -1,-5 -1,-10l0 -40 11 0 0 35c0,6 0,9 1,11 1,3 2,5 4,7 2,2 5,2 8,2 3,0 6,-1 9,-2 3,-2 5,-4 6,-7 1,-3 2,-7 2,-12l0 -34 11 0 0 64 -10 0zm50 -10l1 10c-3,1 -6,1 -8,1 -4,0 -7,-1 -9,-2 -2,-1 -4,-3 -5,-5 -1,-2 -1,-6 -1,-13l0 -37 -8 0 0 -8 8 0 0 -16 11 -6 0 22 11 0 0 8 -11 0 0 37c0,3 0,5 1,6 0,1 1,2 2,2 1,1 2,1 4,1 1,0 3,0 5,0zm52 10l0 -8c-4,6 -10,9 -18,9 -5,0 -10,-1 -14,-4 -4,-3 -8,-7 -10,-12 -2,-5 -4,-11 -4,-17 0,-6 1,-12 3,-17 2,-5 5,-9 10,-12 4,-3 9,-4 14,-4 4,0 7,1 10,2 3,2 5,4 7,6l0 -32 11 0 0 88 -10 0zm-34 -32c0,8 2,14 5,18 3,4 8,6 12,6 5,0 9,-2 12,-6 3,-4 5,-10 5,-18 0,-9 -2,-15 -5,-19 -3,-4 -8,-6 -12,-6 -5,0 -9,2 -12,6 -3,4 -5,10 -5,19zm57 0c0,-12 3,-21 10,-26 5,-5 12,-7 20,-7 9,0 16,3 22,9 6,6 8,14 8,24 0,8 -1,15 -4,19 -2,5 -6,8 -11,11 -5,3 -10,4 -15,4 -9,0 -16,-3 -22,-9 -6,-6 -8,-14 -8,-25zm11 0c0,8 2,14 5,18 4,4 8,6 14,6 5,0 10,-2 13,-6 4,-4 5,-10 5,-19 0,-8 -2,-14 -5,-18 -4,-4 -8,-6 -13,-6 -5,0 -10,2 -14,6 -4,4 -5,10 -5,18zm73 32l-19 -64 11 0 10 37 4 14c0,-1 1,-5 3,-13l10 -37 11 0 10 37 3 12 4 -12 11 -37 11 0 -20 64 -11 0 -10 -38 -3 -11 -13 49 -11 0zm77 0l0 -64 10 0 0 9c5,-7 11,-10 20,-10 4,0 7,1 11,2 3,1 6,3 7,5 2,2 3,5 3,8 0,2 1,6 1,11l0 39 -11 0 0 -39c0,-4 0,-8 -1,-10 -1,-2 -2,-4 -4,-5 -2,-1 -5,-2 -8,-2 -5,0 -9,1 -12,4 -3,3 -5,8 -5,17l0 35 -11 0zm89 26c-6,-8 -11,-16 -15,-26 -4,-10 -6,-21 -6,-31 0,-10 2,-19 5,-27 4,-10 9,-20 17,-30l8 0c-5,8 -8,14 -10,18 -2,6 -4,11 -6,17 -2,7 -3,15 -3,23 0,19 6,38 18,58l-8 0zm27 0l-8 0c12,-19 18,-38 18,-58 0,-8 -1,-15 -3,-22 -1,-6 -3,-12 -6,-17 -2,-4 -5,-10 -10,-18l8 0c8,10 13,20 17,30 3,9 5,18 5,27 0,11 -2,21 -6,31 -4,10 -9,19 -15,26z"
   id="path126" />
 </g>
</svg>
