<?xml version="1.0" encoding="UTF-8" standalone="no"?>
<svg
   xml:space="preserve"
   width="375px"
   height="540px"
   version="1.1"
   style="shape-rendering:geometricPrecision; text-rendering:geometricPrecision; image-rendering:optimizeQuality; fill-rule:evenodd; clip-rule:evenodd"
   viewBox="0 0 3547 5107"
   id="svg117"
   xmlns:inkscape="http://www.inkscape.org/namespaces/inkscape"
   xmlns:sodipodi="http://sodipodi.sourceforge.net/DTD/sodipodi-0.dtd"
   xmlns="http://www.w3.org/2000/svg"
   xmlns:svg="http://www.w3.org/2000/svg"><sodipodi:namedview
   id="namedview119"
   pagecolor="#ffffff"
   bordercolor="#666666"
   borderopacity="1.0"
   inkscape:pageshadow="2"
   inkscape:pageopacity="0.0"
   inkscape:pagecheckerboard="0"
   inkscape:document-units="mm"
   showgrid="false" />
 <defs
   id="defs4">
  <style
   type="text/css"
   id="style2">
   <![CDATA[
    .str0 {stroke:#727271;stroke-width:15.1383}
    .str2 {stroke:#727271;stroke-width:15.1383}
    .str1 {stroke:#727271;stroke-width:15.1427}
    .str8 {stroke:#727271;stroke-width:15.1561}
    .str7 {stroke:#2B2A29;stroke-width:4.27628}
    .str5 {stroke:#2B2A29;stroke-width:4.27628}
    .str6 {stroke:#2B2A29;stroke-width:4.27628}
    .str4 {stroke:#2B2A29;stroke-width:4.27628}
    .str3 {stroke:#2B2A29;stroke-width:5.34424;stroke-dasharray:10.688474 26.721186}
    .fil11 {fill:none}
    .fil9 {fill:#FEFEFE}
    .fil5 {fill:whitesmoke}
    .fil7 {fill:#EBECEC}
    .fil10 {fill:#2B2A29}
    .fil3 {fill:#3484D2}
    .fil2 {fill:#AD9247}
    .fil1 {fill:#E7DCBD}
    .fil6 {fill:#FEFEFE;fill-rule:nonzero}
    .fil8 {fill:#9D9E9E;fill-rule:nonzero}
    .fil4 {fill:#727271;fill-rule:nonzero}
    .fil0 {fill:#2B2A29;fill-rule:nonzero}
   ]]>
  </style>
 <filter
   style="color-interpolation-filters:sRGB;"
   inkscape:label="Drop Shadow"
   id="filter131"
   x="-0.099794009"
   y="-0.51015386"
   width="1.2276937"
   height="2.1639859"><feFlood
     flood-opacity="0.25098"
     flood-color="rgb(0,0,0)"
     result="flood"
     id="feFlood121" /><feComposite
     in="flood"
     in2="SourceGraphic"
     operator="in"
     result="composite1"
     id="feComposite123" /><feGaussianBlur
     in="composite1"
     stdDeviation="70.8185"
     result="blur"
     id="feGaussianBlur125" /><feOffset
     dx="50"
     dy="50"
     result="offset"
     id="feOffset127" /><feComposite
     in="SourceGraphic"
     in2="offset"
     operator="over"
     result="composite2"
     id="feComposite129" /></filter><filter
   style="color-interpolation-filters:sRGB;"
   inkscape:label="Drop Shadow"
   id="filter143"
   x="-0.13319013"
   y="-0.72171724"
   width="1.3038896"
   height="2.6466865"><feFlood
     flood-opacity="0.25098"
     flood-color="rgb(0,0,0)"
     result="flood"
     id="feFlood133" /><feComposite
     in="flood"
     in2="SourceGraphic"
     operator="in"
     result="composite1"
     id="feComposite135" /><feGaussianBlur
     in="composite1"
     stdDeviation="70.8185"
     result="blur"
     id="feGaussianBlur137" /><feOffset
     dx="50"
     dy="50"
     result="offset"
     id="feOffset139" /><feComposite
     in="SourceGraphic"
     in2="offset"
     operator="over"
     result="composite2"
     id="feComposite141" /></filter><filter
   style="color-interpolation-filters:sRGB;"
   inkscape:label="Drop Shadow"
   id="filter155"
   x="-0.099794009"
   y="-0.51015386"
   width="1.2276937"
   height="2.1639859"><feFlood
     flood-opacity="0.25098"
     flood-color="rgb(0,0,0)"
     result="flood"
     id="feFlood145" /><feComposite
     in="flood"
     in2="SourceGraphic"
     operator="in"
     result="composite1"
     id="feComposite147" /><feGaussianBlur
     in="composite1"
     stdDeviation="70.8185"
     result="blur"
     id="feGaussianBlur149" /><feOffset
     dx="50"
     dy="50"
     result="offset"
     id="feOffset151" /><feComposite
     in="SourceGraphic"
     in2="offset"
     operator="over"
     result="composite2"
     id="feComposite153" /></filter><filter
   style="color-interpolation-filters:sRGB;"
   inkscape:label="Drop Shadow"
   id="filter167"
   x="-0.11649376"
   y="-0.46693514"
   width="1.2672576"
   height="2.0712329"><feFlood
     flood-opacity="0.25098"
     flood-color="rgb(0,0,0)"
     result="flood"
     id="feFlood157" /><feComposite
     in="flood"
     in2="SourceGraphic"
     operator="in"
     result="composite1"
     id="feComposite159" /><feGaussianBlur
     in="composite1"
     stdDeviation="70.8185"
     result="blur"
     id="feGaussianBlur161" /><feOffset
     dx="50"
     dy="50"
     result="offset"
     id="feOffset163" /><feComposite
     in="SourceGraphic"
     in2="offset"
     operator="over"
     result="composite2"
     id="feComposite165" /></filter><filter
   style="color-interpolation-filters:sRGB;"
   inkscape:label="Drop Shadow"
   id="filter179"
   x="-0.074676798"
   y="-0.46693514"
   width="1.171322"
   height="2.0712329"><feFlood
     flood-opacity="0.25098"
     flood-color="rgb(0,0,0)"
     result="flood"
     id="feFlood169" /><feComposite
     in="flood"
     in2="SourceGraphic"
     operator="in"
     result="composite1"
     id="feComposite171" /><feGaussianBlur
     in="composite1"
     stdDeviation="70.8185"
     result="blur"
     id="feGaussianBlur173" /><feOffset
     dx="50"
     dy="50"
     result="offset"
     id="feOffset175" /><feComposite
     in="SourceGraphic"
     in2="offset"
     operator="over"
     result="composite2"
     id="feComposite177" /></filter><filter
   style="color-interpolation-filters:sRGB;"
   inkscape:label="Drop Shadow"
   id="filter191"
   x="-0.13677638"
   y="-0.51016018"
   width="1.3120736"
   height="2.1639985"><feFlood
     flood-opacity="0.25098"
     flood-color="rgb(0,0,0)"
     result="flood"
     id="feFlood181" /><feComposite
     in="flood"
     in2="SourceGraphic"
     operator="in"
     result="composite1"
     id="feComposite183" /><feGaussianBlur
     in="composite1"
     stdDeviation="70.8185"
     result="blur"
     id="feGaussianBlur185" /><feOffset
     dx="50"
     dy="50"
     result="offset"
     id="feOffset187" /><feComposite
     in="SourceGraphic"
     in2="offset"
     operator="over"
     result="composite2"
     id="feComposite189" /></filter><filter
   style="color-interpolation-filters:sRGB;"
   inkscape:label="Drop Shadow"
   id="filter203"
   x="-0.1106539"
   y="-0.64871905"
   width="1.2538599"
   height="2.4882778"><feFlood
     flood-opacity="0.25098"
     flood-color="rgb(0,0,0)"
     result="flood"
     id="feFlood193" /><feComposite
     in="flood"
     in2="SourceGraphic"
     operator="in"
     result="composite1"
     id="feComposite195" /><feGaussianBlur
     in="composite1"
     stdDeviation="70.8185"
     result="blur"
     id="feGaussianBlur197" /><feOffset
     dx="50"
     dy="50"
     result="offset"
     id="feOffset199" /><feComposite
     in="SourceGraphic"
     in2="offset"
     operator="over"
     result="composite2"
     id="feComposite201" /></filter></defs>
 <g
   id="Layer_x0020_1"
   inkscape:label="Layer 1">
  <metadata
   id="CorelCorpID_0Corel-Layer" />
  <g
   id="g9">
   <path
   class="fil0"
   d="M1409 2284l0 -492 16 0 0 492 -16 0zm8 56l-48 -112 3 1 3 1 3 1 3 1 3 1 3 1 3 1 3 1 3 1 3 1 3 1 3 0 3 0 3 0 3 0 3 0 3 0 3 0 3 0 3 0 3 0 3 -1 3 -1 3 -1 3 -1 3 -1 3 -1 3 -1 3 -1 3 -1 3 -1 3 -1 0 0 -48 112z"
   id="path7" />
  </g>
  <g
   id="g13">
   <path
   class="fil0"
   d="M1409 1419l0 -218 16 0 0 218 -16 0zm8 56l-48 -112 3 1 3 1 3 1 3 1 3 1 3 1 3 1 3 1 3 1 3 1 3 1 3 0 3 0 3 0 3 0 3 0 3 0 3 0 3 0 3 0 3 0 3 -1 3 -1 3 -1 3 -1 3 -1 3 -1 3 -1 3 -1 3 -1 3 -1 3 -1 0 0 -48 112z"
   id="path11" />
  </g>
  <path
   class="fil1 str0"
   d="M701 1460l1431 0c96,0 174,78 174,174l0 0c0,96 -78,174 -174,174l-1431 0c-96,0 -174,-78 -174,-174l0 0c0,-96 78,-174 174,-174z"
   id="path15"
   style="filter:url(#filter155)" />
  <g
   id="g19">
   <path
   class="fil0"
   d="M1409 3145l0 -530 16 0 0 530 -16 0zm8 56l-48 -112 3 1 3 1 3 1 3 1 3 1 3 1 3 1 3 1 3 1 3 1 3 1 3 0 3 0 3 0 3 0 3 0 3 0 3 0 3 0 3 0 3 0 3 -1 3 -1 3 -1 3 -1 3 -1 3 -1 3 -1 3 -1 3 -1 3 -1 3 -1 0 0 -48 112z"
   id="path17" />
  </g>
  <path
   class="fil2 str1"
   d="M942 3780l950 0c96,0 174,78 174,174l0 0c0,96 -78,174 -174,174l-950 0c-96,0 -174,-78 -174,-174l0 0c0,-96 78,-174 174,-174z"
   id="path21"
   style="filter:url(#filter191)" />
  <g
   id="g26"
   style="filter:url(#filter167)">
   <path
   class="fil3"
   d="M869 2337l1095 0c96,0 174,78 174,174l0 0c0,96 -78,174 -174,174l-1095 0c-96,0 -174,-78 -174,-174l0 0c0,-96 78,-174 174,-174z"
   id="path23" />
   <path
   id="1"
   class="fil4"
   d="M1964 2344l-1095 0 0 -15 1095 0 0 0 0 15zm181 166l-15 0 0 0 0 -9 -1 -8 -1 -8 -1 -8 -2 -8 -2 -8 -3 -8 -3 -8 -3 -7 -4 -7 -4 -7 -4 -7 -5 -7 -5 -6 -5 -6 -6 -6 -6 -6 -6 -5 -6 -5 -7 -5 -7 -4 -7 -4 -7 -4 -7 -3 -8 -3 -8 -3 -8 -2 -8 -2 -8 -1 -8 -1 -8 -1 -9 0 0 -15 9 0 9 1 9 1 9 2 9 2 9 2 8 3 8 3 8 4 8 4 8 4 7 5 7 5 7 5 7 6 6 6 6 6 6 7 5 7 5 7 5 7 4 8 4 8 4 8 3 8 3 8 2 9 2 9 2 9 1 9 1 9 0 9 0 0zm-7 0l0 0 0 0 0 0 7 0 -7 0zm-174 181l0 -15 0 0 9 0 8 -1 8 -1 8 -1 8 -2 8 -2 8 -3 8 -3 7 -3 7 -4 7 -4 7 -4 7 -5 6 -5 6 -5 6 -6 6 -6 5 -6 5 -6 5 -7 4 -7 4 -7 4 -7 3 -7 3 -8 3 -8 2 -8 2 -8 1 -8 1 -8 1 -8 0 -9 15 0 0 9 -1 9 -1 9 -2 9 -2 9 -2 9 -3 8 -3 8 -4 8 -4 8 -4 8 -5 7 -5 7 -5 7 -6 7 -6 6 -6 6 -7 6 -7 5 -7 5 -7 5 -8 4 -8 4 -8 4 -8 3 -8 3 -9 2 -9 2 -9 2 -9 1 -9 1 -9 0 0 0zm-1095 -15l1095 0 0 15 -1095 0 0 0 0 -15zm-181 -166l15 0 0 0 0 9 1 8 1 8 1 8 2 8 2 8 3 8 3 8 3 7 4 7 4 7 4 7 5 7 5 6 5 6 6 6 6 6 6 5 6 5 7 5 7 4 7 4 7 4 7 3 8 3 8 3 8 2 8 2 8 1 8 1 8 1 9 0 0 15 -9 0 -9 -1 -9 -1 -9 -2 -9 -2 -9 -2 -8 -3 -8 -3 -8 -4 -8 -4 -8 -4 -7 -5 -7 -5 -7 -5 -7 -6 -6 -6 -6 -6 -6 -7 -5 -7 -5 -7 -5 -7 -4 -8 -4 -8 -4 -8 -3 -8 -3 -8 -2 -9 -2 -9 -2 -9 -1 -9 -1 -9 0 -9 0 0zm7 0l0 0 0 0 0 0 -7 0 7 0zm174 -181l0 15 0 0 -9 0 -8 1 -8 1 -8 1 -8 2 -8 2 -8 3 -8 3 -7 3 -7 4 -7 4 -7 4 -7 5 -6 5 -6 5 -6 6 -6 6 -5 6 -5 6 -5 7 -4 7 -4 7 -4 7 -3 7 -3 8 -3 8 -2 8 -2 8 -1 8 -1 8 -1 8 0 9 -15 0 0 -9 1 -9 1 -9 2 -9 2 -9 2 -9 3 -8 3 -8 4 -8 4 -8 4 -8 5 -7 5 -7 5 -7 6 -7 6 -6 6 -6 7 -6 7 -5 7 -5 7 -5 8 -4 8 -4 8 -4 8 -3 8 -3 9 -2 9 -2 9 -2 9 -1 9 -1 9 0 0 0z" />
  </g>
  <g
   id="g30">
   <path
   class="fil0"
   d="M1409 3729l0 -218 16 0 0 218 -16 0zm8 56l-48 -112 3 1 3 1 3 1 3 1 3 1 3 1 3 1 3 1 3 1 3 1 3 1 3 0 3 0 3 0 3 0 3 0 3 0 3 0 3 0 3 0 3 0 3 -1 3 -1 3 -1 3 -1 3 -1 3 -1 3 -1 3 -1 3 -1 3 -1 3 -1 0 0 -48 112z"
   id="path28" />
  </g>
  <g
   id="g36"
   style="filter:url(#filter179)">
   <path
   class="fil5"
   d="M461 3201l1912 0c96,0 174,78 174,174l0 0c0,96 -78,174 -174,174l-1912 0c-96,0 -174,-78 -174,-174l0 0c0,-96 78,-174 174,-174z"
   id="path32" />
   <path
   id="path34"
   class="fil4"
   d="M2373 3209l-1912 0 0 -15 1912 0 0 0 0 15zm181 166l-15 0 0 0 0 -9 -1 -8 -1 -8 -1 -8 -2 -8 -2 -8 -3 -8 -3 -8 -3 -7 -4 -7 -4 -7 -4 -7 -5 -7 -5 -6 -5 -6 -6 -6 -6 -6 -6 -5 -6 -5 -7 -5 -7 -4 -7 -4 -7 -4 -7 -3 -8 -3 -8 -3 -8 -2 -8 -2 -8 -1 -8 -1 -8 -1 -9 0 0 -15 9 0 9 1 9 1 9 2 9 2 9 2 8 3 8 3 8 4 8 4 8 4 7 5 7 5 7 5 7 6 6 6 6 6 6 7 5 7 5 7 5 7 4 8 4 8 4 8 3 8 3 8 2 9 2 9 2 9 1 9 1 9 0 9 0 0zm-7 0l0 0 0 0 0 0 7 0 -7 0zm-174 181l0 -15 0 0 9 0 8 -1 8 -1 8 -1 8 -2 8 -2 8 -3 8 -3 7 -3 7 -4 7 -4 7 -4 7 -5 6 -5 6 -5 6 -6 6 -6 5 -6 5 -6 5 -7 4 -7 4 -7 4 -7 3 -7 3 -8 3 -8 2 -8 2 -8 1 -8 1 -8 1 -8 0 -9 15 0 0 9 -1 9 -1 9 -2 9 -2 9 -2 9 -3 8 -3 8 -4 8 -4 8 -4 8 -5 7 -5 7 -5 7 -6 7 -6 6 -6 6 -7 6 -7 5 -7 5 -7 5 -8 4 -8 4 -8 4 -8 3 -8 3 -9 2 -9 2 -9 2 -9 1 -9 1 -9 0 0 0zm-1912 -15l1912 0 0 15 -1912 0 0 0 0 -15zm-181 -166l15 0 0 0 0 9 1 8 1 8 1 8 2 8 2 8 3 8 3 8 3 7 4 7 4 7 4 7 5 7 5 6 5 6 6 6 6 6 6 5 6 5 7 5 7 4 7 4 7 4 7 3 8 3 8 3 8 2 8 2 8 1 8 1 8 1 9 0 0 15 -9 0 -9 -1 -9 -1 -9 -2 -9 -2 -9 -2 -8 -3 -8 -3 -8 -4 -8 -4 -8 -4 -7 -5 -7 -5 -7 -5 -7 -6 -6 -6 -6 -6 -6 -7 -5 -7 -5 -7 -5 -7 -4 -8 -4 -8 -4 -8 -3 -8 -3 -8 -2 -9 -2 -9 -2 -9 -1 -9 -1 -9 0 -9 0 0zm7 0l0 0 0 0 0 0 -7 0 7 0zm174 -181l0 15 0 0 -9 0 -8 1 -8 1 -8 1 -8 2 -8 2 -8 3 -8 3 -7 3 -7 4 -7 4 -7 4 -7 5 -6 5 -6 5 -6 6 -6 6 -5 6 -5 6 -5 7 -4 7 -4 7 -4 7 -3 7 -3 8 -3 8 -2 8 -2 8 -1 8 -1 8 -1 8 0 9 -15 0 0 -9 1 -9 1 -9 2 -9 2 -9 2 -9 3 -8 3 -8 4 -8 4 -8 4 -8 5 -7 5 -7 5 -7 6 -7 6 -6 6 -6 7 -6 7 -5 7 -5 7 -5 8 -4 8 -4 8 -4 8 -3 8 -3 9 -2 9 -2 9 -2 9 -1 9 -1 9 0 0 0z" />
  </g>
  <g
   id="g40">
   <path
   class="fil0"
   d="M1409 824l0 -218 16 0 0 218 -16 0zm8 56l-48 -112 3 1 3 1 3 1 3 1 3 1 3 1 3 1 3 1 3 1 3 1 3 1 3 0 3 0 3 0 3 0 3 0 3 0 3 0 3 0 3 0 3 0 3 -1 3 -1 3 -1 3 -1 3 -1 3 -1 3 -1 3 -1 3 -1 3 -1 3 -1 0 0 -48 112z"
   id="path38" />
  </g>
  <g
   id="g44">
   <path
   class="fil0"
   d="M1409 4418l0 -285 16 0 0 285 -16 0zm8 56l-48 -112 3 1 3 1 3 1 3 1 3 1 3 1 3 1 3 1 3 1 3 1 3 1 3 0 3 0 3 0 3 0 3 0 3 0 3 0 3 0 3 0 3 0 3 -1 3 -1 3 -1 3 -1 3 -1 3 -1 3 -1 3 -1 3 -1 3 -1 3 -1 0 0 -48 112z"
   id="path42" />
  </g>
  <path
   class="fil5 str2"
   d="M701 882l1431 0c96,0 174,78 174,174l0 0c0,96 -78,174 -174,174l-1431 0c-96,0 -174,-78 -174,-174l0 0c0,-96 78,-174 174,-174z"
   id="path46"
   style="filter:url(#filter131)" />
  <path
   class="fil0"
   d="M656 1130l0 -14c-7,-1 -13,-2 -17,-5 -4,-2 -8,-6 -12,-11 -3,-5 -5,-11 -6,-19l14 -3c1,8 3,13 6,17 4,5 9,8 14,9l0 -45c-6,-2 -12,-4 -18,-7 -5,-3 -8,-6 -11,-11 -2,-5 -4,-10 -4,-15 0,-10 4,-18 11,-25 5,-4 12,-7 21,-8l0 -7 8 0 0 7c8,1 15,3 20,7 6,5 10,12 11,21l-15 2c-1,-6 -3,-10 -5,-13 -3,-3 -6,-5 -11,-6l0 41c7,2 12,3 14,4 4,2 8,4 11,7 3,3 5,6 6,10 1,4 2,8 2,13 0,10 -3,18 -9,25 -6,7 -14,10 -24,11l0 14 -8 0zm0 -125c-6,1 -10,3 -13,7 -3,4 -5,8 -5,13 0,5 1,9 4,12 3,3 7,6 14,7l0 -39zm8 99c6,-1 10,-3 14,-7 4,-4 5,-9 5,-15 0,-5 -1,-9 -4,-13 -3,-3 -8,-6 -15,-8l0 43zm47 -33c0,-16 4,-27 13,-35 7,-6 16,-9 27,-9 12,0 21,4 28,11 7,8 11,18 11,31 0,11 -2,19 -5,26 -3,6 -8,11 -14,14 -6,3 -13,5 -20,5 -12,0 -21,-4 -29,-11 -7,-8 -11,-18 -11,-33zm15 0c0,11 2,19 7,24 5,5 11,8 18,8 7,0 13,-3 18,-8 5,-5 7,-14 7,-25 0,-10 -2,-18 -7,-24 -5,-5 -11,-8 -18,-8 -7,0 -13,3 -18,8 -5,5 -7,13 -7,24zm81 42l0 -85 13 0 0 12c6,-9 15,-14 27,-14 5,0 10,1 14,3 4,2 7,4 10,7 2,3 4,6 4,11 1,3 1,7 1,14l0 52 -14 0 0 -51c0,-6 -1,-10 -2,-13 -1,-3 -3,-5 -6,-7 -3,-2 -6,-3 -10,-3 -6,0 -11,2 -16,6 -4,4 -7,11 -7,22l0 46 -14 0zm87 -37l14 -1c1,6 2,11 5,14 3,4 6,7 12,9 5,2 11,3 18,3 6,0 11,-1 16,-3 5,-2 8,-4 10,-7 2,-3 3,-6 3,-10 0,-4 -1,-7 -3,-10 -2,-3 -6,-5 -11,-7 -3,-1 -10,-3 -21,-6 -11,-3 -18,-5 -23,-7 -6,-3 -10,-7 -12,-11 -3,-4 -4,-9 -4,-15 0,-6 2,-11 5,-17 3,-5 8,-9 15,-12 6,-3 14,-4 21,-4 9,0 16,1 23,4 7,3 12,7 15,12 4,5 5,12 6,18l-15 1c-1,-7 -3,-13 -8,-17 -5,-4 -11,-6 -20,-6 -9,0 -16,2 -20,5 -4,3 -6,8 -6,12 0,4 2,8 5,10 3,3 11,5 23,8 13,3 21,5 26,7 7,3 12,7 15,12 3,5 5,10 5,17 0,6 -2,12 -5,18 -4,5 -9,10 -15,13 -7,3 -14,5 -22,5 -11,0 -19,-2 -26,-5 -7,-3 -13,-8 -17,-14 -4,-6 -6,-13 -6,-21zm143 25l2 13c-4,1 -8,1 -11,1 -5,0 -9,-1 -12,-2 -3,-2 -5,-4 -6,-6 -1,-3 -2,-8 -2,-17l0 -49 -11 0 0 -11 11 0 0 -21 14 -9 0 30 14 0 0 11 -14 0 0 50c0,4 0,7 1,8 0,1 1,2 2,3 1,1 3,1 5,1 2,0 4,0 6,-1zm69 2c-5,5 -10,8 -15,10 -5,2 -10,3 -16,3 -9,0 -16,-2 -21,-7 -5,-5 -7,-10 -7,-17 0,-4 1,-8 3,-11 2,-3 4,-6 7,-8 3,-2 6,-4 10,-5 3,-1 7,-1 13,-2 12,-1 20,-3 26,-5 0,-2 0,-3 0,-4 0,-6 -1,-10 -4,-12 -4,-3 -9,-5 -16,-5 -7,0 -12,1 -15,4 -3,2 -6,7 -7,13l-14 -2c1,-6 3,-11 6,-15 3,-4 7,-7 13,-9 6,-2 12,-3 19,-3 7,0 13,1 18,3 5,2 8,4 10,6 2,3 4,6 4,10 0,2 1,7 1,13l0 19c0,13 0,22 1,25 1,4 2,7 4,10l-15 0c-1,-3 -2,-7 -3,-11zm-1 -32c-5,2 -13,4 -23,5 -6,1 -10,2 -13,3 -2,1 -4,3 -6,5 -1,2 -2,4 -2,7 0,4 1,7 4,9 3,3 7,4 13,4 6,0 10,-1 15,-4 4,-2 7,-6 9,-10 2,-3 2,-8 2,-14l0 -5zm36 42l0 -85 13 0 0 13c3,-6 6,-10 9,-12 3,-2 6,-3 9,-3 5,0 10,2 15,5l-5 13c-3,-2 -7,-3 -10,-3 -3,0 -6,1 -8,3 -2,2 -4,4 -5,8 -2,5 -2,11 -2,17l0 44 -14 0zm86 -13l2 13c-4,1 -8,1 -11,1 -5,0 -9,-1 -12,-2 -3,-2 -5,-4 -6,-6 -1,-3 -2,-8 -2,-17l0 -49 -11 0 0 -11 11 0 0 -21 14 -9 0 30 14 0 0 11 -14 0 0 50c0,4 0,7 1,8 0,1 1,2 2,3 1,1 3,1 5,1 2,0 4,0 6,-1zm69 13l0 -13c-7,10 -15,14 -27,14 -5,0 -10,-1 -14,-3 -4,-2 -8,-4 -10,-7 -2,-3 -4,-6 -4,-11 -1,-3 -1,-7 -1,-13l0 -52 14 0 0 47c0,7 0,13 1,15 1,4 3,7 6,9 3,2 6,3 11,3 4,0 8,-1 12,-3 4,-2 6,-5 8,-9 2,-4 2,-9 2,-16l0 -45 14 0 0 85 -13 0zm35 32l0 -117 13 0 0 11c3,-4 7,-8 10,-10 4,-2 9,-3 14,-3 7,0 14,2 19,6 6,4 10,9 12,16 3,7 4,14 4,22 0,9 -2,16 -5,23 -3,7 -8,12 -14,16 -6,4 -12,6 -19,6 -5,0 -9,-1 -13,-3 -4,-2 -7,-5 -9,-8l0 41 -14 0zm13 -74c0,11 2,19 7,24 4,5 10,8 16,8 6,0 12,-3 16,-8 5,-5 7,-14 7,-25 0,-11 -2,-19 -7,-24 -4,-5 -10,-8 -16,-8 -6,0 -11,3 -16,9 -5,6 -7,14 -7,25zm190 28c-5,5 -10,9 -15,12 -6,3 -12,4 -18,4 -12,0 -21,-4 -28,-12 -6,-7 -9,-14 -9,-22 0,-7 2,-14 7,-19 5,-6 12,-11 21,-15 -5,-6 -9,-11 -11,-15 -2,-4 -3,-7 -3,-11 0,-7 3,-13 8,-18 5,-5 12,-8 21,-8 8,0 14,2 20,7 5,5 8,11 8,18 0,11 -7,21 -22,28l21 26c2,-5 4,-10 6,-16l15 3c-3,10 -6,18 -10,25 5,7 11,13 18,18l-10 11c-6,-4 -12,-9 -18,-16zm-29 -61c6,-4 10,-7 12,-10 2,-3 3,-6 3,-9 0,-4 -1,-7 -4,-10 -3,-3 -6,-4 -9,-4 -4,0 -7,1 -10,4 -3,2 -4,6 -4,9 0,2 0,4 1,6 1,2 2,4 4,6l6 7zm20 49l-26 -33c-8,5 -13,9 -16,13 -3,4 -4,8 -4,12 0,5 2,10 6,15 4,5 9,8 16,8 4,0 9,-1 13,-4 5,-3 8,-6 11,-10zm91 0l14 -2c1,6 3,10 7,13 4,3 9,5 15,5 7,0 11,-1 15,-4 3,-3 5,-6 5,-9 0,-3 -1,-6 -4,-8 -2,-1 -7,-3 -15,-5 -10,-3 -18,-5 -22,-7 -4,-2 -7,-5 -9,-8 -2,-3 -3,-7 -3,-11 0,-4 1,-7 3,-10 2,-3 4,-6 7,-8 2,-2 5,-3 9,-4 4,-1 8,-2 12,-2 7,0 12,1 17,3 5,2 9,5 11,8 2,3 4,8 5,13l-14 2c-1,-4 -2,-8 -6,-10 -3,-2 -7,-4 -13,-4 -7,0 -11,1 -14,3 -3,2 -4,5 -4,8 0,2 1,4 2,5 1,2 3,3 5,4 1,1 6,2 13,4 10,3 17,5 21,7 4,2 7,4 9,7 2,3 3,7 3,12 0,5 -1,9 -4,13 -3,4 -7,7 -12,10 -5,2 -11,3 -18,3 -11,0 -19,-2 -25,-7 -6,-5 -9,-11 -11,-20zm118 12l2 13c-4,1 -8,1 -11,1 -5,0 -9,-1 -12,-2 -3,-2 -5,-4 -6,-6 -1,-3 -2,-8 -2,-17l0 -49 -11 0 0 -11 11 0 0 -21 14 -9 0 30 14 0 0 11 -14 0 0 50c0,4 0,7 1,8 0,1 1,2 2,3 1,1 3,1 5,1 2,0 4,0 6,-1zm69 2c-5,5 -10,8 -15,10 -5,2 -10,3 -16,3 -9,0 -16,-2 -21,-7 -5,-5 -7,-10 -7,-17 0,-4 1,-8 3,-11 2,-3 4,-6 7,-8 3,-2 6,-4 10,-5 3,-1 7,-1 13,-2 12,-1 20,-3 26,-5 0,-2 0,-3 0,-4 0,-6 -1,-10 -4,-12 -4,-3 -9,-5 -16,-5 -7,0 -12,1 -15,4 -3,2 -6,7 -7,13l-14 -2c1,-6 3,-11 6,-15 3,-4 7,-7 13,-9 6,-2 12,-3 19,-3 7,0 13,1 18,3 5,2 8,4 10,6 2,3 4,6 4,10 0,2 1,7 1,13l0 19c0,13 0,22 1,25 1,4 2,7 4,10l-15 0c-1,-3 -2,-7 -3,-11zm-1 -32c-5,2 -13,4 -23,5 -6,1 -10,2 -13,3 -2,1 -4,3 -6,5 -1,2 -2,4 -2,7 0,4 1,7 4,9 3,3 7,4 13,4 6,0 10,-1 15,-4 4,-2 7,-6 9,-10 2,-3 2,-8 2,-14l0 -5zm36 42l0 -85 13 0 0 13c3,-6 6,-10 9,-12 3,-2 6,-3 9,-3 5,0 10,2 15,5l-5 13c-3,-2 -7,-3 -10,-3 -3,0 -6,1 -8,3 -2,2 -4,4 -5,8 -2,5 -2,11 -2,17l0 44 -14 0zm86 -13l2 13c-4,1 -8,1 -11,1 -5,0 -9,-1 -12,-2 -3,-2 -5,-4 -6,-6 -1,-3 -2,-8 -2,-17l0 -49 -11 0 0 -11 11 0 0 -21 14 -9 0 30 14 0 0 11 -14 0 0 50c0,4 0,7 1,8 0,1 1,2 2,3 1,1 3,1 5,1 2,0 4,0 6,-1zm69 13l0 -13c-7,10 -15,14 -27,14 -5,0 -10,-1 -14,-3 -4,-2 -8,-4 -10,-7 -2,-3 -4,-6 -4,-11 -1,-3 -1,-7 -1,-13l0 -52 14 0 0 47c0,7 0,13 1,15 1,4 3,7 6,9 3,2 6,3 11,3 4,0 8,-1 12,-3 4,-2 6,-5 8,-9 2,-4 2,-9 2,-16l0 -45 14 0 0 85 -13 0zm35 32l0 -117 13 0 0 11c3,-4 7,-8 10,-10 4,-2 9,-3 14,-3 7,0 14,2 19,6 6,4 10,9 12,16 3,7 4,14 4,22 0,9 -2,16 -5,23 -3,7 -8,12 -14,16 -6,4 -12,6 -19,6 -5,0 -9,-1 -13,-3 -4,-2 -7,-5 -9,-8l0 41 -14 0zm13 -74c0,11 2,19 7,24 4,5 10,8 16,8 6,0 12,-3 16,-8 5,-5 7,-14 7,-25 0,-11 -2,-19 -7,-24 -4,-5 -10,-8 -16,-8 -6,0 -11,3 -16,9 -5,6 -7,14 -7,25zm105 76c-8,-10 -15,-22 -20,-35 -5,-13 -8,-27 -8,-42 0,-13 2,-25 6,-36 5,-13 12,-27 22,-40l10 0c-6,11 -11,19 -13,24 -3,7 -6,15 -8,23 -2,10 -3,20 -3,30 0,25 8,51 24,76l-10 0zm36 0l-10 0c16,-25 24,-51 24,-76 0,-10 -1,-20 -3,-30 -2,-8 -4,-16 -8,-23 -2,-5 -6,-13 -13,-24l10 0c10,13 17,27 22,40 4,12 6,24 6,36 0,14 -3,28 -8,42 -5,13 -12,25 -20,35z"
   id="path48" />
  <path
   class="fil0"
   d="M890 1692c-5,5 -10,8 -15,10 -5,2 -10,3 -16,3 -9,0 -16,-2 -21,-7 -5,-5 -7,-10 -7,-17 0,-4 1,-8 3,-11 2,-3 4,-6 7,-8 3,-2 6,-4 10,-5 3,-1 7,-1 13,-2 12,-1 20,-3 26,-5 0,-2 0,-3 0,-4 0,-6 -1,-10 -4,-12 -4,-3 -9,-5 -16,-5 -7,0 -12,1 -15,4 -3,2 -6,7 -7,13l-14 -2c1,-6 3,-11 6,-15 3,-4 7,-7 13,-9 6,-2 12,-3 19,-3 7,0 13,1 18,3 5,2 8,4 10,6 2,3 4,6 4,10 0,2 1,7 1,13l0 19c0,13 0,22 1,25 1,4 2,7 4,10l-15 0c-1,-3 -2,-7 -3,-11zm-1 -32c-5,2 -13,4 -23,5 -6,1 -10,2 -13,3 -2,1 -4,3 -6,5 -1,2 -2,4 -2,7 0,4 1,7 4,9 3,3 7,4 13,4 6,0 10,-1 15,-4 4,-2 7,-6 9,-10 2,-3 2,-8 2,-14l0 -5zm92 11l14 2c-2,10 -5,17 -12,23 -6,5 -14,8 -23,8 -12,0 -21,-4 -28,-11 -7,-8 -11,-18 -11,-32 0,-9 2,-17 5,-24 3,-7 8,-12 14,-15 6,-3 13,-5 20,-5 9,0 17,2 22,7 6,5 10,11 11,20l-14 2c-1,-6 -4,-10 -7,-13 -3,-3 -7,-4 -12,-4 -7,0 -13,3 -18,8 -5,5 -7,13 -7,25 0,11 2,20 7,25 4,5 10,8 17,8 6,0 10,-2 14,-5 4,-3 6,-9 7,-16zm57 18l2 13c-4,1 -8,1 -11,1 -5,0 -9,-1 -12,-2 -3,-2 -5,-4 -6,-6 -1,-3 -2,-8 -2,-17l0 -49 -11 0 0 -11 11 0 0 -21 14 -9 0 30 14 0 0 11 -14 0 0 50c0,4 0,7 1,8 0,1 1,2 2,3 1,1 3,1 5,1 2,0 4,0 6,-1zm14 -88l0 -16 14 0 0 16 -14 0zm0 100l0 -85 14 0 0 85 -14 0zm31 -42c0,-16 4,-27 13,-35 7,-6 16,-9 27,-9 12,0 21,4 28,11 7,8 11,18 11,31 0,11 -2,19 -5,26 -3,6 -8,11 -14,14 -6,3 -13,5 -20,5 -12,0 -21,-4 -29,-11 -7,-8 -11,-18 -11,-33zm15 0c0,11 2,19 7,24 5,5 11,8 18,8 7,0 13,-3 18,-8 5,-5 7,-14 7,-25 0,-10 -2,-18 -7,-24 -5,-5 -11,-8 -18,-8 -7,0 -13,3 -18,8 -5,5 -7,13 -7,24zm81 42l0 -85 13 0 0 12c6,-9 15,-14 27,-14 5,0 10,1 14,3 4,2 7,4 10,7 2,3 4,6 4,11 1,3 1,7 1,14l0 52 -14 0 0 -51c0,-6 -1,-10 -2,-13 -1,-3 -3,-5 -6,-7 -3,-2 -6,-3 -10,-3 -6,0 -11,2 -16,6 -4,4 -7,11 -7,22l0 46 -14 0zm89 -51l0 -13 77 -33 0 14 -61 25 61 25 0 14 -77 -33zm86 51l45 -117 17 0 47 117 -18 0 -13 -35 -49 0 -13 35 -16 0zm34 -48l40 0 -12 -32c-4,-10 -6,-18 -8,-24 -2,8 -4,15 -6,22l-13 34zm141 17l14 2c-2,10 -5,17 -12,23 -6,5 -14,8 -23,8 -12,0 -21,-4 -28,-11 -7,-8 -11,-18 -11,-32 0,-9 2,-17 5,-24 3,-7 8,-12 14,-15 6,-3 13,-5 20,-5 9,0 17,2 22,7 6,5 10,11 11,20l-14 2c-1,-6 -4,-10 -7,-13 -3,-3 -7,-4 -12,-4 -7,0 -13,3 -18,8 -5,5 -7,13 -7,25 0,11 2,20 7,25 4,5 10,8 17,8 6,0 10,-2 14,-5 4,-3 6,-9 7,-16zm57 18l2 13c-4,1 -8,1 -11,1 -5,0 -9,-1 -12,-2 -3,-2 -5,-4 -6,-6 -1,-3 -2,-8 -2,-17l0 -49 -11 0 0 -11 11 0 0 -21 14 -9 0 30 14 0 0 11 -14 0 0 50c0,4 0,7 1,8 0,1 1,2 2,3 1,1 3,1 5,1 2,0 4,0 6,-1zm14 -88l0 -16 14 0 0 16 -14 0zm0 100l0 -85 14 0 0 85 -14 0zm31 -42c0,-16 4,-27 13,-35 7,-6 16,-9 27,-9 12,0 21,4 28,11 7,8 11,18 11,31 0,11 -2,19 -5,26 -3,6 -8,11 -14,14 -6,3 -13,5 -20,5 -12,0 -21,-4 -29,-11 -7,-8 -11,-18 -11,-33zm15 0c0,11 2,19 7,24 5,5 11,8 18,8 7,0 13,-3 18,-8 5,-5 7,-14 7,-25 0,-10 -2,-18 -7,-24 -5,-5 -11,-8 -18,-8 -7,0 -13,3 -18,8 -5,5 -7,13 -7,24zm81 42l0 -85 13 0 0 12c6,-9 15,-14 27,-14 5,0 10,1 14,3 4,2 7,4 10,7 2,3 4,6 4,11 1,3 1,7 1,14l0 52 -14 0 0 -51c0,-6 -1,-10 -2,-13 -1,-3 -3,-5 -6,-7 -3,-2 -6,-3 -10,-3 -6,0 -11,2 -16,6 -4,4 -7,11 -7,22l0 46 -14 0zm166 -51l-77 33 0 -14 61 -25 -61 -25 0 -14 77 33 0 13zm47 85c-8,-10 -15,-22 -20,-35 -5,-13 -8,-27 -8,-42 0,-13 2,-25 6,-36 5,-13 12,-27 22,-40l10 0c-6,11 -11,19 -13,24 -3,7 -6,15 -8,23 -2,10 -3,20 -3,30 0,25 8,51 24,76l-10 0zm36 0l-10 0c16,-25 24,-51 24,-76 0,-10 -1,-20 -3,-30 -2,-8 -4,-16 -8,-23 -2,-5 -6,-13 -13,-24l10 0c10,13 17,27 22,40 4,12 6,24 6,36 0,14 -3,28 -8,42 -5,13 -12,25 -20,35z"
   id="path50" />
  <path
   class="fil0"
   d="M380 3433l-13 0 0 -117 14 0 0 42c6,-8 14,-11 23,-11 5,0 10,1 15,3 5,2 8,5 11,9 3,4 5,8 7,14 2,5 3,11 3,17 0,14 -4,26 -11,33 -7,8 -16,12 -26,12 -10,0 -18,-4 -23,-12l0 11zm0 -43c0,10 1,17 4,22 5,7 11,11 18,11 6,0 12,-3 16,-8 5,-5 7,-14 7,-24 0,-11 -2,-19 -7,-24 -4,-5 -10,-8 -16,-8 -6,0 -12,3 -16,8 -5,5 -7,13 -7,24zm135 16l15 2c-2,9 -7,15 -13,20 -6,5 -14,7 -24,7 -12,0 -22,-4 -29,-11 -7,-8 -11,-18 -11,-32 0,-14 4,-25 11,-33 7,-8 17,-12 28,-12 11,0 20,4 28,12 7,8 11,18 11,32 0,1 0,2 0,4l-63 0c1,9 3,16 8,21 5,5 11,7 18,7 5,0 10,-1 13,-4 4,-3 7,-7 9,-13zm-47 -23l47 0c-1,-7 -2,-12 -5,-16 -5,-6 -10,-8 -18,-8 -7,0 -12,2 -17,7 -4,4 -7,10 -7,18zm83 50l0 -73 -13 0 0 -11 13 0 0 -9c0,-6 0,-10 1,-13 1,-4 4,-7 7,-9 3,-2 8,-3 15,-3 4,0 8,0 13,1l-2 13c-3,-1 -6,-1 -8,-1 -4,0 -7,1 -9,3 -2,2 -3,5 -3,10l0 8 16 0 0 11 -16 0 0 73 -14 0zm36 -42c0,-16 4,-27 13,-35 7,-6 16,-9 27,-9 12,0 21,4 28,11 7,8 11,18 11,31 0,11 -2,19 -5,26 -3,6 -8,11 -14,14 -6,3 -13,5 -20,5 -12,0 -21,-4 -29,-11 -7,-8 -11,-18 -11,-33zm15 0c0,11 2,19 7,24 5,5 11,8 18,8 7,0 13,-3 18,-8 5,-5 7,-14 7,-25 0,-10 -2,-18 -7,-24 -5,-5 -11,-8 -18,-8 -7,0 -13,3 -18,8 -5,5 -7,13 -7,24zm81 42l0 -85 13 0 0 13c3,-6 6,-10 9,-12 3,-2 6,-3 9,-3 5,0 10,2 15,5l-5 13c-3,-2 -7,-3 -10,-3 -3,0 -6,1 -8,3 -2,2 -4,4 -5,8 -2,5 -2,11 -2,17l0 44 -14 0zm112 -27l15 2c-2,9 -7,15 -13,20 -6,5 -14,7 -24,7 -12,0 -22,-4 -29,-11 -7,-8 -11,-18 -11,-32 0,-14 4,-25 11,-33 7,-8 17,-12 28,-12 11,0 20,4 28,12 7,8 11,18 11,32 0,1 0,2 0,4l-63 0c1,9 3,16 8,21 5,5 11,7 18,7 5,0 10,-1 13,-4 4,-3 7,-7 9,-13zm-47 -23l47 0c-1,-7 -2,-12 -5,-16 -5,-6 -10,-8 -18,-8 -7,0 -12,2 -17,7 -4,4 -7,10 -7,18zm82 50l0 -117 52 0c10,0 18,1 24,3 5,2 10,6 13,11 3,5 5,11 5,18 0,8 -3,15 -8,21 -5,6 -14,9 -25,11 4,2 7,4 9,6 5,4 9,9 13,16l20 32 -19 0 -15 -24c-4,-7 -8,-12 -11,-16 -3,-4 -6,-6 -8,-8 -2,-1 -5,-2 -7,-3 -2,0 -5,-1 -9,-1l-18 0 0 52 -15 0zm15 -65l33 0c7,0 13,-1 16,-2 4,-1 7,-4 9,-7 2,-3 3,-7 3,-10 0,-6 -2,-10 -6,-14 -4,-4 -10,-5 -19,-5l-37 0 0 39zm158 38l15 2c-2,9 -7,15 -13,20 -6,5 -14,7 -24,7 -12,0 -22,-4 -29,-11 -7,-8 -11,-18 -11,-32 0,-14 4,-25 11,-33 7,-8 17,-12 28,-12 11,0 20,4 28,12 7,8 11,18 11,32 0,1 0,2 0,4l-63 0c1,9 3,16 8,21 5,5 11,7 18,7 5,0 10,-1 13,-4 4,-3 7,-7 9,-13zm-47 -23l47 0c-1,-7 -2,-12 -5,-16 -5,-6 -10,-8 -18,-8 -7,0 -12,2 -17,7 -4,4 -7,10 -7,18zm80 50l0 -85 13 0 0 12c6,-9 15,-14 27,-14 5,0 10,1 14,3 4,2 7,4 10,7 2,3 4,6 4,11 1,3 1,7 1,14l0 52 -14 0 0 -51c0,-6 -1,-10 -2,-13 -1,-3 -3,-5 -6,-7 -3,-2 -6,-3 -10,-3 -6,0 -11,2 -16,6 -4,4 -7,11 -7,22l0 46 -14 0zm145 0l0 -11c-5,8 -13,13 -24,13 -7,0 -13,-2 -19,-6 -6,-4 -10,-9 -13,-15 -3,-7 -5,-14 -5,-23 0,-8 1,-16 4,-23 3,-7 7,-12 13,-16 6,-4 12,-5 19,-5 5,0 10,1 14,3 4,2 7,5 10,8l0 -42 14 0 0 117 -13 0zm-45 -42c0,11 2,19 7,24 5,5 10,8 16,8 6,0 12,-3 16,-8 4,-5 7,-13 7,-23 0,-12 -2,-20 -7,-25 -4,-5 -10,-8 -16,-8 -6,0 -12,3 -16,8 -4,5 -6,13 -6,25zm139 15l15 2c-2,9 -7,15 -13,20 -6,5 -14,7 -24,7 -12,0 -22,-4 -29,-11 -7,-8 -11,-18 -11,-32 0,-14 4,-25 11,-33 7,-8 17,-12 28,-12 11,0 20,4 28,12 7,8 11,18 11,32 0,1 0,2 0,4l-63 0c1,9 3,16 8,21 5,5 11,7 18,7 5,0 10,-1 13,-4 4,-3 7,-7 9,-13zm-47 -23l47 0c-1,-7 -2,-12 -5,-16 -5,-6 -10,-8 -18,-8 -7,0 -12,2 -17,7 -4,4 -7,10 -7,18zm80 50l0 -85 13 0 0 13c3,-6 6,-10 9,-12 3,-2 6,-3 9,-3 5,0 10,2 15,5l-5 13c-3,-2 -7,-3 -10,-3 -3,0 -6,1 -8,3 -2,2 -4,4 -5,8 -2,5 -2,11 -2,17l0 44 -14 0zm82 34c-8,-10 -15,-22 -20,-35 -5,-13 -8,-27 -8,-42 0,-13 2,-25 6,-36 5,-13 12,-27 22,-40l10 0c-6,11 -11,19 -13,24 -3,7 -6,15 -8,23 -2,10 -3,20 -3,30 0,25 8,51 24,76l-10 0zm36 0l-10 0c16,-25 24,-51 24,-76 0,-10 -1,-20 -3,-30 -2,-8 -4,-16 -8,-23 -2,-5 -6,-13 -13,-24l10 0c10,13 17,27 22,40 4,12 6,24 6,36 0,14 -3,28 -8,42 -5,13 -12,25 -20,35zm157 -48c-5,5 -10,9 -15,12 -6,3 -12,4 -18,4 -12,0 -21,-4 -28,-12 -6,-7 -9,-14 -9,-22 0,-7 2,-14 7,-19 5,-6 12,-11 21,-15 -5,-6 -9,-11 -11,-15 -2,-4 -3,-7 -3,-11 0,-7 3,-13 8,-18 5,-5 12,-8 21,-8 8,0 14,2 20,7 5,5 8,11 8,18 0,11 -7,21 -22,28l21 26c2,-5 4,-10 6,-16l15 3c-3,10 -6,18 -10,25 5,7 11,13 18,18l-10 11c-6,-4 -12,-9 -18,-16zm-29 -61c6,-4 10,-7 12,-10 2,-3 3,-6 3,-9 0,-4 -1,-7 -4,-10 -3,-3 -6,-4 -9,-4 -4,0 -7,1 -10,4 -3,2 -4,6 -4,9 0,2 0,4 1,6 1,2 2,4 4,6l6 7zm20 49l-26 -33c-8,5 -13,9 -16,13 -3,4 -4,8 -4,12 0,5 2,10 6,15 4,5 9,8 16,8 4,0 9,-1 13,-4 5,-3 8,-6 11,-10zm126 42l0 -14c-7,-1 -13,-3 -17,-5 -4,-2 -8,-6 -12,-11 -3,-5 -5,-11 -6,-19l14 -3c1,8 3,13 6,17 4,5 9,8 14,9l0 -45c-6,-2 -12,-4 -18,-7 -5,-3 -8,-6 -11,-11 -2,-5 -4,-10 -4,-15 0,-10 4,-18 11,-25 5,-4 12,-7 21,-8l0 -7 8 0 0 7c8,1 15,3 20,7 6,5 10,12 11,21l-15 2c-1,-6 -3,-10 -5,-13 -3,-3 -6,-5 -11,-6l0 41c7,2 12,3 14,4 4,2 8,4 11,7 3,3 5,6 6,10 1,4 2,8 2,13 0,10 -3,18 -9,25 -6,7 -14,10 -24,11l0 14 -8 0zm0 -125c-6,1 -10,3 -13,7 -3,4 -5,8 -5,13 0,5 1,9 4,12 3,3 7,6 14,7l0 -39zm8 99c6,-1 10,-3 14,-7 4,-4 5,-9 5,-15 0,-5 -1,-9 -4,-13 -3,-3 -8,-6 -15,-8l0 43zm47 -33c0,-16 4,-27 13,-35 7,-6 16,-9 27,-9 12,0 21,4 28,11 7,8 11,18 11,31 0,11 -2,19 -5,26 -3,6 -8,11 -14,14 -6,3 -13,5 -20,5 -12,0 -21,-4 -29,-11 -7,-8 -11,-18 -11,-33zm15 0c0,11 2,19 7,24 5,5 11,8 18,8 7,0 13,-3 18,-8 5,-5 7,-14 7,-25 0,-10 -2,-18 -7,-24 -5,-5 -11,-8 -18,-8 -7,0 -13,3 -18,8 -5,5 -7,13 -7,24zm81 42l0 -85 13 0 0 12c6,-9 15,-14 27,-14 5,0 10,1 14,3 4,2 7,4 10,7 2,3 4,6 4,11 1,3 1,7 1,14l0 52 -14 0 0 -51c0,-6 -1,-10 -2,-13 -1,-3 -3,-5 -6,-7 -3,-2 -6,-3 -10,-3 -6,0 -11,2 -16,6 -4,4 -7,11 -7,22l0 46 -14 0zm93 0l0 -117 52 0c10,0 18,1 24,3 5,2 10,6 13,11 3,5 5,11 5,18 0,8 -3,15 -8,21 -5,6 -14,9 -25,11 4,2 7,4 9,6 5,4 9,9 13,16l20 32 -19 0 -15 -24c-4,-7 -8,-12 -11,-16 -3,-4 -6,-6 -8,-8 -2,-1 -5,-2 -7,-3 -2,0 -5,-1 -9,-1l-18 0 0 52 -15 0zm15 -65l33 0c7,0 13,-1 16,-2 4,-1 7,-4 9,-7 2,-3 3,-7 3,-10 0,-6 -2,-10 -6,-14 -4,-4 -10,-5 -19,-5l-37 0 0 39zm158 38l15 2c-2,9 -7,15 -13,20 -6,5 -14,7 -24,7 -12,0 -22,-4 -29,-11 -7,-8 -11,-18 -11,-32 0,-14 4,-25 11,-33 7,-8 17,-12 28,-12 11,0 20,4 28,12 7,8 11,18 11,32 0,1 0,2 0,4l-63 0c1,9 3,16 8,21 5,5 11,7 18,7 5,0 10,-1 13,-4 4,-3 7,-7 9,-13zm-47 -23l47 0c-1,-7 -2,-12 -5,-16 -5,-6 -10,-8 -18,-8 -7,0 -12,2 -17,7 -4,4 -7,10 -7,18zm80 50l0 -85 13 0 0 12c6,-9 15,-14 27,-14 5,0 10,1 14,3 4,2 7,4 10,7 2,3 4,6 4,11 1,3 1,7 1,14l0 52 -14 0 0 -51c0,-6 -1,-10 -2,-13 -1,-3 -3,-5 -6,-7 -3,-2 -6,-3 -10,-3 -6,0 -11,2 -16,6 -4,4 -7,11 -7,22l0 46 -14 0zm145 0l0 -11c-5,8 -13,13 -24,13 -7,0 -13,-2 -19,-6 -6,-4 -10,-9 -13,-15 -3,-7 -5,-14 -5,-23 0,-8 1,-16 4,-23 3,-7 7,-12 13,-16 6,-4 12,-5 19,-5 5,0 10,1 14,3 4,2 7,5 10,8l0 -42 14 0 0 117 -13 0zm-45 -42c0,11 2,19 7,24 5,5 10,8 16,8 6,0 12,-3 16,-8 4,-5 7,-13 7,-23 0,-12 -2,-20 -7,-25 -4,-5 -10,-8 -16,-8 -6,0 -12,3 -16,8 -4,5 -6,13 -6,25zm139 15l15 2c-2,9 -7,15 -13,20 -6,5 -14,7 -24,7 -12,0 -22,-4 -29,-11 -7,-8 -11,-18 -11,-32 0,-14 4,-25 11,-33 7,-8 17,-12 28,-12 11,0 20,4 28,12 7,8 11,18 11,32 0,1 0,2 0,4l-63 0c1,9 3,16 8,21 5,5 11,7 18,7 5,0 10,-1 13,-4 4,-3 7,-7 9,-13zm-47 -23l47 0c-1,-7 -2,-12 -5,-16 -5,-6 -10,-8 -18,-8 -7,0 -12,2 -17,7 -4,4 -7,10 -7,18zm80 50l0 -85 13 0 0 13c3,-6 6,-10 9,-12 3,-2 6,-3 9,-3 5,0 10,2 15,5l-5 13c-3,-2 -7,-3 -10,-3 -3,0 -6,1 -8,3 -2,2 -4,4 -5,8 -2,5 -2,11 -2,17l0 44 -14 0z"
   id="path52" />
  <path
   class="fil6"
   d="M865 4016l0 -85 13 0 0 13c3,-6 6,-10 9,-12 3,-2 6,-3 9,-3 5,0 10,2 15,5l-5 13c-3,-2 -7,-3 -10,-3 -3,0 -6,1 -8,3 -2,2 -4,4 -5,8 -2,5 -2,11 -2,17l0 44 -14 0zm112 -27l15 2c-2,9 -7,15 -13,20 -6,5 -14,7 -24,7 -12,0 -22,-4 -29,-11 -7,-8 -11,-18 -11,-32 0,-14 4,-25 11,-33 7,-8 17,-12 28,-12 11,0 20,4 28,12 7,8 11,18 11,32 0,1 0,2 0,4l-63 0c1,9 3,16 8,21 5,5 11,7 18,7 5,0 10,-1 13,-4 4,-3 7,-7 9,-13zm-47 -23l47 0c-1,-7 -2,-12 -5,-16 -5,-6 -10,-8 -18,-8 -7,0 -12,2 -17,7 -4,4 -7,10 -7,18zm80 50l0 -85 13 0 0 12c6,-9 15,-14 27,-14 5,0 10,1 14,3 4,2 7,4 10,7 2,3 4,6 4,11 1,3 1,7 1,14l0 52 -14 0 0 -51c0,-6 -1,-10 -2,-13 -1,-3 -3,-5 -6,-7 -3,-2 -6,-3 -10,-3 -6,0 -11,2 -16,6 -4,4 -7,11 -7,22l0 46 -14 0zm145 0l0 -11c-5,8 -13,13 -24,13 -7,0 -13,-2 -19,-6 -6,-4 -10,-9 -13,-15 -3,-7 -5,-14 -5,-23 0,-8 1,-16 4,-23 3,-7 7,-12 13,-16 6,-4 12,-5 19,-5 5,0 10,1 14,3 4,2 7,5 10,8l0 -42 14 0 0 117 -13 0zm-45 -42c0,11 2,19 7,24 5,5 10,8 16,8 6,0 12,-3 16,-8 4,-5 7,-13 7,-23 0,-12 -2,-20 -7,-25 -4,-5 -10,-8 -17,-8 -6,0 -12,3 -16,8 -4,5 -6,13 -6,25zm139 15l15 2c-2,9 -7,15 -13,20 -6,5 -14,7 -24,7 -12,0 -22,-4 -29,-11 -7,-8 -11,-18 -11,-32 0,-14 4,-25 11,-33 7,-8 17,-12 28,-12 11,0 20,4 28,12 7,8 11,18 11,32 0,1 0,2 0,4l-63 0c1,9 3,16 8,21 5,5 11,7 18,7 5,0 10,-1 13,-4 4,-3 7,-7 9,-13zm-47 -23l47 0c-1,-7 -2,-12 -5,-16 -5,-6 -10,-8 -18,-8 -7,0 -12,2 -17,7 -4,4 -7,10 -7,18zm80 50l0 -85 13 0 0 13c3,-6 6,-10 9,-12 3,-2 6,-3 9,-3 5,0 10,2 15,5l-5 13c-3,-2 -7,-3 -10,-3 -3,0 -6,1 -8,3 -2,2 -4,4 -5,8 -2,5 -2,11 -2,17l0 44 -14 0zm53 -51l0 -13 77 -33 0 14 -61 25 61 25 0 14 -77 -33zm132 51l-45 -117 17 0 30 85c2,7 4,13 6,19 2,-6 4,-13 6,-19l31 -85 16 0 -45 117 -16 0zm71 -100l0 -16 14 0 0 16 -14 0zm0 100l0 -85 14 0 0 85 -14 0zm94 -27l15 2c-2,9 -7,15 -13,20 -6,5 -14,7 -24,7 -12,0 -22,-4 -29,-11 -7,-8 -11,-18 -11,-32 0,-14 4,-25 11,-33 7,-8 17,-12 28,-12 11,0 20,4 28,12 7,8 11,18 11,32 0,1 0,2 0,4l-63 0c1,9 3,16 8,21 5,5 11,7 18,7 5,0 10,-1 13,-4 4,-3 7,-7 9,-13zm-47 -23l47 0c-1,-7 -2,-12 -5,-16 -5,-6 -10,-8 -18,-8 -7,0 -12,2 -17,7 -4,4 -7,10 -7,18zm95 50l-26 -85 15 0 13 49 5 18c0,-1 2,-7 4,-17l13 -50 15 0 13 49 4 16 5 -16 15 -49 14 0 -27 85 -15 0 -13 -51 -3 -14 -17 65 -15 0zm178 -51l-77 33 0 -14 61 -25 -61 -25 0 -14 77 33 0 13zm47 85c-8,-10 -15,-22 -20,-35 -5,-13 -8,-27 -8,-42 0,-13 2,-25 6,-36 5,-13 12,-27 22,-40l10 0c-6,11 -11,19 -13,24 -3,7 -6,15 -8,23 -2,10 -3,20 -3,30 0,25 8,51 24,76l-10 0zm36 0l-10 0c16,-25 24,-51 24,-76 0,-10 -1,-20 -3,-30 -2,-8 -4,-16 -8,-23 -2,-5 -6,-13 -13,-24l10 0c10,13 17,27 22,40 4,12 6,24 6,36 0,14 -3,28 -8,42 -5,13 -12,25 -20,35z"
   id="path54" />
  <g
   id="g58">
   <path
   class="fil0"
   d="M2433 1977l0 -16 32 0 0 16 -32 0zm-81 0l0 -16 32 0 0 16 -32 0zm-81 0l0 -16 32 0 0 16 -32 0zm-81 0l0 -16 32 0 0 16 -32 0zm-81 0l0 -16 32 0 0 16 -32 0zm-81 0l0 -16 32 0 0 16 -32 0zm-81 0l0 -16 32 0 0 16 -32 0zm-81 0l0 -16 32 0 0 16 -32 0zm-81 0l0 -16 32 0 0 16 -32 0zm-81 0l0 -16 32 0 0 16 -32 0zm-81 0l0 -16 32 0 0 16 -32 0zm-81 0l0 -16 32 0 0 16 -32 0zm-81 0l0 -16 32 0 0 16 -32 0zm-81 0l0 -16 32 0 0 16 -32 0zm-81 0l0 -16 32 0 0 16 -32 0zm-81 0l0 -16 32 0 0 16 -32 0zm-81 0l0 -16 32 0 0 16 -32 0zm-81 0l0 -16 32 0 0 16 -32 0zm-81 0l0 -16 32 0 0 16 -32 0zm-81 0l0 -16 32 0 0 16 -32 0zm-81 0l0 -16 32 0 0 16 -32 0zm-81 0l0 -16 32 0 0 16 -32 0zm-81 0l0 -16 32 0 0 16 -32 0zm-81 0l0 -16 32 0 0 16 -32 0zm-81 0l0 -16 32 0 0 16 -32 0zm-81 0l0 -16 32 0 0 16 -32 0zm-81 0l0 -16 32 0 0 16 -32 0zm-81 0l0 -16 32 0 0 16 -32 0zm-81 0l0 -16 32 0 0 16 -32 0zm-81 0l0 -16 32 0 0 16 -32 0zm-81 0l0 -16 32 0 0 16 -32 0z"
   id="path56" />
  </g>
  <g
   id="g64">
   <polygon
   class="fil7 str3"
   points="2480,1838 3544,1838 3544,2099 2480,2099 "
   id="polygon60" />
   <path
   class="fil0"
   d="M2701 1983l13 3c-3,11 -8,19 -15,24 -7,6 -16,8 -26,8 -10,0 -19,-2 -26,-6 -7,-4 -12,-10 -15,-19 -3,-8 -5,-17 -5,-26 0,-10 2,-19 6,-27 4,-8 9,-13 17,-17 7,-4 15,-6 24,-6 10,0 18,2 25,7 7,5 11,12 14,21l-13 3c-2,-7 -6,-12 -10,-15 -4,-3 -10,-5 -16,-5 -7,0 -14,2 -19,5 -5,4 -9,8 -11,14 -2,6 -3,12 -3,19 0,8 1,16 4,22 2,6 6,11 11,14 5,3 11,5 17,5 7,0 13,-2 18,-6 5,-4 8,-10 10,-19zm74 25c-4,4 -9,6 -13,8 -4,2 -9,2 -13,2 -8,0 -14,-2 -18,-6 -4,-4 -6,-9 -6,-14 0,-3 1,-7 2,-9 2,-3 4,-5 6,-7 3,-2 5,-3 9,-4 2,-1 6,-1 11,-2 10,-1 17,-3 21,-4 0,-2 0,-3 0,-3 0,-5 -1,-8 -3,-10 -3,-3 -8,-4 -14,-4 -6,0 -10,1 -13,3 -3,2 -5,5 -6,11l-12 -2c1,-5 3,-9 5,-12 2,-3 6,-5 11,-7 5,-2 10,-3 16,-3 6,0 11,1 15,2 4,1 7,3 8,5 2,2 3,5 4,8 0,2 1,6 1,11l0 16c0,11 0,18 1,21 0,3 1,6 3,9l-13 0c-1,-3 -2,-5 -2,-9zm-1 -27c-4,2 -11,3 -20,4 -5,1 -8,1 -10,2 -2,1 -4,2 -5,4 -1,2 -2,4 -2,6 0,3 1,6 4,8 2,2 6,3 11,3 5,0 9,-1 12,-3 4,-2 6,-5 8,-8 1,-3 2,-7 2,-12l0 -4zm31 35l0 -71 11 0 0 10c5,-8 13,-12 22,-12 4,0 8,1 12,2 4,2 6,4 8,6 2,2 3,5 4,9 0,2 1,6 1,12l0 43 -12 0 0 -43c0,-5 0,-9 -1,-11 -1,-2 -3,-4 -5,-6 -2,-1 -5,-2 -8,-2 -5,0 -9,2 -13,5 -4,3 -6,9 -6,18l0 39 -12 0zm71 -35c0,-13 4,-23 11,-29 6,-5 13,-8 22,-8 10,0 18,3 24,10 6,6 9,15 9,26 0,9 -1,16 -4,21 -3,5 -7,9 -12,12 -5,3 -11,4 -17,4 -10,0 -18,-3 -24,-9 -6,-6 -9,-15 -9,-27zm12 0c0,9 2,16 6,20 4,4 9,7 15,7 6,0 11,-2 15,-7 4,-5 6,-11 6,-21 0,-9 -2,-15 -6,-20 -4,-4 -9,-7 -15,-7 -6,0 -11,2 -15,7 -4,4 -6,11 -6,20zm68 35l0 -71 11 0 0 10c5,-8 13,-12 22,-12 4,0 8,1 12,2 4,2 6,4 8,6 2,2 3,5 4,9 0,2 1,6 1,12l0 43 -12 0 0 -43c0,-5 0,-9 -1,-11 -1,-2 -3,-4 -5,-6 -2,-1 -5,-2 -8,-2 -5,0 -9,2 -13,5 -4,3 -6,9 -6,18l0 39 -12 0zm76 -84l0 -14 12 0 0 14 -12 0zm0 84l0 -71 12 0 0 71 -12 0zm76 -26l12 2c-1,8 -5,14 -10,19 -5,5 -12,7 -20,7 -10,0 -17,-3 -23,-9 -6,-6 -9,-15 -9,-27 0,-8 1,-14 4,-20 3,-6 6,-10 12,-13 5,-3 11,-4 17,-4 8,0 14,2 19,6 5,4 8,9 9,17l-12 2c-1,-5 -3,-8 -6,-11 -3,-2 -6,-4 -10,-4 -6,0 -11,2 -15,6 -4,4 -6,11 -6,21 0,9 2,16 5,21 4,4 8,6 14,6 5,0 9,-1 12,-4 3,-3 5,-7 6,-13zm68 17c-4,4 -9,6 -13,8 -4,2 -9,2 -13,2 -8,0 -14,-2 -18,-6 -4,-4 -6,-9 -6,-14 0,-3 1,-7 2,-9 2,-3 4,-5 6,-7 3,-2 5,-3 9,-4 2,-1 6,-1 11,-2 10,-1 17,-3 21,-4 0,-2 0,-3 0,-3 0,-5 -1,-8 -3,-10 -3,-3 -8,-4 -14,-4 -6,0 -10,1 -13,3 -3,2 -5,5 -6,11l-12 -2c1,-5 3,-9 5,-12 2,-3 6,-5 11,-7 5,-2 10,-3 16,-3 6,0 11,1 15,2 4,1 7,3 8,5 2,2 3,5 4,8 0,2 1,6 1,11l0 16c0,11 0,18 1,21 0,3 1,6 3,9l-13 0c-1,-3 -2,-5 -2,-9zm-1 -27c-4,2 -11,3 -20,4 -5,1 -8,1 -10,2 -2,1 -4,2 -5,4 -1,2 -2,4 -2,6 0,3 1,6 4,8 2,2 6,3 11,3 5,0 9,-1 12,-3 4,-2 6,-5 8,-8 1,-3 2,-7 2,-12l0 -4zm30 35l0 -98 12 0 0 98 -12 0zm31 -84l0 -14 12 0 0 14 -12 0zm0 84l0 -71 12 0 0 71 -12 0zm24 0l0 -10 45 -52c-5,0 -10,0 -13,0l-29 0 0 -10 58 0 0 8 -38 45 -7 8c5,0 10,-1 15,-1l33 0 0 10 -63 0zm123 -23l12 2c-2,7 -6,13 -11,17 -5,4 -12,6 -20,6 -10,0 -18,-3 -25,-10 -6,-6 -9,-15 -9,-27 0,-12 3,-21 9,-28 6,-7 14,-10 24,-10 9,0 17,3 23,10 6,6 9,15 9,27 0,1 0,2 0,3l-53 0c0,8 3,14 7,18 4,4 9,6 15,6 4,0 8,-1 11,-3 3,-2 6,-6 7,-11zm-39 -19l39 0c-1,-6 -2,-10 -5,-13 -4,-5 -9,-7 -15,-7 -5,0 -10,2 -14,6 -4,4 -6,9 -6,15z"
   id="path62" />
  </g>
  <g
   id="g68">
   <path
   class="fil0"
   d="M2433 3036l0 -16 32 0 0 16 -32 0zm-81 0l0 -16 32 0 0 16 -32 0zm-81 0l0 -16 32 0 0 16 -32 0zm-81 0l0 -16 32 0 0 16 -32 0zm-81 0l0 -16 32 0 0 16 -32 0zm-81 0l0 -16 32 0 0 16 -32 0zm-81 0l0 -16 32 0 0 16 -32 0zm-81 0l0 -16 32 0 0 16 -32 0zm-81 0l0 -16 32 0 0 16 -32 0zm-81 0l0 -16 32 0 0 16 -32 0zm-81 0l0 -16 32 0 0 16 -32 0zm-81 0l0 -16 32 0 0 16 -32 0zm-81 0l0 -16 32 0 0 16 -32 0zm-81 0l0 -16 32 0 0 16 -32 0zm-81 0l0 -16 32 0 0 16 -32 0zm-81 0l0 -16 32 0 0 16 -32 0zm-81 0l0 -16 32 0 0 16 -32 0zm-81 0l0 -16 32 0 0 16 -32 0zm-81 0l0 -16 32 0 0 16 -32 0zm-81 0l0 -16 32 0 0 16 -32 0zm-81 0l0 -16 32 0 0 16 -32 0zm-81 0l0 -16 32 0 0 16 -32 0zm-81 0l0 -16 32 0 0 16 -32 0zm-81 0l0 -16 32 0 0 16 -32 0zm-81 0l0 -16 32 0 0 16 -32 0zm-81 0l0 -16 32 0 0 16 -32 0zm-81 0l0 -16 32 0 0 16 -32 0zm-81 0l0 -16 32 0 0 16 -32 0zm-81 0l0 -16 32 0 0 16 -32 0zm-81 0l0 -16 32 0 0 16 -32 0zm-81 0l0 -16 32 0 0 16 -32 0z"
   id="path66" />
  </g>
  <path
   class="fil8"
   d="M7 1846l0 -103 27 0 0 64 20 0 0 -59 25 0 0 59 24 0 0 -66 28 0 0 105 -124 0zm34 -115l0 -41 25 -14 -25 -17 0 -38 43 31 47 -33 0 40 -29 17 29 20 0 37 -47 -33 -43 31zm54 -220l0 69c6,-1 10,-2 12,-5 4,-3 6,-8 6,-13 0,-3 -1,-7 -3,-10 -1,-2 -3,-4 -6,-6l3 -34c9,5 16,11 19,19 4,7 6,18 6,32 0,12 -2,21 -5,28 -3,7 -9,12 -16,17 -7,4 -16,7 -26,7 -14,0 -25,-5 -34,-14 -9,-9 -13,-21 -13,-37 0,-13 2,-23 6,-30 4,-7 10,-13 17,-17 7,-4 17,-6 29,-6l4 0zm-16 35c-7,1 -11,2 -14,5 -3,3 -4,7 -4,11 0,5 2,10 7,13 3,2 7,3 12,4l0 -34zm18 -118l4 -33c7,2 13,5 18,9 5,4 9,9 12,16 3,6 4,15 4,24 0,10 -1,18 -3,24 -2,6 -5,12 -9,16 -4,5 -9,8 -14,11 -5,3 -12,4 -21,4 -9,0 -17,-2 -23,-5 -5,-2 -9,-5 -12,-10 -4,-4 -6,-8 -8,-12 -3,-7 -4,-15 -4,-26 0,-15 3,-26 8,-34 5,-8 13,-13 23,-16l4 32c-4,1 -7,3 -9,6 -2,3 -3,6 -3,11 0,6 2,10 6,14 4,4 10,5 19,5 7,0 13,-2 17,-5 4,-3 6,-8 6,-13 0,-5 -1,-8 -3,-11 -2,-3 -6,-5 -11,-7zm35 -143l0 32 -14 0c6,5 10,10 13,14 3,5 4,11 4,18 0,9 -3,17 -9,22 -6,5 -14,8 -26,8l-57 0 0 -35 50 0c6,0 10,-1 12,-3 2,-2 4,-5 4,-9 0,-4 -2,-7 -5,-10 -3,-3 -9,-4 -17,-4l-43 0 0 -34 90 0zm-124 -63l34 0 0 -19 25 0 0 19 32 0c4,0 6,0 8,-1 2,-1 3,-3 3,-6 0,-3 -1,-6 -2,-11l24 -3c2,9 3,16 3,24 0,9 -1,15 -3,19 -2,4 -6,7 -10,9 -4,2 -12,3 -22,3l-32 0 0 13 -25 0 0 -13 -16 0 -18 -34zm0 -37l0 -34 23 0 0 34 -23 0zm34 0l0 -34 90 0 0 34 -90 0zm45 -52c-14,0 -25,-5 -34,-14 -9,-9 -13,-22 -13,-37 0,-18 5,-32 16,-41 8,-7 19,-11 31,-11 14,0 25,5 34,14 9,9 13,22 13,38 0,14 -4,26 -11,35 -9,11 -21,16 -36,16zm0 -34c8,0 14,-2 18,-5 4,-3 6,-7 6,-12 0,-5 -2,-9 -6,-12 -4,-3 -10,-5 -18,-5 -8,0 -14,2 -17,5 -4,3 -6,7 -6,12 0,5 2,9 6,12 4,3 10,5 18,5zm-45 -85l0 -32 15 0c-6,-5 -10,-10 -13,-15 -3,-5 -4,-11 -4,-18 0,-10 3,-17 9,-22 6,-5 14,-8 26,-8l57 0 0 35 -49 0c-6,0 -10,1 -12,3 -2,2 -4,5 -4,9 0,4 2,8 5,10 3,3 9,4 17,4l43 0 0 34 -90 0z"
   id="path70" />
  <path
   class="fil8"
   d="M7 2829l0 -38 74 0c7,0 14,1 21,3 7,2 12,6 17,11 5,5 8,10 10,15 3,7 4,16 4,27 0,6 0,13 -1,20 -1,7 -3,13 -5,18 -3,5 -6,9 -11,13 -5,4 -9,7 -14,8 -8,2 -15,4 -21,4l-74 0 0 -38 76 0c7,0 12,-2 16,-6 4,-4 6,-9 6,-16 0,-7 -2,-12 -6,-15 -4,-4 -9,-6 -16,-6l-76 0zm0 -65l0 -38 124 0 0 38 -124 0zm63 -153l-3 33c-6,-1 -10,-3 -14,-5 -3,-2 -6,-6 -9,-10 -2,-3 -3,-7 -4,-13 -1,-6 -1,-11 -1,-18 0,-10 1,-19 2,-25 1,-6 4,-11 7,-16 3,-3 6,-5 11,-7 5,-2 9,-3 13,-3l40 0c4,0 8,0 10,-1 2,-1 5,-2 9,-3l0 32c-2,1 -4,2 -5,3 -1,0 -3,1 -6,1 4,5 7,9 9,13 2,6 4,13 4,21 0,11 -2,19 -7,24 -5,6 -11,8 -18,8 -7,0 -12,-2 -17,-6 -4,-4 -8,-11 -10,-22 -3,-13 -4,-21 -5,-25 -1,-4 -2,-8 -4,-12 -4,0 -7,1 -9,3 -2,2 -3,5 -3,9 0,6 1,10 3,13 1,2 4,4 8,5zm18 -30c2,5 3,10 5,15 2,7 4,11 6,13 2,2 4,3 6,3 3,0 5,-1 7,-3 2,-2 3,-5 3,-8 0,-4 -1,-7 -3,-11 -2,-3 -4,-6 -7,-7 -3,-1 -6,-2 -11,-2l-6 0zm8 -121l4 -33c7,2 13,5 18,9 5,4 9,9 12,16 3,6 4,15 4,24 0,10 -1,18 -3,24 -2,6 -5,12 -9,16 -4,5 -9,8 -14,11 -5,3 -12,4 -21,4 -9,0 -17,-2 -23,-5 -5,-2 -9,-5 -12,-10 -4,-4 -6,-8 -8,-12 -3,-7 -4,-15 -4,-26 0,-15 3,-26 8,-34 5,-8 13,-13 23,-16l4 32c-4,1 -7,3 -9,6 -2,3 -3,6 -3,11 0,6 2,10 6,14 4,4 10,5 19,5 7,0 13,-2 17,-5 4,-3 6,-8 6,-13 0,-5 -1,-8 -3,-11 -2,-3 -6,-5 -11,-7zm-89 -90l34 0 0 -19 25 0 0 19 32 0c4,0 6,0 8,-1 2,-1 3,-3 3,-6 0,-3 -1,-6 -2,-11l24 -3c2,9 3,16 3,24 0,9 -1,15 -3,19 -2,4 -6,7 -10,9 -4,2 -12,3 -22,3l-32 0 0 13 -25 0 0 -13 -16 0 -18 -34zm0 -37l0 -34 23 0 0 34 -23 0zm34 0l0 -34 90 0 0 34 -90 0zm45 -52c-14,0 -25,-5 -34,-14 -9,-9 -13,-22 -13,-37 0,-18 5,-32 16,-41 8,-7 19,-11 31,-11 14,0 25,5 34,14 9,9 13,22 13,38 0,14 -4,26 -11,35 -9,11 -21,16 -36,16zm0 -34c8,0 14,-2 18,-5 4,-3 6,-7 6,-12 0,-5 -2,-9 -6,-12 -4,-3 -10,-5 -18,-5 -8,0 -14,2 -17,5 -4,3 -6,7 -6,12 0,5 2,9 6,12 4,3 10,5 18,5zm-45 -85l0 -32 15 0c-6,-5 -10,-10 -13,-15 -3,-5 -4,-11 -4,-18 0,-10 3,-17 9,-22 6,-5 14,-8 26,-8l57 0 0 35 -49 0c-6,0 -10,1 -12,3 -2,2 -4,5 -4,9 0,4 2,8 5,10 3,3 9,4 17,4l43 0 0 34 -90 0z"
   id="path72" />
  <path
   class="fil8"
   d="M131 4111l-124 0 0 -64c0,-12 1,-21 3,-27 2,-6 6,-11 11,-15 6,-4 12,-6 20,-6 7,0 13,1 18,4 5,3 9,7 12,12 2,3 4,8 5,13 2,-5 3,-8 5,-10 1,-1 3,-3 7,-6 3,-3 6,-4 8,-5l36 -19 0 43 -38 20c-5,3 -8,5 -10,7 -2,3 -3,6 -3,9l0 3 50 0 0 38zm-74 -38l0 -16c0,-2 -1,-5 -2,-10 0,-3 -2,-5 -4,-6 -2,-2 -5,-2 -7,-2 -4,0 -7,1 -9,4 -2,3 -3,7 -3,14l0 17 25 0zm37 -189l0 69c6,-1 10,-2 12,-5 4,-3 6,-8 6,-13 0,-3 -1,-7 -3,-10 -1,-2 -3,-4 -6,-6l3 -34c9,5 16,11 19,19 4,7 6,18 6,32 0,12 -2,21 -5,28 -3,7 -9,12 -16,17 -7,4 -16,7 -26,7 -14,0 -25,-5 -34,-14 -9,-9 -13,-21 -13,-37 0,-13 2,-23 6,-30 4,-7 10,-13 17,-17 7,-4 17,-6 29,-6l4 0zm-16 35c-7,1 -11,2 -14,5 -3,3 -4,7 -4,11 0,5 2,10 7,13 3,2 7,3 12,4l0 -34zm-37 -51l0 -32 15 0c-6,-5 -10,-10 -13,-15 -3,-5 -4,-11 -4,-18 0,-10 3,-17 9,-22 6,-5 14,-8 26,-8l57 0 0 35 -49 0c-6,0 -10,1 -12,3 -2,2 -4,5 -4,9 0,4 2,8 5,10 3,3 9,4 17,4l43 0 0 34 -90 0zm-34 -210l124 0 0 32 -13 0c6,5 10,9 11,12 3,5 4,10 4,17 0,12 -5,22 -14,28 -9,6 -21,10 -34,10 -15,0 -26,-4 -34,-11 -8,-7 -12,-16 -12,-27 0,-5 1,-10 3,-15 2,-4 5,-8 8,-12l-43 0 0 -35zm79 35c-7,0 -12,2 -16,4 -3,3 -5,7 -5,11 0,4 2,7 5,10 3,3 9,4 17,4 7,0 13,-1 16,-4 3,-3 5,-6 5,-10 0,-4 -2,-8 -5,-11 -3,-3 -9,-4 -17,-4zm9 -155l0 69c6,-1 10,-2 12,-5 4,-3 6,-8 6,-13 0,-3 -1,-7 -3,-10 -1,-2 -3,-4 -6,-6l3 -34c9,5 16,11 19,19 4,7 6,18 6,32 0,12 -2,21 -5,28 -3,7 -9,12 -16,17 -7,4 -16,7 -26,7 -14,0 -25,-5 -34,-14 -9,-9 -13,-21 -13,-37 0,-13 2,-23 6,-30 4,-7 10,-13 17,-17 7,-4 17,-6 29,-6l4 0zm-16 35c-7,1 -11,2 -14,5 -3,3 -4,7 -4,11 0,5 2,10 7,13 3,2 7,3 12,4l0 -34zm-37 -51l0 -32 15 0c-6,-3 -11,-6 -13,-10 -2,-3 -4,-7 -4,-12 0,-5 2,-11 5,-17l24 11c-2,4 -3,7 -3,10 0,5 2,8 6,11 5,4 15,5 30,5l30 0 0 35 -90 0zm-34 -78l0 -34 23 0 0 34 -23 0zm34 0l0 -34 90 0 0 34 -90 0zm0 -56l0 -32 15 0c-6,-5 -10,-10 -13,-15 -3,-5 -4,-11 -4,-18 0,-10 3,-17 9,-22 6,-5 14,-8 26,-8l57 0 0 35 -49 0c-6,0 -10,1 -12,3 -2,2 -4,5 -4,9 0,4 2,8 5,10 3,3 9,4 17,4l43 0 0 34 -90 0zm0 -178l0 -32 85 0 4 0c6,0 11,1 16,4 5,2 9,6 12,10 3,4 5,9 7,15 1,6 2,13 2,21 0,18 -3,30 -8,37 -5,7 -13,10 -22,10 -1,0 -3,0 -5,0l4 -33c3,-1 5,-2 6,-4 2,-3 3,-6 3,-10 0,-5 -1,-9 -4,-11 -3,-2 -7,-4 -14,-4l-14 0c4,3 7,7 9,10 3,5 4,11 4,17 0,12 -5,22 -16,29 -7,5 -17,8 -30,8 -14,0 -25,-3 -32,-10 -7,-7 -11,-16 -11,-27 0,-7 1,-13 4,-17 2,-5 6,-9 12,-13l-13 0zm44 32c7,0 11,-1 14,-4 3,-3 5,-6 5,-11 0,-4 -2,-8 -5,-11 -3,-3 -8,-4 -15,-4 -7,0 -12,2 -15,5 -3,3 -5,7 -5,11 0,4 2,8 5,11 3,3 8,4 16,4z"
   id="path74" />
  <g
   id="g80">
   <path
   class="fil9 str4"
   d="M1417 4906c55,0 99,45 99,99 0,55 -45,99 -99,99 -55,0 -99,-45 -99,-99 0,-55 45,-99 99,-99z"
   id="path76" />
   <path
   class="fil10 str5"
   d="M1417 4928c43,0 78,35 78,78 0,43 -35,78 -78,78 -43,0 -78,-35 -78,-78 0,-43 35,-78 78,-78z"
   id="path78" />
  </g>
  <g
   id="g84">
   <path
   class="fil0"
   d="M2433 4271l0 -16 32 0 0 16 -32 0zm-81 0l0 -16 32 0 0 16 -32 0zm-81 0l0 -16 32 0 0 16 -32 0zm-81 0l0 -16 32 0 0 16 -32 0zm-81 0l0 -16 32 0 0 16 -32 0zm-81 0l0 -16 32 0 0 16 -32 0zm-81 0l0 -16 32 0 0 16 -32 0zm-81 0l0 -16 32 0 0 16 -32 0zm-81 0l0 -16 32 0 0 16 -32 0zm-81 0l0 -16 32 0 0 16 -32 0zm-81 0l0 -16 32 0 0 16 -32 0zm-81 0l0 -16 32 0 0 16 -32 0zm-81 0l0 -16 32 0 0 16 -32 0zm-81 0l0 -16 32 0 0 16 -32 0zm-81 0l0 -16 32 0 0 16 -32 0zm-81 0l0 -16 32 0 0 16 -32 0zm-81 0l0 -16 32 0 0 16 -32 0zm-81 0l0 -16 32 0 0 16 -32 0zm-81 0l0 -16 32 0 0 16 -32 0zm-81 0l0 -16 32 0 0 16 -32 0zm-81 0l0 -16 32 0 0 16 -32 0zm-81 0l0 -16 32 0 0 16 -32 0zm-81 0l0 -16 32 0 0 16 -32 0zm-81 0l0 -16 32 0 0 16 -32 0zm-81 0l0 -16 32 0 0 16 -32 0zm-81 0l0 -16 32 0 0 16 -32 0zm-81 0l0 -16 32 0 0 16 -32 0zm-81 0l0 -16 32 0 0 16 -32 0zm-81 0l0 -16 32 0 0 16 -32 0zm-81 0l0 -16 32 0 0 16 -32 0zm-81 0l0 -16 32 0 0 16 -32 0z"
   id="path82" />
  </g>
  <path
   class="fil6"
   d="M805 2567l0 -117 14 0 0 42c7,-8 15,-12 25,-12 6,0 12,1 16,4 5,2 8,6 10,10 2,4 3,11 3,19l0 54 -14 0 0 -53c0,-7 -2,-12 -5,-16 -3,-3 -7,-5 -13,-5 -4,0 -8,1 -12,3 -4,2 -6,5 -8,9 -2,4 -2,9 -2,16l0 46 -14 0zm146 -11c-5,5 -10,8 -15,10 -5,2 -10,3 -16,3 -9,0 -16,-2 -21,-7 -5,-5 -7,-10 -7,-17 0,-4 1,-8 3,-11 2,-3 4,-6 7,-8 3,-2 6,-4 10,-5 3,-1 7,-1 13,-2 12,-1 20,-3 26,-5 0,-2 0,-3 0,-4 0,-6 -1,-10 -4,-12 -4,-3 -9,-5 -16,-5 -7,0 -12,1 -15,4 -3,2 -6,7 -7,13l-14 -2c1,-6 3,-11 6,-15 3,-4 7,-7 13,-9 6,-2 12,-3 19,-3 7,0 13,1 18,3 5,2 8,4 10,6 2,3 4,6 4,10 0,2 1,7 1,13l0 19c0,13 0,22 1,25 1,4 2,7 4,10l-15 0c-1,-3 -2,-7 -3,-11zm-1 -32c-5,2 -13,4 -23,5 -6,1 -10,2 -13,3 -2,1 -4,3 -6,5 -1,2 -2,4 -2,7 0,4 1,7 4,9 3,3 7,4 13,4 6,0 10,-1 15,-4 4,-2 7,-6 9,-10 2,-3 2,-8 2,-14l0 -5zm37 42l0 -85 13 0 0 12c6,-9 15,-14 27,-14 5,0 10,1 14,3 4,2 7,4 10,7 2,3 4,6 4,11 1,3 1,7 1,14l0 52 -14 0 0 -51c0,-6 -1,-10 -2,-13 -1,-3 -3,-5 -6,-7 -3,-2 -6,-3 -10,-3 -6,0 -11,2 -16,6 -4,4 -7,11 -7,22l0 46 -14 0zm145 0l0 -11c-5,8 -13,13 -24,13 -7,0 -13,-2 -19,-6 -6,-4 -10,-9 -13,-15 -3,-7 -5,-14 -5,-23 0,-8 1,-16 4,-23 3,-7 7,-12 13,-16 6,-4 12,-5 19,-5 5,0 10,1 14,3 4,2 7,5 10,8l0 -42 14 0 0 117 -13 0zm-45 -42c0,11 2,19 7,24 5,5 10,8 16,8 6,0 12,-3 16,-8 4,-5 7,-13 7,-23 0,-12 -2,-20 -7,-25 -4,-5 -10,-8 -17,-8 -6,0 -12,3 -16,8 -4,5 -6,13 -6,25zm81 42l0 -117 14 0 0 117 -14 0zm94 -27l15 2c-2,9 -7,15 -13,20 -6,5 -14,7 -24,7 -12,0 -22,-4 -29,-11 -7,-8 -11,-18 -11,-32 0,-14 4,-25 11,-33 7,-8 17,-12 28,-12 11,0 20,4 28,12 7,8 11,18 11,32 0,1 0,2 0,4l-63 0c1,9 3,16 8,21 5,5 11,7 18,7 5,0 10,-1 13,-4 4,-3 7,-7 9,-13zm-47 -23l47 0c-1,-7 -2,-12 -5,-16 -5,-6 -10,-8 -18,-8 -7,0 -12,2 -17,7 -4,4 -7,10 -7,18zm78 -1l0 -13 77 -33 0 14 -61 25 61 25 0 14 -77 -33zm93 14l14 -1c1,6 2,11 5,14 3,4 6,7 12,9 5,2 11,3 18,3 6,0 11,-1 16,-3 5,-2 8,-4 10,-7 2,-3 3,-6 3,-10 0,-4 -1,-7 -3,-10 -2,-3 -6,-5 -11,-7 -3,-1 -10,-3 -21,-6 -11,-3 -18,-5 -23,-7 -6,-3 -10,-7 -12,-11 -3,-4 -4,-9 -4,-15 0,-6 2,-11 5,-17 3,-5 8,-9 15,-12 6,-3 14,-4 21,-4 9,0 16,1 23,4 7,3 12,7 15,12 4,5 5,12 6,18l-15 1c-1,-7 -3,-13 -8,-17 -5,-4 -11,-6 -20,-6 -9,0 -16,2 -20,5 -4,3 -6,8 -6,12 0,4 2,8 5,10 3,3 11,5 23,8 13,3 21,5 26,7 7,3 12,7 15,12 3,5 5,10 5,17 0,6 -2,12 -5,18 -4,5 -9,10 -15,13 -7,3 -14,5 -22,5 -11,0 -19,-2 -26,-5 -7,-3 -13,-8 -17,-14 -4,-6 -6,-13 -6,-21zm112 -63l0 -16 14 0 0 16 -14 0zm0 100l0 -85 14 0 0 85 -14 0zm34 7l14 2c1,4 2,7 5,9 4,3 8,4 15,4 7,0 12,-1 15,-4 4,-3 6,-6 7,-11 1,-3 1,-9 1,-18 -6,7 -14,11 -23,11 -12,0 -21,-4 -27,-13 -6,-8 -10,-18 -10,-30 0,-8 1,-15 4,-22 3,-7 7,-12 13,-16 6,-4 12,-6 20,-6 10,0 18,4 25,12l0 -10 13 0 0 73c0,13 -1,22 -4,28 -3,5 -7,10 -13,13 -6,3 -13,5 -21,5 -10,0 -18,-2 -24,-7 -6,-5 -9,-11 -9,-20zm12 -51c0,11 2,19 7,24 4,5 10,8 17,8 7,0 12,-3 17,-8 4,-5 7,-13 7,-24 0,-10 -2,-18 -7,-23 -5,-5 -10,-8 -17,-8 -6,0 -12,3 -16,8 -4,5 -7,13 -7,23zm81 44l0 -85 13 0 0 12c6,-9 15,-14 27,-14 5,0 10,1 14,3 4,2 7,4 10,7 2,3 4,6 4,11 1,3 1,7 1,14l0 52 -14 0 0 -51c0,-6 -1,-10 -2,-13 -1,-3 -3,-5 -6,-7 -3,-2 -6,-3 -10,-3 -6,0 -11,2 -16,6 -4,4 -7,11 -7,22l0 46 -14 0zm146 -11c-5,5 -10,8 -15,10 -5,2 -10,3 -16,3 -9,0 -16,-2 -21,-7 -5,-5 -7,-10 -7,-17 0,-4 1,-8 3,-11 2,-3 4,-6 7,-8 3,-2 6,-4 10,-5 3,-1 7,-1 13,-2 12,-1 20,-3 26,-5 0,-2 0,-3 0,-4 0,-6 -1,-10 -4,-12 -4,-3 -9,-5 -16,-5 -7,0 -12,1 -15,4 -3,2 -6,7 -7,13l-14 -2c1,-6 3,-11 6,-15 3,-4 7,-7 13,-9 6,-2 12,-3 19,-3 7,0 13,1 18,3 5,2 8,4 10,6 2,3 4,6 4,10 0,2 1,7 1,13l0 19c0,13 0,22 1,25 1,4 2,7 4,10l-15 0c-1,-3 -2,-7 -3,-11zm-1 -32c-5,2 -13,4 -23,5 -6,1 -10,2 -13,3 -2,1 -4,3 -6,5 -1,2 -2,4 -2,7 0,4 1,7 4,9 3,3 7,4 13,4 6,0 10,-1 15,-4 4,-2 7,-6 9,-10 2,-3 2,-8 2,-14l0 -5zm36 42l0 -117 14 0 0 117 -14 0zm112 -51l-77 33 0 -14 61 -25 -61 -25 0 -14 77 33 0 13zm47 85c-8,-10 -15,-22 -20,-35 -5,-13 -8,-27 -8,-42 0,-13 2,-25 6,-36 5,-13 12,-27 22,-40l10 0c-6,11 -11,19 -13,24 -3,7 -6,15 -8,23 -2,10 -3,20 -3,30 0,25 8,51 24,76l-10 0zm36 0l-10 0c16,-25 24,-51 24,-76 0,-10 -1,-20 -3,-30 -2,-8 -4,-16 -8,-23 -2,-5 -6,-13 -13,-24l10 0c10,13 17,27 22,40 4,12 6,24 6,36 0,14 -3,28 -8,42 -5,13 -12,25 -20,35z"
   id="path86" />
  <line
   class="fil11 str6"
   x1="1417"
   y1="158"
   x2="1417"
   y2="158"
   id="line88" />
  <line
   class="fil11 str6"
   x1="1417"
   y1="158"
   x2="1417"
   y2="158"
   id="line90" />
  <line
   class="fil11 str6"
   x1="1417"
   y1="158"
   x2="1417"
   y2="158"
   id="line92" />
  <g
   id="g96">
   <path
   class="fil0"
   d="M1409 316l0 -158 16 0 0 158 -16 0zm8 56l-48 -112 3 1 3 1 3 1 3 1 3 1 3 1 3 1 3 1 3 1 3 1 3 1 3 0 3 0 3 0 3 0 3 0 3 0 3 0 3 0 3 0 3 0 3 -1 3 -1 3 -1 3 -1 3 -1 3 -1 3 -1 3 -1 3 -1 3 -1 3 -1 0 0 -48 112z"
   id="path94" />
  </g>
  <path
   class="fil10 str7"
   d="M1417 2c43,0 78,35 78,78 0,43 -35,78 -78,78 -43,0 -78,-35 -78,-78 0,-43 35,-78 78,-78z"
   id="path98" />
  <path
   class="fil5 str8"
   d="M873 359l1087 0c68,0 123,55 123,123l0 0c0,68 -55,123 -123,123l-1087 0c-68,0 -123,-55 -123,-123l0 0c0,-68 55,-123 123,-123z"
   id="path100"
   style="filter:url(#filter143)" />
  <path
   class="fil0"
   d="M816 546l0 -7 67 0 0 7 -67 0zm64 0l0 -7 67 0 0 7 -67 0zm112 -45l10 1c-1,7 -4,12 -8,16 -4,4 -10,6 -16,6 -8,0 -15,-3 -20,-8 -5,-5 -7,-13 -7,-23 0,-6 1,-12 3,-17 2,-5 5,-8 10,-11 4,-2 9,-4 14,-4 6,0 12,2 16,5 4,3 7,8 8,14l-10 1c-1,-4 -3,-7 -5,-9 -2,-2 -5,-3 -9,-3 -5,0 -9,2 -12,5 -3,4 -5,9 -5,17 0,8 2,14 5,17 3,4 7,5 12,5 4,0 7,-1 10,-4 3,-2 4,-6 5,-11zm15 -8c0,-11 3,-19 9,-25 5,-4 11,-7 19,-7 8,0 15,3 20,8 5,5 8,13 8,22 0,8 -1,14 -3,18 -2,4 -6,8 -10,10 -4,2 -9,4 -14,4 -8,0 -15,-3 -20,-8 -5,-5 -8,-13 -8,-23zm10 0c0,8 2,13 5,17 3,4 8,6 13,6 5,0 9,-2 13,-6 3,-4 5,-10 5,-17 0,-7 -2,-13 -5,-17 -3,-4 -8,-6 -13,-6 -5,0 -9,2 -13,6 -3,4 -5,9 -5,17zm58 30l0 -60 9 0 0 8c4,-7 11,-10 19,-10 4,0 7,1 10,2 3,1 5,3 7,5 1,2 3,5 3,7 0,2 1,5 1,10l0 37 -10 0 0 -36c0,-4 0,-7 -1,-9 -1,-2 -2,-4 -4,-5 -2,-1 -4,-2 -7,-2 -4,0 -8,1 -11,4 -3,3 -5,8 -5,16l0 33 -10 0zm60 -18l10 -2c1,4 2,7 5,9 3,2 6,3 11,3 5,0 8,-1 10,-3 2,-2 3,-4 3,-7 0,-2 -1,-4 -3,-5 -1,-1 -5,-2 -10,-3 -7,-2 -13,-3 -15,-5 -3,-1 -5,-3 -7,-6 -1,-2 -2,-5 -2,-8 0,-3 1,-5 2,-7 1,-2 3,-4 5,-6 2,-1 4,-2 6,-3 3,-1 6,-1 9,-1 5,0 9,1 12,2 4,1 6,3 8,5 2,2 3,5 3,9l-10 1c0,-3 -2,-6 -4,-7 -2,-2 -5,-3 -9,-3 -5,0 -8,1 -10,2 -2,2 -3,3 -3,5 0,1 0,2 1,4 1,1 2,2 4,3 1,0 4,1 9,3 7,2 12,3 15,5 3,1 5,3 7,5 2,2 2,5 2,9 0,3 -1,7 -3,10 -2,3 -5,5 -9,7 -4,2 -8,2 -13,2 -8,0 -14,-2 -18,-5 -4,-3 -7,-8 -8,-14zm84 9l1 9c-3,1 -5,1 -8,1 -4,0 -7,-1 -9,-2 -2,-1 -3,-3 -4,-5 -1,-2 -1,-6 -1,-12l0 -34 -7 0 0 -8 7 0 0 -15 10 -6 0 21 10 0 0 8 -10 0 0 35c0,3 0,5 1,6 0,1 1,1 2,2 1,0 2,1 3,1 1,0 3,0 4,0zm10 9l0 -60 9 0 0 9c2,-4 4,-7 6,-8 2,-1 4,-2 7,-2 3,0 7,1 10,3l-4 9c-2,-1 -5,-2 -7,-2 -2,0 -4,1 -6,2 -2,1 -3,3 -4,6 -1,4 -2,8 -2,12l0 31 -10 0zm78 0l0 -9c-5,7 -11,10 -19,10 -4,0 -7,-1 -10,-2 -3,-1 -5,-3 -7,-5 -1,-2 -3,-5 -3,-8 0,-2 -1,-5 -1,-9l0 -37 10 0 0 33c0,5 0,9 1,11 1,3 2,5 4,6 2,2 5,2 8,2 3,0 6,-1 9,-2 3,-2 5,-4 6,-6 1,-3 2,-7 2,-12l0 -32 10 0 0 60 -9 0zm64 -22l10 1c-1,7 -4,12 -8,16 -4,4 -10,6 -16,6 -8,0 -15,-3 -20,-8 -5,-5 -7,-13 -7,-23 0,-6 1,-12 3,-17 2,-5 5,-8 10,-11 4,-2 9,-4 14,-4 6,0 12,2 16,5 4,3 7,8 8,14l-10 1c-1,-4 -3,-7 -5,-9 -2,-2 -5,-3 -9,-3 -5,0 -9,2 -12,5 -3,4 -5,9 -5,17 0,8 2,14 5,17 3,4 7,5 12,5 4,0 7,-1 10,-4 3,-2 4,-6 5,-11zm41 13l1 9c-3,1 -5,1 -8,1 -4,0 -7,-1 -9,-2 -2,-1 -3,-3 -4,-5 -1,-2 -1,-6 -1,-12l0 -34 -7 0 0 -8 7 0 0 -15 10 -6 0 21 10 0 0 8 -10 0 0 35c0,3 0,5 1,6 0,1 1,1 2,2 1,0 2,1 3,1 1,0 3,0 4,0zm29 33c-6,-7 -10,-15 -14,-25 -4,-9 -6,-19 -6,-29 0,-9 1,-17 4,-26 3,-9 9,-19 16,-28l7 0c-5,8 -8,13 -9,17 -2,5 -4,11 -5,16 -2,7 -2,14 -2,21 0,18 6,36 17,54l-7 0zm26 0l-7 0c11,-18 17,-36 17,-54 0,-7 -1,-14 -2,-21 -1,-6 -3,-11 -5,-16 -1,-3 -4,-9 -9,-17l7 0c7,9 12,19 16,28 3,8 4,17 4,26 0,10 -2,20 -6,29 -4,9 -9,18 -14,25zm111 -34c-3,4 -7,6 -11,8 -4,2 -8,3 -13,3 -8,0 -15,-3 -20,-9 -4,-5 -6,-10 -6,-16 0,-5 2,-10 5,-14 3,-4 8,-8 15,-11 -4,-4 -6,-8 -7,-10 -1,-3 -2,-5 -2,-8 0,-5 2,-9 6,-13 4,-4 9,-5 15,-5 6,0 10,2 14,5 4,3 5,8 5,12 0,8 -5,15 -16,20l15 19c2,-3 3,-7 4,-11l10 2c-2,7 -4,13 -7,18 4,5 8,9 13,13l-7 8c-4,-3 -8,-6 -13,-12zm-21 -43c4,-3 7,-5 9,-7 1,-2 2,-4 2,-7 0,-3 -1,-5 -3,-7 -2,-2 -4,-3 -7,-3 -3,0 -5,1 -7,3 -2,2 -3,4 -3,7 0,1 0,3 1,4 1,1 2,3 3,4l5 5zm14 35l-18 -23c-5,3 -9,6 -11,9 -2,3 -3,6 -3,8 0,3 1,7 4,10 3,4 6,5 11,5 3,0 6,-1 9,-3 3,-2 6,-4 8,-7zm68 -53l0 -12 10 0 0 12 -10 0zm0 71l0 -60 10 0 0 60 -10 0zm26 0l0 -60 9 0 0 8c4,-7 11,-10 19,-10 4,0 7,1 10,2 3,1 5,3 7,5 1,2 3,5 3,7 0,2 1,5 1,10l0 37 -10 0 0 -36c0,-4 0,-7 -1,-9 -1,-2 -2,-4 -4,-5 -2,-1 -4,-2 -7,-2 -4,0 -8,1 -11,4 -3,3 -5,8 -5,16l0 33 -10 0zm64 -71l0 -12 10 0 0 12 -10 0zm-13 94l2 -9c2,1 4,1 5,1 2,0 4,-1 5,-2 1,-1 2,-5 2,-10l0 -63 10 0 0 63c0,7 -1,12 -3,15 -2,4 -6,6 -12,6 -3,0 -5,0 -8,-1zm79 -42l10 1c-2,6 -5,11 -9,14 -4,3 -10,5 -17,5 -9,0 -16,-3 -21,-8 -5,-5 -8,-13 -8,-23 0,-10 3,-18 8,-23 5,-6 12,-8 20,-8 8,0 14,3 20,8 5,5 8,13 8,23 0,1 0,1 0,3l-45 0c0,7 2,12 6,15 3,3 7,5 12,5 4,0 7,-1 9,-3 3,-2 5,-5 6,-9zm-33 -16l33 0c0,-5 -2,-9 -4,-11 -3,-4 -7,-6 -13,-6 -5,0 -9,2 -12,5 -3,3 -5,7 -5,12zm96 14l10 1c-1,7 -4,12 -8,16 -4,4 -10,6 -16,6 -8,0 -15,-3 -20,-8 -5,-5 -7,-13 -7,-23 0,-6 1,-12 3,-17 2,-5 5,-8 10,-11 4,-2 9,-4 14,-4 6,0 12,2 16,5 4,3 7,8 8,14l-10 1c-1,-4 -3,-7 -5,-9 -2,-2 -5,-3 -9,-3 -5,0 -9,2 -12,5 -3,4 -5,9 -5,17 0,8 2,14 5,17 3,4 7,5 12,5 4,0 7,-1 10,-4 3,-2 4,-6 5,-11zm41 13l1 9c-3,1 -5,1 -8,1 -4,0 -7,-1 -9,-2 -2,-1 -3,-3 -4,-5 -1,-2 -1,-6 -1,-12l0 -34 -7 0 0 -8 7 0 0 -15 10 -6 0 21 10 0 0 8 -10 0 0 35c0,3 0,5 1,6 0,1 1,1 2,2 1,0 2,1 3,1 1,0 3,0 4,0zm6 -58l3 -8c6,2 10,4 13,5 -1,-7 -1,-11 -1,-14l8 0c0,4 -1,8 -1,14 4,-2 8,-4 13,-5l3 8c-5,2 -9,3 -14,3 2,2 5,6 10,11l-7 5c-2,-3 -5,-7 -8,-12 -3,5 -5,9 -7,12l-7 -5c4,-5 7,-9 9,-11 -5,-1 -9,-2 -14,-3zm68 92c-6,-7 -10,-15 -14,-25 -4,-9 -6,-19 -6,-29 0,-9 1,-17 4,-26 3,-9 9,-19 16,-28l7 0c-5,8 -8,13 -9,17 -2,5 -4,11 -5,16 -2,7 -2,14 -2,21 0,18 6,36 17,54l-7 0zm26 0l-7 0c11,-18 17,-36 17,-54 0,-7 -1,-14 -2,-21 -1,-6 -3,-11 -5,-16 -1,-3 -4,-9 -9,-17l7 0c7,9 12,19 16,28 3,8 4,17 4,26 0,10 -2,20 -6,29 -4,9 -9,18 -14,25z"
   id="path102" />
  <g
   id="g106">
   <path
   class="fil0"
   d="M1409 4846l0 -124 16 0 0 124 -16 0zm8 56l-48 -112 3 1 3 1 3 1 3 1 3 1 3 1 3 1 3 1 3 1 3 1 3 1 3 0 3 0 3 0 3 0 3 0 3 0 3 0 3 0 3 0 3 0 3 -1 3 -1 3 -1 3 -1 3 -1 3 -1 3 -1 3 -1 3 -1 3 -1 3 -1 0 0 -48 112z"
   id="path104" />
  </g>
  <g
   id="g112"
   style="filter:url(#filter203)">
   <path
   class="fil5"
   d="M780 4472l1274 0c68,0 123,55 123,123l0 0c0,68 -55,123 -123,123l-1274 0c-68,0 -123,-55 -123,-123l0 0c0,-68 55,-123 123,-123z"
   id="path108" />
   <path
   id="path110"
   class="fil4"
   d="M2054 4479l-1274 0 0 -15 1274 0 0 0 0 15zm131 116l-15 0 0 0 0 -6 0 -6 -1 -6 -1 -6 -1 -6 -2 -5 -2 -5 -2 -5 -2 -5 -3 -5 -3 -5 -3 -5 -3 -5 -3 -4 -4 -4 -4 -4 -4 -4 -4 -4 -4 -3 -5 -3 -5 -3 -5 -3 -5 -3 -5 -2 -5 -2 -5 -2 -5 -2 -6 -1 -6 -1 -6 -1 -6 0 -6 0 0 -15 7 0 7 1 7 1 6 1 6 1 6 2 6 2 6 2 6 3 6 3 5 3 5 3 5 4 5 4 5 4 5 4 4 5 4 5 4 5 4 5 3 5 3 5 3 6 3 6 2 6 2 6 2 6 1 6 1 6 1 7 1 7 0 7 0 0zm-8 0l0 0 0 0 0 0 8 0 -8 0zm-123 131l0 -15 0 0 6 0 6 0 6 -1 6 -1 6 -1 5 -2 5 -2 5 -2 5 -2 5 -3 5 -3 5 -3 5 -3 4 -3 4 -4 4 -4 4 -4 4 -4 3 -4 3 -5 3 -5 3 -5 3 -5 2 -5 2 -5 2 -5 2 -5 1 -6 1 -6 1 -6 0 -6 0 -6 15 0 0 7 -1 7 -1 7 -1 6 -1 6 -2 6 -2 6 -2 6 -3 6 -3 6 -3 5 -3 5 -4 5 -4 5 -4 5 -4 5 -5 4 -5 4 -5 4 -5 4 -5 3 -5 3 -6 3 -6 3 -6 2 -6 2 -6 2 -6 1 -6 1 -7 1 -7 1 -7 0 0 0zm-1274 -15l1274 0 0 15 -1274 0 0 0 0 -15zm-131 -116l15 0 0 0 0 6 0 6 1 6 1 6 1 6 2 5 2 5 2 5 2 5 3 5 3 5 3 5 3 5 3 4 4 4 4 4 4 4 4 4 4 3 5 3 5 3 5 3 5 3 5 2 5 2 5 2 5 2 6 1 6 1 6 1 6 0 6 0 0 15 -7 0 -7 -1 -7 -1 -6 -1 -6 -1 -6 -2 -6 -2 -6 -2 -6 -3 -6 -3 -5 -3 -5 -3 -5 -4 -5 -4 -5 -4 -5 -4 -4 -5 -4 -5 -4 -5 -4 -5 -3 -5 -3 -5 -3 -6 -3 -6 -2 -6 -2 -6 -2 -6 -1 -6 -1 -6 -1 -7 -1 -7 0 -7 0 0zm8 0l0 0 0 0 0 0 -8 0 8 0zm123 -131l0 15 0 0 -6 0 -6 0 -6 1 -6 1 -6 1 -5 2 -5 2 -5 2 -5 2 -5 3 -5 3 -5 3 -5 3 -4 3 -4 4 -4 4 -4 4 -4 4 -3 4 -3 5 -3 5 -3 5 -3 5 -2 5 -2 5 -2 5 -2 5 -1 6 -1 6 -1 6 0 6 0 6 -15 0 0 -7 1 -7 1 -7 1 -6 1 -6 2 -6 2 -6 2 -6 3 -6 3 -6 3 -5 3 -5 4 -5 4 -5 4 -5 4 -5 5 -4 5 -4 5 -4 5 -4 5 -3 5 -3 6 -3 6 -3 6 -2 6 -2 6 -2 6 -1 6 -1 7 -1 7 -1 7 0 0 0z" />
  </g>
  <path
   class="fil0"
   d="M737 4650l0 -10c-5,-1 -9,-2 -12,-3 -3,-2 -6,-4 -8,-8 -2,-4 -4,-8 -4,-13l10 -2c1,5 2,9 4,12 3,4 6,6 10,6l0 -32c-4,-1 -8,-3 -13,-5 -3,-2 -6,-4 -7,-7 -2,-3 -3,-7 -3,-11 0,-7 3,-13 8,-18 3,-3 8,-5 15,-6l0 -5 6 0 0 5c6,1 11,2 14,5 4,4 7,9 8,15l-10 2c-1,-4 -2,-7 -4,-9 -2,-2 -4,-4 -8,-4l0 29c5,1 8,2 10,3 3,1 6,3 8,5 2,2 4,4 5,7 1,3 2,6 2,9 0,7 -2,13 -7,18 -4,5 -10,7 -17,8l0 10 -6 0zm0 -89c-4,1 -7,2 -9,5 -2,3 -3,6 -3,9 0,3 1,6 3,9 2,2 5,4 10,5l0 -28zm6 70c4,0 7,-2 10,-5 3,-3 4,-7 4,-11 0,-4 -1,-7 -3,-9 -2,-2 -5,-4 -11,-5l0 30zm33 -23c0,-11 3,-19 9,-25 5,-4 11,-7 19,-7 8,0 15,3 20,8 5,5 8,13 8,22 0,8 -1,14 -3,18 -2,4 -6,8 -10,10 -4,2 -9,4 -14,4 -8,0 -15,-3 -20,-8 -5,-5 -8,-13 -8,-23zm10 0c0,8 2,13 5,17 3,4 8,6 13,6 5,0 9,-2 13,-6 3,-4 5,-10 5,-17 0,-7 -2,-13 -5,-17 -3,-4 -8,-6 -13,-6 -5,0 -9,2 -13,6 -3,4 -5,9 -5,17zm58 30l0 -60 9 0 0 8c4,-7 11,-10 19,-10 4,0 7,1 10,2 3,1 5,3 7,5 1,2 3,5 3,7 0,2 1,5 1,10l0 37 -10 0 0 -36c0,-4 0,-7 -1,-9 -1,-2 -2,-4 -4,-5 -2,-1 -4,-2 -7,-2 -4,0 -8,1 -11,4 -3,3 -5,8 -5,16l0 33 -10 0zm62 -27l10 -1c0,4 2,8 3,10 2,3 5,5 8,6 4,2 8,2 13,2 4,0 8,-1 11,-2 3,-1 6,-3 7,-5 2,-2 2,-5 2,-7 0,-3 -1,-5 -2,-7 -1,-2 -4,-4 -7,-5 -2,-1 -7,-2 -15,-4 -8,-2 -13,-4 -16,-5 -4,-2 -7,-5 -9,-8 -2,-3 -3,-6 -3,-10 0,-4 1,-8 4,-12 2,-4 6,-6 10,-8 5,-2 10,-3 15,-3 6,0 12,1 16,3 5,2 8,5 11,9 3,4 4,8 4,13l-10 1c-1,-5 -2,-9 -6,-12 -3,-3 -8,-4 -14,-4 -7,0 -11,1 -14,4 -3,2 -5,5 -5,9 0,3 1,5 3,7 2,2 8,4 16,6 9,2 15,4 18,5 5,2 8,5 11,8 2,3 3,7 3,12 0,4 -1,9 -4,12 -3,4 -6,7 -11,9 -5,2 -10,3 -16,3 -7,0 -14,-1 -19,-3 -5,-2 -9,-5 -12,-10 -3,-4 -4,-9 -5,-15zm79 27l0 -83 10 0 0 30c5,-6 11,-8 18,-8 4,0 8,1 11,3 3,2 6,4 7,7 1,3 2,8 2,13l0 38 -10 0 0 -38c0,-5 -1,-9 -3,-11 -2,-2 -5,-3 -9,-3 -3,0 -6,1 -8,2 -3,2 -4,4 -6,6 -1,3 -2,6 -2,11l0 33 -10 0zm103 0l0 -9c-5,7 -11,10 -19,10 -4,0 -7,-1 -10,-2 -3,-1 -5,-3 -7,-5 -1,-2 -3,-5 -3,-8 0,-2 -1,-5 -1,-9l0 -37 10 0 0 33c0,5 0,9 1,11 1,3 2,5 4,6 2,2 5,2 8,2 3,0 6,-1 9,-2 3,-2 5,-4 6,-6 1,-3 2,-7 2,-12l0 -32 10 0 0 60 -9 0zm47 -9l1 9c-3,1 -5,1 -8,1 -4,0 -7,-1 -9,-2 -2,-1 -3,-3 -4,-5 -1,-2 -1,-6 -1,-12l0 -34 -7 0 0 -8 7 0 0 -15 10 -6 0 21 10 0 0 8 -10 0 0 35c0,3 0,5 1,6 0,1 1,1 2,2 1,0 2,1 3,1 1,0 3,0 4,0zm49 9l0 -8c-4,6 -9,9 -17,9 -5,0 -9,-1 -13,-4 -4,-3 -7,-6 -9,-11 -2,-5 -3,-10 -3,-16 0,-6 1,-11 3,-16 2,-5 5,-9 9,-11 4,-3 8,-4 13,-4 4,0 7,1 10,2 3,2 5,4 7,6l0 -30 10 0 0 83 -9 0zm-32 -30c0,8 2,13 5,17 3,4 7,6 11,6 4,0 8,-2 11,-5 3,-4 5,-9 5,-17 0,-8 -2,-14 -5,-18 -3,-4 -7,-6 -12,-6 -5,0 -8,2 -11,5 -3,4 -5,9 -5,17zm54 0c0,-11 3,-19 9,-25 5,-4 11,-7 19,-7 8,0 15,3 20,8 5,5 8,13 8,22 0,8 -1,14 -3,18 -2,4 -6,8 -10,10 -4,2 -9,4 -14,4 -8,0 -15,-3 -20,-8 -5,-5 -8,-13 -8,-23zm10 0c0,8 2,13 5,17 3,4 8,6 13,6 5,0 9,-2 13,-6 3,-4 5,-10 5,-17 0,-7 -2,-13 -5,-17 -3,-4 -8,-6 -13,-6 -5,0 -9,2 -13,6 -3,4 -5,9 -5,17zm68 30l-18 -60 11 0 10 35 3 13c0,-1 1,-5 3,-12l9 -35 10 0 9 35 3 11 3 -12 10 -35 10 0 -19 60 -10 0 -9 -36 -2 -10 -12 46 -11 0zm73 0l0 -60 9 0 0 8c4,-7 11,-10 19,-10 4,0 7,1 10,2 3,1 5,3 7,5 1,2 3,5 3,7 0,2 1,5 1,10l0 37 -10 0 0 -36c0,-4 0,-7 -1,-9 -1,-2 -2,-4 -4,-5 -2,-1 -4,-2 -7,-2 -4,0 -8,1 -11,4 -3,3 -5,8 -5,16l0 33 -10 0zm143 -10c-3,4 -7,6 -11,8 -4,2 -8,3 -13,3 -8,0 -15,-3 -20,-9 -4,-5 -6,-10 -6,-16 0,-5 2,-10 5,-14 3,-4 8,-8 15,-11 -4,-4 -6,-8 -7,-10 -1,-3 -2,-5 -2,-8 0,-5 2,-9 6,-13 4,-4 9,-5 15,-5 6,0 10,2 14,5 4,3 5,8 5,12 0,8 -5,15 -16,20l15 19c2,-3 3,-7 4,-11l10 2c-2,7 -4,13 -7,18 4,5 8,9 13,13l-7 8c-4,-3 -8,-6 -13,-12zm-21 -43c4,-3 7,-5 9,-7 1,-2 2,-4 2,-7 0,-3 -1,-5 -3,-7 -2,-2 -4,-3 -7,-3 -3,0 -5,1 -7,3 -2,2 -3,4 -3,7 0,1 0,3 1,4 1,1 2,3 3,4l5 5zm14 35l-18 -23c-5,3 -9,6 -11,9 -2,3 -3,6 -3,8 0,3 1,7 4,10 3,4 6,5 11,5 3,0 6,-1 9,-3 3,-2 6,-4 8,-7zm64 0l10 -2c1,4 2,7 5,9 3,2 6,3 11,3 5,0 8,-1 10,-3 2,-2 3,-4 3,-7 0,-2 -1,-4 -3,-5 -1,-1 -5,-2 -10,-3 -7,-2 -13,-3 -15,-5 -3,-1 -5,-3 -7,-6 -1,-2 -2,-5 -2,-8 0,-3 1,-5 2,-7 1,-2 3,-4 5,-6 2,-1 4,-2 6,-3 3,-1 6,-1 9,-1 5,0 9,1 12,2 4,1 6,3 8,5 2,2 3,5 3,9l-10 1c0,-3 -2,-6 -4,-7 -2,-2 -5,-3 -9,-3 -5,0 -8,1 -10,2 -2,2 -3,3 -3,5 0,1 0,3 1,4 1,1 2,2 4,3 1,0 4,1 9,3 7,2 12,3 15,5 3,1 5,3 7,5 2,2 2,5 2,9 0,3 -1,7 -3,10 -2,3 -5,5 -9,7 -4,2 -8,2 -13,2 -8,0 -14,-2 -18,-5 -4,-3 -7,-8 -8,-14zm62 18l0 -83 10 0 0 30c5,-6 11,-8 18,-8 4,0 8,1 11,3 3,2 6,4 7,7 1,3 2,8 2,13l0 38 -10 0 0 -38c0,-5 -1,-9 -3,-11 -2,-2 -5,-3 -9,-3 -3,0 -6,1 -8,2 -3,2 -4,4 -6,6 -1,3 -2,6 -2,11l0 33 -10 0zm103 0l0 -9c-5,7 -11,10 -19,10 -4,0 -7,-1 -10,-2 -3,-1 -5,-3 -7,-5 -1,-2 -3,-5 -3,-8 0,-2 -1,-5 -1,-9l0 -37 10 0 0 33c0,5 0,9 1,11 1,3 2,5 4,6 2,2 5,2 8,2 3,0 6,-1 9,-2 3,-2 5,-4 6,-6 1,-3 2,-7 2,-12l0 -32 10 0 0 60 -9 0zm47 -9l1 9c-3,1 -5,1 -8,1 -4,0 -7,-1 -9,-2 -2,-1 -3,-3 -4,-5 -1,-2 -1,-6 -1,-12l0 -34 -7 0 0 -8 7 0 0 -15 10 -6 0 21 10 0 0 8 -10 0 0 35c0,3 0,5 1,6 0,1 1,1 2,2 1,0 2,1 3,1 1,0 3,0 4,0zm49 9l0 -8c-4,6 -9,9 -17,9 -5,0 -9,-1 -13,-4 -4,-3 -7,-6 -9,-11 -2,-5 -3,-10 -3,-16 0,-6 1,-11 3,-16 2,-5 5,-9 9,-11 4,-3 8,-4 13,-4 4,0 7,1 10,2 3,2 5,4 7,6l0 -30 10 0 0 83 -9 0zm-32 -30c0,8 2,13 5,17 3,4 7,6 11,6 4,0 8,-2 11,-5 3,-4 5,-9 5,-17 0,-8 -2,-14 -5,-18 -3,-4 -7,-6 -12,-6 -5,0 -8,2 -11,5 -3,4 -5,9 -5,17zm54 0c0,-11 3,-19 9,-25 5,-4 11,-7 19,-7 8,0 15,3 20,8 5,5 8,13 8,22 0,8 -1,14 -3,18 -2,4 -6,8 -10,10 -4,2 -9,4 -14,4 -8,0 -15,-3 -20,-8 -5,-5 -8,-13 -8,-23zm10 0c0,8 2,13 5,17 3,4 8,6 13,6 5,0 9,-2 13,-6 3,-4 5,-10 5,-17 0,-7 -2,-13 -5,-17 -3,-4 -8,-6 -13,-6 -5,0 -9,2 -13,6 -3,4 -5,9 -5,17zm68 30l-18 -60 11 0 10 35 3 13c0,-1 1,-5 3,-12l9 -35 10 0 9 35 3 11 3 -12 10 -35 10 0 -19 60 -10 0 -9 -36 -2 -10 -12 46 -11 0zm73 0l0 -60 9 0 0 8c4,-7 11,-10 19,-10 4,0 7,1 10,2 3,1 5,3 7,5 1,2 3,5 3,7 0,2 1,5 1,10l0 37 -10 0 0 -36c0,-4 0,-7 -1,-9 -1,-2 -2,-4 -4,-5 -2,-1 -4,-2 -7,-2 -4,0 -8,1 -11,4 -3,3 -5,8 -5,16l0 33 -10 0zm84 24c-6,-7 -10,-15 -14,-25 -4,-9 -6,-19 -6,-29 0,-9 1,-17 4,-26 3,-9 9,-19 16,-28l7 0c-5,8 -8,13 -9,17 -2,5 -4,11 -5,16 -2,7 -2,14 -2,21 0,18 6,36 17,54l-7 0zm26 0l-7 0c11,-18 17,-36 17,-54 0,-7 -1,-14 -2,-21 -1,-6 -3,-11 -5,-16 -1,-3 -4,-9 -9,-17l7 0c7,9 12,19 16,28 3,8 4,17 4,26 0,10 -2,20 -6,29 -4,9 -9,18 -14,25z"
   id="path114" />
 </g>
</svg>
