<?xml version="1.0" encoding="UTF-8" standalone="no"?>
<svg
   xml:space="preserve"
   width="348px"
   height="540px"
   version="1.1"
   style="clip-rule:evenodd;fill-rule:evenodd;image-rendering:optimizeQuality;shape-rendering:geometricPrecision;text-rendering:geometricPrecision"
   viewBox="0 0 1778.2966 2758.8819"
   id="svg97"
   sodipodi:docname="lifecycle-component.svg"
   inkscape:version="1.1.1 (3bf5ae0d25, 2021-09-20)"
   xmlns:inkscape="http://www.inkscape.org/namespaces/inkscape"
   xmlns:sodipodi="http://sodipodi.sourceforge.net/DTD/sodipodi-0.dtd"
   xmlns="http://www.w3.org/2000/svg"
   xmlns:svg="http://www.w3.org/2000/svg"><sodipodi:namedview
   id="namedview99"
   pagecolor="#ffffff"
   bordercolor="#666666"
   borderopacity="1.0"
   inkscape:pageshadow="2"
   inkscape:pageopacity="0.0"
   inkscape:pagecheckerboard="0"
   inkscape:document-units="mm"
   showgrid="false" />
 <defs
   id="defs4"><style
     type="text/css"
     id="style2">
   <![CDATA[
    .str3 {stroke:#2B2A29;stroke-width:2.88181}
    .str0 {stroke:#2B2A29;stroke-width:2.88181}
    .str2 {stroke:#2B2A29;stroke-width:2.88181}
    .str1 {stroke:#2B2A29;stroke-width:2.88181}
    .fil9 {fill:none}
    .fil7 {fill:#FEFEFE}
    .fil4 {fill:whitesmoke}
    .fil8 {fill:#2B2A29}
    .fil3 {fill:#3484D2}
    .fil1 {fill:#AD9247}
    .fil5 {fill:#FEFEFE;fill-rule:nonzero}
    .fil6 {fill:#9D9E9E;fill-rule:nonzero}
    .fil2 {fill:#727271;fill-rule:nonzero}
    .fil0 {fill:#2B2A29;fill-rule:nonzero}
   ]]>
  </style><filter
     style="color-interpolation-filters:sRGB"
     inkscape:label="Drop Shadow"
     id="filter657"
     x="-0.28233288"
     y="-0.95485614"
     width="1.6030334"
     height="3.0444443"><feFlood
       flood-opacity="0.25098"
       flood-color="rgb(0,0,0)"
       result="flood"
       id="feFlood647" /><feComposite
       in="flood"
       in2="SourceGraphic"
       operator="in"
       result="composite1"
       id="feComposite649" /><feGaussianBlur
       in="composite1"
       stdDeviation="70.8185"
       result="blur"
       id="feGaussianBlur651" /><feOffset
       dx="23.0973"
       dy="23.9823"
       result="offset"
       id="feOffset653" /><feComposite
       in="SourceGraphic"
       in2="offset"
       operator="over"
       result="composite2"
       id="feComposite655" /></filter><filter
     style="color-interpolation-filters:sRGB"
     inkscape:label="Drop Shadow"
     id="filter669"
     x="-0.14415979"
     y="-0.69657538"
     width="1.3079102"
     height="2.4914389"><feFlood
       flood-opacity="0.25098"
       flood-color="rgb(0,0,0)"
       result="flood"
       id="feFlood659" /><feComposite
       in="flood"
       in2="SourceGraphic"
       operator="in"
       result="composite1"
       id="feComposite661" /><feGaussianBlur
       in="composite1"
       stdDeviation="70.8185"
       result="blur"
       id="feGaussianBlur663" /><feOffset
       dx="23.0973"
       dy="23.9823"
       result="offset"
       id="feOffset665" /><feComposite
       in="SourceGraphic"
       in2="offset"
       operator="over"
       result="composite2"
       id="feComposite667" /></filter><filter
     style="color-interpolation-filters:sRGB"
     inkscape:label="Drop Shadow"
     id="filter681"
     x="-0.17272804"
     y="-0.69657538"
     width="1.3689289"
     height="2.4914389"><feFlood
       flood-opacity="0.25098"
       flood-color="rgb(0,0,0)"
       result="flood"
       id="feFlood671" /><feComposite
       in="flood"
       in2="SourceGraphic"
       operator="in"
       result="composite1"
       id="feComposite673" /><feGaussianBlur
       in="composite1"
       stdDeviation="70.8185"
       result="blur"
       id="feGaussianBlur675" /><feOffset
       dx="23.0973"
       dy="23.9823"
       result="offset"
       id="feOffset677" /><feComposite
       in="SourceGraphic"
       in2="offset"
       operator="over"
       result="composite2"
       id="feComposite679" /></filter><filter
     style="color-interpolation-filters:sRGB"
     inkscape:label="Drop Shadow"
     id="filter693"
     x="-0.13673724"
     y="-0.69091216"
     width="1.2920564"
     height="2.4793134"><feFlood
       flood-opacity="0.25098"
       flood-color="rgb(0,0,0)"
       result="flood"
       id="feFlood683" /><feComposite
       in="flood"
       in2="SourceGraphic"
       operator="in"
       result="composite1"
       id="feComposite685" /><feGaussianBlur
       in="composite1"
       stdDeviation="70.8185"
       result="blur"
       id="feGaussianBlur687" /><feOffset
       dx="23.0973"
       dy="23.9823"
       result="offset"
       id="feOffset689" /><feComposite
       in="SourceGraphic"
       in2="offset"
       operator="over"
       result="composite2"
       id="feComposite691" /></filter><filter
     style="color-interpolation-filters:sRGB"
     inkscape:label="Drop Shadow"
     id="filter705"
     x="-0.27681497"
     y="-0.69657538"
     width="1.5912477"
     height="2.4914389"><feFlood
       flood-opacity="0.25098"
       flood-color="rgb(0,0,0)"
       result="flood"
       id="feFlood695" /><feComposite
       in="flood"
       in2="SourceGraphic"
       operator="in"
       result="composite1"
       id="feComposite697" /><feGaussianBlur
       in="composite1"
       stdDeviation="70.8185"
       result="blur"
       id="feGaussianBlur699" /><feOffset
       dx="23.0973"
       dy="23.9823"
       result="offset"
       id="feOffset701" /><feComposite
       in="SourceGraphic"
       in2="offset"
       operator="over"
       result="composite2"
       id="feComposite703" /></filter></defs>
 <g
   id="Layer_x0020_1"
   inkscape:label="Layer 1"
   inkscape:groupmode="layer"
   transform="translate(8.6424167,0.44090497)">
  <metadata
   id="CorelCorpID_0Corel-Layer" />
  <g
   id="g9">
   <path
   class="fil0"
   d="M 950,1150 V 818 h 11 v 332 z m 5,38 -32,-76 2,1 2,1 2,1 2,1 2,1 2,1 2,1 2,1 h 2 2 2 2 2 2 2 2 2 2 2 2 2 2 2 2 l 2,-1 2,-1 2,-1 2,-1 2,-1 2,-1 2,-1 2,-1 v 0 z"
   id="path7" />
  </g>
  <g
   id="g13">
   <path
   class="fil0"
   d="m 950,1731 v -357 h 11 v 357 z m 5,38 -32,-76 2,1 2,1 2,1 2,1 2,1 2,1 2,1 2,1 h 2 2 2 2 2 2 2 2 2 2 2 2 2 2 2 2 l 2,-1 2,-1 2,-1 2,-1 2,-1 2,-1 2,-1 2,-1 v 0 z"
   id="path11" />
  </g>
  <g
   id="g18"
   style="filter:url(#filter705)">
   <path
   class="fil1"
   d="m 769,2159 h 372 c 64,0 117,53 117,117 v 0 c 0,64 -53,117 -117,117 H 769 c -64,0 -117,-53 -117,-117 v 0 c 0,-64 53,-117 117,-117 z"
   id="path15" />
   <path
   id="1"
   class="fil2"
   d="M 1141,2164 H 769 v -10 h 372 v 0 z m 121,112 h -7 v 0 -6 -6 l -1,-5 -1,-5 -1,-5 -1,-5 -2,-5 -2,-5 -2,-5 -2,-5 -3,-5 -3,-5 -3,-4 -3,-4 -4,-4 -4,-4 -4,-4 -4,-4 -4,-3 -4,-3 -5,-3 -5,-3 -5,-3 -5,-2 -5,-2 -5,-2 -5,-2 -6,-1 -6,-1 -6,-1 h -6 -6 v -10 h 6 6 l 6,1 6,1 6,1 6,2 6,2 5,2 5,2 5,3 5,3 5,3 5,3 5,4 4,4 4,4 4,4 4,4 4,5 3,5 3,5 3,5 3,5 2,5 2,6 2,6 2,6 1,6 1,6 1,6 v 6 6 0 z m -7,0 v 0 h 7 v 0 0 z m -114,122 v -10 0 h 6 6 l 6,-1 6,-1 6,-1 5,-2 5,-2 5,-2 5,-2 5,-3 5,-3 5,-3 4,-3 4,-3 4,-4 4,-4 4,-4 4,-4 3,-4 3,-4 3,-5 3,-5 2,-5 2,-5 2,-5 2,-5 1,-5 1,-5 1,-5 1,-5 v -6 -6 h 7 v 6 6 l -1,6 -1,6 -1,6 -2,6 -2,6 -2,6 -2,5 -3,5 -3,5 -3,5 -3,5 -4,5 -4,4 -4,4 -4,4 -4,4 -5,4 -5,3 -5,3 -5,3 -5,3 -5,2 -5,2 -6,2 -6,2 -6,1 -6,1 -6,1 h -6 -6 v 0 z m -372,-10 h 372 v 10 H 769 v 0 z M 648,2276 h 7 v 0 6 6 l 1,5 1,5 1,5 1,5 2,5 2,5 2,5 2,5 3,5 3,5 3,4 3,4 4,4 4,4 4,4 4,4 4,3 4,3 5,3 5,3 5,3 5,2 5,2 5,2 5,2 6,1 6,1 6,1 h 6 6 v 10 h -6 -6 l -6,-1 -6,-1 -6,-1 -6,-2 -6,-2 -5,-2 -5,-2 -5,-3 -5,-3 -5,-3 -5,-3 -5,-4 -4,-4 -4,-4 -4,-4 -4,-4 -4,-5 -3,-5 -3,-5 -3,-5 -3,-5 -2,-5 -2,-6 -2,-6 -2,-6 -1,-6 -1,-6 -1,-6 v -6 -6 0 z m 7,0 v 0 h -7 v 0 0 z m 114,-122 v 10 0 h -6 -6 l -6,1 -6,1 -6,1 -5,2 -5,2 -5,2 -5,2 -5,3 -5,3 -5,3 -4,3 -4,3 -4,4 -4,4 -4,4 -4,4 -3,4 -3,4 -3,5 -3,5 -2,5 -2,5 -2,5 -2,5 -1,5 -1,5 -1,5 -1,5 v 6 6 h -7 v -6 -6 l 1,-6 1,-6 1,-6 2,-6 2,-6 2,-6 2,-5 3,-5 3,-5 3,-5 3,-5 4,-5 4,-4 4,-4 4,-4 4,-4 5,-4 5,-3 5,-3 5,-3 5,-3 5,-2 5,-2 6,-2 6,-2 6,-1 6,-1 6,-1 h 6 6 v 0 z" />
  </g>
  <g
   id="g24"
   style="filter:url(#filter681)">
   <path
   class="fil3"
   d="m 586,1186 h 738 c 64,0 117,53 117,117 v 0 c 0,64 -53,117 -117,117 H 586 c -64,0 -117,-53 -117,-117 v 0 c 0,-64 53,-117 117,-117 z"
   id="path20" />
   <path
   id="path22"
   class="fil2"
   d="M 1324,1191 H 586 v -10 h 738 v 0 z m 122,112 h -10 v 0 -6 -6 l -1,-6 -1,-5 -1,-5 -2,-5 -2,-5 -2,-5 -2,-5 -2,-5 -3,-5 -3,-5 -3,-4 -3,-4 -4,-4 -4,-4 -4,-4 -4,-4 -4,-3 -4,-3 -5,-3 -5,-3 -5,-2 -5,-2 -5,-2 -5,-2 -5,-2 -5,-1 -6,-1 -6,-1 h -6 -6 v -10 h 6 6 l 6,1 6,1 6,1 6,2 6,2 6,2 5,2 5,3 5,3 5,3 5,3 5,4 4,4 4,4 4,4 4,4 4,5 3,5 3,5 3,5 3,5 2,5 2,6 2,6 2,6 1,6 1,6 1,6 v 6 6 0 z m -5,0 v 0 0 0 h 5 z m -117,122 v -10 0 h 6 6 l 6,-1 6,-1 5,-1 5,-2 5,-2 5,-2 5,-2 5,-2 5,-3 5,-3 4,-3 4,-3 4,-4 4,-4 4,-4 4,-4 3,-4 3,-4 3,-5 3,-5 2,-5 2,-5 2,-5 2,-5 2,-5 1,-5 1,-5 1,-6 v -6 -6 h 10 v 6 6 l -1,6 -1,6 -1,6 -2,6 -2,6 -2,6 -2,5 -3,5 -3,5 -3,5 -3,5 -4,5 -4,4 -4,4 -4,4 -4,4 -5,4 -5,3 -5,3 -5,3 -5,3 -5,2 -6,2 -6,2 -6,2 -6,1 -6,1 -6,1 h -6 -6 v 0 z m -738,-10 h 738 v 10 H 586 v 0 z M 464,1303 h 10 v 0 6 6 l 1,6 1,5 1,5 2,5 2,5 2,5 2,5 2,5 3,5 3,5 3,4 3,4 4,4 4,4 4,4 4,4 4,3 4,3 5,3 5,3 5,2 5,2 5,2 5,2 5,2 5,1 6,1 6,1 h 6 6 v 10 h -6 -6 l -6,-1 -6,-1 -6,-1 -6,-2 -6,-2 -6,-2 -5,-2 -5,-3 -5,-3 -5,-3 -5,-3 -5,-4 -4,-4 -4,-4 -4,-4 -4,-4 -4,-5 -3,-5 -3,-5 -3,-5 -3,-5 -2,-5 -2,-6 -2,-6 -2,-6 -1,-6 -1,-6 -1,-6 v -6 -6 0 z m 5,0 v 0 0 0 h -5 z m 117,-122 v 10 0 h -6 -6 l -6,1 -6,1 -5,1 -5,2 -5,2 -5,2 -5,2 -5,2 -5,3 -5,3 -4,3 -4,3 -4,4 -4,4 -4,4 -4,4 -3,4 -3,4 -3,5 -3,5 -2,5 -2,5 -2,5 -2,5 -2,5 -1,5 -1,5 -1,6 v 6 6 h -10 v -6 -6 l 1,-6 1,-6 1,-6 2,-6 2,-6 2,-6 2,-5 3,-5 3,-5 3,-5 3,-5 4,-5 4,-4 4,-4 4,-4 4,-4 5,-4 5,-3 5,-3 5,-3 5,-3 5,-2 6,-2 6,-2 6,-2 6,-1 6,-1 6,-1 h 6 6 v 0 z" />
  </g>
  <g
   id="g28">
   <path
   class="fil0"
   d="m 950,2125 v -147 h 11 v 147 z m 5,38 -32,-76 2,1 2,1 2,1 2,1 2,1 2,1 2,1 2,1 h 2 2 2 2 2 2 2 2 2 2 2 2 2 2 2 2 l 2,-1 2,-1 2,-1 2,-1 2,-1 2,-1 2,-1 2,-1 v 0 z"
   id="path26" />
  </g>
  <g
   id="g34"
   style="filter:url(#filter693)">
   <path
   class="fil4"
   d="m 455,1769 h 1001 c 64,0 117,53 117,117 v 0 c 0,64 -53,117 -117,117 H 455 c -64,0 -117,-53 -117,-117 v 0 c 0,-64 53,-117 117,-117 z"
   id="path30" />
   <path
   id="path32"
   class="fil2"
   d="M 1456,1774 H 455 v -10 h 1001 v 0 z m 121,112 h -8 v 0 -6 -6 l -1,-6 -1,-5 -1,-5 -2,-5 -2,-5 -2,-5 -2,-5 -2,-5 -3,-5 -3,-5 -3,-4 -3,-4 -4,-4 -4,-4 -4,-4 -4,-4 -4,-3 -4,-3 -5,-3 -5,-3 -5,-3 -5,-2 -5,-2 -5,-2 -5,-2 -5,-1 -6,-1 -6,-1 h -6 -6 v -10 h 6 6 l 6,1 6,1 6,1 6,2 6,2 5,2 5,2 5,3 5,3 5,3 5,3 5,4 4,4 4,4 4,4 4,4 4,5 3,5 3,5 3,5 3,5 2,5 2,6 2,6 2,6 1,6 1,6 1,6 v 6 6 0 z m -4,0 v 0 0 0 h 4 z m -117,122 v -10 0 h 6 6 l 6,-1 6,-1 5,-1 5,-2 5,-2 5,-2 5,-2 5,-3 5,-3 5,-3 4,-3 4,-3 4,-4 4,-4 4,-4 4,-4 3,-4 3,-4 3,-5 3,-5 2,-5 2,-5 2,-5 2,-5 2,-5 1,-5 1,-5 1,-6 v -6 -6 h 8 v 6 6 l -1,6 -1,6 -1,6 -2,6 -2,6 -2,6 -2,5 -3,5 -3,5 -3,5 -3,5 -4,5 -4,4 -4,4 -4,4 -4,4 -5,4 -5,3 -5,3 -5,3 -5,3 -5,2 -5,2 -6,2 -6,2 -6,1 -6,1 -6,1 h -6 -6 v 0 z M 455,1998 h 1001 v 10 H 455 v 0 z M 334,1886 h 8 v 0 6 6 l 1,6 1,5 1,5 2,5 2,5 2,5 2,5 2,5 3,5 3,5 3,4 3,4 4,4 4,4 4,4 4,4 4,3 4,3 5,3 5,3 5,3 5,2 5,2 5,2 5,2 5,1 6,1 6,1 h 6 6 v 10 h -6 -6 l -6,-1 -6,-1 -6,-1 -6,-2 -6,-2 -5,-2 -5,-2 -5,-3 -5,-3 -5,-3 -5,-3 -5,-4 -4,-4 -4,-4 -4,-4 -4,-4 -4,-5 -3,-5 -3,-5 -3,-5 -3,-5 -2,-5 -2,-6 -2,-6 -2,-6 -1,-6 -1,-6 -1,-6 v -6 -6 0 z m 4,0 v 0 0 0 h -4 z m 117,-122 v 10 0 h -6 -6 l -6,1 -6,1 -5,1 -5,2 -5,2 -5,2 -5,2 -5,3 -5,3 -5,3 -4,3 -4,3 -4,4 -4,4 -4,4 -4,4 -3,4 -3,4 -3,5 -3,5 -2,5 -2,5 -2,5 -2,5 -2,5 -1,5 -1,5 -1,6 v 6 6 h -8 v -6 -6 l 1,-6 1,-6 1,-6 2,-6 2,-6 2,-6 2,-5 3,-5 3,-5 3,-5 3,-5 4,-5 4,-4 4,-4 4,-4 4,-4 5,-4 5,-3 5,-3 5,-3 5,-3 5,-2 5,-2 6,-2 6,-2 6,-1 6,-1 6,-1 h 6 6 v 0 z" />
  </g>
  <g
   id="g38">
   <path
   class="fil0"
   d="M 950,556 V 409 h 11 v 147 z m 5,38 -32,-76 2,1 2,1 2,1 2,1 2,1 2,1 2,1 2,1 h 2 2 2 2 2 2 2 2 2 2 2 2 2 2 2 2 l 2,-1 2,-1 2,-1 2,-1 2,-1 2,-1 2,-1 2,-1 v 0 z"
   id="path36" />
  </g>
  <g
   id="g42">
   <path
   class="fil0"
   d="m 950,2589 v -192 h 11 v 192 z m 5,38 -32,-76 2,1 2,1 2,1 2,1 2,1 2,1 2,1 2,1 h 2 2 2 2 2 2 2 2 2 2 2 2 2 2 2 2 l 2,-1 2,-1 2,-1 2,-1 2,-1 2,-1 2,-1 2,-1 v 0 z"
   id="path40" />
  </g>
  <g
   id="g48"
   style="filter:url(#filter669)">
   <path
   class="fil4"
   d="m 489,595 h 933 c 64,0 117,53 117,117 v 0 c 0,64 -53,117 -117,117 H 489 C 425,829 372,776 372,712 v 0 c 0,-64 53,-117 117,-117 z"
   id="path44" />
   <path
   id="path46"
   class="fil2"
   d="M 1422,600 H 489 v -10 h 933 v 0 z m 122,112 h -10 v 0 -6 -6 l -1,-6 -1,-5 -1,-5 -2,-5 -2,-5 -2,-5 -2,-5 -2,-5 -3,-5 -3,-5 -3,-4 -3,-4 -4,-4 -4,-4 -4,-4 -4,-4 -4,-3 -4,-3 -5,-3 -5,-3 -5,-2 -5,-2 -5,-2 -5,-2 -5,-2 -5,-1 -6,-1 -6,-1 h -6 -6 v -10 h 6 6 l 6,1 6,1 6,1 6,2 6,2 6,2 5,2 5,3 5,3 5,3 5,3 5,4 4,4 4,4 4,4 4,4 4,5 3,5 3,5 3,5 3,5 2,5 2,6 2,6 2,6 1,6 1,6 1,6 v 6 6 0 z m -5,0 v 0 0 0 h 5 z m -117,122 v -10 0 h 6 6 l 6,-1 6,-1 5,-1 5,-2 5,-2 5,-2 5,-2 5,-2 5,-3 5,-3 4,-3 4,-3 4,-4 4,-4 4,-4 4,-4 3,-4 3,-4 3,-5 3,-5 2,-5 2,-5 2,-5 2,-5 2,-5 1,-5 1,-5 1,-6 v -6 -6 h 10 v 6 6 l -1,6 -1,6 -1,6 -2,6 -2,6 -2,6 -2,5 -3,5 -3,5 -3,5 -3,5 -4,5 -4,4 -4,4 -4,4 -4,4 -5,4 -5,3 -5,3 -5,3 -5,3 -5,2 -6,2 -6,2 -6,2 -6,1 -6,1 -6,1 h -6 -6 v 0 z M 489,824 h 933 v 10 H 489 v 0 z M 367,712 h 10 v 0 6 6 l 1,6 1,5 1,5 2,5 2,5 2,5 2,5 2,5 3,5 3,5 3,4 3,4 4,4 4,4 4,4 4,4 4,3 4,3 5,3 5,3 5,2 5,2 5,2 5,2 5,2 5,1 6,1 6,1 h 6 6 v 10 h -6 -6 l -6,-1 -6,-1 -6,-1 -6,-2 -6,-2 -6,-2 -5,-2 -5,-3 -5,-3 -5,-3 -5,-3 -5,-4 -4,-4 -4,-4 -4,-4 -4,-4 -4,-5 -3,-5 -3,-5 -3,-5 -3,-5 -2,-5 -2,-6 -2,-6 -2,-6 -1,-6 -1,-6 -1,-6 v -6 -6 0 z m 5,0 v 0 0 0 h -5 z M 489,590 v 10 0 h -6 -6 l -6,1 -6,1 -5,1 -5,2 -5,2 -5,2 -5,2 -5,2 -5,3 -5,3 -4,3 -4,3 -4,4 -4,4 -4,4 -4,4 -3,4 -3,4 -3,5 -3,5 -2,5 -2,5 -2,5 -2,5 -2,5 -1,5 -1,5 -1,6 v 6 6 h -10 v -6 -6 l 1,-6 1,-6 1,-6 2,-6 2,-6 2,-6 2,-5 3,-5 3,-5 3,-5 3,-5 4,-5 4,-4 4,-4 4,-4 4,-4 5,-4 5,-3 5,-3 5,-3 5,-3 5,-2 6,-2 6,-2 6,-2 6,-1 6,-1 6,-1 h 6 6 v 0 z" />
  </g>
  <path
   class="fil0"
   d="m 479,751 v -79 h 10 v 79 z m 21,-28 c 0,-11 3,-18 9,-23 5,-4 11,-6 18,-6 8,0 14,3 19,8 5,5 7,12 7,21 0,7 -1,13 -3,17 -2,4 -5,7 -10,10 -4,2 -9,3 -14,3 -8,0 -14,-3 -19,-8 -5,-5 -7,-12 -7,-22 z m 10,0 c 0,7 2,13 5,16 3,4 7,5 12,5 5,0 9,-2 12,-5 3,-4 5,-9 5,-17 0,-7 -2,-12 -5,-16 -3,-4 -7,-5 -12,-5 -5,0 -9,2 -12,5 -3,4 -5,9 -5,16 z m 92,21 c -4,3 -7,5 -10,6 -3,1 -7,2 -11,2 -6,0 -11,-2 -14,-5 -3,-3 -5,-7 -5,-12 0,-3 1,-5 2,-8 1,-2 3,-4 5,-6 2,-1 4,-2 7,-3 2,0 5,-1 9,-1 8,-1 14,-2 17,-3 0,-1 0,-2 0,-3 0,-4 -1,-7 -3,-8 -2,-2 -6,-3 -11,-3 -5,0 -8,1 -10,2 -2,2 -4,4 -5,8 l -9,-1 c 1,-4 2,-7 4,-10 2,-2 5,-4 9,-6 4,-1 8,-2 13,-2 5,0 9,1 12,2 3,1 5,3 7,4 1,2 2,4 3,7 0,2 0,5 0,9 v 13 c 0,9 0,15 1,17 0,2 1,5 2,7 h -10 c -1,-2 -2,-4 -2,-7 z m -1,-21 c -4,1 -9,3 -16,4 -4,1 -7,1 -8,2 -2,1 -3,2 -4,3 -1,1 -1,3 -1,5 0,3 1,5 3,6 2,2 5,3 9,3 4,0 7,-1 10,-2 3,-2 5,-4 6,-7 1,-2 2,-5 2,-10 v -4 z m 61,29 v -7 c -4,6 -9,8 -16,8 -5,0 -9,-1 -13,-4 -4,-2 -7,-6 -9,-10 -2,-4 -3,-10 -3,-15 0,-6 1,-11 3,-15 2,-5 5,-8 9,-11 4,-2 8,-4 13,-4 3,0 6,1 9,2 3,1 5,3 7,6 v -28 h 10 v 79 h -9 z m -31,-28 c 0,7 2,13 5,16 3,4 7,5 11,5 4,0 8,-2 11,-5 3,-3 4,-9 4,-16 0,-8 -2,-13 -5,-17 -3,-4 -7,-5 -11,-5 -4,0 -8,2 -11,5 -3,3 -4,9 -4,17 z m 53,3 10,-1 c 0,4 2,7 3,10 2,3 4,5 8,6 4,2 8,2 12,2 4,0 7,-1 11,-2 3,-1 5,-3 7,-5 1,-2 2,-4 2,-7 0,-2 -1,-5 -2,-6 -1,-2 -4,-3 -7,-5 -2,-1 -7,-2 -14,-4 -7,-2 -12,-3 -15,-5 -4,-2 -7,-4 -8,-7 -2,-3 -3,-6 -3,-10 0,-4 1,-8 3,-11 2,-3 6,-6 10,-8 4,-2 9,-3 14,-3 6,0 11,1 15,3 4,2 8,5 10,8 2,4 4,8 4,12 l -10,1 c -1,-5 -2,-9 -5,-11 -3,-3 -8,-4 -14,-4 -6,0 -11,1 -14,3 -3,2 -4,5 -4,8 0,3 1,5 3,7 2,2 7,4 16,6 8,2 14,4 17,5 5,2 8,5 10,8 2,3 3,7 3,11 0,4 -1,8 -4,12 -2,4 -6,7 -10,9 -4,2 -10,3 -15,3 -7,0 -13,-1 -18,-3 -5,-2 -9,-5 -11,-9 -3,-4 -4,-9 -4,-14 z m 96,17 1,9 c -3,1 -5,1 -7,1 -3,0 -6,-1 -8,-2 -2,-1 -3,-3 -4,-4 -1,-2 -1,-6 -1,-11 v -33 h -7 v -7 h 7 v -14 l 10,-6 v 20 h 10 v 7 h -10 v 33 c 0,3 0,5 1,5 0,1 1,1 2,2 1,0 2,1 3,1 1,0 2,0 4,0 z m 47,1 c -4,3 -7,5 -10,6 -3,1 -7,2 -11,2 -6,0 -11,-2 -14,-5 -3,-3 -5,-7 -5,-12 0,-3 1,-5 2,-8 1,-2 3,-4 5,-6 2,-1 4,-2 7,-3 2,0 5,-1 9,-1 8,-1 14,-2 17,-3 0,-1 0,-2 0,-3 0,-4 -1,-7 -3,-8 -2,-2 -6,-3 -11,-3 -5,0 -8,1 -10,2 -2,2 -4,4 -5,8 l -9,-1 c 1,-4 2,-7 4,-10 2,-2 5,-4 9,-6 4,-1 8,-2 13,-2 5,0 9,1 12,2 3,1 5,3 7,4 1,2 2,4 3,7 0,2 0,5 0,9 v 13 c 0,9 0,15 1,17 0,2 1,5 2,7 h -10 c -1,-2 -2,-4 -2,-7 z m -1,-21 c -4,1 -9,3 -16,4 -4,1 -7,1 -8,2 -2,1 -3,2 -4,3 -1,1 -1,3 -1,5 0,3 1,5 3,6 2,2 5,3 9,3 4,0 7,-1 10,-2 3,-2 5,-4 6,-7 1,-2 2,-5 2,-10 v -4 z m 46,20 1,9 c -3,1 -5,1 -7,1 -3,0 -6,-1 -8,-2 -2,-1 -3,-3 -4,-4 -1,-2 -1,-6 -1,-11 v -33 h -7 v -7 h 7 v -14 l 10,-6 v 20 h 10 v 7 h -10 v 33 c 0,3 0,5 1,5 0,1 1,1 2,2 1,0 2,1 3,1 1,0 2,0 4,0 z m 48,-10 10,1 c -2,6 -4,10 -9,14 -4,3 -10,5 -16,5 -8,0 -15,-3 -20,-8 -5,-5 -7,-12 -7,-22 0,-10 2,-17 7,-22 5,-5 11,-8 19,-8 8,0 14,3 19,8 5,5 7,12 7,22 0,1 0,1 0,3 h -42 c 0,6 2,11 5,14 3,3 7,5 12,5 4,0 7,-1 9,-3 3,-2 4,-5 6,-9 z m -32,-15 h 32 c 0,-5 -2,-8 -4,-11 -3,-4 -7,-6 -12,-6 -4,0 -8,1 -11,4 -3,3 -5,7 -5,12 z m 72,57 c -5,-7 -10,-15 -13,-24 -4,-9 -6,-18 -6,-28 0,-9 1,-17 4,-24 3,-9 8,-18 15,-27 h 7 c -4,7 -7,13 -9,16 -2,5 -4,10 -5,15 -2,7 -2,13 -2,20 0,17 5,34 16,52 z m 38,-12 v -10 c -5,-1 -9,-2 -12,-3 -3,-2 -6,-4 -8,-8 -2,-3 -3,-8 -4,-13 l 10,-2 c 1,5 2,9 4,11 3,3 6,5 10,6 v -30 c -4,-1 -8,-3 -12,-5 -3,-2 -5,-4 -7,-7 -2,-3 -2,-6 -2,-10 0,-7 2,-12 7,-17 3,-3 8,-5 14,-5 v -5 h 6 v 5 c 6,1 10,2 13,5 4,4 7,8 8,14 l -10,2 c -1,-4 -2,-7 -4,-9 -2,-2 -4,-3 -7,-4 v 28 c 5,1 8,2 10,3 3,1 5,3 7,5 2,2 3,4 4,7 1,3 2,5 2,8 0,7 -2,12 -6,17 -4,4 -10,7 -16,7 v 10 h -6 z m 0,-85 c -4,1 -7,2 -9,5 -2,2 -3,5 -3,9 0,3 1,6 3,8 2,2 5,4 9,5 v -26 z m 6,67 c 4,0 7,-2 9,-5 2,-3 4,-6 4,-10 0,-4 -1,-6 -3,-8 -2,-2 -5,-4 -10,-5 v 29 z m 35,28 v -79 h 9 v 7 c 2,-3 4,-5 7,-7 3,-1 6,-2 9,-2 5,0 9,1 13,4 4,2 7,6 8,11 2,5 3,10 3,15 0,6 -1,11 -3,16 -2,5 -5,8 -9,11 -4,2 -8,4 -13,4 -3,0 -6,-1 -9,-2 -3,-1 -5,-3 -6,-5 v 28 h -10 z m 9,-50 c 0,7 1,13 4,16 3,3 7,5 11,5 4,0 8,-2 11,-5 3,-4 5,-9 5,-17 0,-7 -1,-13 -4,-16 -3,-4 -7,-5 -11,-5 -4,0 -8,2 -11,6 -3,4 -5,9 -5,17 z m 90,21 c -4,3 -7,5 -10,6 -3,1 -7,2 -11,2 -6,0 -11,-2 -14,-5 -3,-3 -5,-7 -5,-12 0,-3 1,-5 2,-8 1,-2 3,-4 5,-6 2,-1 4,-2 7,-3 2,0 5,-1 9,-1 8,-1 14,-2 17,-3 0,-1 0,-2 0,-3 0,-4 -1,-7 -3,-8 -2,-2 -6,-3 -11,-3 -5,0 -8,1 -10,2 -2,2 -4,4 -5,8 l -9,-1 c 1,-4 2,-7 4,-10 2,-2 5,-4 9,-6 4,-1 8,-2 13,-2 5,0 9,1 12,2 3,1 5,3 7,4 1,2 2,4 3,7 0,2 0,5 0,9 v 13 c 0,9 0,15 1,17 0,2 1,5 2,7 h -10 c -1,-2 -2,-4 -2,-7 z m -1,-21 c -4,1 -9,3 -16,4 -4,1 -7,1 -8,2 -2,1 -3,2 -4,3 -1,1 -1,3 -1,5 0,3 1,5 3,6 2,2 5,3 9,3 4,0 7,-1 10,-2 3,-2 5,-4 6,-7 1,-2 2,-5 2,-10 v -4 z m 25,29 v -57 h 9 v 9 c 2,-4 4,-7 6,-8 2,-1 4,-2 6,-2 3,0 7,1 10,3 l -3,9 c -2,-1 -5,-2 -7,-2 -2,0 -4,1 -6,2 -2,1 -3,3 -4,5 -1,3 -2,7 -2,11 v 30 h -10 z m 74,-7 c -4,3 -7,5 -10,6 -3,1 -7,2 -11,2 -6,0 -11,-2 -14,-5 -3,-3 -5,-7 -5,-12 0,-3 1,-5 2,-8 1,-2 3,-4 5,-6 2,-1 4,-2 7,-3 2,0 5,-1 9,-1 8,-1 14,-2 17,-3 0,-1 0,-2 0,-3 0,-4 -1,-7 -3,-8 -2,-2 -6,-3 -11,-3 -5,0 -8,1 -10,2 -2,2 -4,4 -5,8 l -9,-1 c 1,-4 2,-7 4,-10 2,-2 5,-4 9,-6 4,-1 8,-2 13,-2 5,0 9,1 12,2 3,1 5,3 7,4 1,2 2,4 3,7 0,2 0,5 0,9 v 13 c 0,9 0,15 1,17 0,2 1,5 2,7 h -10 c -1,-2 -2,-4 -2,-7 z m -1,-21 c -4,1 -9,3 -16,4 -4,1 -7,1 -8,2 -2,1 -3,2 -4,3 -1,1 -1,3 -1,5 0,3 1,5 3,6 2,2 5,3 9,3 4,0 7,-1 10,-2 3,-2 5,-4 6,-7 1,-2 2,-5 2,-10 v -4 z m 25,29 v -57 h 9 v 8 c 2,-3 4,-5 7,-7 3,-2 6,-3 10,-3 4,0 8,1 10,3 3,2 5,4 6,7 5,-7 10,-10 18,-10 6,0 10,2 13,5 3,3 5,8 5,14 v 39 h -10 v -36 c 0,-4 0,-7 -1,-8 -1,-2 -2,-3 -3,-4 -2,-1 -4,-2 -6,-2 -4,0 -7,1 -10,4 -3,3 -4,7 -4,13 v 33 h -10 v -37 c 0,-4 -1,-8 -2,-10 -2,-2 -4,-3 -8,-3 -3,0 -5,1 -8,2 -2,1 -4,4 -5,6 -1,3 -2,7 -2,12 v 30 h -10 z m 88,-17 10,-2 c 1,4 2,7 4,9 2,2 6,3 10,3 4,0 8,-1 10,-3 2,-2 3,-4 3,-6 0,-2 -1,-4 -3,-5 -1,-1 -5,-2 -10,-3 -7,-2 -12,-3 -15,-5 -3,-1 -5,-3 -6,-5 -1,-2 -2,-5 -2,-8 0,-3 1,-5 2,-7 1,-2 3,-4 5,-5 1,-1 4,-2 6,-3 3,-1 5,-1 8,-1 4,0 8,1 12,2 3,1 6,3 7,5 2,2 3,5 3,9 l -9,1 c 0,-3 -2,-5 -4,-7 -2,-2 -5,-2 -9,-2 -4,0 -8,1 -9,2 -2,1 -3,3 -3,5 0,1 0,2 1,3 1,1 2,2 4,3 1,0 4,1 9,2 7,2 12,3 14,4 3,1 5,3 6,5 2,2 2,5 2,8 0,3 -1,6 -3,9 -2,3 -5,5 -8,7 -4,2 -8,2 -12,2 -7,0 -13,-2 -17,-5 -4,-3 -6,-8 -7,-14 z m 65,40 h -7 c 11,-17 16,-34 16,-52 0,-7 -1,-13 -2,-20 -1,-5 -3,-11 -5,-15 -1,-3 -4,-9 -9,-16 h 7 c 7,9 12,18 15,27 3,8 4,16 4,24 0,10 -2,19 -6,28 -4,9 -8,17 -13,24 z"
   id="path50" />
  <path
   class="fil0"
   d="m 428,1908 10,-2 c 1,4 2,7 4,9 2,2 6,3 10,3 4,0 8,-1 10,-3 2,-2 3,-4 3,-6 0,-2 -1,-4 -3,-5 -1,-1 -5,-2 -10,-3 -7,-2 -12,-3 -15,-5 -3,-1 -5,-3 -6,-5 -1,-2 -2,-5 -2,-8 0,-3 1,-5 2,-7 1,-2 3,-4 5,-5 1,-1 4,-2 6,-3 3,-1 5,-1 8,-1 4,0 8,1 12,2 3,1 6,3 7,5 2,2 3,5 3,9 l -9,1 c 0,-3 -2,-5 -4,-7 -2,-2 -5,-2 -9,-2 -4,0 -8,1 -9,2 -2,1 -3,3 -3,5 0,1 0,2 1,3 1,1 2,2 4,3 1,0 4,1 9,2 7,2 12,3 14,4 3,1 5,3 6,5 2,2 2,5 2,8 0,3 -1,6 -3,9 -2,3 -5,5 -8,7 -4,2 -8,2 -12,2 -7,0 -13,-2 -17,-5 -4,-3 -6,-8 -7,-14 z m 96,10 c -4,3 -7,5 -10,6 -3,1 -7,2 -11,2 -6,0 -11,-2 -14,-5 -3,-3 -5,-7 -5,-12 0,-3 1,-5 2,-8 1,-2 3,-4 5,-6 2,-1 4,-2 7,-3 2,0 5,-1 9,-1 8,-1 14,-2 17,-3 0,-1 0,-2 0,-3 0,-4 -1,-7 -3,-8 -2,-2 -6,-3 -11,-3 -5,0 -8,1 -10,2 -2,2 -4,4 -5,8 l -9,-1 c 1,-4 2,-7 4,-10 2,-2 5,-4 9,-6 4,-1 8,-2 13,-2 5,0 9,1 12,2 3,1 5,3 7,4 1,2 2,4 3,7 0,2 0,5 0,9 v 13 c 0,9 0,15 1,17 0,2 1,5 2,7 h -10 c -1,-2 -2,-4 -2,-7 z m -1,-21 c -4,1 -9,3 -16,4 -4,1 -7,1 -8,2 -2,1 -3,2 -4,3 -1,1 -1,3 -1,5 0,3 1,5 3,6 2,2 5,3 9,3 4,0 7,-1 10,-2 3,-2 5,-4 6,-7 1,-2 2,-5 2,-10 v -4 z m 40,29 -22,-57 h 10 l 12,34 c 1,4 3,8 4,11 1,-3 2,-7 4,-11 l 13,-35 h 10 l -22,57 h -9 z m 78,-18 10,1 c -2,6 -4,10 -9,14 -4,3 -10,5 -16,5 -8,0 -15,-3 -20,-8 -5,-5 -7,-12 -7,-22 0,-10 2,-17 7,-22 5,-5 11,-8 19,-8 8,0 14,3 19,8 5,5 7,12 7,22 0,1 0,1 0,3 h -42 c 0,6 2,11 5,14 3,3 7,5 12,5 4,0 7,-1 9,-3 3,-2 4,-5 6,-9 z m -32,-15 h 32 c 0,-5 -2,-8 -4,-11 -3,-4 -7,-6 -12,-6 -4,0 -8,1 -11,4 -3,3 -5,7 -5,12 z m 52,9 10,-1 c 0,4 2,7 3,10 2,3 4,5 8,6 4,2 8,2 12,2 4,0 7,-1 11,-2 3,-1 5,-3 7,-5 1,-2 2,-4 2,-7 0,-2 -1,-5 -2,-6 -1,-2 -4,-3 -7,-5 -2,-1 -7,-2 -14,-4 -7,-2 -12,-3 -15,-5 -4,-2 -7,-4 -8,-7 -2,-3 -3,-6 -3,-10 0,-4 1,-8 3,-11 2,-3 6,-6 10,-8 4,-2 9,-3 14,-3 6,0 11,1 15,3 4,2 8,5 10,8 2,4 4,8 4,12 l -10,1 c -1,-5 -2,-9 -5,-11 -3,-3 -8,-4 -14,-4 -6,0 -11,1 -14,3 -3,2 -4,5 -4,8 0,3 1,5 3,7 2,2 7,4 16,6 8,2 14,4 17,5 5,2 8,5 10,8 2,3 3,7 3,11 0,4 -1,8 -4,12 -2,4 -6,7 -10,9 -4,2 -10,3 -15,3 -7,0 -13,-1 -18,-3 -5,-2 -9,-5 -11,-9 -3,-4 -4,-9 -4,-14 z m 96,17 1,9 c -3,1 -5,1 -7,1 -3,0 -6,-1 -8,-2 -2,-1 -3,-3 -4,-4 -1,-2 -1,-6 -1,-11 v -33 h -7 v -7 h 7 v -14 l 10,-6 v 20 h 10 v 7 h -10 v 33 c 0,3 0,5 1,5 0,1 1,1 2,2 1,0 2,1 3,1 1,0 2,0 4,0 z m 47,1 c -4,3 -7,5 -10,6 -3,1 -7,2 -11,2 -6,0 -11,-2 -14,-5 -3,-3 -5,-7 -5,-12 0,-3 1,-5 2,-8 1,-2 3,-4 5,-6 2,-1 4,-2 7,-3 2,0 5,-1 9,-1 8,-1 14,-2 17,-3 0,-1 0,-2 0,-3 0,-4 -1,-7 -3,-8 -2,-2 -6,-3 -11,-3 -5,0 -8,1 -10,2 -2,2 -4,4 -5,8 l -9,-1 c 1,-4 2,-7 4,-10 2,-2 5,-4 9,-6 4,-1 8,-2 13,-2 5,0 9,1 12,2 3,1 5,3 7,4 1,2 2,4 3,7 0,2 0,5 0,9 v 13 c 0,9 0,15 1,17 0,2 1,5 2,7 h -10 c -1,-2 -2,-4 -2,-7 z m -1,-21 c -4,1 -9,3 -16,4 -4,1 -7,1 -8,2 -2,1 -3,2 -4,3 -1,1 -1,3 -1,5 0,3 1,5 3,6 2,2 5,3 9,3 4,0 7,-1 10,-2 3,-2 5,-4 6,-7 1,-2 2,-5 2,-10 v -4 z m 46,20 1,9 c -3,1 -5,1 -7,1 -3,0 -6,-1 -8,-2 -2,-1 -3,-3 -4,-4 -1,-2 -1,-6 -1,-11 v -33 h -7 v -7 h 7 v -14 l 10,-6 v 20 h 10 v 7 h -10 v 33 c 0,3 0,5 1,5 0,1 1,1 2,2 1,0 2,1 3,1 1,0 2,0 4,0 z m 48,-10 10,1 c -2,6 -4,10 -9,14 -4,3 -10,5 -16,5 -8,0 -15,-3 -20,-8 -5,-5 -7,-12 -7,-22 0,-10 2,-17 7,-22 5,-5 11,-8 19,-8 8,0 14,3 19,8 5,5 7,12 7,22 0,1 0,1 0,3 h -42 c 0,6 2,11 5,14 3,3 7,5 12,5 4,0 7,-1 9,-3 3,-2 4,-5 6,-9 z m -32,-15 h 32 c 0,-5 -2,-8 -4,-11 -3,-4 -7,-6 -12,-6 -4,0 -8,1 -11,4 -3,3 -5,7 -5,12 z m 72,57 c -5,-7 -10,-15 -13,-24 -4,-9 -6,-18 -6,-28 0,-9 1,-17 4,-24 3,-9 8,-18 15,-27 h 7 c -4,7 -7,13 -9,16 -2,5 -4,10 -5,15 -2,7 -2,13 -2,20 0,17 5,34 16,52 z m 63,-32 c -3,4 -7,6 -10,8 -4,2 -8,3 -12,3 -8,0 -14,-3 -19,-8 -4,-4 -6,-9 -6,-15 0,-5 2,-9 5,-13 3,-4 8,-7 14,-10 -4,-4 -6,-7 -7,-10 -1,-3 -2,-5 -2,-7 0,-5 2,-9 6,-12 4,-3 8,-5 14,-5 5,0 10,2 13,5 3,3 5,7 5,12 0,7 -5,14 -15,19 l 14,18 c 2,-3 3,-7 4,-11 l 10,2 c -2,7 -4,12 -7,17 4,5 8,9 12,12 l -6,8 c -4,-2 -8,-6 -12,-11 z m -20,-41 c 4,-2 7,-5 8,-7 1,-2 2,-4 2,-6 0,-3 -1,-5 -3,-7 -2,-2 -4,-3 -6,-3 -3,0 -5,1 -7,3 -2,2 -3,4 -3,6 0,1 0,3 1,4 1,1 2,3 3,4 l 4,5 z m 14,33 -18,-22 c -5,3 -9,6 -11,9 -2,3 -3,5 -3,8 0,3 1,6 4,10 3,3 6,5 11,5 3,0 6,-1 9,-3 3,-2 6,-4 7,-7 z m 55,28 v -10 c -5,-1 -9,-2 -12,-3 -3,-2 -6,-4 -8,-8 -2,-3 -3,-8 -4,-13 l 10,-2 c 1,5 2,9 4,11 3,3 6,5 10,6 v -30 c -4,-1 -8,-3 -12,-5 -3,-2 -5,-4 -7,-7 -2,-3 -2,-6 -2,-10 0,-7 2,-12 7,-17 3,-3 8,-5 14,-5 v -5 h 6 v 5 c 6,1 10,2 13,5 4,4 7,8 8,14 l -10,2 c -1,-4 -2,-7 -4,-9 -2,-2 -4,-3 -7,-4 v 28 c 5,1 8,2 10,3 3,1 5,3 7,5 2,2 3,4 4,7 1,3 2,5 2,8 0,7 -2,12 -6,17 -4,4 -10,7 -16,7 v 10 h -6 z m 0,-85 c -4,1 -7,2 -9,5 -2,2 -3,5 -3,9 0,3 1,6 3,8 2,2 5,4 9,5 v -26 z m 6,67 c 4,0 7,-2 9,-5 2,-3 4,-6 4,-10 0,-4 -1,-6 -3,-8 -2,-2 -5,-4 -10,-5 v 29 z m 35,28 v -79 h 9 v 7 c 2,-3 4,-5 7,-7 3,-1 6,-2 9,-2 5,0 9,1 13,4 4,2 7,6 8,11 2,5 3,10 3,15 0,6 -1,11 -3,16 -2,5 -5,8 -9,11 -4,2 -8,4 -13,4 -3,0 -6,-1 -9,-2 -3,-1 -5,-3 -6,-5 v 28 h -10 z m 9,-50 c 0,7 1,13 4,16 3,3 7,5 11,5 4,0 8,-2 11,-5 3,-4 5,-9 5,-17 0,-7 -1,-13 -4,-16 -3,-4 -7,-5 -11,-5 -4,0 -8,2 -11,6 -3,4 -5,9 -5,17 z m 90,21 c -4,3 -7,5 -10,6 -3,1 -7,2 -11,2 -6,0 -11,-2 -14,-5 -3,-3 -5,-7 -5,-12 0,-3 1,-5 2,-8 1,-2 3,-4 5,-6 2,-1 4,-2 7,-3 2,0 5,-1 9,-1 8,-1 14,-2 17,-3 0,-1 0,-2 0,-3 0,-4 -1,-7 -3,-8 -2,-2 -6,-3 -11,-3 -5,0 -8,1 -10,2 -2,2 -4,4 -5,8 l -9,-1 c 1,-4 2,-7 4,-10 2,-2 5,-4 9,-6 4,-1 8,-2 13,-2 5,0 9,1 12,2 3,1 5,3 7,4 1,2 2,4 3,7 0,2 0,5 0,9 v 13 c 0,9 0,15 1,17 0,2 1,5 2,7 h -10 c -1,-2 -2,-4 -2,-7 z m -1,-21 c -4,1 -9,3 -16,4 -4,1 -7,1 -8,2 -2,1 -3,2 -4,3 -1,1 -1,3 -1,5 0,3 1,5 3,6 2,2 5,3 9,3 4,0 7,-1 10,-2 3,-2 5,-4 6,-7 1,-2 2,-5 2,-10 v -4 z m 25,29 v -57 h 9 v 9 c 2,-4 4,-7 6,-8 2,-1 4,-2 6,-2 3,0 7,1 10,3 l -3,9 c -2,-1 -5,-2 -7,-2 -2,0 -4,1 -6,2 -2,1 -3,3 -4,5 -1,3 -2,7 -2,11 v 30 h -10 z m 74,-7 c -4,3 -7,5 -10,6 -3,1 -7,2 -11,2 -6,0 -11,-2 -14,-5 -3,-3 -5,-7 -5,-12 0,-3 1,-5 2,-8 1,-2 3,-4 5,-6 2,-1 4,-2 7,-3 2,0 5,-1 9,-1 8,-1 14,-2 17,-3 0,-1 0,-2 0,-3 0,-4 -1,-7 -3,-8 -2,-2 -6,-3 -11,-3 -5,0 -8,1 -10,2 -2,2 -4,4 -5,8 l -9,-1 c 1,-4 2,-7 4,-10 2,-2 5,-4 9,-6 4,-1 8,-2 13,-2 5,0 9,1 12,2 3,1 5,3 7,4 1,2 2,4 3,7 0,2 0,5 0,9 v 13 c 0,9 0,15 1,17 0,2 1,5 2,7 h -10 c -1,-2 -2,-4 -2,-7 z m -1,-21 c -4,1 -9,3 -16,4 -4,1 -7,1 -8,2 -2,1 -3,2 -4,3 -1,1 -1,3 -1,5 0,3 1,5 3,6 2,2 5,3 9,3 4,0 7,-1 10,-2 3,-2 5,-4 6,-7 1,-2 2,-5 2,-10 v -4 z m 25,29 v -57 h 9 v 8 c 2,-3 4,-5 7,-7 3,-2 6,-3 10,-3 4,0 8,1 10,3 3,2 5,4 6,7 5,-7 10,-10 18,-10 6,0 10,2 13,5 3,3 5,8 5,14 v 39 h -10 v -36 c 0,-4 0,-7 -1,-8 -1,-2 -2,-3 -3,-4 -2,-1 -4,-2 -6,-2 -4,0 -7,1 -10,4 -3,3 -4,7 -4,13 v 33 h -10 v -37 c 0,-4 -1,-8 -2,-10 -2,-2 -4,-3 -8,-3 -3,0 -5,1 -8,2 -2,1 -4,4 -5,6 -1,3 -2,7 -2,12 v 30 h -10 z m 88,-17 10,-2 c 1,4 2,7 4,9 2,2 6,3 10,3 4,0 8,-1 10,-3 2,-2 3,-4 3,-6 0,-2 -1,-4 -3,-5 -1,-1 -5,-2 -10,-3 -7,-2 -12,-3 -15,-5 -3,-1 -5,-3 -6,-5 -1,-2 -2,-5 -2,-8 0,-3 1,-5 2,-7 1,-2 3,-4 5,-5 2,-1 4,-2 6,-3 3,-1 5,-1 8,-1 4,0 8,1 12,2 3,1 6,3 7,5 2,2 3,5 3,9 l -9,1 c 0,-3 -2,-5 -4,-7 -2,-2 -5,-2 -9,-2 -4,0 -8,1 -9,2 -2,1 -3,3 -3,5 0,1 0,2 1,3 1,1 2,2 4,3 1,0 4,1 9,2 7,2 12,3 14,4 3,1 5,3 6,5 2,2 2,5 2,8 0,3 -1,6 -3,9 -2,3 -5,5 -8,7 -4,2 -8,2 -12,2 -7,0 -13,-2 -17,-5 -4,-3 -6,-8 -7,-14 z m 65,40 h -7 c 11,-17 16,-34 16,-52 0,-7 -1,-13 -2,-20 -1,-5 -3,-11 -5,-15 -1,-3 -4,-9 -9,-16 h 7 c 7,9 12,18 15,27 3,8 4,16 4,24 0,10 -2,19 -6,28 -4,9 -8,17 -13,24 z"
   id="path52" />
  <path
   class="fil5"
   d="m 744,2319 v -57 h 9 v 9 c 2,-4 4,-7 6,-8 2,-1 4,-2 6,-2 3,0 7,1 10,3 l -3,9 c -2,-1 -5,-2 -7,-2 -2,0 -4,1 -6,2 -2,1 -3,3 -4,5 -1,3 -2,7 -2,11 v 30 h -10 z m 76,-18 10,1 c -2,6 -4,10 -9,14 -4,3 -10,5 -16,5 -8,0 -15,-3 -20,-8 -5,-5 -7,-12 -7,-22 0,-10 2,-17 7,-22 5,-5 11,-8 19,-8 8,0 14,3 19,8 5,5 7,12 7,22 0,1 0,1 0,3 h -42 c 0,6 2,11 5,14 3,3 7,5 12,5 4,0 7,-1 9,-3 3,-2 4,-5 6,-9 z m -32,-15 h 32 c 0,-5 -2,-8 -4,-11 -3,-4 -7,-6 -12,-6 -4,0 -8,1 -11,4 -3,3 -5,7 -5,12 z m 54,34 v -57 h 9 v 8 c 4,-6 10,-9 18,-9 3,0 7,1 9,2 3,1 5,3 6,5 1,2 2,4 3,7 0,2 1,5 1,9 v 35 h -10 v -35 c 0,-4 0,-7 -1,-9 -1,-2 -2,-3 -4,-5 -2,-1 -4,-2 -7,-2 -4,0 -8,1 -11,4 -3,3 -4,8 -4,15 v 31 h -10 z m 98,0 v -7 c -4,6 -9,8 -16,8 -5,0 -9,-1 -12,-4 -4,-2 -7,-6 -9,-10 -2,-4 -3,-10 -3,-15 0,-6 1,-11 3,-15 2,-5 5,-8 9,-11 4,-2 8,-4 13,-4 3,0 6,1 9,2 3,1 5,3 7,6 v -28 h 10 v 79 h -9 z m -31,-28 c 0,7 2,13 5,16 3,4 7,5 11,5 4,0 8,-2 11,-5 3,-3 4,-9 4,-16 0,-8 -2,-13 -5,-17 -3,-4 -7,-5 -11,-5 -4,0 -8,2 -11,5 -3,3 -4,9 -4,17 z m 94,10 10,1 c -2,6 -4,10 -9,14 -4,3 -10,5 -16,5 -8,0 -15,-3 -20,-8 -5,-5 -7,-12 -7,-22 0,-10 2,-17 7,-22 5,-5 11,-8 19,-8 8,0 14,3 19,8 5,5 7,12 7,22 0,1 0,1 0,3 h -42 c 0,6 2,11 5,14 3,3 7,5 12,5 4,0 7,-1 9,-3 3,-2 4,-5 6,-9 z m -32,-15 h 32 c 0,-5 -2,-8 -4,-11 -3,-4 -7,-6 -12,-6 -4,0 -8,1 -11,4 -3,3 -5,7 -5,12 z m 54,34 v -57 h 9 v 9 c 2,-4 4,-7 6,-8 2,-1 4,-2 6,-2 3,0 7,1 10,3 l -3,9 c -2,-1 -5,-2 -7,-2 -2,0 -4,1 -6,2 -2,1 -3,3 -4,5 -1,3 -2,7 -2,11 v 30 h -10 z m 33,-64 2,-8 c 6,2 10,4 12,5 -1,-6 -1,-11 -1,-13 h 8 c 0,4 -1,8 -1,13 4,-2 8,-4 13,-5 l 2,8 c -5,2 -9,3 -13,3 2,2 5,5 9,10 l -6,5 c -2,-3 -5,-7 -7,-12 -3,5 -5,9 -7,12 l -6,-5 c 4,-5 7,-8 9,-10 -5,-1 -9,-2 -13,-3 z m 65,87 c -5,-7 -10,-15 -13,-24 -4,-9 -6,-18 -6,-28 0,-9 1,-17 4,-24 3,-9 8,-18 15,-27 h 7 c -4,7 -7,13 -9,16 -2,5 -4,10 -5,15 -2,7 -2,13 -2,20 0,17 5,34 16,52 z m 24,0 h -7 c 11,-17 16,-34 16,-52 0,-7 -1,-13 -2,-20 -1,-5 -3,-11 -5,-15 -1,-3 -4,-9 -9,-16 h 7 c 7,9 12,18 15,27 3,8 4,16 4,24 0,10 -2,19 -6,28 -4,9 -8,17 -13,24 z"
   id="path54" />
  <g
   id="g58">
   <path
   class="fil0"
   d="m 1641,943 v -11 h 22 v 11 z m -55,0 v -11 h 22 v 11 z m -55,0 v -11 h 22 v 11 z m -55,0 v -11 h 22 v 11 z m -55,0 v -11 h 22 v 11 z m -55,0 v -11 h 22 v 11 z m -55,0 v -11 h 22 v 11 z m -55,0 v -11 h 22 v 11 z m -55,0 v -11 h 22 v 11 z m -55,0 v -11 h 22 v 11 z m -55,0 v -11 h 22 v 11 z m -55,0 v -11 h 22 v 11 z m -55,0 v -11 h 22 v 11 z m -55,0 v -11 h 22 v 11 z m -55,0 v -11 h 22 v 11 z m -55,0 v -11 h 22 v 11 z m -55,0 v -11 h 22 v 11 z m -55,0 v -11 h 22 v 11 z m -55,0 v -11 h 22 v 11 z m -55,0 v -11 h 22 v 11 z m -55,0 v -11 h 22 v 11 z m -55,0 v -11 h 22 v 11 z m -55,0 v -11 h 22 v 11 z m -55,0 v -11 h 22 v 11 z m -55,0 v -11 h 22 v 11 z m -55,0 v -11 h 22 v 11 z m -55,0 v -11 h 22 v 11 z m -55,0 v -11 h 22 v 11 z m -55,0 v -11 h 22 v 11 z m -55,0 v -11 h 22 v 11 z m -55,0 v -11 h 22 v 11 z"
   id="path56" />
  </g>
  <g
   id="g62">
   <path
   class="fil0"
   d="m 1641,1657 v -11 h 22 v 11 z m -55,0 v -11 h 22 v 11 z m -55,0 v -11 h 22 v 11 z m -55,0 v -11 h 22 v 11 z m -55,0 v -11 h 22 v 11 z m -55,0 v -11 h 22 v 11 z m -55,0 v -11 h 22 v 11 z m -55,0 v -11 h 22 v 11 z m -55,0 v -11 h 22 v 11 z m -55,0 v -11 h 22 v 11 z m -55,0 v -11 h 22 v 11 z m -55,0 v -11 h 22 v 11 z m -55,0 v -11 h 22 v 11 z m -55,0 v -11 h 22 v 11 z m -55,0 v -11 h 22 v 11 z m -55,0 v -11 h 22 v 11 z m -55,0 v -11 h 22 v 11 z m -55,0 v -11 h 22 v 11 z m -55,0 v -11 h 22 v 11 z m -55,0 v -11 h 22 v 11 z m -55,0 v -11 h 22 v 11 z m -55,0 v -11 h 22 v 11 z m -55,0 v -11 h 22 v 11 z m -55,0 v -11 h 22 v 11 z m -55,0 v -11 h 22 v 11 z m -55,0 v -11 h 22 v 11 z m -55,0 v -11 h 22 v 11 z m -55,0 v -11 h 22 v 11 z m -55,0 v -11 h 22 v 11 z m -55,0 v -11 h 22 v 11 z m -55,0 v -11 h 22 v 11 z"
   id="path60" />
  </g>
  <path
   class="fil6"
   d="m 5,1518 v -26 h 50 c 5,0 10,1 14,2 4,2 8,4 12,7 3,3 6,7 7,10 2,5 3,11 3,18 0,4 0,9 -1,13 -1,5 -2,9 -3,12 -2,3 -4,6 -7,9 -3,3 -6,5 -10,6 -5,2 -10,2 -14,2 H 6 v -26 h 51 c 5,0 8,-1 11,-4 3,-3 4,-6 4,-11 0,-4 -1,-8 -4,-10 -3,-3 -6,-4 -11,-4 H 6 Z m 0,-44 v -26 h 84 v 26 z m 43,-103 -2,22 c -4,-1 -7,-2 -9,-4 -2,-2 -4,-4 -6,-7 -1,-2 -2,-5 -3,-9 -1,-4 -1,-8 -1,-12 0,-7 0,-13 1,-17 1,-4 2,-8 5,-11 2,-2 4,-4 7,-5 3,-1 6,-2 9,-2 h 27 c 3,0 5,0 7,-1 2,0 4,-1 6,-2 v 22 c -2,1 -3,1 -4,2 -1,0 -2,1 -4,1 3,3 5,6 6,9 2,4 3,9 3,14 0,7 -2,13 -5,16 -3,4 -8,6 -12,6 -5,0 -8,-1 -11,-4 -3,-3 -5,-8 -7,-15 -2,-9 -3,-14 -4,-17 -1,-3 -2,-5 -3,-8 -3,0 -5,1 -6,2 -1,1 -2,3 -2,6 0,4 1,7 2,9 1,1 3,3 5,4 z m 12,-20 c 1,3 2,7 3,10 1,5 3,8 4,9 1,1 3,2 4,2 2,0 3,-1 5,-2 1,-1 2,-3 2,-6 0,-3 -1,-5 -2,-7 -1,-2 -3,-4 -5,-5 -2,-1 -4,-1 -7,-1 z m 5,-82 2,-22 c 5,1 9,3 12,6 3,3 6,6 8,11 2,4 3,10 3,16 0,6 -1,12 -2,16 -1,4 -3,8 -6,11 -3,3 -6,5 -9,7 -4,2 -8,3 -14,3 -6,0 -11,-1 -16,-3 -3,-2 -6,-4 -8,-6 -2,-3 -4,-5 -5,-8 -2,-5 -3,-10 -3,-17 0,-10 2,-17 5,-23 4,-5 9,-9 16,-11 l 3,22 c -3,1 -5,2 -6,4 -1,2 -2,4 -2,7 0,4 1,7 4,9 3,2 7,4 13,4 5,0 9,-1 11,-4 3,-2 4,-5 4,-9 0,-3 -1,-6 -2,-8 -2,-2 -4,-4 -7,-5 z M 5,1208 h 23 v -13 h 17 v 13 h 21 c 3,0 4,0 5,-1 1,-1 2,-2 2,-4 0,-2 0,-4 -1,-7 l 16,-2 c 1,6 2,11 2,16 0,6 -1,10 -2,13 -1,3 -4,5 -7,6 -3,1 -8,2 -15,2 H 45 v 9 H 28 v -9 H 17 Z m 0,-25 v -23 h 16 v 23 z m 23,0 v -23 h 61 v 23 z m 30,-35 c -9,0 -17,-3 -23,-9 -6,-6 -9,-15 -9,-25 0,-12 4,-21 11,-27 6,-5 13,-7 21,-7 9,0 17,3 23,9 6,6 9,15 9,26 0,10 -2,18 -7,24 -6,7 -14,11 -24,11 z m 0,-23 c 5,0 9,-1 12,-3 3,-2 4,-5 4,-8 0,-3 -1,-6 -4,-8 -3,-2 -7,-3 -12,-3 -5,0 -9,1 -12,3 -3,2 -4,5 -4,8 0,3 1,6 4,8 3,2 7,3 12,3 z m -30,-57 v -22 h 10 c -4,-3 -7,-6 -9,-10 -2,-3 -3,-7 -3,-12 0,-6 2,-11 6,-15 4,-4 10,-5 18,-5 h 39 v 23 H 56 c -4,0 -7,1 -8,2 -2,1 -2,3 -2,6 0,3 1,5 3,7 2,2 6,3 11,3 h 29 v 23 z"
   id="path64" />
  <path
   class="fil6"
   d="M 88,2382 H 4 v -43 c 0,-8 1,-14 2,-18 1,-4 4,-8 8,-10 4,-3 8,-4 14,-4 5,0 9,1 12,3 3,2 6,5 8,8 1,2 2,5 3,9 1,-3 2,-5 3,-7 1,-1 2,-2 4,-4 2,-2 4,-3 5,-4 l 24,-13 v 29 l -26,14 c -3,2 -5,3 -6,5 -1,2 -2,4 -2,6 v 2 h 34 v 26 z m -50,-26 v -11 c 0,-1 0,-3 -1,-7 0,-2 -1,-3 -3,-4 -1,-1 -3,-2 -5,-2 -3,0 -5,1 -6,3 -1,2 -2,5 -2,10 v 11 z m 25,-127 v 47 c 4,0 7,-1 8,-3 3,-2 4,-5 4,-9 0,-2 -1,-4 -2,-7 -1,-1 -2,-3 -4,-4 l 2,-23 c 6,4 10,8 13,13 3,5 4,12 4,21 0,8 -1,14 -3,19 -2,5 -6,8 -11,11 -5,3 -11,5 -17,5 -9,0 -17,-3 -23,-9 -6,-6 -9,-14 -9,-25 0,-9 1,-16 4,-21 3,-5 6,-9 11,-11 5,-3 11,-4 19,-4 h 3 z m -11,24 c -5,0 -8,2 -10,4 -2,2 -3,5 -3,8 0,4 1,7 4,9 2,1 5,2 8,3 v -23 z m -25,-34 v -22 h 10 c -4,-3 -7,-6 -9,-10 -2,-3 -3,-7 -3,-12 0,-6 2,-11 6,-15 4,-4 10,-5 18,-5 h 39 v 23 H 55 c -4,0 -7,1 -8,2 -2,1 -2,3 -2,6 0,3 1,5 3,7 2,2 6,3 11,3 h 29 v 23 z M 4,2077 h 84 v 22 h -9 c 4,3 6,6 8,8 2,3 3,7 3,11 0,8 -3,15 -9,19 -6,4 -14,7 -23,7 -10,0 -18,-2 -23,-7 -5,-5 -8,-11 -8,-18 0,-4 1,-7 2,-10 1,-3 3,-6 5,-8 H 5 v -23 z m 53,23 c -5,0 -8,1 -11,3 -2,2 -4,5 -4,8 0,3 1,5 3,7 2,2 6,3 11,3 5,0 9,-1 11,-3 2,-2 3,-4 3,-7 0,-3 -1,-5 -3,-7 -2,-2 -6,-3 -11,-3 z m 6,-105 v 47 c 4,0 7,-1 8,-3 3,-2 4,-5 4,-9 0,-2 -1,-4 -2,-7 -1,-1 -2,-3 -4,-4 l 2,-23 c 6,4 10,8 13,13 3,5 4,12 4,21 0,8 -1,14 -3,19 -2,5 -6,8 -11,11 -5,3 -11,5 -17,5 -9,0 -17,-3 -23,-9 -6,-6 -9,-14 -9,-25 0,-9 1,-16 4,-21 3,-5 6,-9 11,-11 5,-3 11,-4 19,-4 h 3 z m -11,24 c -5,0 -8,2 -10,4 -2,2 -3,5 -3,8 0,4 1,7 4,9 2,1 5,2 8,3 v -23 z m -25,-34 v -22 h 10 c -4,-2 -7,-4 -9,-6 -2,-2 -2,-5 -2,-8 0,-3 1,-7 3,-11 l 16,7 c -1,3 -2,5 -2,7 0,3 1,5 4,7 4,2 10,4 20,4 h 20 v 23 H 26 Z M 4,1933 v -23 h 16 v 23 z m 23,0 v -23 h 61 v 23 z m 0,-38 v -22 h 10 c -4,-3 -7,-6 -9,-10 -2,-3 -3,-7 -3,-12 0,-6 2,-11 6,-15 4,-4 10,-5 18,-5 h 39 v 23 H 55 c -4,0 -7,1 -8,2 -2,1 -2,3 -2,6 0,3 1,5 3,7 2,2 6,3 11,3 h 29 v 23 z m 0,-120 v -22 h 57 3 c 4,0 7,1 11,2 3,2 6,4 8,6 2,3 4,6 5,10 1,4 1,9 1,14 0,12 -2,21 -5,25 -4,5 -9,7 -15,7 -1,0 -2,0 -3,0 l 3,-23 c 2,-1 4,-1 4,-3 1,-2 2,-4 2,-6 0,-3 -1,-6 -3,-7 -2,-2 -5,-2 -9,-2 h -9 c 3,2 5,5 6,7 2,4 3,7 3,12 0,8 -4,15 -11,20 -5,4 -12,5 -20,5 -9,0 -17,-2 -22,-7 -5,-5 -7,-11 -7,-18 0,-5 1,-9 2,-12 2,-3 4,-6 8,-9 h -9 z m 29,22 c 4,0 8,-1 10,-3 2,-2 3,-4 3,-7 0,-3 -1,-5 -3,-7 -2,-2 -5,-3 -10,-3 -4,0 -8,1 -10,3 -2,2 -4,5 -4,8 0,3 1,5 3,7 2,2 6,3 11,3 z"
   id="path66" />
  <g
   id="g72">
   <path
   class="fil7 str0"
   d="m 955,2623 c 37,0 67,30 67,67 0,37 -30,67 -67,67 -37,0 -67,-30 -67,-67 0,-37 30,-67 67,-67 z"
   id="path68" />
   <path
   class="fil8 str1"
   d="m 955,2638 c 29,0 53,24 53,53 0,29 -24,53 -53,53 -29,0 -53,-24 -53,-53 0,-29 24,-53 53,-53 z"
   id="path70" />
  </g>
  <path
   class="fil5"
   d="m 543,1341 v -79 h 10 v 28 c 4,-5 10,-8 17,-8 4,0 8,1 11,2 3,2 5,4 7,7 1,3 2,7 2,13 v 36 h -10 v -36 c 0,-5 -1,-8 -3,-11 -2,-2 -5,-3 -9,-3 -3,0 -6,1 -8,2 -3,1 -4,3 -5,6 -1,3 -2,6 -2,10 v 31 h -10 z m 98,-7 c -4,3 -7,5 -10,6 -3,1 -7,2 -11,2 -6,0 -11,-2 -14,-5 -3,-3 -5,-7 -5,-12 0,-3 1,-5 2,-8 1,-2 3,-4 5,-6 2,-1 4,-2 7,-3 2,0 5,-1 9,-1 8,-1 14,-2 17,-3 0,-1 0,-2 0,-3 0,-4 -1,-7 -3,-8 -2,-2 -6,-3 -11,-3 -5,0 -8,1 -10,2 -2,2 -4,4 -5,8 l -9,-1 c 1,-4 2,-7 4,-10 2,-2 5,-4 9,-6 4,-1 8,-2 13,-2 5,0 9,1 12,2 3,1 5,3 7,4 1,2 2,4 3,7 0,2 0,5 0,9 v 13 c 0,9 0,15 1,17 0,2 1,5 2,7 h -10 c -1,-2 -2,-4 -2,-7 z m -1,-21 c -4,1 -9,3 -16,4 -4,1 -7,1 -8,2 -2,1 -3,2 -4,3 -1,1 -1,3 -1,5 0,3 1,5 3,6 2,2 5,3 9,3 4,0 7,-1 10,-2 3,-2 5,-4 6,-7 1,-2 2,-5 2,-10 v -4 z m 25,29 v -57 h 9 v 8 c 4,-6 10,-9 18,-9 3,0 7,1 9,2 3,1 5,3 6,5 1,2 2,4 3,7 0,2 1,5 1,9 v 35 h -10 v -35 c 0,-4 0,-7 -1,-9 -1,-2 -2,-3 -4,-5 -2,-1 -4,-2 -7,-2 -4,0 -8,1 -11,4 -3,3 -4,8 -4,15 v 31 h -10 z m 98,0 v -7 c -4,6 -9,8 -16,8 -5,0 -9,-1 -12,-4 -4,-2 -7,-6 -9,-10 -2,-4 -3,-10 -3,-15 0,-6 1,-11 3,-15 2,-5 5,-8 9,-11 4,-2 8,-4 13,-4 3,0 6,1 9,2 3,1 5,3 7,6 v -28 h 10 v 79 h -9 z m -31,-28 c 0,7 2,13 5,16 3,4 7,5 11,5 4,0 8,-2 11,-5 3,-3 4,-9 4,-16 0,-8 -2,-13 -5,-17 -3,-4 -7,-5 -11,-5 -4,0 -8,2 -11,5 -3,3 -4,9 -4,17 z m 55,28 v -79 h 10 v 79 z m 63,-18 10,1 c -2,6 -4,10 -9,14 -4,3 -10,5 -16,5 -8,0 -15,-3 -20,-8 -5,-5 -7,-12 -7,-22 0,-10 2,-17 7,-22 5,-5 11,-8 19,-8 8,0 14,3 19,8 5,5 7,12 7,22 0,1 0,1 0,3 h -42 c 0,6 2,11 5,14 3,3 7,5 12,5 4,0 7,-1 9,-3 3,-2 4,-5 6,-9 z m -32,-15 h 32 c 0,-5 -2,-8 -4,-11 -3,-4 -7,-6 -12,-6 -4,0 -8,1 -11,4 -3,3 -5,7 -5,12 z m 53,0 v -9 l 52,-22 v 10 l -41,17 41,17 v 10 l -52,-22 z m 63,9 10,-1 c 0,4 2,7 3,10 2,3 4,5 8,6 4,2 8,2 12,2 4,0 7,-1 11,-2 3,-1 5,-3 7,-5 1,-2 2,-4 2,-7 0,-2 -1,-5 -2,-6 -1,-2 -4,-3 -7,-5 -2,-1 -7,-2 -14,-4 -7,-2 -12,-3 -15,-5 -4,-2 -7,-4 -8,-7 -2,-3 -3,-6 -3,-10 0,-4 1,-8 3,-11 2,-3 6,-6 10,-8 4,-2 9,-3 14,-3 6,0 11,1 15,3 4,2 8,5 10,8 2,4 4,8 4,12 l -10,1 c -1,-5 -2,-9 -5,-11 -3,-3 -8,-4 -14,-4 -6,0 -11,1 -14,3 -3,2 -4,5 -4,8 0,3 1,5 3,7 2,2 7,4 16,6 8,2 14,4 17,5 5,2 8,5 10,8 2,3 3,7 3,11 0,4 -1,8 -4,12 -2,4 -6,7 -10,9 -4,2 -10,3 -15,3 -7,0 -13,-1 -18,-3 -5,-2 -9,-5 -11,-9 -3,-4 -4,-9 -4,-14 z m 75,-42 v -11 h 10 v 11 z m 0,68 v -57 h 10 v 57 z m 23,5 9,1 c 0,3 1,5 3,6 2,2 6,3 10,3 4,0 8,-1 10,-3 2,-2 4,-4 5,-7 0,-2 1,-6 1,-12 -4,5 -9,7 -16,7 -8,0 -14,-3 -18,-8 -4,-6 -6,-12 -6,-20 0,-5 1,-10 3,-15 2,-5 5,-8 9,-11 4,-3 8,-4 13,-4 7,0 12,3 17,8 v -7 h 9 v 49 c 0,9 -1,15 -3,19 -2,4 -5,7 -9,9 -4,2 -9,3 -14,3 -7,0 -12,-2 -16,-5 -4,-3 -6,-8 -6,-14 z m 8,-34 c 0,7 1,13 4,16 3,3 7,5 11,5 4,0 8,-2 11,-5 3,-3 5,-9 5,-16 0,-7 -2,-12 -5,-16 -3,-4 -7,-5 -11,-5 -4,0 -8,2 -11,5 -3,3 -5,9 -5,16 z m 55,29 v -57 h 9 v 8 c 4,-6 10,-9 18,-9 3,0 7,1 9,2 3,1 5,3 6,5 1,2 2,4 3,7 0,2 1,5 1,9 v 35 h -10 v -35 c 0,-4 0,-7 -1,-9 -1,-2 -2,-3 -4,-5 -2,-1 -4,-2 -7,-2 -4,0 -8,1 -11,4 -3,3 -4,8 -4,15 v 31 h -10 z m 98,-7 c -4,3 -7,5 -10,6 -3,1 -7,2 -11,2 -6,0 -11,-2 -14,-5 -3,-3 -5,-7 -5,-12 0,-3 1,-5 2,-8 1,-2 3,-4 5,-6 2,-1 4,-2 7,-3 2,0 5,-1 9,-1 8,-1 14,-2 17,-3 0,-1 0,-2 0,-3 0,-4 -1,-7 -3,-8 -2,-2 -6,-3 -11,-3 -5,0 -8,1 -10,2 -2,2 -4,4 -5,8 l -9,-1 c 1,-4 2,-7 4,-10 2,-2 5,-4 9,-6 4,-1 8,-2 13,-2 5,0 9,1 12,2 3,1 5,3 7,4 1,2 2,4 3,7 0,2 0,5 0,9 v 13 c 0,9 0,15 1,17 0,2 1,5 2,7 h -10 c -1,-2 -2,-4 -2,-7 z m -1,-21 c -4,1 -9,3 -16,4 -4,1 -7,1 -8,2 -2,1 -3,2 -4,3 -1,1 -1,3 -1,5 0,3 1,5 3,6 2,2 5,3 9,3 4,0 7,-1 10,-2 3,-2 5,-4 6,-7 1,-2 2,-5 2,-10 v -4 z m 24,29 v -79 h 10 v 79 z m 75,-34 -52,22 v -10 l 41,-17 -41,-17 v -10 l 52,22 v 9 z m 32,57 c -5,-7 -10,-15 -13,-24 -4,-9 -6,-18 -6,-28 0,-9 1,-17 4,-24 3,-9 8,-18 15,-27 h 7 c -4,7 -7,13 -9,16 -2,5 -4,10 -5,15 -2,7 -2,13 -2,20 0,17 5,34 16,52 z m 24,0 h -7 c 11,-17 16,-34 16,-52 0,-7 -1,-13 -2,-20 -1,-5 -3,-11 -5,-15 -1,-3 -4,-9 -9,-16 h 7 c 7,9 12,18 15,27 3,8 4,16 4,24 0,10 -2,19 -6,28 -4,9 -8,17 -13,24 z"
   id="path74" />
  <line
   class="fil9 str2"
   x1="955"
   y1="106"
   x2="955"
   y2="106"
   id="line76" />
  <line
   class="fil9 str2"
   x1="955"
   y1="106"
   x2="955"
   y2="106"
   id="line78" />
  <line
   class="fil9 str2"
   x1="955"
   y1="106"
   x2="955"
   y2="106"
   id="line80" />
  <g
   id="g84">
   <path
   class="fil0"
   d="M 950,213 V 106 h 11 v 107 z m 5,38 -33,-76 2,1 2,1 2,1 2,1 2,1 2,1 2,1 2,1 h 2 2 2 2 2 2 2 2 2 2 2 2 2 2 2 2 l 2,-1 2,-1 2,-1 2,-1 2,-1 2,-1 2,-1 2,-1 v 0 l -32,76 z"
   id="path82" />
  </g>
  <path
   class="fil8 str3"
   d="m 955,1 c 29,0 53,24 53,53 0,29 -24,53 -53,53 -29,0 -53,-24 -53,-53 0,-29 24,-53 53,-53 z"
   id="path86" />
  <g
   id="g92"
   style="filter:url(#filter657)">
   <path
   class="fil4"
   d="m 741,242 h 429 c 46,0 83,37 83,83 v 0 c 0,46 -37,83 -83,83 H 741 c -46,0 -83,-37 -83,-83 v 0 c 0,-46 37,-83 83,-83 z"
   id="path88" />
   <path
   id="path90"
   class="fil2"
   d="M 1170,247 H 741 v -10 h 429 v 0 z m 86,78 h -7 v 0 -4 -4 -4 l -1,-4 -1,-4 -1,-4 -1,-4 -1,-3 -2,-3 -2,-3 -2,-3 -2,-3 -2,-3 -2,-3 -2,-3 -3,-3 -3,-3 -3,-3 -3,-2 -3,-2 -3,-2 -3,-2 -3,-2 -4,-2 -4,-1 -4,-1 -4,-1 -4,-1 -4,-1 -4,-1 h -4 -4 v -10 h 4 4 l 4,1 4,1 4,1 4,1 4,1 4,2 4,2 4,2 4,2 3,2 3,2 3,3 3,3 3,3 3,3 3,3 3,3 2,3 2,4 2,4 2,4 2,4 2,4 1,4 1,4 1,4 1,4 1,5 v 5 5 0 z m -7,0 v 0 h 7 v 0 0 z m -80,88 v -10 0 h 4 4 l 4,-1 4,-1 4,-1 4,-1 4,-1 4,-1 4,-2 3,-2 3,-2 3,-2 3,-2 3,-2 3,-3 3,-3 3,-3 2,-3 2,-3 2,-3 2,-3 2,-3 2,-3 2,-3 1,-3 1,-4 1,-4 1,-4 1,-4 v -4 -4 -4 h 7 v 5 5 l -1,5 -1,4 -1,4 -1,4 -1,4 -2,4 -2,4 -2,4 -2,4 -2,4 -2,3 -3,3 -3,3 -3,3 -3,3 -3,3 -3,3 -3,2 -3,2 -4,2 -4,2 -4,2 -4,2 -4,1 -4,1 -4,1 -4,1 -4,1 h -4 -4 v 0 z M 740,403 h 429 v 10 H 740 v 0 z m -86,-78 h 7 v 0 4 4 4 l 1,4 1,4 1,4 1,4 1,3 2,3 2,3 2,3 2,3 2,3 2,3 2,3 3,3 3,3 3,3 3,2 3,2 3,2 3,2 3,2 4,2 4,1 4,1 4,1 4,1 4,1 4,1 h 4 4 v 10 h -4 -4 l -4,-1 -4,-1 -4,-1 -4,-1 -4,-1 -4,-2 -4,-2 -4,-2 -4,-2 -3,-2 -3,-2 -3,-3 -3,-3 -3,-3 -3,-3 -3,-3 -3,-3 -2,-3 -2,-4 -2,-4 -2,-4 -2,-4 -2,-4 -1,-4 -1,-4 -1,-4 -1,-4 -1,-5 v -5 -5 0 z m 7,0 v 0 h -7 v 0 0 z m 80,-88 v 10 0 h -4 -4 l -4,1 -4,1 -4,1 -4,1 -4,1 -4,1 -4,2 -3,2 -3,2 -3,2 -3,2 -3,2 -3,3 -3,3 -3,3 -2,3 -2,3 -2,3 -2,3 -2,3 -2,3 -2,3 -1,3 -1,4 -1,4 -1,4 -1,4 v 4 4 4 h -7 v -5 -5 l 1,-5 1,-4 1,-4 1,-4 1,-4 2,-4 2,-4 2,-4 2,-4 2,-4 2,-3 3,-3 3,-3 3,-3 3,-3 3,-3 3,-3 3,-2 3,-2 4,-2 4,-2 4,-2 4,-2 4,-1 4,-1 4,-1 4,-1 4,-1 h 4 4 v 0 z" />
  </g>
  <path
   class="fil0"
   d="m 729,368 v -5 h 45 v 5 z m 43,0 v -5 h 45 v 5 z m 76,-30 7,1 c -1,5 -3,8 -6,11 -3,3 -7,4 -11,4 -6,0 -10,-2 -13,-5 -3,-4 -5,-9 -5,-15 0,-4 1,-8 2,-11 1,-3 4,-6 7,-7 3,-2 6,-2 10,-2 4,0 8,1 11,3 3,2 5,5 5,9 l -7,1 c -1,-3 -2,-5 -3,-6 -2,-1 -4,-2 -6,-2 -3,0 -6,1 -8,4 -2,2 -3,6 -3,12 0,5 1,9 3,12 2,2 5,4 8,4 3,0 5,-1 7,-2 2,-2 3,-4 3,-8 z m 10,-5 c 0,-7 2,-13 6,-17 3,-3 8,-4 13,-4 6,0 10,2 14,5 4,4 5,9 5,15 0,5 -1,9 -2,12 -2,3 -4,5 -7,7 -3,2 -6,2 -10,2 -6,0 -10,-2 -14,-5 -3,-4 -5,-9 -5,-16 z m 7,0 c 0,5 1,9 3,12 2,3 5,4 9,4 3,0 6,-1 8,-4 2,-3 3,-7 3,-12 0,-5 -1,-9 -3,-11 -2,-3 -5,-4 -8,-4 -3,0 -6,1 -9,4 -2,3 -3,6 -3,12 z m 39,20 v -40 h 6 v 6 c 3,-4 7,-7 13,-7 2,0 5,0 7,1 2,1 4,2 5,3 1,1 2,3 2,5 0,1 0,3 0,7 v 25 h -7 v -25 c 0,-3 0,-5 -1,-6 -1,-1 -1,-2 -3,-3 -1,-1 -3,-1 -5,-1 -3,0 -5,1 -8,3 -2,2 -3,5 -3,11 v 22 h -7 z m 40,-12 7,-1 c 0,3 1,5 3,6 2,1 4,2 7,2 3,0 5,-1 7,-2 2,-1 2,-3 2,-4 0,-2 -1,-3 -2,-4 -1,-1 -3,-1 -7,-2 -5,-1 -8,-2 -10,-3 -2,-1 -3,-2 -4,-4 -1,-2 -2,-3 -2,-5 0,-2 0,-3 1,-5 1,-2 2,-3 3,-4 1,-1 3,-1 4,-2 2,-1 4,-1 6,-1 3,0 6,0 8,1 2,1 4,2 5,4 1,2 2,4 2,6 l -7,1 c 0,-2 -1,-4 -3,-5 -1,-1 -3,-2 -6,-2 -3,0 -5,1 -7,2 -1,1 -2,2 -2,4 0,1 0,2 1,2 1,1 1,1 3,2 1,0 3,1 6,2 5,1 8,2 10,3 2,1 3,2 5,4 1,2 2,4 2,6 0,2 -1,4 -2,6 -1,2 -3,4 -6,5 -3,1 -5,2 -9,2 -5,0 -9,-1 -12,-3 -3,-2 -4,-5 -5,-10 z m 56,6 1,6 c -2,0 -4,1 -5,1 -2,0 -4,0 -6,-1 -1,-1 -2,-2 -3,-3 -1,-1 -1,-4 -1,-8 v -23 h -5 v -5 h 5 v -10 l 7,-4 v 14 h 7 v 5 h -7 v 24 c 0,2 0,3 0,4 0,1 1,1 1,1 1,0 1,0 2,0 1,0 2,0 3,0 z m 7,6 v -40 h 6 v 6 c 2,-3 3,-5 4,-6 1,-1 3,-1 4,-1 2,0 5,1 7,2 l -2,6 c -2,-1 -3,-1 -5,-1 -1,0 -3,0 -4,1 -1,1 -2,2 -3,4 -1,2 -1,5 -1,8 v 21 h -7 z m 52,0 v -6 c -3,5 -7,7 -13,7 -2,0 -5,0 -7,-1 -2,-1 -4,-2 -5,-3 -1,-1 -2,-3 -2,-5 0,-1 0,-3 0,-6 v -25 h 7 v 22 c 0,4 0,6 0,7 0,2 1,3 3,4 1,1 3,2 5,2 2,0 4,-1 6,-2 2,-1 3,-2 4,-4 1,-2 1,-4 1,-8 v -22 h 7 v 40 z m 43,-15 7,1 c -1,5 -3,8 -6,11 -3,3 -7,4 -11,4 -6,0 -10,-2 -13,-5 -3,-4 -5,-9 -5,-15 0,-4 1,-8 2,-11 1,-3 4,-6 7,-7 3,-2 6,-2 10,-2 4,0 8,1 11,3 3,2 5,5 5,9 l -7,1 c -1,-3 -2,-5 -3,-6 -2,-1 -4,-2 -6,-2 -3,0 -6,1 -8,4 -2,2 -3,6 -3,12 0,5 1,9 3,12 2,2 5,4 8,4 3,0 5,-1 7,-2 2,-2 3,-4 3,-8 z m 27,9 1,6 c -2,0 -4,1 -5,1 -2,0 -4,0 -6,-1 -1,-1 -2,-2 -3,-3 -1,-1 -1,-4 -1,-8 v -23 h -5 v -5 h 5 v -10 l 7,-4 v 14 h 7 v 5 h -7 v 24 c 0,2 0,3 0,4 0,1 1,1 1,1 1,0 1,0 2,0 1,0 2,0 3,0 z m 20,22 c -4,-5 -7,-10 -10,-17 -3,-6 -4,-13 -4,-20 0,-6 1,-12 3,-17 2,-6 6,-13 11,-19 h 5 c -3,5 -5,9 -6,11 -2,3 -3,7 -4,11 -1,5 -2,9 -2,14 0,12 4,24 11,36 h -5 z m 17,0 h -5 c 8,-12 11,-24 11,-36 0,-5 -1,-9 -2,-14 -1,-4 -2,-7 -4,-11 -1,-2 -3,-6 -6,-11 h 5 c 5,6 8,13 11,19 2,6 3,11 3,17 0,7 -1,13 -4,20 -3,6 -6,12 -10,17 z"
   id="path94" />
 </g>
</svg>
